<svg width="20" height="19" viewBox="0 0 20 19" fill="none" xmlns="http://www.w3.org/2000/svg">
<path d="M14.1821 0.849609C17.2592 0.849609 18.9963 2.5949 19.0054 5.67199V14.1225C19.0054 17.1987 17.2592 18.9448 14.1821 18.9448H5.73254C2.65544 18.9448 0.910156 17.1987 0.910156 14.1225V5.67199C0.910156 2.5949 2.65544 0.849609 5.73254 0.849609H14.1821ZM10.4102 4.58628C10.1559 4.43247 9.8483 4.43247 9.60492 4.58628C9.35973 4.73918 9.22492 5.02056 9.25116 5.30104V14.5206C9.2973 14.9096 9.62211 15.1991 10.0021 15.1991C10.3921 15.1991 10.7169 14.9096 10.7531 14.5206V5.30104C10.7893 5.02056 10.6544 4.73918 10.4102 4.58628ZM6.18492 7.55389C5.94063 7.40009 5.63211 7.40009 5.38873 7.55389C5.14354 7.7077 5.00873 7.98728 5.03587 8.26866V14.5206C5.07116 14.9096 5.39687 15.1991 5.78592 15.1991C6.17587 15.1991 6.50068 14.9096 6.53687 14.5206V8.26866C6.56492 7.98728 6.4283 7.7077 6.18492 7.55389ZM14.5621 10.8382C14.3187 10.6844 14.0111 10.6844 13.7578 10.8382C13.5126 10.992 13.3778 11.2625 13.414 11.5529V14.5206C13.4502 14.9096 13.775 15.1991 14.1649 15.1991C14.5449 15.1991 14.8697 14.9096 14.9159 14.5206V11.5529C14.9421 11.2625 14.8073 10.992 14.5621 10.8382Z" fill="white"/>
</svg>
