<svg width="24" height="24" viewBox="0 0 24 24" fill="none" xmlns="http://www.w3.org/2000/svg">
<path fill-rule="evenodd" clip-rule="evenodd" d="M8.68207 6.2613C8.03224 6.98611 7.70621 7.91832 7.46152 8.77472C7.33887 9.20402 6.94648 9.5 6.5 9.5C6.16064 9.5 5.22479 9.64813 4.405 10.1605C3.64042 10.6384 3 11.407 3 12.75C3 13.949 3.44459 14.5727 3.95421 14.9348C4.5186 15.3358 5.28935 15.5 6 15.5C6.55228 15.5 7 15.9477 7 16.5C7 17.0523 6.55228 17.5 6 17.5C5.04398 17.5 3.81473 17.2892 2.79579 16.5652C1.72207 15.8023 1 14.551 1 12.75C1 10.593 2.10958 9.23664 3.345 8.4645C4.16661 7.951 5.05313 7.68502 5.7389 7.5708C6.01051 6.75488 6.43542 5.77112 7.19293 4.9262C8.20887 3.79304 9.73713 3 12 3C13.952 3 15.4343 3.56263 16.5097 4.44602C17.3699 5.15262 17.9234 6.02592 18.2588 6.87705C18.3231 6.89241 18.3911 6.90958 18.4625 6.92874C18.9428 7.05773 19.5937 7.2824 20.2539 7.66747C21.6049 8.45558 23 9.93442 23 12.5C23 14.2405 22.4082 15.5449 21.3902 16.3932C20.4043 17.2148 19.1486 17.5 18 17.5C17.4477 17.5 17 17.0523 17 16.5C17 15.9477 17.4477 15.5 18 15.5C18.8514 15.5 19.5957 15.2852 20.1098 14.8568C20.5918 14.4551 21 13.7595 21 12.5C21 10.8156 20.1451 9.91942 19.2461 9.39503C18.7813 9.12385 18.3072 8.95789 17.9438 8.86032C17.764 8.81205 17.6164 8.78187 17.5176 8.76421C17.4683 8.75541 17.4315 8.74979 17.4094 8.74664L17.3876 8.74368L17.388 8.7437L17.3887 8.74379C17.3878 8.74368 17.3868 8.74357 17.3859 8.74346C17.3862 8.74351 17.3868 8.74358 17.3876 8.74368L17.3867 8.74356L17.3855 8.74342L17.3854 8.74341C17.3854 8.74341 17.3855 8.74343 17.3858 8.74346C16.9841 8.69731 16.6496 8.41372 16.5385 8.02472C16.3318 7.30127 15.9264 6.5551 15.2403 5.99148C14.5657 5.43737 13.548 5 12 5C10.2629 5 9.29113 5.58196 8.68207 6.2613Z" fill="white"/>
<path fill-rule="evenodd" clip-rule="evenodd" d="M16.6247 13.2192C17.056 13.5642 17.1259 14.1935 16.7809 14.6247L12.7809 19.6247C12.613 19.8345 12.3678 19.968 12.1005 19.995C11.8332 20.022 11.5662 19.9403 11.3598 19.7683L8.35984 17.2683C7.93556 16.9147 7.87824 16.2841 8.2318 15.8599C8.58537 15.4356 9.21593 15.3783 9.64021 15.7318L11.8565 17.5787L15.2192 13.3753C15.5642 12.9441 16.1935 12.8742 16.6247 13.2192Z" fill="white"/>
</svg>
