<svg width="12" height="14" viewBox="0 0 12 14" fill="none" xmlns="http://www.w3.org/2000/svg">
<path d="M8.16 0.417969H5.564C4.388 0.417969 3.456 0.417969 2.72733 0.516635C1.97667 0.617969 1.36933 0.831302 0.890667 1.31197C0.411333 1.79264 0.198667 2.40264 0.098 3.15597C4.96705e-08 3.88797 0 4.8233 0 6.00397V9.89597C0 10.9013 0.613333 11.7626 1.48467 12.124C1.44 11.5173 1.44 10.6673 1.44 9.9593V6.6193C1.44 5.7653 1.44 5.02864 1.51867 4.4393C1.60333 3.8073 1.794 3.20197 2.28333 2.71064C2.77267 2.2193 3.376 2.02797 4.00533 1.94264C4.592 1.86397 5.32533 1.86397 6.17667 1.86397H8.22333C9.074 1.86397 9.806 1.86397 10.3933 1.94264C10.2173 1.49355 9.91012 1.1079 9.51176 0.83594C9.11339 0.563982 8.64234 0.418331 8.16 0.417969Z" fill="white"/>
<path d="M2.39844 6.68346C2.39844 4.86613 2.39844 3.95746 2.9611 3.39279C3.5231 2.82813 4.42777 2.82812 6.23844 2.82812H8.15844C9.96844 2.82812 10.8738 2.82813 11.4364 3.39279C11.9984 3.95746 11.9984 4.86613 11.9984 6.68346V9.89679C11.9984 11.7141 11.9984 12.6228 11.4364 13.1875C10.8738 13.7521 9.96844 13.7521 8.15844 13.7521H6.23844C4.42844 13.7521 3.5231 13.7521 2.9611 13.1875C2.39844 12.6228 2.39844 11.7141 2.39844 9.89679V6.68346Z" fill="white"/>
</svg>
