<svg width="120" height="120" viewBox="0 0 120 120" fill="none" xmlns="http://www.w3.org/2000/svg">
<rect width="120" height="120" rx="60" fill="#F5F5F5"/>
<path d="M37.7685 76.7373C37.8285 77.7962 38.7047 78.6242 39.7653 78.6242H81.8976C82.9559 78.6242 83.831 77.7997 83.894 76.7433L85.1151 56.2741C85.1837 55.1248 84.27 54.155 83.1186 54.155H38.6053C37.4563 54.155 36.5435 55.121 36.6085 56.2682L37.7685 76.7373Z" fill="#BA831D"/>
<path d="M59.4057 57.4175C59.4057 60.4576 56.3404 62.9787 52.4723 62.9787L38.771 63.1087C37.6994 63.1189 36.8101 62.2826 36.7547 61.2123L36.379 53.9598C36.3197 52.8161 37.2311 51.8563 38.3763 51.8563H52.5453C56.3404 51.9305 59.4057 54.3774 59.4057 57.4175Z" fill="#BA831D"/>
<path d="M82.1467 56.7502H39.5835C38.4789 56.7502 37.5835 57.6457 37.5835 58.7502V74.029C37.5835 75.1335 38.4789 76.029 39.5835 76.029H82.1467C83.2513 76.029 84.1467 75.1335 84.1467 74.029V58.7502C84.1467 57.6457 83.2513 56.7502 82.1467 56.7502Z" fill="#097035"/>
<path d="M82.2202 48.4164H40.5327C39.4281 48.4164 38.5327 49.3118 38.5327 50.4164V65.6951C38.5327 66.7997 39.4281 67.6951 40.5327 67.6951H82.2202C83.3247 67.6951 84.2202 66.7997 84.2202 65.6951V50.4164C84.2202 49.3118 83.3247 48.4164 82.2202 48.4164Z" fill="#008444"/>
<path d="M42.0332 61.8967C42.0332 62.8615 42.8006 63.6778 43.7074 63.6778H80.1218C81.0286 63.6778 81.796 62.8615 81.796 61.8967V37.6292C81.796 36.6645 81.0286 35.8481 80.1218 35.8481H43.7074C42.8006 35.8481 42.0332 36.6645 42.0332 37.6292V61.8967Z" fill="#24B1E7"/>
<path d="M77.4321 38.4434C77.4321 38.8883 77.797 39.3332 78.3079 39.3332C78.8188 39.3332 79.1837 38.9624 79.1837 38.4434C79.1837 37.9243 78.8188 37.5536 78.3079 37.5536C77.797 37.5536 77.4321 37.9243 77.4321 38.4434Z" fill="#0079A4"/>
<path d="M75.2427 38.4434C75.2427 38.8883 75.6076 39.3332 76.1185 39.3332C76.5564 39.3332 76.9943 38.9624 76.9943 38.4434C76.9943 37.9243 76.6294 37.5536 76.1185 37.5536C75.6076 37.5536 75.2427 37.9243 75.2427 38.4434Z" fill="#0079A4"/>
<path d="M73.1265 38.4434C73.1265 38.8883 73.4914 39.3332 74.0023 39.3332C74.5131 39.3332 74.8781 38.9624 74.8781 38.4434C74.8781 37.9243 74.5131 37.5536 74.0023 37.5536C73.4914 37.5536 73.1265 37.9243 73.1265 38.4434Z" fill="#0079A4"/>
<path d="M47.5381 43.9286C47.5381 45.0001 48.4169 46.0715 49.6473 46.0715C50.8776 46.0715 51.7564 45.1786 51.7564 43.9286C51.7564 42.6786 50.8776 41.7858 49.6473 41.7858C48.4169 41.7858 47.5381 42.6786 47.5381 43.9286Z" fill="#0079A4"/>
<rect x="47.5381" y="55.7144" width="25.6249" height="2.14286" rx="1" fill="#0079A4"/>
<rect x="47.5381" y="51.4286" width="28.4738" height="2.14286" rx="1" fill="#0079A4"/>
<rect x="47.5381" y="47.1429" width="28.4738" height="2.14286" rx="1" fill="#0079A4"/>
<path d="M85.3147 60.7543V59.2312C85.3147 57.5743 83.9715 56.2312 82.3147 56.2312H72.5009C70.1487 56.2312 69.6657 57.1004 69.4034 58.4571C69.1427 59.8055 68.0218 60.7543 66.6484 60.7543H38.0676C36.3405 60.7543 34.9701 62.2089 35.0729 63.9329L36.1747 82.4021C36.2692 83.9867 37.5819 85.2234 39.1693 85.2234H82.3147C83.9715 85.2234 85.3147 83.8803 85.3147 82.2234V67.5018V60.7543Z" fill="#BA831D"/>
<path d="M83.5474 60.7543V59.2312C83.5474 57.5743 82.2043 56.2312 80.5474 56.2312H72.5009C70.1487 56.2312 69.6657 57.1004 69.4034 58.4571C69.1427 59.8055 68.0218 60.7543 66.6484 60.7543H37.8833C36.2264 60.7543 34.8833 62.0974 34.8833 63.7543V82.2234C34.8833 83.8803 36.2264 85.2234 37.8833 85.2234H80.5474C82.2043 85.2234 83.5474 83.8803 83.5474 82.2234V67.5018V60.7543Z" fill="#FDBE21"/>
<path d="M85.4322 62.7553C88.1698 60.3989 88.509 56.2339 86.1897 53.4525C83.8704 50.6711 79.7709 50.3265 77.0332 52.6829C74.2955 55.0393 73.9564 59.2042 76.2757 61.9857C78.595 64.7671 82.6945 65.1116 85.4322 62.7553Z" fill="#EF5350"/>
<path d="M81.2328 62.5456C83.8531 62.5456 85.9773 60.3875 85.9773 57.7253C85.9773 55.0631 83.8531 52.905 81.2328 52.905C78.6125 52.905 76.4883 55.0631 76.4883 57.7253C76.4883 60.3875 78.6125 62.5456 81.2328 62.5456Z" fill="#EF5350"/>
<path d="M82.9292 60.1062C82.7567 60.1062 82.5986 60.0478 82.4692 59.9163L81.2184 58.6455L79.9675 59.9163C79.565 60.3253 78.8749 60.0332 78.8749 59.4489C78.8749 59.2736 78.9324 59.1129 79.0618 58.9815L80.3126 57.7107L79.0618 56.4399C78.803 56.1769 78.803 55.768 79.0618 55.5196C79.2918 55.2713 79.7087 55.2567 79.9675 55.5196L81.2184 56.7904L82.4692 55.5196C82.8717 55.1106 83.5618 55.4028 83.5618 55.9871C83.5618 56.1623 83.5043 56.323 83.3749 56.4545L82.1241 57.7253L83.3749 58.9961C83.8063 59.4051 83.49 60.1062 82.9292 60.1062Z" fill="#F1F3F9"/>
</svg>
