<svg width="16" height="17" viewBox="0 0 16 17" fill="none" xmlns="http://www.w3.org/2000/svg">
<path d="M8.66667 8.23333L10.3333 9.9C10.4556 10.0222 10.5167 10.1778 10.5167 10.3667C10.5167 10.5556 10.4556 10.7111 10.3333 10.8333C10.2111 10.9556 10.0556 11.0167 9.86667 11.0167C9.67778 11.0167 9.52222 10.9556 9.4 10.8333L7.53333 8.96667C7.46667 8.9 7.41667 8.82489 7.38333 8.74133C7.35 8.65822 7.33333 8.57222 7.33333 8.48333V5.83333C7.33333 5.64444 7.39733 5.486 7.52533 5.358C7.65289 5.23044 7.81111 5.16667 8 5.16667C8.18889 5.16667 8.34733 5.23044 8.47533 5.358C8.60289 5.486 8.66667 5.64444 8.66667 5.83333V8.23333ZM8 14.5C7.16667 14.5 6.38622 14.3418 5.65867 14.0253C4.93067 13.7084 4.29733 13.2804 3.75867 12.7413C3.21956 12.2027 2.79156 11.5693 2.47467 10.8413C2.15822 10.1138 2 9.33333 2 8.5C2 7.66667 2.15822 6.886 2.47467 6.158C2.79156 5.43044 3.21956 4.79711 3.75867 4.258C4.29733 3.71933 4.93067 3.29156 5.65867 2.97467C6.38622 2.65822 7.16667 2.5 8 2.5C8.91111 2.5 9.77511 2.69444 10.592 3.08333C11.4084 3.47222 12.1 4.02222 12.6667 4.73333V3.83333C12.6667 3.64444 12.7307 3.486 12.8587 3.358C12.9862 3.23044 13.1444 3.16667 13.3333 3.16667C13.5222 3.16667 13.6804 3.23044 13.808 3.358C13.936 3.486 14 3.64444 14 3.83333V6.5C14 6.68889 13.936 6.84711 13.808 6.97467C13.6804 7.10267 13.5222 7.16667 13.3333 7.16667H10.6667C10.4778 7.16667 10.3196 7.10267 10.192 6.97467C10.064 6.84711 10 6.68889 10 6.5C10 6.31111 10.064 6.15267 10.192 6.02467C10.3196 5.89711 10.4778 5.83333 10.6667 5.83333H11.8333C11.3778 5.21111 10.8167 4.72222 10.15 4.36667C9.48333 4.01111 8.76667 3.83333 8 3.83333C6.7 3.83333 5.59733 4.286 4.692 5.19133C3.78622 6.09711 3.33333 7.2 3.33333 8.5C3.33333 9.8 3.78622 10.9027 4.692 11.808C5.59733 12.7138 6.7 13.1667 8 13.1667C9.02222 13.1667 9.94733 12.8667 10.7753 12.2667C11.6029 11.6667 12.1611 10.8778 12.45 9.9C12.5056 9.71111 12.6084 9.55267 12.7587 9.42467C12.9084 9.29711 13.0778 9.25556 13.2667 9.3C13.4667 9.34444 13.6138 9.45556 13.708 9.63333C13.8027 9.81111 13.8222 10 13.7667 10.2C13.4 11.4778 12.6833 12.5138 11.6167 13.308C10.55 14.1027 9.34444 14.5 8 14.5Z" fill="#16A75C"/>
</svg>
