<svg width="12" height="13" viewBox="0 0 12 13" fill="none" xmlns="http://www.w3.org/2000/svg">
<path d="M6.66667 6.23333L8.33333 7.9C8.45556 8.02222 8.51667 8.17778 8.51667 8.36667C8.51667 8.55556 8.45556 8.71111 8.33333 8.83333C8.21111 8.95556 8.05556 9.01667 7.86667 9.01667C7.67778 9.01667 7.52222 8.95556 7.4 8.83333L5.53333 6.96667C5.46667 6.9 5.41667 6.82489 5.38333 6.74133C5.35 6.65822 5.33333 6.57222 5.33333 6.48333V3.83333C5.33333 3.64444 5.39733 3.486 5.52533 3.358C5.65289 3.23044 5.81111 3.16667 6 3.16667C6.18889 3.16667 6.34733 3.23044 6.47533 3.358C6.60289 3.486 6.66667 3.64444 6.66667 3.83333V6.23333ZM6 12.5C5.16667 12.5 4.38622 12.3418 3.65867 12.0253C2.93067 11.7084 2.29733 11.2804 1.75867 10.7413C1.21956 10.2027 0.791556 9.56933 0.474667 8.84133C0.158222 8.11378 0 7.33333 0 6.5C0 5.66667 0.158222 4.886 0.474667 4.158C0.791556 3.43044 1.21956 2.79711 1.75867 2.258C2.29733 1.71933 2.93067 1.29156 3.65867 0.974667C4.38622 0.658222 5.16667 0.5 6 0.5C6.91111 0.5 7.77511 0.694444 8.592 1.08333C9.40844 1.47222 10.1 2.02222 10.6667 2.73333V1.83333C10.6667 1.64444 10.7307 1.486 10.8587 1.358C10.9862 1.23044 11.1444 1.16667 11.3333 1.16667C11.5222 1.16667 11.6804 1.23044 11.808 1.358C11.936 1.486 12 1.64444 12 1.83333V4.5C12 4.68889 11.936 4.84711 11.808 4.97467C11.6804 5.10267 11.5222 5.16667 11.3333 5.16667H8.66667C8.47778 5.16667 8.31956 5.10267 8.192 4.97467C8.064 4.84711 8 4.68889 8 4.5C8 4.31111 8.064 4.15267 8.192 4.02467C8.31956 3.89711 8.47778 3.83333 8.66667 3.83333H9.83333C9.37778 3.21111 8.81667 2.72222 8.15 2.36667C7.48333 2.01111 6.76667 1.83333 6 1.83333C4.7 1.83333 3.59733 2.286 2.692 3.19133C1.78622 4.09711 1.33333 5.2 1.33333 6.5C1.33333 7.8 1.78622 8.90267 2.692 9.808C3.59733 10.7138 4.7 11.1667 6 11.1667C7.02222 11.1667 7.94733 10.8667 8.77533 10.2667C9.60289 9.66667 10.1611 8.87778 10.45 7.9C10.5056 7.71111 10.6084 7.55267 10.7587 7.42467C10.9084 7.29711 11.0778 7.25556 11.2667 7.3C11.4667 7.34444 11.6138 7.45556 11.708 7.63333C11.8027 7.81111 11.8222 8 11.7667 8.2C11.4 9.47778 10.6833 10.5138 9.61667 11.308C8.55 12.1027 7.34444 12.5 6 12.5Z" fill="white"/>
</svg>
