<svg width="20" height="21" viewBox="0 0 20 21" fill="none" xmlns="http://www.w3.org/2000/svg">
<path d="M18.3332 10.5001C18.3327 8.29008 17.4546 6.17072 15.8919 4.60801C14.3292 3.04531 12.2098 2.16719 9.99984 2.16675V3.83341C11.3182 3.83371 12.607 4.22478 13.7032 4.9572C14.7995 5.68961 15.6541 6.73052 16.159 7.94841C16.4941 8.75739 16.6666 9.62445 16.6665 10.5001H18.3332ZM1.6665 8.83342V4.66675C1.6665 4.44573 1.7543 4.23377 1.91058 4.07749C2.06686 3.92121 2.27882 3.83341 2.49984 3.83341H6.6665C6.88752 3.83341 7.09948 3.92121 7.25576 4.07749C7.41204 4.23377 7.49984 4.44573 7.49984 4.66675V8.00008C7.49984 8.2211 7.41204 8.43306 7.25576 8.58934C7.09948 8.74562 6.88752 8.83342 6.6665 8.83342H4.99984C4.99984 10.6015 5.70222 12.2972 6.95246 13.5475C8.2027 14.7977 9.89839 15.5001 11.6665 15.5001V13.8334C11.6665 13.6124 11.7543 13.4004 11.9106 13.2442C12.0669 13.0879 12.2788 13.0001 12.4998 13.0001H15.8332C16.0542 13.0001 16.2661 13.0879 16.4224 13.2442C16.5787 13.4004 16.6665 13.6124 16.6665 13.8334V18.0001C16.6665 18.2211 16.5787 18.4331 16.4224 18.5893C16.2661 18.7456 16.0542 18.8334 15.8332 18.8334H11.6665C6.144 18.8334 1.6665 14.3559 1.6665 8.83342Z" fill="#008444"/>
<path d="M14.6192 8.58667C14.8707 9.19319 15.0001 9.84338 15 10.5H13.5C13.5001 10.0403 13.4097 9.58517 13.2338 9.16048C13.0579 8.73579 12.8001 8.34991 12.4751 8.02488C12.1501 7.69986 11.7642 7.44205 11.3395 7.2662C10.9148 7.09035 10.4597 6.99989 10 7V5.5C10.9889 5.50005 11.9555 5.79333 12.7777 6.34275C13.5999 6.89217 14.2408 7.67306 14.6192 8.58667Z" fill="#008444"/>
</svg>
