<svg width="20" height="16" viewBox="0 0 20 16" fill="none" xmlns="http://www.w3.org/2000/svg">
<path d="M9.91115 10.1921C13.0155 10.1921 15.6663 10.6843 15.6663 12.6537C15.6663 14.6224 13.0326 15.1324 9.91115 15.1324C6.80674 15.1324 4.15601 14.6403 4.15601 12.6716C4.15601 10.7022 6.78973 10.1921 9.91115 10.1921ZM14.8747 9.00619C16.0615 8.98419 17.3375 9.14715 17.809 9.26286C18.8079 9.45924 19.4649 9.86013 19.7371 10.4427C19.9672 10.921 19.9672 11.476 19.7371 11.9534C19.3207 12.8571 17.9783 13.1472 17.4566 13.2221C17.3488 13.2384 17.2621 13.1447 17.2735 13.0364C17.54 10.5324 15.4199 9.34516 14.8715 9.07219C14.848 9.05997 14.8431 9.04123 14.8455 9.02982C14.8472 9.02167 14.8569 9.00863 14.8747 9.00619ZM4.81693 9.0045L5.04042 9.00651C5.05825 9.00896 5.06716 9.022 5.06878 9.02933C5.07121 9.04155 5.06635 9.05948 5.04367 9.07251C4.4944 9.34548 2.3743 10.5327 2.64083 13.0359C2.65217 13.1451 2.5663 13.238 2.45855 13.2225C1.93683 13.1475 0.594452 12.8574 0.178047 11.9538C-0.0528387 11.4755 -0.0528387 10.9214 0.178047 10.4431C0.45025 9.86046 1.10645 9.45956 2.10534 9.26237C2.57764 9.14748 3.85278 8.98451 5.04042 9.00651L4.81693 9.0045ZM9.91115 0.65625C12.0248 0.65625 13.7196 2.35925 13.7196 4.48597C13.7196 6.61188 12.0248 8.31651 9.91115 8.31651C7.79753 8.31651 6.10274 6.61188 6.10274 4.48597C6.10274 2.35925 7.79753 0.65625 9.91115 0.65625ZM15.0813 1.29492C17.1228 1.29492 18.726 3.22689 18.18 5.37887C17.8114 6.82764 16.4771 7.78996 14.9906 7.75085C14.8415 7.74678 14.6949 7.73293 14.5531 7.70848C14.4502 7.69056 14.3984 7.57403 14.4567 7.48766C15.0238 6.64838 15.347 5.6388 15.347 4.55507C15.347 3.42408 14.9938 2.36968 14.3805 1.50514C14.3611 1.47826 14.3465 1.4367 14.3659 1.40574C14.3822 1.38048 14.4121 1.36744 14.4405 1.36092C14.6471 1.31855 14.8593 1.29492 15.0813 1.29492ZM4.83263 1.29484C5.0546 1.29484 5.26686 1.31847 5.47425 1.36084C5.50179 1.36736 5.53258 1.38121 5.54878 1.40565C5.56741 1.43662 5.55364 1.47817 5.5342 1.50506C4.92093 2.3696 4.56772 3.424 4.56772 4.55499C4.56772 5.63872 4.89096 6.6483 5.45805 7.48758C5.51637 7.57395 5.46453 7.69047 5.36164 7.7084C5.21906 7.73366 5.07324 7.7467 4.92417 7.75077C3.43759 7.78988 2.10331 6.82756 1.7347 5.37879C1.18787 3.22681 2.79111 1.29484 4.83263 1.29484Z" fill="white"/>
</svg>
