<svg width="24" height="25" viewBox="0 0 24 25" fill="none" xmlns="http://www.w3.org/2000/svg">
<g clip-path="url(#clip0_13579_97500)">
<path d="M12 24.5C8.8174 24.5 5.76516 23.2357 3.51472 20.9853C1.26428 18.7348 0 15.6826 0 12.5C0 9.3174 1.26428 6.26516 3.51472 4.01472C5.76516 1.76428 8.8174 0.5 12 0.5C15.1826 0.5 18.2348 1.76428 20.4853 4.01472C22.7357 6.26516 24 9.3174 24 12.5C24 15.6826 22.7357 18.7348 20.4853 20.9853C18.2348 23.2357 15.1826 24.5 12 24.5ZM21.3 14.9C21.7059 13.3257 21.7059 11.6743 21.3 10.1H16.716C16.8272 11.6981 16.8272 13.3019 16.716 14.9H21.3ZM20.316 17.3H16.452C16.251 18.7464 15.868 20.1616 15.312 21.512C17.4201 20.7344 19.1901 19.2445 20.316 17.3ZM9.696 14.9H14.304C14.4342 13.3027 14.4342 11.6973 14.304 10.1H9.696C9.56576 11.6973 9.56576 13.3027 9.696 14.9ZM9.996 17.3C10.488 20.18 11.352 22.1 12 22.1C12.648 22.1 13.512 20.18 14.004 17.3H9.996ZM2.7 14.9H7.284C7.17279 13.3019 7.17279 11.6981 7.284 10.1H2.7C2.29407 11.6743 2.29407 13.3257 2.7 14.9ZM3.684 17.3C4.80991 19.2445 6.57994 20.7344 8.688 21.512C8.184 20.36 7.8 18.92 7.548 17.3H3.684ZM20.316 7.7C19.1901 5.75553 17.4201 4.26564 15.312 3.488C15.816 4.64 16.2 6.08 16.452 7.7H20.316ZM9.996 7.7H14.004C13.512 4.82 12.648 2.9 12 2.9C11.352 2.9 10.488 4.82 9.996 7.7ZM3.684 7.7H7.548C7.788 6.08 8.184 4.64 8.688 3.488C6.57994 4.26564 4.80991 5.75553 3.684 7.7Z" fill="#16A75C"/>
</g>
<defs>
<clipPath id="clip0_13579_97500">
<rect width="24" height="24" fill="white" transform="translate(0 0.5)"/>
</clipPath>
</defs>
</svg>
