<svg width="50" height="50" viewBox="0 0 50 50" fill="none" xmlns="http://www.w3.org/2000/svg">
<g filter="url(#filter0_b_11105_264160)">
<rect width="50" height="50" rx="25" fill="white" fill-opacity="0.8"/>
<path fill-rule="evenodd" clip-rule="evenodd" d="M29.3248 27.8987L34.7048 33.2787C34.8939 33.468 35 33.7246 35 33.9921C34.9999 34.2596 34.8935 34.5161 34.7043 34.7052C34.515 34.8943 34.2584 35.0005 33.9909 35.0004C33.7234 35.0003 33.4669 34.894 33.2778 34.7047L27.8978 29.3247C26.2895 30.5704 24.267 31.1566 22.2419 30.9641C20.2167 30.7716 18.341 29.8148 16.9962 28.2884C15.6515 26.7619 14.9388 24.7806 15.003 22.7473C15.0673 20.714 15.9037 18.7816 17.3422 17.3431C18.7806 15.9047 20.713 15.0683 22.7463 15.004C24.7796 14.9397 26.761 15.6525 28.2874 16.9972C29.8138 18.342 30.7706 20.2177 30.9631 22.2429C31.1556 24.268 30.5694 26.2905 29.3238 27.8987H29.3248ZM22.9998 28.9997C24.5911 28.9997 26.1172 28.3676 27.2424 27.2424C28.3676 26.1172 28.9998 24.591 28.9998 22.9997C28.9998 21.4084 28.3676 19.8823 27.2424 18.7571C26.1172 17.6319 24.5911 16.9997 22.9998 16.9997C21.4085 16.9997 19.8823 17.6319 18.7571 18.7571C17.6319 19.8823 16.9998 21.4084 16.9998 22.9997C16.9998 24.591 17.6319 26.1172 18.7571 27.2424C19.8823 28.3676 21.4085 28.9997 22.9998 28.9997V28.9997ZM25.9998 23.9997H23.9998V25.9997C23.9998 26.265 23.8944 26.5193 23.7069 26.7069C23.5193 26.8944 23.265 26.9997 22.9998 26.9997C22.7346 26.9997 22.4802 26.8944 22.2927 26.7069C22.1051 26.5193 21.9998 26.265 21.9998 25.9997V23.9997H19.9998C19.7346 23.9997 19.4802 23.8944 19.2927 23.7069C19.1051 23.5193 18.9998 23.265 18.9998 22.9997C18.9998 22.7345 19.1051 22.4802 19.2927 22.2926C19.4802 22.1051 19.7346 21.9997 19.9998 21.9997H21.9998V19.9997C21.9998 19.7345 22.1051 19.4802 22.2927 19.2926C22.4802 19.1051 22.7346 18.9997 22.9998 18.9997C23.265 18.9997 23.5193 19.1051 23.7069 19.2926C23.8944 19.4802 23.9998 19.7345 23.9998 19.9997V21.9997H25.9998C26.265 21.9997 26.5193 22.1051 26.7069 22.2926C26.8944 22.4802 26.9998 22.7345 26.9998 22.9997C26.9998 23.265 26.8944 23.5193 26.7069 23.7069C26.5193 23.8944 26.265 23.9997 25.9998 23.9997Z" fill="#16A75C"/>
</g>
<defs>
<filter id="filter0_b_11105_264160" x="-16" y="-16" width="82" height="82" filterUnits="userSpaceOnUse" color-interpolation-filters="sRGB">
<feFlood flood-opacity="0" result="BackgroundImageFix"/>
<feGaussianBlur in="BackgroundImageFix" stdDeviation="8"/>
<feComposite in2="SourceAlpha" operator="in" result="effect1_backgroundBlur_11105_264160"/>
<feBlend mode="normal" in="SourceGraphic" in2="effect1_backgroundBlur_11105_264160" result="shape"/>
</filter>
</defs>
</svg>
