<svg width="53" height="53" viewBox="0 0 53 53" fill="none" xmlns="http://www.w3.org/2000/svg">
<rect x="0.333252" y="0.5" width="52" height="52" rx="14" fill="#E6F6EC"/>
<path d="M29.8333 37H19.3333C18.405 37 17.5148 36.6312 16.8584 35.9749C16.202 35.3185 15.8333 34.4283 15.8333 33.5V32.3333H27.4999V34.6667C27.4999 35.2855 27.7458 35.879 28.1833 36.3166C28.6209 36.7542 29.2144 37 29.8333 37ZM29.8333 37C30.4521 37 31.0456 36.7542 31.4832 36.3166C31.9208 35.879 32.1666 35.2855 32.1666 34.6667V18.3333C32.1666 17.8718 32.3034 17.4207 32.5598 17.037C32.8162 16.6533 33.1806 16.3542 33.607 16.1776C34.0333 16.001 34.5025 15.9548 34.9551 16.0448C35.4078 16.1349 35.8235 16.3571 36.1498 16.6834C36.4762 17.0097 36.6984 17.4255 36.7884 17.8781C36.8784 18.3307 36.8322 18.7999 36.6556 19.2263C36.479 19.6526 36.18 20.017 35.7962 20.2734C35.4125 20.5298 34.9614 20.6667 34.4999 20.6667H32.1666M34.4999 16H21.6666C20.7383 16 19.8481 16.3687 19.1917 17.0251C18.5353 17.6815 18.1666 18.5717 18.1666 19.5V32.3333" stroke="#16A75C" stroke-width="3" stroke-linecap="round" stroke-linejoin="round"/>
<path fill-rule="evenodd" clip-rule="evenodd" d="M21.4443 21.1584C21.4443 20.6062 21.8921 20.1584 22.4443 20.1584H27.4443C27.9966 20.1584 28.4443 20.6062 28.4443 21.1584C28.4443 21.7107 27.9966 22.1584 27.4443 22.1584H22.4443C21.8921 22.1584 21.4443 21.7107 21.4443 21.1584Z" fill="#FF9500"/>
<path fill-rule="evenodd" clip-rule="evenodd" d="M21.4443 25.1584C21.4443 24.6062 21.8921 24.1584 22.4443 24.1584H27.4443C27.9966 24.1584 28.4443 24.6062 28.4443 25.1584C28.4443 25.7107 27.9966 26.1584 27.4443 26.1584H22.4443C21.8921 26.1584 21.4443 25.7107 21.4443 25.1584Z" fill="#FF9500"/>
</svg>
