<svg width="52" height="53" viewBox="0 0 52 53" fill="none" xmlns="http://www.w3.org/2000/svg">
<rect y="0.5" width="52" height="52" rx="14" fill="#E6F6EC"/>
<g clip-path="url(#clip0_15734_170253)">
<path d="M31.8162 21.2012C31.829 21.2268 31.8801 21.2652 31.9569 21.3163C31.8674 21.2524 31.8162 21.2012 31.8162 21.2012Z" fill="#FEC132"/>
<path d="M30.9972 27.0759C29.0904 26.0521 26.7357 27.4342 26.467 27.5877L26.4158 27.6389L22.052 32.8345C22.0264 32.8729 22.0008 32.9113 21.9752 32.9497C20.1708 35.6883 21.9496 37.7358 22.4359 38.0941L25.4176 40.5L33.0319 31.4141C32.9551 31.5036 32.9167 31.5548 32.9167 31.5548C32.9167 31.5548 33.7869 28.5731 30.9972 27.0759Z" fill="#FEC132"/>
<path d="M35.988 27.1909C36.1288 26.551 36.0776 25.9496 35.8856 25.4121C36.0392 25.9368 36.1032 26.551 35.988 27.1909Z" fill="#FEC132"/>
<path d="M20.913 24.503C22.935 25.5907 25.4688 23.9783 25.4688 23.9783L20.1324 30.3385L25.5456 23.8887L25.6351 23.8503L32.4944 15.673L29.5639 13.2928C28.6297 12.4993 26.5309 11.9491 24.7138 13.4079L19.083 20.0752C19.083 20.0752 18.1233 23.0057 20.913 24.503Z" fill="#1BA7E0"/>
<path d="M20.1709 30.3646L20.2092 30.3262L20.1453 30.3518L20.1709 30.3646Z" fill="#1BA7E0"/>
<path d="M25.4688 23.9783C25.4688 23.9783 22.935 25.6035 20.913 24.503C18.1233 23.0057 19.083 20.0752 19.083 20.0752L16.818 22.7242C15.2695 24.5542 16.0629 26.9344 16.8819 27.6639C17.6882 28.3677 20.1196 30.3768 20.1196 30.3768L20.1452 30.3512L25.4688 23.9783Z" fill="#1593B7"/>
<path d="M35.9881 27.191C36.1033 26.5511 36.0393 25.9369 35.8857 25.4122C35.7321 24.8747 35.4762 24.414 35.2331 24.1197C34.6956 23.467 32.5329 21.7778 31.957 21.3299C31.8802 21.2787 31.829 21.2403 31.8162 21.2275L26.4799 27.6005C26.7486 27.4341 29.1033 26.0648 31.01 27.0886C33.7998 28.5859 32.9424 31.5804 32.9424 31.5804C32.9424 31.5804 32.9808 31.5292 33.0576 31.4396C33.4671 30.9661 34.798 29.4177 35.2842 28.7906C35.6682 28.2531 35.8857 27.7157 35.9881 27.191Z" fill="#FBA919"/>
<path d="M31.8033 21.2139C31.8161 21.2139 31.8161 21.2139 31.8033 21.2139H31.7905L25.6351 23.8501L25.5456 23.8885L20.1324 30.3382L20.1068 30.3638L20.1452 30.351L20.1964 30.3254L26.4158 27.638L26.467 27.5868L31.8033 21.2139Z" fill="#039058"/>
</g>
<defs>
<clipPath id="clip0_15734_170253">
<rect width="20.1298" height="28" fill="white" transform="translate(15.9351 12.5)"/>
</clipPath>
</defs>
</svg>
