<svg width="80" height="80" viewBox="0 0 80 80" fill="none" xmlns="http://www.w3.org/2000/svg">
<path d="M9.99971 0H52.4821L74.9996 22.4301V75C74.9996 77.7625 72.7597 80 69.9996 80H9.99971C7.23963 80 4.99976 77.7625 4.99976 75V4.99995C4.99976 2.23755 7.23989 0 9.99971 0Z" fill="#E4EBF4"/>
<rect x="2.46533" y="14.8691" width="41" height="22" rx="4" fill="#2196F3"/>
<path d="M16.5772 25.8691C16.5772 26.658 16.4449 27.3824 16.1804 28.0423C15.9159 28.7022 15.5441 29.2704 15.065 29.7467C14.586 30.223 14.0095 30.5926 13.3358 30.8556C12.6621 31.1186 11.9135 31.2501 11.09 31.2501H6.96533V20.4882H11.09C11.9135 20.4882 12.6621 20.6222 13.3358 20.8901C14.0095 21.1531 14.586 21.5227 15.065 21.999C15.5441 22.4704 15.9159 23.036 16.1804 23.6959C16.4449 24.3558 16.5772 25.0802 16.5772 25.8691ZM14.5111 25.8691C14.5111 25.2787 14.4312 24.7503 14.2715 24.2839C14.1168 23.8125 13.8898 23.4156 13.5903 23.0931C13.2959 22.7656 12.9366 22.5151 12.5124 22.3414C12.0932 22.1677 11.6191 22.0809 11.09 22.0809H8.98652V29.6574H11.09C11.6191 29.6574 12.0932 29.5705 12.5124 29.3969C12.9366 29.2232 13.2959 28.9751 13.5903 28.6526C13.8898 28.3252 14.1168 27.9282 14.2715 27.4618C14.4312 26.9905 14.5111 26.4596 14.5111 25.8691Z" fill="white"/>
<path d="M28.678 25.8691C28.678 26.658 28.5457 27.3899 28.2812 28.0647C28.0217 28.7345 27.6524 29.315 27.1733 29.8062C26.6942 30.2974 26.1178 30.682 25.4441 30.9598C24.7704 31.2327 24.0218 31.3691 23.1983 31.3691C22.3799 31.3691 21.6338 31.2327 20.9601 30.9598C20.2863 30.682 19.7074 30.2974 19.2233 29.8062C18.7442 29.315 18.3724 28.7345 18.1079 28.0647C17.8434 27.3899 17.7112 26.658 17.7112 25.8691C17.7112 25.0802 17.8434 24.3509 18.1079 23.681C18.3724 23.0063 18.7442 22.4233 19.2233 21.9321C19.7074 21.4409 20.2863 21.0588 20.9601 20.7859C21.6338 20.5081 22.3799 20.3691 23.1983 20.3691C23.7473 20.3691 24.2638 20.4336 24.7479 20.5626C25.232 20.6867 25.6762 20.8653 26.0804 21.0985C26.4846 21.3267 26.8464 21.6071 27.1658 21.9395C27.4902 22.267 27.7647 22.6341 27.9893 23.041C28.2139 23.4479 28.3835 23.8894 28.4983 24.3658C28.6181 24.8421 28.678 25.3432 28.678 25.8691ZM26.6194 25.8691C26.6194 25.2787 26.5395 24.7503 26.3798 24.2839C26.2201 23.8125 25.9931 23.4131 25.6986 23.0856C25.4042 22.7582 25.0448 22.5076 24.6206 22.334C24.2014 22.1603 23.7273 22.0735 23.1983 22.0735C22.6693 22.0735 22.1927 22.1603 21.7685 22.334C21.3493 22.5076 20.99 22.7582 20.6906 23.0856C20.3961 23.4131 20.169 23.8125 20.0093 24.2839C19.8497 24.7503 19.7698 25.2787 19.7698 25.8691C19.7698 26.4596 19.8497 26.9905 20.0093 27.4618C20.169 27.9282 20.3961 28.3252 20.6906 28.6526C20.99 28.9751 21.3493 29.2232 21.7685 29.3969C22.1927 29.5705 22.6693 29.6574 23.1983 29.6574C23.7273 29.6574 24.2014 29.5705 24.6206 29.3969C25.0448 29.2232 25.4042 28.9751 25.6986 28.6526C25.9931 28.3252 26.2201 27.9282 26.3798 27.4618C26.5395 26.9905 26.6194 26.4596 26.6194 25.8691Z" fill="white"/>
<path d="M37.8799 28.7122C37.9897 28.7122 38.087 28.7543 38.1718 28.8387L38.9653 29.6946C38.5262 30.2354 37.9847 30.6497 37.3409 30.9375C36.7021 31.2253 35.9336 31.3691 35.0353 31.3691C34.2318 31.3691 33.5081 31.2327 32.8643 30.9598C32.2256 30.6869 31.6791 30.3073 31.2249 29.8211C30.7708 29.3349 30.4215 28.7543 30.1769 28.0796C29.9374 27.4048 29.8176 26.668 29.8176 25.8691C29.8176 25.0604 29.9474 24.3211 30.2069 23.6513C30.4664 22.9765 30.8307 22.396 31.2998 21.9097C31.7739 21.4235 32.3378 21.0464 32.9916 20.7785C33.6454 20.5056 34.369 20.3691 35.1625 20.3691C35.951 20.3691 36.6497 20.4981 37.2586 20.7561C37.8724 21.0142 38.3939 21.3515 38.8231 21.7683L38.1494 22.6986C38.1094 22.7582 38.057 22.8103 37.9922 22.8549C37.9323 22.8996 37.8474 22.9219 37.7377 22.9219C37.6628 22.9219 37.5854 22.9021 37.5056 22.8624C37.4257 22.8177 37.3384 22.7656 37.2436 22.7061C37.1488 22.6416 37.039 22.5721 36.9142 22.4977C36.7894 22.4233 36.6447 22.3563 36.48 22.2967C36.3153 22.2322 36.1232 22.1801 35.9036 22.1405C35.689 22.0958 35.4395 22.0735 35.155 22.0735C34.6709 22.0735 34.2268 22.1603 33.8225 22.334C33.4233 22.5027 33.0789 22.7507 32.7895 23.0782C32.5 23.4007 32.2755 23.7976 32.1158 24.269C31.9561 24.7354 31.8762 25.2688 31.8762 25.8691C31.8762 26.4745 31.9611 27.0128 32.1307 27.4842C32.3054 27.9555 32.54 28.3525 32.8344 28.675C33.1288 28.9975 33.4757 29.2456 33.8749 29.4192C34.2742 29.5879 34.7034 29.6723 35.1625 29.6723C35.437 29.6723 35.684 29.6574 35.9036 29.6276C36.1282 29.5978 36.3328 29.5507 36.5175 29.4862C36.7071 29.4217 36.8843 29.3398 37.049 29.2406C37.2186 29.1364 37.3858 29.0099 37.5505 28.861C37.6004 28.8164 37.6528 28.7816 37.7077 28.7568C37.7626 28.7271 37.82 28.7122 37.8799 28.7122Z" fill="white"/>
<path d="M74.9275 22.4998H57.5C54.7399 22.4998 52.5 20.2599 52.5 17.4998V0.0498047L74.9275 22.4998Z" fill="#B9C3D3"/>
<rect x="14.5071" y="45.4116" width="51.4643" height="5.33333" rx="2.66667" fill="white"/>
<rect x="14.5066" y="55.8022" width="51.4643" height="5.33333" rx="2.66667" fill="white"/>
<rect x="14.5066" y="66.1914" width="34.3128" height="5.33333" rx="2.66667" fill="white"/>
</svg>
