<svg width="80" height="80" viewBox="0 0 80 80" fill="none" xmlns="http://www.w3.org/2000/svg">
<path d="M9.99995 0H52.4823L74.9998 22.4301V75C74.9998 77.7625 72.7599 80 69.9999 80H9.99995C7.23988 80 5 77.7625 5 75V4.99995C5 2.23755 7.24014 0 9.99995 0Z" fill="#E0E0E0"/>
<rect x="2.46533" y="14.8691" width="41" height="22" rx="4" fill="#757575"/>
<path d="M6.92715 31V20.0137H13.7973V21.9839H9.18301V24.4814H13.497V26.459H9.18301V31H6.92715ZM19.117 20.0137V31H16.8611V20.0137H19.117ZM29.4318 31H22.2541V20.0137H24.51V29.0298H29.4318V31ZM31.983 31V20.0137H39.0729V21.9839H34.2389V24.4814H38.7726V26.459H34.2389V29.0298H39.1461V31H31.983Z" fill="white"/>
<path d="M74.9275 22.4998H57.5C54.7399 22.4998 52.5 20.2599 52.5 17.4998V0.0498047L74.9275 22.4998Z" fill="#BEBEBE"/>
<rect x="14.5073" y="45.4116" width="51.4643" height="5.33333" rx="2.66667" fill="white"/>
<rect x="14.5063" y="55.8022" width="51.4643" height="5.33333" rx="2.66667" fill="white"/>
<rect x="14.5063" y="66.1914" width="34.3128" height="5.33333" rx="2.66667" fill="white"/>
</svg>
