<svg width="80" height="80" viewBox="0 0 80 80" fill="none" xmlns="http://www.w3.org/2000/svg">
<path d="M9.99971 0H52.4821L74.9996 22.4301V75C74.9996 77.7625 72.7597 80 69.9996 80H9.99971C7.23963 80 4.99976 77.7625 4.99976 75V4.99995C4.99976 2.23755 7.23989 0 9.99971 0Z" fill="#EFF2F0"/>
<rect x="2.46533" y="14.8691" width="41" height="22" rx="4" fill="#16A75C"/>
<path d="M20.7773 31.2501H18.2563C18.0807 31.2501 17.9396 31.2153 17.833 31.1459C17.7327 31.0764 17.6512 30.997 17.5885 30.9077L14.4372 26.7771C14.3871 26.9012 14.3275 27.0078 14.2585 27.0972L11.239 30.9077C11.1637 30.9921 11.0759 31.0714 10.9756 31.1459C10.8815 31.2153 10.7561 31.2501 10.5993 31.2501H8.23828L12.7535 25.7128L8.41701 20.4882H10.938C11.1136 20.4882 11.239 20.5081 11.3142 20.5478C11.3958 20.5825 11.471 20.642 11.54 20.7264L14.6348 24.6709C14.6975 24.5469 14.7727 24.4228 14.8605 24.2988L17.7013 20.7636C17.7703 20.6693 17.8456 20.5999 17.9271 20.5552C18.0086 20.5105 18.1121 20.4882 18.2375 20.4882H20.655L16.2809 25.631L20.7773 31.2501Z" fill="white"/>
<path d="M30.3137 29.5978V31.2501H22.3463V20.4882H24.8767V29.5978H30.3137Z" fill="white"/>
<path d="M39.3635 22.4456C39.2882 22.5498 39.2067 22.6267 39.1189 22.6763C39.0374 22.721 38.9339 22.7433 38.8085 22.7433C38.6768 22.7433 38.5325 22.7061 38.3758 22.6317C38.2253 22.5523 38.0434 22.4654 37.8302 22.3712C37.617 22.2769 37.3661 22.1926 37.0777 22.1181C36.7955 22.0387 36.46 21.999 36.0711 21.999C35.72 21.999 35.4127 22.0338 35.1493 22.1032C34.8859 22.1677 34.6633 22.2595 34.4814 22.3786C34.3058 22.4977 34.1741 22.6416 34.0863 22.8103C33.9986 22.974 33.9547 23.1551 33.9547 23.3536C33.9547 23.6066 34.0425 23.8175 34.218 23.9862C34.3999 24.1549 34.6382 24.2988 34.9329 24.4179C35.2277 24.5369 35.5632 24.6436 35.9395 24.7379C36.3157 24.8322 36.7014 24.9339 37.0965 25.043C37.4915 25.1472 37.8772 25.2713 38.2535 25.4151C38.6297 25.5541 38.9653 25.7327 39.26 25.951C39.5547 26.1644 39.7899 26.4273 39.9655 26.7399C40.1473 27.0525 40.2383 27.4321 40.2383 27.8786C40.2383 28.3649 40.1317 28.8213 39.9185 29.248C39.7115 29.6698 39.4042 30.0394 38.9966 30.357C38.5953 30.6695 38.103 30.9176 37.5198 31.1012C36.9366 31.2798 36.2687 31.3691 35.5162 31.3691C35.0835 31.3691 34.657 31.3344 34.2369 31.2649C33.8167 31.2004 33.4122 31.1062 33.0234 30.9821C32.6409 30.8581 32.2803 30.7092 31.9416 30.5356C31.603 30.3619 31.302 30.1684 31.0386 29.9551L31.7817 28.995C31.8444 28.9255 31.926 28.8685 32.0263 28.8238C32.1266 28.7742 32.2332 28.7494 32.3461 28.7494C32.5029 28.7494 32.6722 28.8015 32.8541 28.9057C33.0359 29.0049 33.2523 29.1165 33.5031 29.2406C33.754 29.3646 34.0456 29.4787 34.378 29.5829C34.7166 29.6822 35.1211 29.7318 35.5914 29.7318C36.3126 29.7318 36.8707 29.5978 37.2658 29.3299C37.6609 29.057 37.8584 28.6675 37.8584 28.1614C37.8584 27.8786 37.7675 27.6479 37.5856 27.4693C37.41 27.2907 37.1749 27.1418 36.8801 27.0227C36.5854 26.8987 36.2499 26.7945 35.8736 26.7101C35.4973 26.6258 35.1148 26.534 34.726 26.4348C34.3372 26.3355 33.9547 26.2165 33.5784 26.0775C33.2021 25.9386 32.8666 25.7575 32.5719 25.5342C32.2771 25.311 32.0388 25.0331 31.857 24.7007C31.6814 24.3633 31.5936 23.949 31.5936 23.4578C31.5936 23.0658 31.6908 22.6838 31.8852 22.3116C32.0859 21.9395 32.3743 21.6096 32.7506 21.3218C33.1269 21.034 33.5909 20.8033 34.1428 20.6296C34.6946 20.456 35.328 20.3691 36.0429 20.3691C36.8456 20.3691 37.5856 20.4684 38.2629 20.6668C38.9402 20.8653 39.5171 21.1432 39.9937 21.5004L39.3635 22.4456Z" fill="white"/>
<path d="M74.9275 22.4998H57.5C54.7399 22.4998 52.5 20.2599 52.5 17.4998V0.0498047L74.9275 22.4998Z" fill="#99BDA8"/>
<rect x="14.5071" y="45.4116" width="51.4643" height="5.33333" rx="2.66667" fill="white"/>
<rect x="14.5066" y="55.8022" width="51.4643" height="5.33333" rx="2.66667" fill="white"/>
<rect x="14.5066" y="66.1914" width="34.3128" height="5.33333" rx="2.66667" fill="white"/>
</svg>
