<svg width="636" height="146" viewBox="0 0 636 146" fill="none" xmlns="http://www.w3.org/2000/svg">
<path fill-rule="evenodd" clip-rule="evenodd" d="M275.58 89.0217H335.64C335.98 89.0217 336.312 88.985 336.63 88.9153C336.949 88.985 337.281 89.0217 337.62 89.0217H371.94C374.492 89.0217 376.56 86.9514 376.56 84.3975C376.56 81.8436 374.492 79.7732 371.94 79.7732H367.98C365.429 79.7732 363.36 77.7029 363.36 75.149C363.36 72.5951 365.429 70.5248 367.98 70.5248H380.52C383.072 70.5248 385.14 68.4544 385.14 65.9005C385.14 63.3466 383.072 61.2763 380.52 61.2763H366C368.552 61.2763 370.62 59.2059 370.62 56.652C370.62 54.0981 368.552 52.0278 366 52.0278H323.76C326.312 52.0278 328.38 49.9574 328.38 47.4035C328.38 44.8496 326.312 42.7793 323.76 42.7793H286.14C283.589 42.7793 281.52 44.8496 281.52 47.4035C281.52 49.9574 283.589 52.0278 286.14 52.0278H259.74C257.189 52.0278 255.12 54.0981 255.12 56.652C255.12 59.2059 257.189 61.2763 259.74 61.2763H276.24C278.792 61.2763 280.86 63.3466 280.86 65.9005C280.86 68.4544 278.792 70.5248 276.24 70.5248H249.84C247.289 70.5248 245.22 72.5951 245.22 75.149C245.22 77.7029 247.289 79.7732 249.84 79.7732H275.58C273.029 79.7732 270.96 81.8436 270.96 84.3975C270.96 86.9514 273.029 89.0217 275.58 89.0217ZM383.161 89.0219C385.712 89.0219 387.781 86.9516 387.781 84.3977C387.781 81.8438 385.712 79.7734 383.161 79.7734C380.609 79.7734 378.541 81.8438 378.541 84.3977C378.541 86.9516 380.609 89.0219 383.161 89.0219Z" fill="#26865E" fill-opacity="0.1"/>
<path fill-rule="evenodd" clip-rule="evenodd" d="M290.823 92.3982L288.124 92.7776C286.674 92.9815 285.332 91.9707 285.128 90.5199L277.745 37.9835C277.541 36.5327 278.552 35.1914 280.002 34.9875L331.882 27.6963C333.333 27.4924 334.674 28.5031 334.878 29.9539C334.878 29.9539 335.35 33.3131 335.513 34.4685" fill="white"/>
<path fill-rule="evenodd" clip-rule="evenodd" d="M293.128 89.2923L290.549 89.6396C289.162 89.8262 287.882 88.9132 287.69 87.6003L280.714 40.0561C280.521 38.7432 281.489 37.5276 282.875 37.341L332.453 30.6668C333.839 30.4801 335.119 31.3932 335.312 32.7061L335.911 36.7917C335.944 37.0128 338.085 51.6872 342.336 80.8149C342.55 82.2775 341.485 83.629 339.958 83.8334C339.941 83.8356 339.925 83.8377 339.909 83.8396L293.128 89.2923Z" fill="#269760"/>
<path d="M290.823 92.3982L288.124 92.7776C286.674 92.9815 285.332 91.9707 285.128 90.5199L277.745 37.9835C277.541 36.5327 278.552 35.1914 280.002 34.9875L331.882 27.6963C333.333 27.4924 334.674 28.5031 334.878 29.9539C334.878 29.9539 335.35 33.3131 335.513 34.4685" stroke="#26865E" stroke-width="2.5" stroke-linecap="round"/>
<path d="M336.064 37.5264L336.396 39.5957" stroke="#26865E" stroke-width="2.5" stroke-linecap="round"/>
<path d="M300.083 41.6351C300.242 40.1247 301.595 39.0289 303.105 39.1876L352.528 44.3822C354.038 44.5409 355.134 45.8941 354.975 47.4046L349.712 97.4867C349.553 98.9972 348.2 100.093 346.689 99.9342L297.266 94.7397C295.756 94.5809 294.66 93.2278 294.819 91.7173L300.083 41.6351Z" fill="white" stroke="#26865E" stroke-width="2.5"/>
<path fill-rule="evenodd" clip-rule="evenodd" d="M304.255 47.0705C304.428 45.4227 305.904 44.2273 307.552 44.4005L347.092 48.5563C348.74 48.7295 349.935 50.2057 349.762 51.8535L346.299 84.7984C346.126 86.4462 344.65 87.6416 343.002 87.4684L303.462 83.3126C301.814 83.1394 300.619 81.6632 300.792 80.0154L304.255 47.0705Z" fill="white"/>
<path fill-rule="evenodd" clip-rule="evenodd" d="M306.381 73.0046L311.922 69.2672C313.556 68.1653 315.749 68.4174 317.09 69.8611L320.848 73.9072C321.206 74.2927 321.801 74.3348 322.21 74.0036L330.973 66.9033C332.821 65.406 335.559 65.8421 336.85 67.8393L342.655 76.8172L343.605 78.4034L343.179 83.4468C343.132 84.0074 342.632 84.4186 342.072 84.3565L304.969 80.2342C304.428 80.174 304.034 79.6912 304.084 79.1486L304.554 74.0407L306.381 73.0046Z" fill="white"/>
<path d="M305.498 47.2011C305.599 46.2399 306.46 45.5426 307.421 45.6437L346.961 49.7995C347.923 49.9005 348.62 50.7616 348.519 51.7228L345.056 84.6678C344.955 85.629 344.094 86.3263 343.133 86.2253L303.593 82.0694C302.632 81.9684 301.934 81.1073 302.035 80.1461L305.498 47.2011Z" fill="#008444" stroke="#26865E" stroke-width="2.5"/>
<circle cx="314.533" cy="57.1358" r="3.97896" transform="rotate(6 314.533 57.1358)" fill="white" stroke="#26865E" stroke-width="2.5"/>
<path fill-rule="evenodd" clip-rule="evenodd" d="M305.047 74.03C307.658 72.2273 312.879 68.6219 312.879 68.6219C313.962 67.8912 315.416 68.0583 316.305 69.0157L321.063 74.1373C321.3 74.3929 321.695 74.4209 321.966 74.2012L332.139 65.9584C333.277 65.0361 334.948 65.2112 335.87 66.3494C335.929 66.423 335.985 66.4997 336.036 66.5792C336.036 66.5792 341.984 76.0164 343.374 78.2216" fill="white"/>
<path d="M305.047 74.03C307.658 72.2273 312.879 68.6219 312.879 68.6219C313.962 67.8912 315.416 68.0583 316.305 69.0157L321.063 74.1373C321.3 74.3929 321.695 74.4209 321.966 74.2012L332.139 65.9584C333.277 65.0361 334.948 65.2112 335.87 66.3494C335.929 66.423 335.985 66.4997 336.036 66.5792C336.036 66.5792 341.984 76.0164 343.374 78.2216" stroke="#26865E" stroke-width="2.5" stroke-linecap="round"/>
<path d="M289.789 109.125V120.5H287.445L282.875 112.875V120.5H280.531V109.125H282.875L287.453 116.758V109.125H289.789ZM291.328 116.359V116.195C291.328 115.576 291.417 115.005 291.594 114.484C291.771 113.958 292.029 113.503 292.367 113.117C292.706 112.732 293.122 112.432 293.617 112.219C294.112 112 294.68 111.891 295.32 111.891C295.961 111.891 296.531 112 297.031 112.219C297.531 112.432 297.951 112.732 298.289 113.117C298.633 113.503 298.893 113.958 299.07 114.484C299.247 115.005 299.336 115.576 299.336 116.195V116.359C299.336 116.974 299.247 117.544 299.07 118.07C298.893 118.591 298.633 119.047 298.289 119.438C297.951 119.823 297.534 120.122 297.039 120.336C296.544 120.549 295.977 120.656 295.336 120.656C294.695 120.656 294.125 120.549 293.625 120.336C293.13 120.122 292.711 119.823 292.367 119.438C292.029 119.047 291.771 118.591 291.594 118.07C291.417 117.544 291.328 116.974 291.328 116.359ZM293.578 116.195V116.359C293.578 116.714 293.609 117.044 293.672 117.352C293.734 117.659 293.833 117.93 293.969 118.164C294.109 118.393 294.292 118.573 294.516 118.703C294.74 118.833 295.013 118.898 295.336 118.898C295.648 118.898 295.917 118.833 296.141 118.703C296.365 118.573 296.544 118.393 296.68 118.164C296.815 117.93 296.914 117.659 296.977 117.352C297.044 117.044 297.078 116.714 297.078 116.359V116.195C297.078 115.852 297.044 115.529 296.977 115.227C296.914 114.919 296.812 114.648 296.672 114.414C296.536 114.174 296.357 113.987 296.133 113.852C295.909 113.716 295.638 113.648 295.32 113.648C295.003 113.648 294.732 113.716 294.508 113.852C294.289 113.987 294.109 114.174 293.969 114.414C293.833 114.648 293.734 114.919 293.672 115.227C293.609 115.529 293.578 115.852 293.578 116.195ZM307.078 112.047V120.5H304.82V112.047H307.078ZM304.68 109.844C304.68 109.516 304.794 109.245 305.023 109.031C305.253 108.818 305.56 108.711 305.945 108.711C306.326 108.711 306.63 108.818 306.859 109.031C307.094 109.245 307.211 109.516 307.211 109.844C307.211 110.172 307.094 110.443 306.859 110.656C306.63 110.87 306.326 110.977 305.945 110.977C305.56 110.977 305.253 110.87 305.023 110.656C304.794 110.443 304.68 110.172 304.68 109.844ZM311.188 113.797V120.5H308.93V112.047H311.047L311.188 113.797ZM310.875 115.977H310.25C310.25 115.388 310.32 114.846 310.461 114.352C310.607 113.852 310.818 113.419 311.094 113.055C311.375 112.685 311.721 112.398 312.133 112.195C312.544 111.992 313.021 111.891 313.562 111.891C313.938 111.891 314.281 111.948 314.594 112.062C314.906 112.172 315.174 112.346 315.398 112.586C315.628 112.82 315.805 113.128 315.93 113.508C316.055 113.883 316.117 114.333 316.117 114.859V120.5H313.867V115.109C313.867 114.724 313.815 114.427 313.711 114.219C313.607 114.01 313.458 113.865 313.266 113.781C313.078 113.698 312.852 113.656 312.586 113.656C312.294 113.656 312.039 113.716 311.82 113.836C311.607 113.956 311.43 114.122 311.289 114.336C311.148 114.544 311.044 114.789 310.977 115.07C310.909 115.352 310.875 115.654 310.875 115.977ZM315.906 115.719L315.102 115.82C315.102 115.268 315.169 114.755 315.305 114.281C315.445 113.807 315.651 113.391 315.922 113.031C316.198 112.672 316.539 112.393 316.945 112.195C317.352 111.992 317.82 111.891 318.352 111.891C318.758 111.891 319.128 111.951 319.461 112.07C319.794 112.185 320.078 112.37 320.312 112.625C320.552 112.875 320.734 113.203 320.859 113.609C320.99 114.016 321.055 114.513 321.055 115.102V120.5H318.797V115.102C318.797 114.711 318.745 114.414 318.641 114.211C318.542 114.003 318.396 113.859 318.203 113.781C318.016 113.698 317.792 113.656 317.531 113.656C317.26 113.656 317.023 113.711 316.82 113.82C316.617 113.924 316.448 114.07 316.312 114.258C316.177 114.445 316.076 114.664 316.008 114.914C315.94 115.159 315.906 115.427 315.906 115.719ZM327.359 118.594V114.828C327.359 114.557 327.315 114.326 327.227 114.133C327.138 113.935 327 113.781 326.812 113.672C326.63 113.562 326.393 113.508 326.102 113.508C325.852 113.508 325.635 113.552 325.453 113.641C325.271 113.724 325.13 113.846 325.031 114.008C324.932 114.164 324.883 114.349 324.883 114.562H322.633C322.633 114.203 322.716 113.862 322.883 113.539C323.049 113.216 323.292 112.932 323.609 112.688C323.927 112.438 324.305 112.242 324.742 112.102C325.185 111.961 325.68 111.891 326.227 111.891C326.883 111.891 327.466 112 327.977 112.219C328.487 112.438 328.888 112.766 329.18 113.203C329.477 113.641 329.625 114.188 329.625 114.844V118.461C329.625 118.924 329.654 119.305 329.711 119.602C329.768 119.893 329.852 120.148 329.961 120.367V120.5H327.688C327.578 120.271 327.495 119.984 327.438 119.641C327.385 119.292 327.359 118.943 327.359 118.594ZM327.656 115.352L327.672 116.625H326.414C326.117 116.625 325.859 116.659 325.641 116.727C325.422 116.794 325.242 116.891 325.102 117.016C324.961 117.135 324.857 117.276 324.789 117.438C324.727 117.599 324.695 117.776 324.695 117.969C324.695 118.161 324.74 118.336 324.828 118.492C324.917 118.643 325.044 118.763 325.211 118.852C325.378 118.935 325.573 118.977 325.797 118.977C326.135 118.977 326.43 118.909 326.68 118.773C326.93 118.638 327.122 118.471 327.258 118.273C327.398 118.076 327.471 117.888 327.477 117.711L328.07 118.664C327.987 118.878 327.872 119.099 327.727 119.328C327.586 119.557 327.406 119.773 327.188 119.977C326.969 120.174 326.706 120.339 326.398 120.469C326.091 120.594 325.727 120.656 325.305 120.656C324.768 120.656 324.281 120.549 323.844 120.336C323.411 120.117 323.068 119.818 322.812 119.438C322.562 119.052 322.438 118.615 322.438 118.125C322.438 117.682 322.521 117.289 322.688 116.945C322.854 116.602 323.099 116.312 323.422 116.078C323.75 115.839 324.159 115.659 324.648 115.539C325.138 115.414 325.706 115.352 326.352 115.352H327.656ZM336.711 112.047H338.75V120.219C338.75 120.99 338.578 121.643 338.234 122.18C337.896 122.721 337.422 123.13 336.812 123.406C336.203 123.688 335.495 123.828 334.688 123.828C334.333 123.828 333.958 123.781 333.562 123.688C333.172 123.594 332.797 123.448 332.438 123.25C332.083 123.052 331.786 122.802 331.547 122.5L332.539 121.172C332.799 121.474 333.102 121.708 333.445 121.875C333.789 122.047 334.169 122.133 334.586 122.133C334.992 122.133 335.336 122.057 335.617 121.906C335.898 121.76 336.115 121.544 336.266 121.258C336.417 120.977 336.492 120.635 336.492 120.234V114L336.711 112.047ZM331.023 116.375V116.211C331.023 115.565 331.102 114.979 331.258 114.453C331.419 113.922 331.646 113.466 331.938 113.086C332.234 112.706 332.594 112.411 333.016 112.203C333.438 111.995 333.914 111.891 334.445 111.891C335.008 111.891 335.479 111.995 335.859 112.203C336.24 112.411 336.552 112.708 336.797 113.094C337.042 113.474 337.232 113.924 337.367 114.445C337.508 114.961 337.617 115.526 337.695 116.141V116.5C337.617 117.089 337.5 117.635 337.344 118.141C337.188 118.646 336.982 119.089 336.727 119.469C336.471 119.844 336.154 120.135 335.773 120.344C335.398 120.552 334.951 120.656 334.43 120.656C333.909 120.656 333.438 120.549 333.016 120.336C332.599 120.122 332.242 119.823 331.945 119.438C331.648 119.052 331.419 118.599 331.258 118.078C331.102 117.557 331.023 116.99 331.023 116.375ZM333.273 116.211V116.375C333.273 116.724 333.307 117.049 333.375 117.352C333.443 117.654 333.547 117.922 333.688 118.156C333.833 118.385 334.013 118.565 334.227 118.695C334.445 118.82 334.703 118.883 335 118.883C335.411 118.883 335.747 118.797 336.008 118.625C336.268 118.448 336.464 118.206 336.594 117.898C336.724 117.591 336.799 117.237 336.82 116.836V115.812C336.81 115.484 336.766 115.19 336.688 114.93C336.609 114.664 336.5 114.438 336.359 114.25C336.219 114.062 336.036 113.917 335.812 113.812C335.589 113.708 335.323 113.656 335.016 113.656C334.719 113.656 334.461 113.724 334.242 113.859C334.029 113.99 333.849 114.169 333.703 114.398C333.562 114.628 333.456 114.898 333.383 115.211C333.31 115.518 333.273 115.852 333.273 116.211ZM344.391 120.656C343.734 120.656 343.146 120.552 342.625 120.344C342.104 120.13 341.661 119.836 341.297 119.461C340.938 119.086 340.661 118.651 340.469 118.156C340.276 117.656 340.18 117.125 340.18 116.562V116.25C340.18 115.609 340.271 115.023 340.453 114.492C340.635 113.961 340.896 113.5 341.234 113.109C341.578 112.719 341.995 112.419 342.484 112.211C342.974 111.997 343.526 111.891 344.141 111.891C344.74 111.891 345.271 111.99 345.734 112.188C346.198 112.385 346.586 112.667 346.898 113.031C347.216 113.396 347.456 113.833 347.617 114.344C347.779 114.849 347.859 115.411 347.859 116.031V116.969H341.141V115.469H345.648V115.297C345.648 114.984 345.591 114.706 345.477 114.461C345.367 114.211 345.201 114.013 344.977 113.867C344.753 113.721 344.466 113.648 344.117 113.648C343.82 113.648 343.565 113.714 343.352 113.844C343.138 113.974 342.964 114.156 342.828 114.391C342.698 114.625 342.599 114.901 342.531 115.219C342.469 115.531 342.438 115.875 342.438 116.25V116.562C342.438 116.901 342.484 117.214 342.578 117.5C342.677 117.786 342.815 118.034 342.992 118.242C343.174 118.451 343.393 118.612 343.648 118.727C343.909 118.841 344.203 118.898 344.531 118.898C344.938 118.898 345.315 118.82 345.664 118.664C346.018 118.503 346.323 118.26 346.578 117.938L347.672 119.125C347.495 119.38 347.253 119.625 346.945 119.859C346.643 120.094 346.279 120.286 345.852 120.438C345.424 120.583 344.938 120.656 344.391 120.656ZM353.711 118.164C353.711 118.003 353.664 117.857 353.57 117.727C353.477 117.596 353.302 117.477 353.047 117.367C352.797 117.253 352.435 117.148 351.961 117.055C351.534 116.961 351.135 116.844 350.766 116.703C350.401 116.557 350.083 116.383 349.812 116.18C349.547 115.977 349.339 115.737 349.188 115.461C349.036 115.18 348.961 114.859 348.961 114.5C348.961 114.146 349.036 113.812 349.188 113.5C349.344 113.188 349.565 112.911 349.852 112.672C350.143 112.427 350.497 112.237 350.914 112.102C351.336 111.961 351.81 111.891 352.336 111.891C353.07 111.891 353.701 112.008 354.227 112.242C354.758 112.477 355.164 112.799 355.445 113.211C355.732 113.617 355.875 114.081 355.875 114.602H353.625C353.625 114.383 353.578 114.188 353.484 114.016C353.396 113.839 353.255 113.701 353.062 113.602C352.875 113.497 352.63 113.445 352.328 113.445C352.078 113.445 351.862 113.49 351.68 113.578C351.497 113.661 351.357 113.776 351.258 113.922C351.164 114.062 351.117 114.219 351.117 114.391C351.117 114.521 351.143 114.638 351.195 114.742C351.253 114.841 351.344 114.932 351.469 115.016C351.594 115.099 351.755 115.177 351.953 115.25C352.156 115.318 352.406 115.38 352.703 115.438C353.312 115.562 353.857 115.727 354.336 115.93C354.815 116.128 355.195 116.398 355.477 116.742C355.758 117.081 355.898 117.526 355.898 118.078C355.898 118.453 355.815 118.797 355.648 119.109C355.482 119.422 355.242 119.695 354.93 119.93C354.617 120.159 354.242 120.339 353.805 120.469C353.372 120.594 352.885 120.656 352.344 120.656C351.557 120.656 350.891 120.516 350.344 120.234C349.802 119.953 349.391 119.596 349.109 119.164C348.833 118.727 348.695 118.279 348.695 117.82H350.828C350.839 118.128 350.917 118.375 351.062 118.562C351.214 118.75 351.404 118.885 351.633 118.969C351.867 119.052 352.12 119.094 352.391 119.094C352.682 119.094 352.924 119.055 353.117 118.977C353.31 118.893 353.456 118.784 353.555 118.648C353.659 118.508 353.711 118.346 353.711 118.164Z" fill="#008444"/>
<path d="M255.36 142.5H254.002V132.469H255.36V142.5ZM257.847 142.5V135.409H258.589C258.767 135.409 258.879 135.495 258.925 135.668L259.016 136.396C259.278 136.074 259.569 135.81 259.891 135.605C260.218 135.4 260.596 135.297 261.025 135.297C261.506 135.297 261.893 135.43 262.187 135.696C262.486 135.962 262.701 136.321 262.831 136.774C262.929 136.517 263.058 136.296 263.216 136.109C263.38 135.922 263.562 135.768 263.762 135.647C263.963 135.526 264.175 135.437 264.399 135.381C264.628 135.325 264.859 135.297 265.092 135.297C265.466 135.297 265.797 135.358 266.086 135.479C266.38 135.596 266.628 135.768 266.828 135.997C267.034 136.226 267.19 136.508 267.297 136.844C267.405 137.175 267.458 137.556 267.458 137.985V142.5H266.212V137.985C266.212 137.43 266.091 137.01 265.848 136.725C265.606 136.436 265.253 136.291 264.791 136.291C264.586 136.291 264.39 136.328 264.203 136.403C264.021 136.473 263.86 136.578 263.72 136.718C263.58 136.858 263.468 137.035 263.384 137.25C263.305 137.46 263.265 137.705 263.265 137.985V142.5H262.019V137.985C262.019 137.416 261.905 136.991 261.676 136.711C261.448 136.431 261.114 136.291 260.675 136.291C260.367 136.291 260.08 136.375 259.814 136.543C259.553 136.706 259.313 136.93 259.093 137.215V142.5H257.847ZM274.553 142.5H274C273.879 142.5 273.781 142.481 273.706 142.444C273.632 142.407 273.583 142.327 273.559 142.206L273.419 141.548C273.233 141.716 273.051 141.868 272.873 142.003C272.696 142.134 272.509 142.246 272.313 142.339C272.117 142.428 271.907 142.495 271.683 142.542C271.464 142.589 271.219 142.612 270.948 142.612C270.673 142.612 270.414 142.575 270.171 142.5C269.933 142.421 269.726 142.304 269.548 142.15C269.371 141.996 269.229 141.802 269.121 141.569C269.019 141.331 268.967 141.051 268.967 140.729C268.967 140.449 269.044 140.181 269.198 139.924C269.352 139.663 269.6 139.432 269.94 139.231C270.286 139.03 270.736 138.867 271.291 138.741C271.847 138.61 272.526 138.536 273.328 138.517V137.964C273.328 137.413 273.209 136.998 272.971 136.718C272.738 136.433 272.39 136.291 271.928 136.291C271.625 136.291 271.368 136.331 271.158 136.41C270.953 136.485 270.773 136.571 270.619 136.669C270.47 136.762 270.339 136.849 270.227 136.928C270.12 137.003 270.013 137.04 269.905 137.04C269.821 137.04 269.747 137.019 269.681 136.977C269.621 136.93 269.572 136.874 269.534 136.809L269.31 136.41C269.702 136.032 270.125 135.75 270.577 135.563C271.03 135.376 271.532 135.283 272.082 135.283C272.479 135.283 272.831 135.348 273.139 135.479C273.447 135.61 273.706 135.792 273.916 136.025C274.126 136.258 274.285 136.541 274.392 136.872C274.5 137.203 274.553 137.567 274.553 137.964V142.5ZM271.319 141.737C271.539 141.737 271.739 141.716 271.921 141.674C272.103 141.627 272.274 141.564 272.432 141.485C272.596 141.401 272.75 141.301 272.894 141.184C273.044 141.067 273.188 140.934 273.328 140.785V139.308C272.754 139.327 272.267 139.373 271.865 139.448C271.464 139.518 271.137 139.611 270.885 139.728C270.633 139.845 270.449 139.982 270.332 140.141C270.22 140.3 270.164 140.477 270.164 140.673C270.164 140.86 270.195 141.021 270.255 141.156C270.316 141.291 270.398 141.403 270.5 141.492C270.603 141.576 270.724 141.639 270.864 141.681C271.004 141.718 271.156 141.737 271.319 141.737ZM278.828 135.29C279.136 135.29 279.423 135.325 279.689 135.395C279.96 135.46 280.205 135.558 280.424 135.689H282.349V136.151C282.349 136.305 282.251 136.403 282.055 136.445L281.25 136.557C281.409 136.86 281.488 137.199 281.488 137.572C281.488 137.917 281.42 138.232 281.285 138.517C281.154 138.797 280.97 139.037 280.732 139.238C280.499 139.439 280.219 139.593 279.892 139.7C279.57 139.807 279.215 139.861 278.828 139.861C278.497 139.861 278.184 139.821 277.89 139.742C277.741 139.835 277.626 139.936 277.547 140.043C277.472 140.15 277.435 140.255 277.435 140.358C277.435 140.526 277.503 140.654 277.638 140.743C277.773 140.827 277.953 140.888 278.177 140.925C278.401 140.962 278.655 140.986 278.94 140.995C279.225 141.004 279.514 141.021 279.808 141.044C280.107 141.063 280.398 141.098 280.683 141.149C280.968 141.2 281.222 141.284 281.446 141.401C281.67 141.518 281.85 141.679 281.985 141.884C282.12 142.089 282.188 142.355 282.188 142.682C282.188 142.985 282.111 143.279 281.957 143.564C281.808 143.849 281.591 144.101 281.306 144.32C281.021 144.544 280.674 144.721 280.263 144.852C279.852 144.987 279.388 145.055 278.87 145.055C278.352 145.055 277.897 145.004 277.505 144.901C277.118 144.798 276.796 144.661 276.539 144.488C276.282 144.315 276.089 144.115 275.958 143.886C275.832 143.662 275.769 143.426 275.769 143.179C275.769 142.829 275.879 142.533 276.098 142.29C276.322 142.043 276.628 141.847 277.015 141.702C276.814 141.609 276.653 141.485 276.532 141.331C276.415 141.172 276.357 140.962 276.357 140.701C276.357 140.598 276.376 140.493 276.413 140.386C276.45 140.274 276.506 140.164 276.581 140.057C276.66 139.95 276.756 139.847 276.868 139.749C276.98 139.651 277.111 139.565 277.26 139.49C276.91 139.294 276.635 139.035 276.434 138.713C276.238 138.386 276.14 138.006 276.14 137.572C276.14 137.227 276.205 136.914 276.336 136.634C276.471 136.349 276.658 136.109 276.896 135.913C277.134 135.712 277.416 135.558 277.743 135.451C278.074 135.344 278.436 135.29 278.828 135.29ZM281.04 142.885C281.04 142.708 280.991 142.565 280.893 142.458C280.795 142.351 280.662 142.269 280.494 142.213C280.326 142.152 280.132 142.108 279.913 142.08C279.694 142.052 279.463 142.033 279.22 142.024C278.977 142.01 278.73 141.996 278.478 141.982C278.226 141.968 277.986 141.942 277.757 141.905C277.491 142.031 277.274 142.185 277.106 142.367C276.943 142.549 276.861 142.766 276.861 143.018C276.861 143.177 276.901 143.324 276.98 143.459C277.064 143.599 277.19 143.718 277.358 143.816C277.526 143.919 277.736 143.998 277.988 144.054C278.245 144.115 278.546 144.145 278.891 144.145C279.227 144.145 279.528 144.115 279.794 144.054C280.06 143.993 280.284 143.907 280.466 143.795C280.653 143.683 280.795 143.55 280.893 143.396C280.991 143.242 281.04 143.072 281.04 142.885ZM278.828 139.035C279.08 139.035 279.302 139 279.493 138.93C279.689 138.86 279.852 138.762 279.983 138.636C280.114 138.51 280.212 138.361 280.277 138.188C280.342 138.011 280.375 137.817 280.375 137.607C280.375 137.173 280.242 136.828 279.976 136.571C279.715 136.314 279.332 136.186 278.828 136.186C278.329 136.186 277.946 136.314 277.68 136.571C277.419 136.828 277.288 137.173 277.288 137.607C277.288 137.817 277.321 138.011 277.386 138.188C277.456 138.361 277.556 138.51 277.687 138.636C277.818 138.762 277.979 138.86 278.17 138.93C278.361 139 278.581 139.035 278.828 139.035ZM286.398 135.297C286.823 135.297 287.215 135.369 287.574 135.514C287.934 135.654 288.244 135.859 288.505 136.13C288.767 136.396 288.97 136.727 289.114 137.124C289.264 137.516 289.338 137.964 289.338 138.468C289.338 138.664 289.317 138.795 289.275 138.86C289.233 138.925 289.154 138.958 289.037 138.958H284.319C284.329 139.406 284.389 139.796 284.501 140.127C284.613 140.458 284.767 140.736 284.963 140.96C285.159 141.179 285.393 141.345 285.663 141.457C285.934 141.564 286.237 141.618 286.573 141.618C286.886 141.618 287.154 141.583 287.378 141.513C287.607 141.438 287.803 141.359 287.966 141.275C288.13 141.191 288.265 141.114 288.372 141.044C288.484 140.969 288.58 140.932 288.659 140.932C288.762 140.932 288.841 140.972 288.897 141.051L289.247 141.506C289.093 141.693 288.909 141.856 288.694 141.996C288.48 142.131 288.249 142.243 288.001 142.332C287.759 142.421 287.507 142.486 287.245 142.528C286.984 142.575 286.725 142.598 286.468 142.598C285.978 142.598 285.526 142.516 285.11 142.353C284.7 142.185 284.343 141.942 284.039 141.625C283.741 141.303 283.507 140.906 283.339 140.435C283.171 139.964 283.087 139.422 283.087 138.811C283.087 138.316 283.162 137.854 283.311 137.425C283.465 136.996 283.685 136.625 283.969 136.312C284.254 135.995 284.602 135.747 285.012 135.57C285.423 135.388 285.885 135.297 286.398 135.297ZM286.426 136.214C285.824 136.214 285.351 136.389 285.005 136.739C284.66 137.084 284.445 137.565 284.361 138.181H288.218C288.218 137.892 288.179 137.628 288.099 137.39C288.02 137.147 287.903 136.94 287.749 136.767C287.595 136.59 287.406 136.454 287.182 136.361C286.963 136.263 286.711 136.214 286.426 136.214ZM293.682 142.5V132.189H294.935V136.431C295.229 136.09 295.565 135.817 295.943 135.612C296.326 135.402 296.762 135.297 297.252 135.297C297.663 135.297 298.034 135.374 298.365 135.528C298.696 135.682 298.979 135.913 299.212 136.221C299.445 136.524 299.625 136.902 299.751 137.355C299.877 137.803 299.94 138.321 299.94 138.909C299.94 139.432 299.87 139.919 299.73 140.372C299.59 140.82 299.387 141.21 299.121 141.541C298.86 141.868 298.538 142.127 298.155 142.318C297.777 142.505 297.35 142.598 296.874 142.598C296.417 142.598 296.027 142.509 295.705 142.332C295.388 142.155 295.11 141.907 294.872 141.59L294.809 142.234C294.772 142.411 294.664 142.5 294.487 142.5H293.682ZM296.846 136.291C296.44 136.291 296.083 136.384 295.775 136.571C295.472 136.758 295.192 137.021 294.935 137.362V140.792C295.159 141.1 295.406 141.317 295.677 141.443C295.952 141.569 296.258 141.632 296.594 141.632C297.257 141.632 297.765 141.396 298.12 140.925C298.475 140.454 298.652 139.782 298.652 138.909C298.652 138.447 298.61 138.05 298.526 137.719C298.447 137.388 298.33 137.117 298.176 136.907C298.022 136.692 297.833 136.536 297.609 136.438C297.385 136.34 297.131 136.291 296.846 136.291ZM304.267 135.297C304.692 135.297 305.084 135.369 305.443 135.514C305.803 135.654 306.113 135.859 306.374 136.13C306.636 136.396 306.839 136.727 306.983 137.124C307.133 137.516 307.207 137.964 307.207 138.468C307.207 138.664 307.186 138.795 307.144 138.86C307.102 138.925 307.023 138.958 306.906 138.958H302.188C302.198 139.406 302.258 139.796 302.37 140.127C302.482 140.458 302.636 140.736 302.832 140.96C303.028 141.179 303.262 141.345 303.532 141.457C303.803 141.564 304.106 141.618 304.442 141.618C304.755 141.618 305.023 141.583 305.247 141.513C305.476 141.438 305.672 141.359 305.835 141.275C305.999 141.191 306.134 141.114 306.241 141.044C306.353 140.969 306.449 140.932 306.528 140.932C306.631 140.932 306.71 140.972 306.766 141.051L307.116 141.506C306.962 141.693 306.778 141.856 306.563 141.996C306.349 142.131 306.118 142.243 305.87 142.332C305.628 142.421 305.376 142.486 305.114 142.528C304.853 142.575 304.594 142.598 304.337 142.598C303.847 142.598 303.395 142.516 302.979 142.353C302.569 142.185 302.212 141.942 301.908 141.625C301.61 141.303 301.376 140.906 301.208 140.435C301.04 139.964 300.956 139.422 300.956 138.811C300.956 138.316 301.031 137.854 301.18 137.425C301.334 136.996 301.554 136.625 301.838 136.312C302.123 135.995 302.471 135.747 302.881 135.57C303.292 135.388 303.754 135.297 304.267 135.297ZM304.295 136.214C303.693 136.214 303.22 136.389 302.874 136.739C302.529 137.084 302.314 137.565 302.23 138.181H306.087C306.087 137.892 306.048 137.628 305.968 137.39C305.889 137.147 305.772 136.94 305.618 136.767C305.464 136.59 305.275 136.454 305.051 136.361C304.832 136.263 304.58 136.214 304.295 136.214ZM310.188 132.189V142.5H308.942V132.189H310.188ZM313.462 135.409V139.931C313.462 140.468 313.586 140.883 313.833 141.177C314.081 141.471 314.454 141.618 314.953 141.618C315.317 141.618 315.66 141.532 315.982 141.359C316.304 141.186 316.601 140.946 316.871 140.638V135.409H318.117V142.5H317.375C317.198 142.5 317.086 142.414 317.039 142.241L316.941 141.478C316.633 141.819 316.288 142.094 315.905 142.304C315.523 142.509 315.084 142.612 314.589 142.612C314.202 142.612 313.859 142.549 313.56 142.423C313.266 142.292 313.019 142.11 312.818 141.877C312.618 141.644 312.466 141.361 312.363 141.03C312.265 140.699 312.216 140.332 312.216 139.931V135.409H313.462ZM320.164 142.5V135.409H320.906C321.083 135.409 321.195 135.495 321.242 135.668L321.333 136.396C321.594 136.074 321.886 135.81 322.208 135.605C322.534 135.4 322.912 135.297 323.342 135.297C323.822 135.297 324.21 135.43 324.504 135.696C324.802 135.962 325.017 136.321 325.148 136.774C325.246 136.517 325.374 136.296 325.533 136.109C325.696 135.922 325.878 135.768 326.079 135.647C326.279 135.526 326.492 135.437 326.716 135.381C326.944 135.325 327.175 135.297 327.409 135.297C327.782 135.297 328.113 135.358 328.403 135.479C328.697 135.596 328.944 135.768 329.145 135.997C329.35 136.226 329.506 136.508 329.614 136.844C329.721 137.175 329.775 137.556 329.775 137.985V142.5H328.529V137.985C328.529 137.43 328.407 137.01 328.165 136.725C327.922 136.436 327.57 136.291 327.108 136.291C326.902 136.291 326.706 136.328 326.52 136.403C326.338 136.473 326.177 136.578 326.037 136.718C325.897 136.858 325.785 137.035 325.701 137.25C325.621 137.46 325.582 137.705 325.582 137.985V142.5H324.336V137.985C324.336 137.416 324.221 136.991 323.993 136.711C323.764 136.431 323.43 136.291 322.992 136.291C322.684 136.291 322.397 136.375 322.131 136.543C321.869 136.706 321.629 136.93 321.41 137.215V142.5H320.164ZM336.518 142.612C335.958 142.612 335.526 142.456 335.223 142.143C334.924 141.83 334.775 141.38 334.775 140.792V136.452H333.921C333.846 136.452 333.783 136.431 333.732 136.389C333.68 136.342 333.655 136.272 333.655 136.179V135.682L334.817 135.535L335.104 133.344C335.113 133.274 335.143 133.218 335.195 133.176C335.246 133.129 335.311 133.106 335.391 133.106H336.021V135.549H338.051V136.452H336.021V140.708C336.021 141.007 336.093 141.228 336.238 141.373C336.382 141.518 336.569 141.59 336.798 141.59C336.928 141.59 337.04 141.574 337.134 141.541C337.232 141.504 337.316 141.464 337.386 141.422C337.456 141.38 337.514 141.343 337.561 141.31C337.612 141.273 337.656 141.254 337.694 141.254C337.759 141.254 337.817 141.294 337.869 141.373L338.233 141.968C338.018 142.169 337.759 142.327 337.456 142.444C337.152 142.556 336.84 142.612 336.518 142.612ZM342.398 135.297C342.823 135.297 343.215 135.369 343.574 135.514C343.934 135.654 344.244 135.859 344.505 136.13C344.767 136.396 344.97 136.727 345.114 137.124C345.264 137.516 345.338 137.964 345.338 138.468C345.338 138.664 345.317 138.795 345.275 138.86C345.233 138.925 345.154 138.958 345.037 138.958H340.319C340.329 139.406 340.389 139.796 340.501 140.127C340.613 140.458 340.767 140.736 340.963 140.96C341.159 141.179 341.393 141.345 341.663 141.457C341.934 141.564 342.237 141.618 342.573 141.618C342.886 141.618 343.154 141.583 343.378 141.513C343.607 141.438 343.803 141.359 343.966 141.275C344.13 141.191 344.265 141.114 344.372 141.044C344.484 140.969 344.58 140.932 344.659 140.932C344.762 140.932 344.841 140.972 344.897 141.051L345.247 141.506C345.093 141.693 344.909 141.856 344.694 141.996C344.48 142.131 344.249 142.243 344.001 142.332C343.759 142.421 343.507 142.486 343.245 142.528C342.984 142.575 342.725 142.598 342.468 142.598C341.978 142.598 341.526 142.516 341.11 142.353C340.7 142.185 340.343 141.942 340.039 141.625C339.741 141.303 339.507 140.906 339.339 140.435C339.171 139.964 339.087 139.422 339.087 138.811C339.087 138.316 339.162 137.854 339.311 137.425C339.465 136.996 339.685 136.625 339.969 136.312C340.254 135.995 340.602 135.747 341.012 135.57C341.423 135.388 341.885 135.297 342.398 135.297ZM342.426 136.214C341.824 136.214 341.351 136.389 341.005 136.739C340.66 137.084 340.445 137.565 340.361 138.181H344.218C344.218 137.892 344.179 137.628 344.099 137.39C344.02 137.147 343.903 136.94 343.749 136.767C343.595 136.59 343.406 136.454 343.182 136.361C342.963 136.263 342.711 136.214 342.426 136.214ZM346.933 142.5V135.409H347.647C347.782 135.409 347.876 135.435 347.927 135.486C347.978 135.537 348.013 135.626 348.032 135.752L348.116 136.858C348.359 136.363 348.657 135.978 349.012 135.703C349.371 135.423 349.791 135.283 350.272 135.283C350.468 135.283 350.645 135.306 350.804 135.353C350.963 135.395 351.11 135.456 351.245 135.535L351.084 136.466C351.051 136.583 350.979 136.641 350.867 136.641C350.802 136.641 350.701 136.62 350.566 136.578C350.431 136.531 350.242 136.508 349.999 136.508C349.565 136.508 349.201 136.634 348.907 136.886C348.618 137.138 348.375 137.504 348.179 137.985V142.5H346.933ZM356.64 136.578C356.584 136.681 356.497 136.732 356.381 136.732C356.311 136.732 356.231 136.706 356.143 136.655C356.054 136.604 355.944 136.548 355.814 136.487C355.688 136.422 355.536 136.363 355.359 136.312C355.181 136.256 354.971 136.228 354.729 136.228C354.519 136.228 354.33 136.256 354.162 136.312C353.994 136.363 353.849 136.436 353.728 136.529C353.611 136.622 353.52 136.732 353.455 136.858C353.394 136.979 353.364 137.112 353.364 137.257C353.364 137.439 353.415 137.591 353.518 137.712C353.625 137.833 353.765 137.938 353.938 138.027C354.11 138.116 354.306 138.195 354.526 138.265C354.745 138.33 354.969 138.403 355.198 138.482C355.431 138.557 355.657 138.641 355.877 138.734C356.096 138.827 356.292 138.944 356.465 139.084C356.637 139.224 356.775 139.397 356.878 139.602C356.985 139.803 357.039 140.045 357.039 140.33C357.039 140.657 356.98 140.96 356.864 141.24C356.747 141.515 356.574 141.756 356.346 141.961C356.117 142.162 355.837 142.32 355.506 142.437C355.174 142.554 354.792 142.612 354.358 142.612C353.863 142.612 353.415 142.533 353.014 142.374C352.612 142.211 352.272 142.003 351.992 141.751L352.286 141.275C352.323 141.214 352.367 141.168 352.419 141.135C352.47 141.102 352.538 141.086 352.622 141.086C352.706 141.086 352.794 141.119 352.888 141.184C352.981 141.249 353.093 141.322 353.224 141.401C353.359 141.48 353.52 141.553 353.707 141.618C353.898 141.683 354.136 141.716 354.421 141.716C354.663 141.716 354.876 141.686 355.058 141.625C355.24 141.56 355.391 141.473 355.513 141.366C355.634 141.259 355.723 141.135 355.779 140.995C355.839 140.855 355.87 140.706 355.87 140.547C355.87 140.351 355.816 140.19 355.709 140.064C355.606 139.933 355.468 139.824 355.296 139.735C355.123 139.642 354.925 139.562 354.701 139.497C354.481 139.427 354.255 139.355 354.022 139.28C353.793 139.205 353.567 139.121 353.343 139.028C353.123 138.93 352.927 138.809 352.755 138.664C352.582 138.519 352.442 138.342 352.335 138.132C352.232 137.917 352.181 137.658 352.181 137.355C352.181 137.084 352.237 136.825 352.349 136.578C352.461 136.326 352.624 136.107 352.839 135.92C353.053 135.729 353.317 135.577 353.63 135.465C353.942 135.353 354.299 135.297 354.701 135.297C355.167 135.297 355.585 135.372 355.954 135.521C356.327 135.666 356.649 135.866 356.92 136.123L356.64 136.578ZM361.457 135.297C361.882 135.297 362.274 135.369 362.633 135.514C362.992 135.654 363.303 135.859 363.564 136.13C363.825 136.396 364.028 136.727 364.173 137.124C364.322 137.516 364.397 137.964 364.397 138.468C364.397 138.664 364.376 138.795 364.334 138.86C364.292 138.925 364.213 138.958 364.096 138.958H359.378C359.387 139.406 359.448 139.796 359.56 140.127C359.672 140.458 359.826 140.736 360.022 140.96C360.218 141.179 360.451 141.345 360.722 141.457C360.993 141.564 361.296 141.618 361.632 141.618C361.945 141.618 362.213 141.583 362.437 141.513C362.666 141.438 362.862 141.359 363.025 141.275C363.188 141.191 363.324 141.114 363.431 141.044C363.543 140.969 363.639 140.932 363.718 140.932C363.821 140.932 363.9 140.972 363.956 141.051L364.306 141.506C364.152 141.693 363.968 141.856 363.753 141.996C363.538 142.131 363.307 142.243 363.06 142.332C362.817 142.421 362.565 142.486 362.304 142.528C362.043 142.575 361.784 142.598 361.527 142.598C361.037 142.598 360.584 142.516 360.169 142.353C359.758 142.185 359.401 141.942 359.098 141.625C358.799 141.303 358.566 140.906 358.398 140.435C358.23 139.964 358.146 139.422 358.146 138.811C358.146 138.316 358.221 137.854 358.37 137.425C358.524 136.996 358.743 136.625 359.028 136.312C359.313 135.995 359.66 135.747 360.071 135.57C360.482 135.388 360.944 135.297 361.457 135.297ZM361.485 136.214C360.883 136.214 360.409 136.389 360.064 136.739C359.719 137.084 359.504 137.565 359.42 138.181H363.277C363.277 137.892 363.237 137.628 363.158 137.39C363.079 137.147 362.962 136.94 362.808 136.767C362.654 136.59 362.465 136.454 362.241 136.361C362.022 136.263 361.77 136.214 361.485 136.214ZM370.983 142.5C370.805 142.5 370.693 142.414 370.647 142.241L370.535 141.38C370.231 141.749 369.884 142.045 369.492 142.269C369.104 142.488 368.659 142.598 368.155 142.598C367.749 142.598 367.38 142.521 367.049 142.367C366.717 142.208 366.435 141.977 366.202 141.674C365.968 141.371 365.789 140.993 365.663 140.54C365.537 140.087 365.474 139.567 365.474 138.979C365.474 138.456 365.544 137.971 365.684 137.523C365.824 137.07 366.024 136.678 366.286 136.347C366.552 136.016 366.874 135.757 367.252 135.57C367.63 135.379 368.059 135.283 368.54 135.283C368.974 135.283 369.345 135.358 369.653 135.507C369.961 135.652 370.236 135.857 370.479 136.123V132.189H371.725V142.5H370.983ZM368.568 141.59C368.974 141.59 369.328 141.497 369.632 141.31C369.94 141.123 370.222 140.86 370.479 140.519V137.089C370.25 136.781 369.998 136.566 369.723 136.445C369.452 136.319 369.151 136.256 368.82 136.256C368.157 136.256 367.648 136.492 367.294 136.963C366.939 137.434 366.762 138.106 366.762 138.979C366.762 139.441 366.801 139.838 366.881 140.169C366.96 140.496 367.077 140.766 367.231 140.981C367.385 141.191 367.574 141.345 367.798 141.443C368.022 141.541 368.278 141.59 368.568 141.59ZM375.198 135.409V142.5H373.952V135.409H375.198ZM375.478 133.183C375.478 133.304 375.452 133.419 375.401 133.526C375.354 133.629 375.289 133.722 375.205 133.806C375.126 133.885 375.032 133.948 374.925 133.995C374.818 134.042 374.703 134.065 374.582 134.065C374.461 134.065 374.346 134.042 374.239 133.995C374.136 133.948 374.043 133.885 373.959 133.806C373.88 133.722 373.817 133.629 373.77 133.526C373.723 133.419 373.7 133.304 373.7 133.183C373.7 133.062 373.723 132.947 373.77 132.84C373.817 132.728 373.88 132.632 373.959 132.553C374.043 132.469 374.136 132.404 374.239 132.357C374.346 132.31 374.461 132.287 374.582 132.287C374.703 132.287 374.818 132.31 374.925 132.357C375.032 132.404 375.126 132.469 375.205 132.553C375.289 132.632 375.354 132.728 375.401 132.84C375.452 132.947 375.478 133.062 375.478 133.183ZM382.602 142.5H382.049C381.928 142.5 381.83 142.481 381.755 142.444C381.68 142.407 381.631 142.327 381.608 142.206L381.468 141.548C381.281 141.716 381.099 141.868 380.922 142.003C380.745 142.134 380.558 142.246 380.362 142.339C380.166 142.428 379.956 142.495 379.732 142.542C379.513 142.589 379.268 142.612 378.997 142.612C378.722 142.612 378.463 142.575 378.22 142.5C377.982 142.421 377.774 142.304 377.597 142.15C377.42 141.996 377.277 141.802 377.17 141.569C377.067 141.331 377.016 141.051 377.016 140.729C377.016 140.449 377.093 140.181 377.247 139.924C377.401 139.663 377.648 139.432 377.989 139.231C378.334 139.03 378.785 138.867 379.34 138.741C379.895 138.61 380.574 138.536 381.377 138.517V137.964C381.377 137.413 381.258 136.998 381.02 136.718C380.787 136.433 380.439 136.291 379.977 136.291C379.674 136.291 379.417 136.331 379.207 136.41C379.002 136.485 378.822 136.571 378.668 136.669C378.519 136.762 378.388 136.849 378.276 136.928C378.169 137.003 378.061 137.04 377.954 137.04C377.87 137.04 377.795 137.019 377.73 136.977C377.669 136.93 377.62 136.874 377.583 136.809L377.359 136.41C377.751 136.032 378.173 135.75 378.626 135.563C379.079 135.376 379.58 135.283 380.131 135.283C380.528 135.283 380.88 135.348 381.188 135.479C381.496 135.61 381.755 135.792 381.965 136.025C382.175 136.258 382.334 136.541 382.441 136.872C382.548 137.203 382.602 137.567 382.602 137.964V142.5ZM379.368 141.737C379.587 141.737 379.788 141.716 379.97 141.674C380.152 141.627 380.322 141.564 380.481 141.485C380.644 141.401 380.798 141.301 380.943 141.184C381.092 141.067 381.237 140.934 381.377 140.785V139.308C380.803 139.327 380.315 139.373 379.914 139.448C379.513 139.518 379.186 139.611 378.934 139.728C378.682 139.845 378.498 139.982 378.381 140.141C378.269 140.3 378.213 140.477 378.213 140.673C378.213 140.86 378.243 141.021 378.304 141.156C378.365 141.291 378.446 141.403 378.549 141.492C378.652 141.576 378.773 141.639 378.913 141.681C379.053 141.718 379.205 141.737 379.368 141.737Z" fill="#7E7E7E"/>
</svg>
