<svg width="24" height="24" viewBox="0 0 24 24" fill="none" xmlns="http://www.w3.org/2000/svg">
<path d="M21.0625 7H20.75V5.125C20.75 3.375 16.875 2 12 2C7.125 2 3.25 3.375 3.25 5.125V7H2.9375C2.41992 7 2 7.41953 2 7.9375V11.0625C2 11.5801 2.41992 12 2.9375 12H3.25V18.25C3.25 18.9402 3.80977 19.5 4.5 19.5V20.75C4.5 21.4402 5.05977 22 5.75 22H7C7.69023 22 8.25 21.4402 8.25 20.75V19.5H15.75V20.75C15.75 21.4402 16.3098 22 17 22H18.25C18.9402 22 19.5 21.4402 19.5 20.75V19.5H19.75C20.375 19.5 20.75 19 20.75 18.5V12H21.0625C21.5801 12 22 11.5801 22 11.0625V7.9375C22 7.41953 21.5801 7 21.0625 7ZM6.375 17.625C5.68477 17.625 5.125 17.0652 5.125 16.375C5.125 15.6848 5.68477 15.125 6.375 15.125C7.06523 15.125 7.625 15.6848 7.625 16.375C7.625 17.0652 7.06523 17.625 6.375 17.625ZM7 13.25C6.30977 13.25 5.75 12.6902 5.75 12V7C5.75 6.30977 6.30977 5.75 7 5.75H17C17.6902 5.75 18.25 6.30977 18.25 7V12C18.25 12.6902 17.6902 13.25 17 13.25H7ZM17.625 17.625C16.9348 17.625 16.375 17.0652 16.375 16.375C16.375 15.6848 16.9348 15.125 17.625 15.125C18.3152 15.125 18.875 15.6848 18.875 16.375C18.875 17.0652 18.3152 17.625 17.625 17.625Z" fill="#069550"/>
</svg>
