<svg width="27" height="26" viewBox="0 0 27 26" fill="none" xmlns="http://www.w3.org/2000/svg">
<g clip-path="url(#clip0_13937_48142)">
<path fill-rule="evenodd" clip-rule="evenodd" d="M13.7065 6.50401L20.2105 0.0478516L26.6667 6.55184L20.1627 13.008L13.7065 6.50401ZM23.335 6.48807C23.335 5.62725 22.9683 4.83019 22.3944 4.27225C21.8206 3.71431 21.0235 3.36361 20.1627 3.36361C19.3019 3.36361 18.5048 3.73026 17.9469 4.30414C17.3889 4.87802 17.0382 5.67507 17.0382 6.5359C17.0382 7.39672 17.4049 8.19377 17.9787 8.75171C18.5526 9.30965 19.3497 9.66036 20.2105 9.66036C21.0713 9.66036 21.8684 9.29371 22.4263 8.71983C23.0002 8.16189 23.335 7.36484 23.335 6.48807ZM21.2626 5.42002C20.9757 5.14902 20.5931 4.97366 20.1786 4.97366C19.7482 4.97366 19.3656 5.14902 19.0946 5.43596C18.8236 5.7229 18.6483 6.10549 18.6483 6.51995C18.6483 6.95037 18.8236 7.33295 19.1106 7.60395C19.3975 7.87495 19.7801 8.0503 20.1946 8.0503C20.625 8.0503 21.0076 7.87495 21.2786 7.58801C21.5496 7.30107 21.7249 6.91848 21.7249 6.50401C21.7249 6.08954 21.5496 5.70696 21.2626 5.42002Z" fill="#FFCB05"/>
<path fill-rule="evenodd" clip-rule="evenodd" d="M0.666656 19.4481L7.17064 12.9919L13.6268 19.4959L7.12282 25.9521L0.666656 19.4481ZM6.35764 20.006L7.91988 19.9901L7.12282 18.4279L6.35764 20.006ZM9.06764 21.3929C9.45022 21.3929 9.76905 21.0741 9.76905 20.6915C9.76905 20.5799 9.73716 20.4683 9.68934 20.3727L7.74452 16.5468C7.56917 16.1961 7.1547 16.0686 6.804 16.2439C6.64458 16.3236 6.533 16.4512 6.46923 16.5946L4.60412 20.4046C4.42877 20.7553 4.57224 21.1697 4.92294 21.3451C5.01859 21.3929 5.13018 21.4248 5.22582 21.4089L9.06764 21.3929Z" fill="#FFCB05"/>
<path fill-rule="evenodd" clip-rule="evenodd" d="M0.714493 6.50399L7.25036 0L13.7065 6.50399L7.17065 12.992L0.714493 6.50399ZM9.83282 8.40098L9.80094 4.57511C9.80094 4.19252 9.48212 3.8737 9.09953 3.8737C8.71694 3.8737 8.39812 4.19252 8.39812 4.57511V5.78663L5.97507 5.80258V4.59105C5.97507 4.20846 5.65624 3.88964 5.27366 3.88964C4.89107 3.88964 4.57225 4.20846 4.57225 4.59105L4.60413 8.41692C4.60413 8.79951 4.92295 9.11833 5.30554 9.11833C5.68813 9.11833 6.00695 8.79951 6.00695 8.41692V7.2054L8.44594 7.18945V8.40098C8.44594 8.78357 8.76476 9.10239 9.14735 9.10239C9.52994 9.10239 9.84876 8.78357 9.83282 8.40098Z" fill="#00AEEF"/>
<path fill-rule="evenodd" clip-rule="evenodd" d="M20.067 25.9999L13.6109 19.4959L20.1627 12.9919L26.6188 19.4959L20.067 25.9999ZM22.5379 20.8987L21.1032 19.4959L22.522 18.0612C22.793 17.7902 22.793 17.3439 22.506 17.0729C22.235 16.8019 21.7887 16.8019 21.5177 17.0888L20.1148 18.5235L18.6801 17.1048C18.4091 16.8338 17.9628 16.8338 17.6918 17.1207C17.4208 17.3917 17.4208 17.838 17.7077 18.109L19.1424 19.5119L17.7237 20.9466C17.4527 21.2176 17.4527 21.6639 17.7396 21.9349C18.0106 22.2059 18.457 22.2059 18.728 21.919L20.1308 20.4843L21.5655 21.903C21.8365 22.174 22.2828 22.174 22.5538 21.8871C22.8248 21.6161 22.8089 21.1697 22.5379 20.8987Z" fill="#00AEEF"/>
<path d="M13.7128 6.49465L7.16325 12.998L13.6217 19.5024L20.1713 12.9989L13.7128 6.49465Z" fill="#008743"/>
</g>
<defs>
<clipPath id="clip0_13937_48142">
<rect width="26" height="26" fill="white" transform="translate(0.666656)"/>
</clipPath>
</defs>
</svg>
