<svg width="26" height="24" viewBox="0 0 26 24" fill="none" xmlns="http://www.w3.org/2000/svg">
<g clip-path="url(#clip0_13937_48197)">
<path fill-rule="evenodd" clip-rule="evenodd" d="M9.16122 6.32178C8.02998 8.57819 5.73041 10.126 3.05994 10.1446V16.3171C5.26678 16.3171 7.34382 15.739 9.16122 14.7693V6.32178Z" fill="#099F5A"/>
<path fill-rule="evenodd" clip-rule="evenodd" d="M9.90299 3.20752C9.90299 4.3264 9.64336 5.38934 9.16119 6.32174V14.7693C13.2596 12.5502 16.0414 8.20519 16.0414 3.20752H9.90299Z" fill="#FEBF38"/>
<path fill-rule="evenodd" clip-rule="evenodd" d="M3.05994 24.0002H9.16122V14.7507C7.34382 15.7391 5.26678 16.2985 3.05994 16.2985V24.0002Z" fill="#00B7E9"/>
<path fill-rule="evenodd" clip-rule="evenodd" d="M19.1198 6.1084C17.9886 8.38962 15.689 9.95443 13.0186 9.97328V16.2137C15.2254 16.2137 17.3024 15.6292 19.1198 14.6489V6.1084Z" fill="#099F5A"/>
<path fill-rule="evenodd" clip-rule="evenodd" d="M19.8616 2.95996C19.8616 4.09115 19.602 5.16577 19.1198 6.10843V14.6489C23.2182 12.4242 26 8.03145 26 2.97881H19.8616V2.95996Z" fill="#FEBF38"/>
<path fill-rule="evenodd" clip-rule="evenodd" d="M13.0186 24.0001H19.1198V14.6489C17.3024 15.6481 15.2254 16.2137 13.0186 16.2137V24.0001V24.0001Z" fill="#00B7E9"/>
<path fill-rule="evenodd" clip-rule="evenodd" d="M16.097 3.11076C16.097 4.82639 14.7247 6.22152 13.0371 6.22152C11.3495 6.22152 9.97717 4.82639 9.97717 3.11076C9.97717 1.39513 11.331 0 13.0185 0C14.7247 0 16.097 1.39513 16.097 3.11076Z" fill="#099F5A"/>
<path fill-rule="evenodd" clip-rule="evenodd" d="M6.13837 3.35671C6.13837 5.05368 4.76605 6.43363 3.07846 6.43363C1.39087 6.43363 0 5.05368 0 3.35671C0 1.65974 1.37233 0.279785 3.05991 0.279785C4.7475 0.279785 6.13837 1.65974 6.13837 3.35671Z" fill="#099F5A"/>
</g>
<defs>
<clipPath id="clip0_13937_48197">
<rect width="26" height="24" fill="white"/>
</clipPath>
</defs>
</svg>
