<svg xmlns="http://www.w3.org/2000/svg" viewBox="0 0 716.65 105.8"><defs><style>.cls-1{fill:#febf30;}.cls-2{fill:#1aa5dc;}.cls-3{fill:#028e58;}.cls-4{fill:#2c8fce;}.cls-5{fill:#fff;}</style></defs><g id="Layer_2" data-name="Layer 2"><g id="Layer_1-2" data-name="Layer 1"><path class="cls-1" d="M10.59,25.89H78.49a0,0,0,0,1,0,0V105.8a0,0,0,0,1,0,0H10.59A10.59,10.59,0,0,1,0,95.2V36.49A10.59,10.59,0,0,1,10.59,25.89Z"/><path class="cls-2" d="M91.57,79.69H26.16V0H91.57a12.79,12.79,0,0,1,12.79,12.79V66.9A12.79,12.79,0,0,1,91.57,79.69Z"/><polygon class="cls-3" points="78.49 105.8 26.16 79.69 26.16 25.89 78.49 25.89 78.49 105.8"/><polygon class="cls-4" points="26.16 0 26.16 25.89 78.49 25.89 26.16 0"/><path class="cls-5" d="M152.76,24.61V36.33h-8.13V1.26H157a20.52,20.52,0,0,1,6.36.88,12.11,12.11,0,0,1,4.38,2.42,9.36,9.36,0,0,1,2.54,3.64,12.19,12.19,0,0,1,.82,4.52,13.31,13.31,0,0,1-.84,4.81,9.6,9.6,0,0,1-2.58,3.76,12.06,12.06,0,0,1-4.39,2.44,20,20,0,0,1-6.29.88Zm0-6.14H157q3.18,0,4.57-1.51a6,6,0,0,0,1.4-4.24,6.37,6.37,0,0,0-.36-2.19,4.62,4.62,0,0,0-1.1-1.7,5,5,0,0,0-1.85-1.09A8.15,8.15,0,0,0,157,7.35h-4.24Z"/><path class="cls-5" d="M212.35,18.79A18.72,18.72,0,0,1,211,25.86a16.94,16.94,0,0,1-3.69,5.69,16.76,16.76,0,0,1-5.74,3.79,20.83,20.83,0,0,1-14.91,0,16.69,16.69,0,0,1-9.47-9.48,18.72,18.72,0,0,1-1.32-7.07,18.74,18.74,0,0,1,1.32-7.08A16.82,16.82,0,0,1,180.93,6a17.16,17.16,0,0,1,5.77-3.78A19.66,19.66,0,0,1,194.16.88a19.42,19.42,0,0,1,7.45,1.38,17.36,17.36,0,0,1,5.74,3.79A16.9,16.9,0,0,1,211,11.73,18.74,18.74,0,0,1,212.35,18.79Zm-8.32,0a15.17,15.17,0,0,0-.68-4.69,9.83,9.83,0,0,0-1.94-3.52,8.44,8.44,0,0,0-3.09-2.22,10.71,10.71,0,0,0-4.16-.77,10.88,10.88,0,0,0-4.2.77,8.51,8.51,0,0,0-3.11,2.22,9.81,9.81,0,0,0-1.93,3.52,15.17,15.17,0,0,0-.68,4.69,15.24,15.24,0,0,0,.68,4.7A9.86,9.86,0,0,0,186.85,27a8.35,8.35,0,0,0,3.11,2.2,11.07,11.07,0,0,0,4.2.76,10.9,10.9,0,0,0,4.16-.76,8.28,8.28,0,0,0,3.09-2.2,9.88,9.88,0,0,0,1.94-3.53A15.24,15.24,0,0,0,204,18.79Z"/><path class="cls-5" d="M226.79,23.36v13h-8.13V1.26h11.41a23.05,23.05,0,0,1,6.48.79,12.14,12.14,0,0,1,4.38,2.17,8.13,8.13,0,0,1,2.47,3.3,11,11,0,0,1,.77,4.14,11,11,0,0,1-.46,3.23,9.44,9.44,0,0,1-1.36,2.8,10.68,10.68,0,0,1-2.21,2.3,11.69,11.69,0,0,1-3,1.66,7.94,7.94,0,0,1,1.53,1,6.19,6.19,0,0,1,1.24,1.47l7.46,12.2H240a3.11,3.11,0,0,1-2.93-1.54l-5.83-10.18a2.4,2.4,0,0,0-.9-1,3,3,0,0,0-1.46-.29Zm0-5.61h3.28a8.44,8.44,0,0,0,2.83-.42,5.14,5.14,0,0,0,1.91-1.17,4.4,4.4,0,0,0,1.08-1.74,6.61,6.61,0,0,0,.34-2.16,4.5,4.5,0,0,0-1.51-3.61,7,7,0,0,0-4.65-1.3h-3.28Z"/><path class="cls-5" d="M277.1,1.26V7.71h-9.87V36.33h-8.14V7.71h-9.86V1.26Z"/><path class="cls-5" d="M311.66,36.33h-6.31a2.91,2.91,0,0,1-1.74-.49,2.49,2.49,0,0,1-.95-1.27l-2.07-6.11H287.26l-2.07,6.11a2.82,2.82,0,0,1-.94,1.22,2.73,2.73,0,0,1-1.71.54h-6.36L289.76,1.26h8.33Zm-22.53-13.4h9.58l-3.22-9.61-.74-2.15c-.28-.83-.56-1.72-.83-2.69-.26,1-.52,1.89-.79,2.72s-.53,1.56-.77,2.17Z"/><path class="cls-5" d="M325,29.83h13v6.5H316.91V1.26H325Z"/><path class="cls-5" d="M156.11,88.35a24.08,24.08,0,0,1-1,7.12,14.93,14.93,0,0,1-2.95,5.5,13.12,13.12,0,0,1-5,3.56,18,18,0,0,1-7,1.27,35.9,35.9,0,0,1-3.61-.19,31.34,31.34,0,0,1-3.7-.65l.58-6.32a1.87,1.87,0,0,1,.66-1.34,2.43,2.43,0,0,1,1.65-.52,6.28,6.28,0,0,1,1.34.18,9,9,0,0,0,1.93.18,7.83,7.83,0,0,0,2.74-.44,4.19,4.19,0,0,0,1.94-1.44,7,7,0,0,0,1.16-2.64,18.51,18.51,0,0,0,.38-4.05v-30h10.84Z"/><path class="cls-5" d="M208.91,105.28H200.5a3.86,3.86,0,0,1-2.32-.65,3.42,3.42,0,0,1-1.27-1.69l-2.76-8.14H176.38l-2.75,8.14a3.67,3.67,0,0,1-1.26,1.62,3.6,3.6,0,0,1-2.27.72h-8.47l18.09-46.73h11.1Zm-30-17.86h12.77l-4.3-12.8c-.28-.81-.6-1.77-1-2.87s-.74-2.29-1.1-3.58c-.34,1.31-.7,2.52-1.06,3.63s-.71,2.07-1,2.88Z"/><path class="cls-5" d="M215.9,105.28V58.55h17.19a32.69,32.69,0,0,1,8.25.9A15.86,15.86,0,0,1,246.89,62,9.6,9.6,0,0,1,250,66a13.47,13.47,0,0,1,1,5.23,10.2,10.2,0,0,1-.45,3A8.93,8.93,0,0,1,249.13,77a10.44,10.44,0,0,1-2.47,2.33A16.09,16.09,0,0,1,243,81.1a12.88,12.88,0,0,1,6.83,3.64,9.45,9.45,0,0,1,2.21,6.46,13.36,13.36,0,0,1-1.15,5.55,12.69,12.69,0,0,1-3.39,4.48,16.09,16.09,0,0,1-5.5,3,23.8,23.8,0,0,1-7.47,1.07Zm10.84-27.07h5.65a18.87,18.87,0,0,0,3.24-.25,6.65,6.65,0,0,0,2.45-.9,4.15,4.15,0,0,0,1.54-1.77,6.6,6.6,0,0,0,.53-2.82,7.88,7.88,0,0,0-.42-2.77,4,4,0,0,0-1.28-1.78,5.5,5.5,0,0,0-2.2-1,15.32,15.32,0,0,0-3.16-.28h-6.35Zm0,7.25V97.11h7.64a9.64,9.64,0,0,0,3.51-.55A5.44,5.44,0,0,0,240,95.15a4.76,4.76,0,0,0,1.06-2,8.65,8.65,0,0,0,.29-2.21,7.19,7.19,0,0,0-.34-2.31,3.83,3.83,0,0,0-1.15-1.73,5.6,5.6,0,0,0-2.17-1.09,12.46,12.46,0,0,0-3.4-.39Z"/><path class="cls-5" d="M304.68,105.28h-8.4a3.89,3.89,0,0,1-2.33-.65,3.35,3.35,0,0,1-1.26-1.69l-2.76-8.14H272.16l-2.76,8.14a3.57,3.57,0,0,1-1.25,1.62,3.61,3.61,0,0,1-2.28.72h-8.46L275.5,58.55h11.09Zm-30-17.86h12.77l-4.3-12.8c-.28-.81-.6-1.77-1-2.87s-.74-2.29-1.11-3.58q-.51,2-1.05,3.63c-.37,1.11-.71,2.07-1,2.88Z"/><path class="cls-5" d="M322.52,88v17.28H311.67V58.55h15.21a31.34,31.34,0,0,1,8.64,1,16.31,16.31,0,0,1,5.84,2.91,11,11,0,0,1,3.29,4.39,14.66,14.66,0,0,1,1,5.52,15,15,0,0,1-.61,4.3,12.92,12.92,0,0,1-1.82,3.73,13.81,13.81,0,0,1-2.95,3.07,15.83,15.83,0,0,1-4,2.21,10,10,0,0,1,2,1.35A8.15,8.15,0,0,1,340,89l9.94,16.26h-9.82a4.16,4.16,0,0,1-3.91-2l-7.76-13.57a3.32,3.32,0,0,0-1.2-1.28,4,4,0,0,0-1.94-.38Zm0-7.48h4.36a11.05,11.05,0,0,0,3.77-.56,6.9,6.9,0,0,0,2.55-1.55,6,6,0,0,0,1.44-2.33,8.9,8.9,0,0,0,.45-2.87,6,6,0,0,0-2-4.81c-1.34-1.16-3.41-1.73-6.21-1.73h-4.36Z"/><path class="cls-5" d="M368.38,89.66v15.62H357.54V58.55H374a27.18,27.18,0,0,1,8.48,1.17A16.22,16.22,0,0,1,388.35,63a12.4,12.4,0,0,1,3.38,4.84,16.36,16.36,0,0,1,1.1,6,17.65,17.65,0,0,1-1.13,6.41,12.87,12.87,0,0,1-3.43,5,16.17,16.17,0,0,1-5.85,3.25A26.89,26.89,0,0,1,374,89.66Zm0-8.18H374q4.23,0,6.09-2A8,8,0,0,0,382,73.82a8.48,8.48,0,0,0-.48-2.92A5.92,5.92,0,0,0,380,68.64a6.49,6.49,0,0,0-2.47-1.46,10.94,10.94,0,0,0-3.54-.51h-5.65Z"/><path class="cls-5" d="M412.52,88v17.28H401.68V58.55h15.2a31.46,31.46,0,0,1,8.65,1,16.25,16.25,0,0,1,5.83,2.91,10.91,10.91,0,0,1,3.29,4.39,14.66,14.66,0,0,1,1,5.52,15,15,0,0,1-.61,4.3,12.92,12.92,0,0,1-1.82,3.73,13.81,13.81,0,0,1-2.95,3.07,15.83,15.83,0,0,1-4,2.21,10,10,0,0,1,2,1.35A7.89,7.89,0,0,1,430,89l9.94,16.26H430.1a4.17,4.17,0,0,1-3.92-2l-7.76-13.57a3.32,3.32,0,0,0-1.2-1.28,4,4,0,0,0-1.94-.38Zm0-7.48h4.36a11,11,0,0,0,3.77-.56,6.74,6.74,0,0,0,2.55-1.55,6,6,0,0,0,1.44-2.33,8.9,8.9,0,0,0,.45-2.87,6,6,0,0,0-2-4.81c-1.34-1.16-3.41-1.73-6.21-1.73h-4.36Z"/><path class="cls-5" d="M492.06,81.9a25.22,25.22,0,0,1-1.74,9.43,22.78,22.78,0,0,1-4.93,7.59,22.44,22.44,0,0,1-7.65,5,27.88,27.88,0,0,1-19.87,0,22.29,22.29,0,0,1-12.62-12.64,26.28,26.28,0,0,1,0-18.86,22.47,22.47,0,0,1,4.94-7.57,22.87,22.87,0,0,1,7.68-5A26.16,26.16,0,0,1,467.82,58a25.78,25.78,0,0,1,9.92,1.84A22.35,22.35,0,0,1,490.32,72.5,25.14,25.14,0,0,1,492.06,81.9ZM481,81.9a20.17,20.17,0,0,0-.9-6.24,13.33,13.33,0,0,0-2.58-4.7A11.28,11.28,0,0,0,473.36,68a14.21,14.21,0,0,0-5.54-1,14.45,14.45,0,0,0-5.6,1A11.16,11.16,0,0,0,458.08,71a13.33,13.33,0,0,0-2.58,4.7,22.19,22.19,0,0,0,0,12.51,13.25,13.25,0,0,0,2.58,4.7,11,11,0,0,0,4.14,2.94,14.64,14.64,0,0,0,5.6,1,14.4,14.4,0,0,0,5.54-1,11.15,11.15,0,0,0,4.13-2.94,13.25,13.25,0,0,0,2.58-4.7A20.28,20.28,0,0,0,481,81.9Z"/><path class="cls-5" d="M494.69,58.55h8.73a3.94,3.94,0,0,1,2.31.64,3.5,3.5,0,0,1,1.28,1.7l9,25c.4,1.09.81,2.28,1.23,3.56s.81,2.63,1.17,4c.3-1.41.65-2.76,1-4s.79-2.47,1.18-3.56l9-25a3.71,3.71,0,0,1,3.52-2.34H542l-18.73,46.73h-9.81Z"/><path class="cls-5" d="M569.11,97.46a18.25,18.25,0,0,0,4-.39,19.78,19.78,0,0,0,3.27-1V89h-4.62a2.23,2.23,0,0,1-1.61-.55,1.82,1.82,0,0,1-.57-1.38v-6h16.61v19.72a23.35,23.35,0,0,1-7.87,3.82,30.31,30.31,0,0,1-4.68.9,47.06,47.06,0,0,1-5.35.29,24.64,24.64,0,0,1-9.49-1.81,22.81,22.81,0,0,1-12.56-12.58,24.78,24.78,0,0,1-1.81-9.51,25.94,25.94,0,0,1,1.73-9.6,21.75,21.75,0,0,1,5-7.56,22.55,22.55,0,0,1,7.79-4.94A28.31,28.31,0,0,1,569.11,58a29.81,29.81,0,0,1,5.48.48,27.74,27.74,0,0,1,4.74,1.31,21.53,21.53,0,0,1,7.16,4.49l-3.14,4.78a3.48,3.48,0,0,1-1.07,1.06,2.56,2.56,0,0,1-1.37.39,3.85,3.85,0,0,1-2-.64c-.85-.52-1.66-1-2.42-1.33a14.73,14.73,0,0,0-2.32-.92,15.16,15.16,0,0,0-2.5-.51,24.13,24.13,0,0,0-3-.16,13.53,13.53,0,0,0-5.48,1.07,11.76,11.76,0,0,0-4.15,3,13.66,13.66,0,0,0-2.65,4.7,19,19,0,0,0-.93,6.11,19.52,19.52,0,0,0,1,6.61,14.35,14.35,0,0,0,2.83,4.88,12.27,12.27,0,0,0,4.3,3A14,14,0,0,0,569.11,97.46Z"/><path class="cls-5" d="M642.11,81.9a25,25,0,0,1-1.75,9.43A22.25,22.25,0,0,1,627.79,104a27.88,27.88,0,0,1-19.87,0A22.29,22.29,0,0,1,595.3,91.33a26.28,26.28,0,0,1,0-18.86,22.32,22.32,0,0,1,4.94-7.57,22.77,22.77,0,0,1,7.68-5A26.1,26.1,0,0,1,617.86,58a25.79,25.79,0,0,1,9.93,1.84,23.09,23.09,0,0,1,7.65,5.05,22.51,22.51,0,0,1,4.92,7.57A25,25,0,0,1,642.11,81.9Zm-11.1,0a20.49,20.49,0,0,0-.89-6.24,13.19,13.19,0,0,0-2.59-4.7A11.17,11.17,0,0,0,623.41,68a14.23,14.23,0,0,0-5.55-1,14.44,14.44,0,0,0-5.59,1A11.16,11.16,0,0,0,608.13,71a13.18,13.18,0,0,0-2.58,4.7,22.19,22.19,0,0,0,0,12.51,13.09,13.09,0,0,0,2.58,4.7,11,11,0,0,0,4.14,2.94,14.62,14.62,0,0,0,5.59,1,14.42,14.42,0,0,0,5.55-1,11,11,0,0,0,4.12-2.94,13.11,13.11,0,0,0,2.59-4.7A20.59,20.59,0,0,0,631,81.9Z"/><path class="cls-5" d="M662.38,105.28h-10.9V58.55h10.9Z"/><path class="cls-5" d="M716.65,81.9a24.4,24.4,0,0,1-1.75,9.35A21.65,21.65,0,0,1,710,98.66a22.39,22.39,0,0,1-7.65,4.88,27.17,27.17,0,0,1-9.93,1.74H674.25V58.55H692.4a26.76,26.76,0,0,1,9.93,1.77A22.67,22.67,0,0,1,710,65.19a21.66,21.66,0,0,1,4.92,7.39A24.35,24.35,0,0,1,716.65,81.9Zm-11.1,0a20.6,20.6,0,0,0-.89-6.25,13.25,13.25,0,0,0-2.59-4.73,11.15,11.15,0,0,0-4.12-3,14,14,0,0,0-5.55-1h-7.25V97h7.25a13.87,13.87,0,0,0,5.55-1,11.12,11.12,0,0,0,4.12-3,13.25,13.25,0,0,0,2.59-4.73A20.77,20.77,0,0,0,705.55,81.9Z"/></g></g></svg>