<svg width="32" height="32" viewBox="0 0 32 32" fill="none" xmlns="http://www.w3.org/2000/svg">
<path d="M30.4 23.1411C29.4496 14.7874 25.9072 8.58948 21.6448 8.58948C17.3824 8.58948 13.84 14.7874 12.8896 23.1411H30.4Z" fill="#097035"/>
<ellipse cx="21.6448" cy="6.19117" rx="2.4192" ry="2.93726" fill="#097035"/>
<mask id="mask0_12753_10806" style="mask-type:alpha" maskUnits="userSpaceOnUse" x="12" y="8" width="19" height="16">
<path fill-rule="evenodd" clip-rule="evenodd" d="M30.4 23.1411C29.4496 14.7874 25.9072 8.58948 21.6448 8.58948C17.3824 8.58948 13.84 14.7874 12.8896 23.1411H30.4Z" fill="white"/>
</mask>
<g mask="url(#mask0_12753_10806)">
<rect x="11.4496" y="16.7545" width="21.4848" height="7.27579" fill="#097035"/>
</g>
<path d="M19.2832 23.1411C18.3328 14.7874 14.7904 8.58948 10.528 8.58948C6.26563 8.58948 2.72323 14.7874 1.77283 23.1411H19.2832Z" fill="#099449"/>
<ellipse cx="10.528" cy="6.19117" rx="2.4192" ry="2.93726" fill="#099449"/>
<path d="M27.2608 28.5844C26.5408 22.0632 23.7472 17.2126 20.4352 17.2126C17.1232 17.2126 14.3296 22.0632 13.5808 28.5844H27.2608Z" fill="#24B1E7"/>
<ellipse cx="20.4352" cy="15.3263" rx="1.9008" ry="2.29053" fill="#24B1E7"/>
<mask id="mask1_12753_10806" style="mask-type:alpha" maskUnits="userSpaceOnUse" x="13" y="17" width="15" height="12">
<path fill-rule="evenodd" clip-rule="evenodd" d="M27.2608 28.5844C26.5408 22.0632 23.7472 17.2126 20.4352 17.2126C17.1232 17.2126 14.3296 22.0632 13.5808 28.5844H27.2608Z" fill="white"/>
</mask>
<g mask="url(#mask1_12753_10806)">
<path d="M27.8656 25.2161H20.2912C20.896 26.3209 21.3856 27.6144 21.6448 29.0695H12.4576V29.2851H29.248V25.2161H27.8656Z" fill="#0079A4"/>
<path d="M13.5808 22.4135L14.416 21.7129H4.88324V25.216H12.4576H13.0624L13.5808 22.4135Z" fill="white"/>
<path d="M27.8657 25.216V21.7129H17.6417C18.4769 22.5213 19.4849 23.707 20.2913 25.216H27.8657Z" fill="white"/>
<path d="M16.0576 20.3655L14.4448 21.7128H17.6416C16.7488 20.8236 16.0576 20.3655 16.0576 20.3655Z" fill="#099449"/>
<path d="M20.2912 25.2161H13.0624L12.4288 28.6384V29.0695H21.616C21.3856 27.6144 20.896 26.3209 20.2912 25.2161Z" fill="#097035"/>
<path d="M13.0624 25.216H20.2912C19.4848 23.707 18.4768 22.5213 17.6416 21.7129H14.416L13.5808 22.4135L13.0624 25.216Z" fill="#099449"/>
</g>
<path d="M18.592 28.5844C17.8432 22.0632 15.0496 17.2126 11.7376 17.2126C8.42564 17.2126 5.63204 22.0632 4.88324 28.5844H18.592Z" fill="#FDBE21"/>
<ellipse cx="11.7377" cy="15.3263" rx="1.9008" ry="2.29053" fill="#FDBE21"/>
<mask id="mask2_12753_10806" style="mask-type:alpha" maskUnits="userSpaceOnUse" x="4" y="17" width="15" height="12">
<path fill-rule="evenodd" clip-rule="evenodd" d="M18.592 28.5844C17.8432 22.0632 15.0496 17.2126 11.7376 17.2126C8.42564 17.2126 5.63204 22.0632 4.88324 28.5844H18.592Z" fill="white"/>
</mask>
<g mask="url(#mask2_12753_10806)">
<rect x="3.76001" y="25.2161" width="16.7904" height="4.06905" fill="#E19D20"/>
</g>
<mask id="mask3_12753_10806" style="mask-type:alpha" maskUnits="userSpaceOnUse" x="4" y="17" width="15" height="12">
<path fill-rule="evenodd" clip-rule="evenodd" d="M18.592 28.5844C17.8432 22.0632 15.0496 17.2126 11.7376 17.2126C8.42564 17.2126 5.63204 22.0632 4.88324 28.5844H18.592Z" fill="white"/>
</mask>
<g mask="url(#mask3_12753_10806)">
<rect x="4.88324" y="21.7129" width="21.5136" height="3.50316" fill="white"/>
</g>
</svg>
