<svg width="33" height="32" viewBox="0 0 33 32" fill="none" xmlns="http://www.w3.org/2000/svg">
<rect width="8.31142" height="12.7642" rx="1" transform="matrix(0.997875 0.0651523 -0.0799206 0.996801 19.8604 2.25)" fill="#E19D20"/>
<rect width="6.64913" height="11.2625" rx="3" transform="matrix(0.997875 0.0651523 -0.0799206 0.996801 20.6299 3.05273)" fill="#FDBE21"/>
<ellipse rx="2.51861" ry="2.2525" transform="matrix(0.997875 0.0651523 -0.0799206 0.996801 23.5686 8.5112)" fill="#E19D20"/>
<rect width="8.30398" height="12.7782" rx="1" transform="matrix(0.993926 -0.110051 0.134728 0.990882 11.2051 5.67603)" fill="#E19D20"/>
<rect width="6.64318" height="11.2749" rx="3" transform="matrix(0.993926 -0.110051 0.134728 0.990882 12.1318 6.32959)" fill="#FDBE21"/>
<ellipse rx="2.51636" ry="2.25497" transform="matrix(0.993926 -0.110051 0.134728 0.990883 16.1838 11.1728)" fill="#E19D20"/>
<path d="M16.4056 11.6232C16.1018 11.2802 15.4173 11.4624 15.4935 12.0392C15.5226 12.253 15.5523 12.4711 15.5811 12.6829C16.0751 12.6282 16.567 12.5737 17.059 12.5192C17.0424 12.3976 17.025 12.2697 17.0079 12.1439L16.573 12.1921L16.5465 11.9971L16.9472 11.6973L16.8902 11.278L16.8353 11.2841L16.4056 11.6232ZM16.2008 11.9609L16.2373 12.2292C16.1191 12.2423 15.9882 12.2568 15.8678 12.2702C15.8559 12.1821 15.8412 12.0901 15.8313 12.0018C15.8044 11.7877 16.1732 11.7575 16.2008 11.9609Z" fill="#FDBE21"/>
<path d="M16.8083 10.6758L16.4304 10.7177L16.3936 10.4472C16.2981 9.74481 15.2002 9.86637 15.2936 10.569C15.323 10.7849 15.3526 11.003 15.3814 11.2147C15.8755 11.16 16.3674 11.1056 16.8593 11.0511C16.8425 10.9274 16.8254 10.8016 16.8083 10.6758ZM16.054 10.4869L16.0905 10.7553C15.9701 10.7686 15.7886 10.7887 15.6682 10.802C15.6565 10.7161 15.6416 10.622 15.6317 10.5337C15.6042 10.3154 16.026 10.2814 16.054 10.4869Z" fill="#FDBE21"/>
<path d="M9.23937 6.05786C6.51232 6.05786 4.2998 8.04764 4.2998 10.5002V25.3078C4.2998 27.7603 6.51232 29.7501 9.23937 29.7501H26.7199C27.6307 29.7501 28.3665 29.0884 28.3665 28.2693C28.3665 27.4503 27.6307 26.7886 26.7199 26.7886V23.827C27.6307 23.827 28.3665 23.1653 28.3665 22.3463V7.53863C28.3665 6.71958 27.6307 6.05786 26.7199 6.05786H9.23937ZM10.2547 23.827H23.4269V26.7886H10.2547C9.34399 26.7886 8.6082 26.1268 8.6082 25.3078C8.6082 24.4887 9.34399 23.827 10.2547 23.827ZM11.9012 12.7213C11.9012 12.3141 12.2717 11.9809 12.7245 11.9809H22.6036C23.0564 11.9809 23.4269 12.3141 23.4269 12.7213C23.4269 13.1285 23.0564 13.4617 22.6036 13.4617H12.7245C12.2717 13.4617 11.9012 13.1285 11.9012 12.7213ZM12.7245 14.9424H22.6036C23.0564 14.9424 23.4269 15.2756 23.4269 15.6828C23.4269 16.09 23.0564 16.4232 22.6036 16.4232H12.7245C12.2717 16.4232 11.9012 16.09 11.9012 15.6828C11.9012 15.2756 12.2717 14.9424 12.7245 14.9424Z" fill="#0079A4"/>
<path d="M8.54234 25.2159C8.54234 24.336 9.34733 23.6228 10.3403 23.6228H23.7562V26.809H10.3403C9.34733 26.809 8.54234 26.0957 8.54234 25.2159Z" fill="#0079A4"/>
<path d="M11.3414 6.05786C8.778 6.05786 5.68288 8.04764 5.68288 10.5002V25.3078C5.68288 27.7603 7.76264 29.7501 11.3414 29.7501H26.8187C27.6748 29.7501 28.3665 29.0884 28.3665 28.2693C28.3665 27.4503 27.6748 26.7886 26.8187 26.7886V23.827C27.6748 23.827 28.3665 23.1653 28.3665 22.3463V7.53863C28.3665 6.71958 27.6748 6.05786 26.8187 6.05786H11.3414ZM11.3414 23.827H23.7233V26.7886H11.3414C10.4853 26.7886 9.7937 26.1268 9.7937 25.3078C9.7937 24.4887 10.4853 23.827 11.3414 23.827ZM12.8892 12.7213C12.8892 12.3141 13.2374 11.9809 13.663 11.9809H22.9494C23.375 11.9809 23.7233 12.3141 23.7233 12.7213C23.7233 13.1285 23.375 13.4617 22.9494 13.4617H13.663C13.2374 13.4617 12.8892 13.1285 12.8892 12.7213ZM13.663 14.9424H22.9494C23.375 14.9424 23.7233 15.2756 23.7233 15.6828C23.7233 16.09 23.375 16.4232 22.9494 16.4232H13.663C13.2374 16.4232 12.8892 16.09 12.8892 15.6828C12.8892 15.2756 13.2374 14.9424 13.663 14.9424Z" fill="#24B1E7"/>
<path d="M9.73179 25.2159C9.73179 24.336 10.4885 23.6228 11.4219 23.6228H24.0328V26.809H11.4219C10.4885 26.809 9.73179 26.0957 9.73179 25.2159Z" fill="#24B1E7"/>
<path d="M13.1526 6.05786C9.84652 6.05786 7.98801 8.04764 7.98801 10.5002V25.3078C7.98801 27.7603 9.84652 29.7501 12.1372 29.7501H26.9834C27.7484 29.7501 28.3665 29.0884 28.3665 28.2693C28.3665 27.4503 27.7484 26.7886 26.9834 26.7886V23.827C27.7484 23.827 28.3665 23.1653 28.3665 22.3463V7.53863C28.3665 6.71958 27.7484 6.05786 26.9834 6.05786H13.1526ZM13.1526 23.827H24.2172V26.7886H13.1526C12.3876 26.7886 11.7695 26.1268 11.7695 25.3078C11.7695 24.4887 12.3876 23.827 13.1526 23.827ZM14.5357 12.7213C14.5357 12.3141 14.8469 11.9809 15.2272 11.9809H23.5257C23.906 11.9809 24.2172 12.3141 24.2172 12.7213C24.2172 13.1285 23.906 13.4617 23.5257 13.4617H15.2272C14.8469 13.4617 14.5357 13.1285 14.5357 12.7213ZM15.2272 14.9424H23.5257C23.906 14.9424 24.2172 15.2756 24.2172 15.6828C24.2172 16.09 23.906 16.4232 23.5257 16.4232H15.2272C14.8469 16.4232 14.5357 16.09 14.5357 15.6828C14.5357 15.2756 14.8469 14.9424 15.2272 14.9424Z" fill="#099449"/>
<path d="M11.7142 25.2159C11.7142 24.336 12.3904 23.6228 13.2245 23.6228H24.4938V26.809H13.2245C12.3904 26.809 11.7142 26.0957 11.7142 25.2159Z" fill="#097035"/>
<path d="M12.876 10.9597H25.2684V17.087H12.876V10.9597Z" fill="#099449"/>
<path d="M17.2778 15.8779C18.7032 14.8975 18.3005 12.1933 16.0859 12.1852C15.2645 12.1852 14.427 12.1852 13.6136 12.1852C13.6136 14.0969 13.6136 16.0004 13.6136 17.904C14.0807 17.904 14.5719 17.904 15.0551 17.904V16.221H15.8041L16.7704 17.904H18.381V17.6916L17.2778 15.8779ZM16.0859 14.922H15.0551C15.0551 14.4645 15.0551 13.958 15.0551 13.4923C15.3933 13.4923 15.7477 13.4841 16.0859 13.4923C16.9073 13.5005 16.8671 14.922 16.0859 14.922Z" fill="#FDBE21"/>
<path d="M20.694 17.904V16.4416H21.7329C24.4306 16.4416 24.4306 12.1933 21.7329 12.1852C20.9034 12.1852 20.0659 12.1852 19.2525 12.1852C19.2525 14.0969 19.2525 16.0004 19.2525 17.904C19.7277 17.904 20.2108 17.904 20.694 17.904ZM21.7248 15.1263H20.694C20.694 14.6606 20.694 13.958 20.694 13.4923C21.0242 13.4923 21.3866 13.4841 21.7248 13.4923C22.5623 13.5005 22.514 15.1263 21.7248 15.1263Z" fill="#FDBE21"/>
</svg>
