<svg width="32" height="32" viewBox="0 0 32 32" fill="none" xmlns="http://www.w3.org/2000/svg">
<g clip-path="url(#clip0_13882_27516)">
<path d="M12.1719 15.9532C12.1718 13.8175 12.7345 11.7195 13.8033 9.87056C14.8722 8.02161 16.4095 6.48703 18.2603 5.42141C16.4097 4.35185 14.3094 3.79017 12.1719 3.79323C5.44909 3.79323 -0.00585938 9.23714 -0.00585938 15.9521C-0.00585938 22.6671 5.44647 28.112 12.1719 28.112C14.3094 28.1151 16.4097 27.5534 18.2603 26.4838C16.4096 25.4184 14.8723 23.884 13.8034 22.0352C12.7346 20.1865 12.1718 18.0887 12.1719 15.9532V15.9532Z" fill="#25B6EA"/>
<path d="M24.3487 3.79421C22.2169 3.79062 20.1219 4.34875 18.2745 5.41241L18.2598 5.42134C20.1101 6.48711 21.647 8.02162 22.7156 9.87033C23.7843 11.719 24.3469 13.8167 24.3469 15.952C24.3469 18.0874 23.7843 20.185 22.7156 22.0337C21.647 23.8825 20.1101 25.417 18.2598 26.4827L18.2745 26.4917C20.1217 27.5561 22.2167 28.1149 24.3487 28.112H31.9985V3.79421H24.3487Z" fill="#FFCC2C"/>
<path d="M24.3493 15.9531C24.3497 13.8174 23.787 11.7192 22.718 9.87026C21.649 8.02128 20.1115 6.48676 18.2604 5.42137C16.4102 6.48725 14.8735 8.02179 13.8049 9.87049C12.7364 11.7192 12.1738 13.8168 12.1738 15.9521C12.1738 18.0873 12.7364 20.1849 13.8049 22.0336C14.8735 23.8823 16.4102 25.4169 18.2604 26.4828C20.1112 25.4175 21.6485 23.8834 22.7175 22.0348C23.7864 20.1862 24.3493 18.0885 24.3493 15.9531Z" fill="#029C57"/>
</g>
<defs>
<clipPath id="clip0_13882_27516">
<rect width="32" height="32" fill="white"/>
</clipPath>
</defs>
</svg>
