<svg width="32" height="32" viewBox="0 0 32 32" fill="none" xmlns="http://www.w3.org/2000/svg">
<g clip-path="url(#clip0_13761_27235)">
<path d="M6.38898 12.7113C6.38907 13.5528 6.7137 14.3618 7.29527 14.9699C7.87684 15.578 8.67055 15.9384 9.51116 15.976C9.55334 15.976 9.59407 15.976 9.63625 15.976H15.9024V22.5106H9.63625C7.06618 22.4663 4.61634 21.4142 2.81448 19.5811C1.01261 17.7479 0.00292969 15.2803 0.00292969 12.7098C0.00292969 10.1394 1.01261 7.67179 2.81448 5.83862C4.61634 4.00544 7.06618 2.9534 9.63625 2.90912L15.9024 2.90912V9.44366H9.63625C8.77321 9.44923 7.94741 9.79594 7.33905 10.4081C6.73069 11.0203 6.38915 11.8482 6.38898 12.7113Z" fill="#23B5E9"/>
<path d="M31.9503 19.2458C31.9503 21.8421 30.9203 24.3324 29.0863 26.1701C27.2523 28.0078 24.7641 29.0428 22.1678 29.048H15.9023V22.5135H22.1678C23.0208 22.5081 23.8379 22.1693 24.4445 21.5696C25.0511 20.9698 25.3992 20.1567 25.4143 19.3037C25.4294 18.4508 25.1103 17.6258 24.5253 17.005C23.9403 16.3842 23.1357 16.0167 22.2834 15.9811C22.2463 15.9811 22.2056 15.9811 22.1678 15.9811H15.9023V9.44366H22.1678C24.7645 9.44771 27.2533 10.4824 29.0876 12.3203C30.9218 14.1583 31.9515 16.6492 31.9503 19.2458Z" fill="#FFCB2B"/>
<path d="M9.63621 15.9789H15.9024V22.5062L15.8944 22.5135H9.63621C7.83265 22.5131 6.06464 22.0118 4.5293 21.0655L9.51112 15.9745C9.5533 15.9789 9.59402 15.9789 9.63621 15.9789Z" fill="#009B56"/>
<path d="M27.2725 10.8866L22.2834 15.9811C22.2463 15.9811 22.2056 15.9811 22.1678 15.9811H15.9023V9.44366H22.1678C23.97 9.44359 25.737 9.94305 27.2725 10.8866Z" fill="#009B56"/>
</g>
<defs>
<clipPath id="clip0_13761_27235">
<rect width="32" height="26.1818" fill="white" transform="translate(0 2.90912)"/>
</clipPath>
</defs>
</svg>
