<svg width="24" height="25" viewBox="0 0 24 25" fill="none" xmlns="http://www.w3.org/2000/svg">
<g clip-path="url(#clip0_14330_14668)">
<path d="M18.7954 13.1844C18.7839 11.2147 19.6763 9.73031 21.4784 8.63576C20.4705 7.19177 18.9456 6.39757 16.9355 6.2445C15.0324 6.09433 12.9501 7.35349 12.1877 7.35349C11.3819 7.35349 9.53939 6.29649 8.08962 6.29649C5.09765 6.3427 1.91797 8.68197 1.91797 13.4414C1.91797 14.8478 2.175 16.3005 2.68906 17.7965C3.37641 19.7661 5.85431 24.5919 8.43906 24.514C9.79064 24.4822 10.7466 23.5551 12.5054 23.5551C14.2122 23.5551 15.0959 24.514 16.6034 24.514C19.2113 24.4764 21.4524 20.0896 22.1051 18.1142C18.6077 16.4651 18.7954 13.2854 18.7954 13.1844ZM15.7601 4.37597C17.2243 2.6374 17.0915 1.05477 17.0482 0.48584C15.7544 0.560928 14.2584 1.36668 13.4064 2.35726C12.4678 3.42004 11.9162 4.73408 12.0346 6.21562C13.4324 6.32248 14.7089 5.60337 15.7601 4.37597Z" fill="#424242"/>
</g>
<defs>
<clipPath id="clip0_14330_14668">
<rect width="24" height="24" fill="white" transform="translate(0 0.5)"/>
</clipPath>
</defs>
</svg>
