<svg width="16" height="17" viewBox="0 0 16 17" fill="none" xmlns="http://www.w3.org/2000/svg">
<path d="M6.66667 2.5H2.66667C2.48986 2.5 2.32029 2.57024 2.19526 2.69526C2.07024 2.82029 2 2.98986 2 3.16667V7.16667C2 7.34348 2.07024 7.51305 2.19526 7.63807C2.32029 7.7631 2.48986 7.83333 2.66667 7.83333H6.66667C6.84348 7.83333 7.01305 7.7631 7.13807 7.63807C7.2631 7.51305 7.33333 7.34348 7.33333 7.16667V3.16667C7.33333 2.98986 7.2631 2.82029 7.13807 2.69526C7.01305 2.57024 6.84348 2.5 6.66667 2.5ZM6 6.5H3.33333V3.83333H6V6.5ZM13.3333 9.16667H9.33333C9.15652 9.16667 8.98695 9.23691 8.86193 9.36193C8.73691 9.48695 8.66667 9.65652 8.66667 9.83333V13.8333C8.66667 14.0101 8.73691 14.1797 8.86193 14.3047C8.98695 14.4298 9.15652 14.5 9.33333 14.5H13.3333C13.5101 14.5 13.6797 14.4298 13.8047 14.3047C13.9298 14.1797 14 14.0101 14 13.8333V9.83333C14 9.65652 13.9298 9.48695 13.8047 9.36193C13.6797 9.23691 13.5101 9.16667 13.3333 9.16667ZM12.6667 13.1667H10V10.5H12.6667V13.1667ZM11.3333 2.5C9.86267 2.5 8.66667 3.696 8.66667 5.16667C8.66667 6.63733 9.86267 7.83333 11.3333 7.83333C12.804 7.83333 14 6.63733 14 5.16667C14 3.696 12.804 2.5 11.3333 2.5ZM11.3333 6.5C10.598 6.5 10 5.902 10 5.16667C10 4.43133 10.598 3.83333 11.3333 3.83333C12.0687 3.83333 12.6667 4.43133 12.6667 5.16667C12.6667 5.902 12.0687 6.5 11.3333 6.5ZM4.66667 9.16667C3.196 9.16667 2 10.3627 2 11.8333C2 13.304 3.196 14.5 4.66667 14.5C6.13733 14.5 7.33333 13.304 7.33333 11.8333C7.33333 10.3627 6.13733 9.16667 4.66667 9.16667ZM4.66667 13.1667C3.93133 13.1667 3.33333 12.5687 3.33333 11.8333C3.33333 11.098 3.93133 10.5 4.66667 10.5C5.402 10.5 6 11.098 6 11.8333C6 12.5687 5.402 13.1667 4.66667 13.1667Z" fill="#1976D2"/>
</svg>
