<svg width="16" height="16" viewBox="0 0 16 16" fill="none" xmlns="http://www.w3.org/2000/svg">
<path d="M7.33337 5.16683H7.33354C7.37255 5.16682 7.41033 5.18049 7.44029 5.20546C7.4663 5.22713 7.48499 5.25612 7.49407 5.28847L7.50004 5.35568V8.00016V8.50016H8.00004L10 8.50016L10.001 8.50016C10.0426 8.50009 10.0828 8.51561 10.1136 8.54366L10.4504 8.17417L10.1136 8.54367C10.1443 8.57172 10.1635 8.61029 10.1673 8.65177C10.171 8.69325 10.1591 8.73463 10.1339 8.76777C10.1117 8.79689 10.0807 8.81779 10.0457 8.82747L9.97786 8.8335H7.33337H7.33321C7.2942 8.83351 7.25642 8.81984 7.22645 8.79487C7.20045 8.7732 7.18176 8.74421 7.17268 8.71185L7.16671 8.64465V5.3335C7.16671 5.28929 7.18427 5.2469 7.21552 5.21565C7.24678 5.18439 7.28917 5.16683 7.33337 5.16683ZM8.00004 1.8335C9.63554 1.8335 11.2041 2.4832 12.3605 3.63967C13.517 4.79615 14.1667 6.36466 14.1667 8.00016C14.1667 9.63566 13.517 11.2042 12.3605 12.3607C11.2041 13.5171 9.63554 14.1668 8.00004 14.1668C6.36454 14.1668 4.79602 13.5171 3.63955 12.3607C2.48307 11.2042 1.83337 9.63566 1.83337 8.00016C1.83337 6.36466 2.48307 4.79615 3.63955 3.63967C4.79602 2.4832 6.36454 1.8335 8.00004 1.8335ZM8.00004 2.16683C6.45294 2.16683 4.96921 2.78141 3.87525 3.87537C2.78129 4.96934 2.16671 6.45307 2.16671 8.00016C2.16671 9.54726 2.78129 11.031 3.87525 12.125C4.96921 13.2189 6.45294 13.8335 8.00004 13.8335C9.54714 13.8335 11.0309 13.2189 12.1248 12.125C13.2188 11.031 13.8334 9.54726 13.8334 8.00016C13.8334 6.45307 13.2188 4.96934 12.1248 3.87537C11.0309 2.78141 9.54714 2.16683 8.00004 2.16683Z" fill="#FF9500" stroke="#FF9500"/>
</svg>
