<svg width="14" height="15" viewBox="0 0 14 15" fill="none" xmlns="http://www.w3.org/2000/svg">
<path d="M6.3335 4.66671H6.33366C6.37267 4.66669 6.41045 4.68037 6.44042 4.70534C6.46642 4.72701 6.48511 4.75599 6.49419 4.78835L6.50016 4.85555V7.50004V8.00004H7.00016L9.00016 8.00004L9.00108 8.00004C9.04273 7.99996 9.0829 8.01548 9.11368 8.04354L9.45054 7.67405L9.11368 8.04354C9.14445 8.0716 9.16361 8.11017 9.16738 8.15165C9.17114 8.19312 9.15924 8.23451 9.13401 8.26765C9.11185 8.29677 9.08081 8.31767 9.04581 8.32735L8.97799 8.33337H6.3335H6.33333C6.29432 8.33339 6.25654 8.31972 6.22658 8.29474C6.20057 8.27308 6.18188 8.24409 6.1728 8.21173L6.16683 8.14453V4.83337C6.16683 4.78917 6.18439 4.74678 6.21565 4.71552C6.2469 4.68427 6.28929 4.66671 6.3335 4.66671ZM7.00016 1.33337C8.63566 1.33337 10.2042 1.98307 11.3607 3.13955C12.5171 4.29602 13.1668 5.86454 13.1668 7.50004C13.1668 9.13554 12.5171 10.7041 11.3607 11.8605C10.2042 13.017 8.63566 13.6667 7.00016 13.6667C5.36466 13.6667 3.79615 13.017 2.63967 11.8605C1.4832 10.7041 0.833496 9.13554 0.833496 7.50004C0.833496 5.86454 1.4832 4.29602 2.63967 3.13955C3.79615 1.98307 5.36466 1.33337 7.00016 1.33337ZM7.00016 1.66671C5.45307 1.66671 3.96934 2.28129 2.87537 3.37525C1.78141 4.46921 1.16683 5.95294 1.16683 7.50004C1.16683 9.04714 1.78141 10.5309 2.87537 11.6248C3.96934 12.7188 5.45307 13.3334 7.00016 13.3334C8.54726 13.3334 10.031 12.7188 11.125 11.6248C12.2189 10.5309 12.8335 9.04714 12.8335 7.50004C12.8335 5.95294 12.2189 4.46921 11.125 3.37525C10.031 2.28129 8.54726 1.66671 7.00016 1.66671Z" fill="#FF9500" stroke="#FF9500"/>
</svg>
