<svg width="24" height="25" viewBox="0 0 24 25" fill="none" xmlns="http://www.w3.org/2000/svg">
<path fill-rule="evenodd" clip-rule="evenodd" d="M8.68207 6.7613C8.03224 7.48611 7.70621 8.41832 7.46152 9.27472C7.33887 9.70402 6.94648 10 6.5 10C6.16064 10 5.22479 10.1481 4.405 10.6605C3.64042 11.1384 3 11.907 3 13.25C3 14.449 3.44459 15.0727 3.95421 15.4348C4.5186 15.8358 5.28935 16 6 16C6.55228 16 7 16.4477 7 17C7 17.5523 6.55228 18 6 18C5.04398 18 3.81473 17.7892 2.79579 17.0652C1.72207 16.3023 1 15.051 1 13.25C1 11.093 2.10958 9.73664 3.345 8.9645C4.16661 8.451 5.05313 8.18502 5.7389 8.0708C6.01051 7.25488 6.43542 6.27112 7.19293 5.4262C8.20887 4.29304 9.73713 3.5 12 3.5C13.952 3.5 15.4343 4.06263 16.5097 4.94602C17.3699 5.65262 17.9234 6.52592 18.2588 7.37705C18.3231 7.39241 18.3911 7.40958 18.4625 7.42874C18.9428 7.55773 19.5937 7.7824 20.2539 8.16747C21.6049 8.95558 23 10.4344 23 13C23 14.7405 22.4082 16.0449 21.3902 16.8932C20.4043 17.7148 19.1486 18 18 18C17.4477 18 17 17.5523 17 17C17 16.4477 17.4477 16 18 16C18.8514 16 19.5957 15.7852 20.1098 15.3568C20.5918 14.9551 21 14.2595 21 13C21 11.3156 20.1451 10.4194 19.2461 9.89503C18.7813 9.62385 18.3072 9.45789 17.9438 9.36032C17.764 9.31205 17.6164 9.28187 17.5176 9.26421C17.4683 9.25541 17.4315 9.24979 17.4094 9.24664L17.3876 9.24368L17.388 9.2437L17.3887 9.24379C17.3878 9.24368 17.3868 9.24357 17.3859 9.24346C17.3862 9.24351 17.3868 9.24358 17.3876 9.24368L17.3867 9.24356L17.3855 9.24342L17.3854 9.24341C17.3854 9.24341 17.3855 9.24343 17.3858 9.24346C16.9841 9.19731 16.6496 8.91372 16.5385 8.52472C16.3318 7.80127 15.9264 7.0551 15.2403 6.49148C14.5657 5.93737 13.548 5.5 12 5.5C10.2629 5.5 9.29113 6.08196 8.68207 6.7613Z" fill="white"/>
<path fill-rule="evenodd" clip-rule="evenodd" d="M15.2071 15.2071C15.5976 14.8166 15.5976 14.1834 15.2071 13.7929C14.8166 13.4024 14.1834 13.4024 13.7929 13.7929L12 15.5858L10.2071 13.7929C9.81658 13.4024 9.18342 13.4024 8.79289 13.7929C8.40237 14.1834 8.40237 14.8166 8.79289 15.2071L10.5858 17L8.79289 18.7929C8.40237 19.1834 8.40237 19.8166 8.79289 20.2071C9.18342 20.5976 9.81658 20.5976 10.2071 20.2071L12 18.4142L13.7929 20.2071C14.1834 20.5976 14.8166 20.5976 15.2071 20.2071C15.5976 19.8166 15.5976 19.1834 15.2071 18.7929L13.4142 17L15.2071 15.2071Z" fill="white"/>
</svg>
