<svg width="24" height="24" viewBox="0 0 24 24" fill="none" xmlns="http://www.w3.org/2000/svg">
<path d="M18.8659 16.6519L18.6764 16.9835L18.9464 17.2536L21.7929 20.1L21.1 20.7929L18.2536 17.9464L17.9835 17.6764L17.6519 17.8659C16.9994 18.2387 16.2856 18.5 15.5 18.5C13.2761 18.5 11.5 16.7239 11.5 14.5C11.5 12.2761 13.2761 10.5 15.5 10.5C17.7239 10.5 19.5 12.2761 19.5 14.5C19.5 15.2856 19.2387 15.9994 18.8659 16.6519ZM8 12.5H9.5V14.5H9.20711L4.56355 9.85645L3.92089 9.21378L3.72211 10.1006C3.58575 10.709 3.5 11.3362 3.5 12C3.5 16.5183 7.04557 20.2257 11.5 20.4855V21.487C6.48825 21.2267 2.5 17.0761 2.5 12C2.5 6.75614 6.75614 2.5 12 2.5C16.3822 2.5 20.0671 5.46931 21.1672 9.5H20.1081C19.7573 8.35997 19.1701 7.30506 18.3831 6.40491C17.5104 5.40683 16.4164 4.62671 15.1885 4.12689L14.5 3.84665V4.59V5C14.5 5.82386 13.8239 6.5 13 6.5H11H10.5V7V9C10.5 9.27386 10.2739 9.5 10 9.5H8H7.5V10V12V12.5H8ZM12.5 14.5C12.5 16.1761 13.8239 17.5 15.5 17.5C17.1761 17.5 18.5 16.1761 18.5 14.5C18.5 12.8239 17.1761 11.5 15.5 11.5C13.8239 11.5 12.5 12.8239 12.5 14.5Z" fill="#1E88E5" stroke="#42A5F5"/>
</svg>
