<svg width="16" height="17" viewBox="0 0 16 17" fill="none" xmlns="http://www.w3.org/2000/svg">
<path fill-rule="evenodd" clip-rule="evenodd" d="M1.91911 3.75244C2.29418 3.37737 2.80289 3.16666 3.33332 3.16666H12.6667C13.1971 3.16666 13.7058 3.37737 14.0809 3.75244C14.4559 4.12752 14.6667 4.63622 14.6667 5.16666V5.82298C14.6667 5.82947 14.6667 5.83596 14.6667 5.84244V11.8333C14.6667 12.3638 14.4559 12.8725 14.0809 13.2475C13.7058 13.6226 13.1971 13.8333 12.6667 13.8333H3.33332C2.80289 13.8333 2.29418 13.6226 1.91911 13.2475C1.54404 12.8725 1.33332 12.3638 1.33332 11.8333V5.84244C1.33323 5.83596 1.33323 5.82947 1.33332 5.82298V5.16666C1.33332 4.63622 1.54404 4.12752 1.91911 3.75244ZM2.66666 7.079V11.8333C2.66666 12.0101 2.73689 12.1797 2.86192 12.3047C2.98694 12.4298 3.15651 12.5 3.33332 12.5H12.6667C12.8435 12.5 13.013 12.4298 13.1381 12.3047C13.2631 12.1797 13.3333 12.0101 13.3333 11.8333V7.079L9.10999 9.89456C9.10992 9.8946 9.10986 9.89465 9.10979 9.89469C8.78117 10.1139 8.395 10.2309 7.99999 10.2309C7.60497 10.2309 7.21881 10.1139 6.89019 9.89469C6.89012 9.89465 6.89006 9.8946 6.88999 9.89456L2.66666 7.079ZM13.3333 5.47653L8.37019 8.78529L8.36999 8.78542C8.26044 8.85852 8.13169 8.89752 7.99999 8.89752C7.86829 8.89752 7.73954 8.85852 7.62999 8.78542L7.62979 8.78529L2.66666 5.47653V5.16666C2.66666 4.98985 2.73689 4.82028 2.86192 4.69525C2.98694 4.57023 3.15651 4.49999 3.33332 4.49999H12.6667C12.8435 4.49999 13.013 4.57023 13.1381 4.69525C13.2631 4.82028 13.3333 4.98985 13.3333 5.16666V5.47653Z" fill="#EF5350"/>
</svg>
