<svg width="19" height="25" viewBox="0 0 19 25" fill="none" xmlns="http://www.w3.org/2000/svg">
<path d="M12.1427 0.5H2.42843C1.51355 0.5 0.713867 1.29968 0.713867 2.21456V22.7864C0.713867 23.7003 1.51355 24.501 2.42843 24.501H17.2854C18.1993 24.501 18.9999 23.7013 18.9999 22.7864V7.35728L14.9996 4.50032L12.1427 0.5Z" fill="#673AB7"/>
<path d="M7.57083 18.2138H14.4281V17.0714H7.57083V18.2138ZM7.57083 10.7854V11.9278H14.4281V10.7854H7.57083ZM6.54171 11.3575C6.54171 11.8145 6.19899 12.2714 5.62779 12.2714C5.05659 12.2714 4.71387 11.9287 4.71387 11.3575C4.71387 10.7863 5.05659 10.4436 5.62779 10.4436C6.19899 10.4436 6.54171 10.8996 6.54171 11.3575ZM6.54171 14.5572C6.54171 15.0142 6.19899 15.4711 5.62779 15.4711C5.05659 15.4711 4.71387 15.1284 4.71387 14.5572C4.71387 13.986 5.05659 13.6433 5.62779 13.6433C6.19899 13.6433 6.54171 14.1002 6.54171 14.5572ZM6.54171 17.6426C6.54171 18.0996 6.19899 18.5566 5.62779 18.5566C5.05659 18.5566 4.71387 18.2138 4.71387 17.6426C4.71387 17.0714 5.05659 16.7287 5.62779 16.7287C6.19899 16.7287 6.54171 17.1857 6.54171 17.6426ZM7.57083 15.3569H14.4281V14.2135H7.57083V15.3569Z" fill="#F1F1F1"/>
<path d="M12.6006 6.90039L19.0009 13.1865V7.35735L12.6006 6.90039Z" fill="url(#paint0_linear_14330_14675)"/>
<path d="M12.1436 0.5V5.64272C12.1436 6.55664 12.9432 7.35728 13.8581 7.35728H19.0008L12.1436 0.5Z" fill="#B39DDB"/>
<path d="M2.42843 0.5C1.51355 0.5 0.713867 1.29968 0.713867 2.21456V2.3288C0.713867 1.41392 1.51355 0.61424 2.42843 0.61424H12.1427V0.5H2.42843Z" fill="white" fill-opacity="0.2"/>
<path d="M17.2854 24.3857H2.42843C1.51355 24.3857 0.713867 23.586 0.713867 22.6711V22.7854C0.713867 23.6993 1.51355 24.4999 2.42843 24.4999H17.2854C18.1993 24.4999 18.9999 23.7003 18.9999 22.7854V22.6711C18.9999 23.586 18.1993 24.3857 17.2854 24.3857Z" fill="#311B92" fill-opacity="0.2"/>
<path d="M13.8562 7.35726C12.9422 7.35726 12.1416 6.55758 12.1416 5.6427V5.75694C12.1416 6.67086 12.9413 7.4715 13.8562 7.4715H18.9989V7.35726H13.8562Z" fill="#311B92" fill-opacity="0.1"/>
<path d="M12.1427 0.5H2.42843C1.51355 0.5 0.713867 1.29968 0.713867 2.21456V22.7864C0.713867 23.7003 1.51355 24.501 2.42843 24.501H17.2854C18.1993 24.501 18.9999 23.7013 18.9999 22.7864V7.35728L12.1427 0.5Z" fill="url(#paint1_radial_14330_14675)"/>
<defs>
<linearGradient id="paint0_linear_14330_14675" x1="15.8003" y1="7.40068" x2="15.8003" y2="13.2105" gradientUnits="userSpaceOnUse">
<stop stop-color="#311B92" stop-opacity="0.2"/>
<stop offset="1" stop-color="#311B92" stop-opacity="0.02"/>
</linearGradient>
<radialGradient id="paint1_radial_14330_14675" cx="0" cy="0" r="1" gradientUnits="userSpaceOnUse" gradientTransform="translate(1.29237 1.14051) scale(235.868 235.866)">
<stop stop-color="white" stop-opacity="0.1"/>
<stop offset="1" stop-color="white" stop-opacity="0"/>
</radialGradient>
</defs>
</svg>
