<svg width="24" height="27" viewBox="0 0 24 27" fill="none" xmlns="http://www.w3.org/2000/svg">
<g clip-path="url(#clip0_14330_14659)">
<path d="M17.7008 17.4259C20.7439 15.755 23.0508 14.4818 23.2497 14.3828C23.8858 14.0445 24.5427 13.1492 23.2497 12.4538C22.8322 12.2351 20.5846 11.0015 17.7008 9.41064L13.7031 13.448L17.7008 17.4258V17.4259Z" fill="#FFD900"/>
<path d="M13.7037 13.448L0.974609 26.277C1.27339 26.3166 1.6107 26.2374 2.00839 26.0188C2.84333 25.5617 11.6945 20.7281 17.7014 17.4268L13.7037 13.448Z" fill="#F43249"/>
<path d="M13.704 13.4479L17.7016 9.43039C17.7016 9.43039 2.90395 1.35468 2.00864 0.877956C1.67133 0.678175 1.29333 0.618831 0.955078 0.678175L13.704 13.4479Z" fill="#00EE76"/>
<path d="M13.7035 13.4479L0.954656 0.678223C0.43725 0.797848 0 1.25497 0 2.18985V24.7653C0 25.621 0.338344 26.2373 0.974437 26.2967L13.7035 13.4479Z" fill="#00D3FF"/>
</g>
<defs>
<clipPath id="clip0_14330_14659">
<rect width="24" height="25.6875" fill="white" transform="translate(0 0.65625)"/>
</clipPath>
</defs>
</svg>
