<svg width="25" height="24" viewBox="0 0 25 24" fill="none" xmlns="http://www.w3.org/2000/svg">
<path d="M11 16.5C11 16.1022 11.158 15.7206 11.4393 15.4393C11.7206 15.158 12.1022 15 12.5 15C12.8978 15 13.2794 15.158 13.5607 15.4393C13.842 15.7206 14 16.1022 14 16.5C14 16.8978 13.842 17.2794 13.5607 17.5607C13.2794 17.842 12.8978 18 12.5 18C12.1022 18 11.7206 17.842 11.4393 17.5607C11.158 17.2794 11 16.8978 11 16.5ZM11.516 6.82C11.5577 6.58944 11.6791 6.38085 11.859 6.23065C12.0388 6.08045 12.2657 5.99817 12.5 5.99817C12.7343 5.99817 12.9612 6.08045 13.141 6.23065C13.3209 6.38085 13.4423 6.58944 13.484 6.82L13.5 7V12L13.484 12.18C13.4423 12.4106 13.3209 12.6191 13.141 12.7694C12.9612 12.9196 12.7343 13.0018 12.5 13.0018C12.2657 13.0018 12.0388 12.9196 11.859 12.7694C11.6791 12.6191 11.5577 12.4106 11.516 12.18L11.5 12V7L11.516 6.82ZM22.5 12C22.5 14.6522 21.4464 17.1957 19.5711 19.0711C17.6957 20.9464 15.1522 22 12.5 22C9.84784 22 7.3043 20.9464 5.42893 19.0711C3.55357 17.1957 2.5 14.6522 2.5 12C2.5 9.34784 3.55357 6.8043 5.42893 4.92893C7.3043 3.05357 9.84784 2 12.5 2C15.1522 2 17.6957 3.05357 19.5711 4.92893C21.4464 6.8043 22.5 9.34784 22.5 12ZM20.5 12C20.5 9.87827 19.6571 7.84344 18.1569 6.34315C16.6566 4.84285 14.6217 4 12.5 4C10.3783 4 8.34344 4.84285 6.84315 6.34315C5.34285 7.84344 4.5 9.87827 4.5 12C4.5 14.1217 5.34285 16.1566 6.84315 17.6569C8.34344 19.1571 10.3783 20 12.5 20C14.6217 20 16.6566 19.1571 18.1569 17.6569C19.6571 16.1566 20.5 14.1217 20.5 12Z" fill="white"/>
</svg>
