<svg width="16" height="17" viewBox="0 0 16 17" fill="none" xmlns="http://www.w3.org/2000/svg">
<rect width="16" height="17" fill="#063C50"/>
<rect width="1440" height="4665" transform="translate(-984 -533)" fill="#F6F8FA"/>
<g clip-path="url(#clip0_1064_715)">
<g clip-path="url(#clip1_1064_715)">
<rect x="-904" y="-249" width="1280" height="3776" rx="12" fill="white"/>
<g clip-path="url(#clip2_1064_715)">
<rect width="1200" height="3712" transform="translate(-864 -217)" fill="white"/>
<g clip-path="url(#clip3_1064_715)">
<path d="M8.00004 9.83333C9.47071 9.83333 10.6667 8.63733 10.6667 7.16667C10.6667 5.696 9.47071 4.5 8.00004 4.5C6.52937 4.5 5.33337 5.696 5.33337 7.16667C5.33337 8.63733 6.52937 9.83333 8.00004 9.83333ZM8.00004 5.83333C8.73537 5.83333 9.33337 6.43133 9.33337 7.16667C9.33337 7.902 8.73537 8.5 8.00004 8.5C7.26471 8.5 6.66671 7.902 6.66671 7.16667C6.66671 6.43133 7.26471 5.83333 8.00004 5.83333Z" fill="#EF5350"/>
<path d="M7.61335 15.0427C7.72618 15.1233 7.86137 15.1666 8.00002 15.1666C8.13867 15.1666 8.27385 15.1233 8.38668 15.0427C8.58935 14.8993 13.3527 11.46 13.3334 7.16668C13.3334 4.22601 10.9407 1.83334 8.00002 1.83334C5.05935 1.83334 2.66668 4.22601 2.66668 7.16334C2.64735 11.46 7.41069 14.8993 7.61335 15.0427ZM8.00002 3.16668C10.206 3.16668 12 4.96068 12 7.17001C12.014 10.1287 9.07468 12.7853 8.00002 13.6567C6.92602 12.7847 3.98602 10.1273 4.00002 7.16668C4.00002 4.96068 5.79402 3.16668 8.00002 3.16668Z" fill="#EF5350"/>
<rect x="-23.5" y="-112.5" width="359" height="556" rx="11.5" stroke="#E0E0E0"/>
</g>
</g>
</g>
</g>
<defs>
<clipPath id="clip0_1064_715">
<rect width="1280" height="3907" fill="white" transform="translate(-904 -380)"/>
</clipPath>
<clipPath id="clip1_1064_715">
<rect width="1280" height="3776" fill="white" transform="translate(-904 -249)"/>
</clipPath>
<clipPath id="clip2_1064_715">
<rect width="1200" height="3712" fill="white" transform="translate(-864 -217)"/>
</clipPath>
<clipPath id="clip3_1064_715">
<rect width="1200" height="557" fill="white" transform="translate(-864 -113)"/>
</clipPath>
</defs>
</svg>
