<svg width="16" height="17" viewBox="0 0 16 17" fill="none" xmlns="http://www.w3.org/2000/svg">
<path d="M8.00004 9.83333C9.47071 9.83333 10.6667 8.63733 10.6667 7.16667C10.6667 5.696 9.47071 4.5 8.00004 4.5C6.52937 4.5 5.33337 5.696 5.33337 7.16667C5.33337 8.63733 6.52937 9.83333 8.00004 9.83333ZM8.00004 5.83333C8.73537 5.83333 9.33337 6.43133 9.33337 7.16667C9.33337 7.902 8.73537 8.5 8.00004 8.5C7.26471 8.5 6.66671 7.902 6.66671 7.16667C6.66671 6.43133 7.26471 5.83333 8.00004 5.83333Z" fill="#EF5350"/>
<path d="M7.61335 15.0426C7.72618 15.1232 7.86137 15.1665 8.00002 15.1665C8.13867 15.1665 8.27385 15.1232 8.38668 15.0426C8.58935 14.8993 13.3527 11.4599 13.3334 7.16659C13.3334 4.22592 10.9407 1.83325 8.00002 1.83325C5.05935 1.83325 2.66668 4.22592 2.66668 7.16325C2.64735 11.4599 7.41069 14.8993 7.61335 15.0426ZM8.00002 3.16659C10.206 3.16659 12 4.96059 12 7.16992C12.014 10.1286 9.07468 12.7853 8.00002 13.6566C6.92602 12.7846 3.98602 10.1273 4.00002 7.16659C4.00002 4.96059 5.79402 3.16659 8.00002 3.16659Z" fill="#EF5350"/>
</svg>
