<svg width="16" height="17" viewBox="0 0 16 17" fill="none" xmlns="http://www.w3.org/2000/svg">
<path d="M7.03583 4.65998L4.7805 2.05665C4.5205 1.75665 4.04383 1.75798 3.74183 2.06065L1.88716 3.91865C1.33516 4.47131 1.17716 5.29198 1.4965 5.94998C3.40424 9.89996 6.58986 13.09 10.5372 15.0033C11.1945 15.3226 12.0145 15.1646 12.5665 14.612L14.4385 12.7366C14.7418 12.4333 14.7425 11.954 14.4398 11.694L11.8265 9.45064C11.5532 9.21598 11.1285 9.24664 10.8545 9.52131L9.94516 10.432C9.89861 10.4808 9.83733 10.5129 9.77073 10.5235C9.70413 10.5341 9.63589 10.5226 9.5765 10.4906C8.09013 9.63471 6.85716 8.40013 6.00316 6.91265C5.97118 6.85315 5.9596 6.7848 5.9702 6.71808C5.98079 6.65137 6.01298 6.58997 6.06183 6.54331L6.9685 5.63598C7.24316 5.35998 7.27316 4.93331 7.03583 4.65931V4.65998Z" stroke="#16A75C" stroke-width="1.6" stroke-linecap="round" stroke-linejoin="round"/>
</svg>
