<svg width="16" height="17" viewBox="0 0 16 17" fill="none" xmlns="http://www.w3.org/2000/svg">
<path d="M4.66672 4.50017C4.53486 4.50017 4.40597 4.53927 4.29634 4.61253C4.18671 4.68578 4.10126 4.7899 4.0508 4.91172C4.00034 5.03354 3.98714 5.16758 4.01286 5.2969C4.03858 5.42622 4.10208 5.54501 4.19531 5.63824C4.28855 5.73148 4.40734 5.79497 4.53666 5.8207C4.66598 5.84642 4.80002 5.83322 4.92184 5.78276C5.04366 5.7323 5.14778 5.64685 5.22103 5.53722C5.29429 5.42759 5.33338 5.29869 5.33338 5.16684C5.33338 4.99003 5.26315 4.82046 5.13812 4.69544C5.0131 4.57041 4.84353 4.50017 4.66672 4.50017ZM14.4734 8.35351L8.15338 2.04684C8.09123 1.97982 8.01595 1.92629 7.93223 1.88959C7.8485 1.85289 7.75813 1.8338 7.66672 1.83351H3.66672C3.57898 1.833 3.49201 1.84982 3.41078 1.88299C3.32956 1.91617 3.25568 1.96505 3.19339 2.02684L1.52672 3.68684C1.46493 3.74913 1.41605 3.82301 1.38287 3.90424C1.34969 3.98546 1.33288 4.07244 1.33339 4.16017V8.16017C1.33584 8.33669 1.4049 8.50575 1.52672 8.63351L7.85338 14.9668C7.98114 15.0887 8.15021 15.1577 8.32672 15.1602C8.41446 15.1607 8.50143 15.1439 8.58266 15.1107C8.66388 15.0775 8.73776 15.0286 8.80005 14.9668L14.4734 9.29351C14.5352 9.23121 14.5841 9.15734 14.6172 9.07611C14.6504 8.99489 14.6672 8.90791 14.6667 8.82017C14.6626 8.64598 14.5937 8.47958 14.4734 8.35351ZM8.32672 13.5602L2.66672 7.89351V4.43351L3.93339 3.16684H7.38672L13.0534 8.82684L8.32672 13.5602Z" fill="#2196F3"/>
</svg>
