<svg width="25" height="29" viewBox="0 0 25 29" fill="none" xmlns="http://www.w3.org/2000/svg">
<path d="M20.3483 15.2984C20.3348 13.0005 21.376 11.2687 23.4784 9.99173C22.3025 8.30707 20.5235 7.3805 18.1785 7.20193C15.9581 7.02672 13.5288 8.49575 12.6393 8.49575C11.6992 8.49575 9.54961 7.26258 7.85821 7.26258C4.36759 7.31649 0.657959 10.0456 0.657959 15.5983C0.657959 17.2392 0.957829 18.9339 1.55757 20.6792C2.35947 22.9771 5.25035 28.6073 8.2659 28.5163C9.84275 28.4792 10.958 27.3977 13.0099 27.3977C15.0012 27.3977 16.0322 28.5163 17.791 28.5163C20.8335 28.4725 23.4481 23.3545 24.2096 21.0499C20.1293 19.126 20.3483 15.4164 20.3483 15.2984ZM16.8071 5.02197C18.5154 2.99364 18.3604 1.14725 18.3099 0.48349C16.8004 0.571093 15.0551 1.51114 14.0611 2.66681C12.9661 3.90673 12.3226 5.43977 12.4607 7.16824C14.0915 7.2929 15.5807 6.45394 16.8071 5.02197Z" fill="white"/>
</svg>
