<svg width="22" height="23" viewBox="0 0 22 23" fill="none" xmlns="http://www.w3.org/2000/svg">
<path fill-rule="evenodd" clip-rule="evenodd" d="M6.465 0.442953C7.638 0.388953 8.012 0.376953 11 0.376953C13.988 0.376953 14.362 0.389953 15.534 0.442953C16.706 0.495953 17.506 0.682953 18.206 0.953953C18.939 1.23095 19.604 1.66395 20.154 2.22395C20.714 2.77295 21.146 3.43695 21.422 4.17095C21.694 4.87095 21.88 5.67095 21.934 6.84095C21.988 8.01595 22 8.38995 22 11.377C22 14.365 21.987 14.739 21.934 15.912C21.881 17.082 21.694 17.882 21.422 18.582C21.146 19.316 20.7133 19.9812 20.154 20.531C19.604 21.091 18.939 21.523 18.206 21.799C17.506 22.071 16.706 22.257 15.536 22.311C14.362 22.365 13.988 22.377 11 22.377C8.012 22.377 7.638 22.364 6.465 22.311C5.295 22.258 4.495 22.071 3.795 21.799C3.06092 21.5229 2.39582 21.0902 1.846 20.531C1.28638 19.9816 0.853315 19.3168 0.577 18.583C0.306 17.883 0.12 17.083 0.066 15.913C0.012 14.738 0 14.364 0 11.377C0 8.38895 0.013 8.01495 0.066 6.84295C0.119 5.67095 0.306 4.87095 0.577 4.17095C0.853723 3.43703 1.28712 2.77227 1.847 2.22295C2.39604 1.66345 3.06047 1.2304 3.794 0.953953C4.494 0.682953 5.294 0.496953 6.464 0.442953H6.465ZM15.445 2.42295C14.285 2.36995 13.937 2.35895 11 2.35895C8.063 2.35895 7.715 2.36995 6.555 2.42295C5.482 2.47195 4.9 2.65095 4.512 2.80195C3.999 3.00195 3.632 3.23895 3.247 3.62395C2.88205 3.979 2.60118 4.41124 2.425 4.88895C2.274 5.27695 2.095 5.85895 2.046 6.93195C1.993 8.09195 1.982 8.43995 1.982 11.377C1.982 14.314 1.993 14.662 2.046 15.822C2.095 16.895 2.274 17.477 2.425 17.865C2.601 18.342 2.882 18.775 3.247 19.13C3.602 19.495 4.035 19.776 4.512 19.952C4.9 20.103 5.482 20.282 6.555 20.331C7.715 20.384 8.062 20.395 11 20.395C13.938 20.395 14.285 20.384 15.445 20.331C16.518 20.282 17.1 20.103 17.488 19.952C18.001 19.752 18.368 19.515 18.753 19.13C19.118 18.775 19.399 18.342 19.575 17.865C19.726 17.477 19.905 16.895 19.954 15.822C20.007 14.662 20.018 14.314 20.018 11.377C20.018 8.43995 20.007 8.09195 19.954 6.93195C19.905 5.85895 19.726 5.27695 19.575 4.88895C19.375 4.37595 19.138 4.00895 18.753 3.62395C18.3979 3.25902 17.9657 2.97816 17.488 2.80195C17.1 2.65095 16.518 2.47195 15.445 2.42295ZM9.595 14.768C10.3797 15.0946 11.2534 15.1387 12.0669 14.8927C12.8805 14.6467 13.5834 14.1259 14.0556 13.4192C14.5278 12.7125 14.7401 11.8638 14.656 11.0181C14.572 10.1723 14.197 9.38193 13.595 8.78195C13.2112 8.39843 12.7472 8.10477 12.2363 7.9221C11.7255 7.73943 11.1804 7.67231 10.6405 7.72557C10.1006 7.77882 9.57915 7.95113 9.1138 8.23008C8.64845 8.50904 8.25074 8.8877 7.9493 9.3388C7.64786 9.78991 7.45019 10.3022 7.37052 10.8389C7.29084 11.3756 7.33115 11.9232 7.48854 12.4425C7.64593 12.9617 7.91648 13.4396 8.28072 13.8417C8.64496 14.2438 9.09382 14.5601 9.595 14.768ZM7.002 7.37895C7.52702 6.85393 8.15032 6.43746 8.8363 6.15331C9.52228 5.86917 10.2575 5.72293 11 5.72293C11.7425 5.72293 12.4777 5.86917 13.1637 6.15331C13.8497 6.43746 14.473 6.85393 14.998 7.37895C15.523 7.90398 15.9395 8.52727 16.2236 9.21325C16.5078 9.89923 16.654 10.6345 16.654 11.377C16.654 12.1195 16.5078 12.8547 16.2236 13.5407C15.9395 14.2266 15.523 14.8499 14.998 15.375C13.9377 16.4353 12.4995 17.031 11 17.031C9.50046 17.031 8.06234 16.4353 7.002 15.375C5.94166 14.3146 5.34597 12.8765 5.34597 11.377C5.34597 9.87741 5.94166 8.43929 7.002 7.37895ZM17.908 6.56495C18.0381 6.44222 18.1423 6.29463 18.2143 6.13093C18.2863 5.96722 18.3248 5.79072 18.3274 5.61188C18.33 5.43304 18.2967 5.2555 18.2295 5.08976C18.1622 4.92403 18.0624 4.77346 17.936 4.64699C17.8095 4.52052 17.6589 4.42071 17.4932 4.35347C17.3275 4.28623 17.1499 4.25293 16.9711 4.25554C16.7922 4.25814 16.6157 4.29661 16.452 4.36865C16.2883 4.44069 16.1407 4.54485 16.018 4.67495C15.7793 4.92798 15.6486 5.26407 15.6537 5.61188C15.6588 5.95969 15.7992 6.29183 16.0452 6.5378C16.2911 6.78376 16.6233 6.92418 16.9711 6.92925C17.3189 6.93432 17.655 6.80364 17.908 6.56495Z" fill="url(#paint0_linear_15164_59740)"/>
<defs>
<linearGradient id="paint0_linear_15164_59740" x1="11" y1="0.376953" x2="11" y2="22.377" gradientUnits="userSpaceOnUse">
<stop stop-color="#8C3AA9"/>
<stop offset="0.45625" stop-color="#DE3B72"/>
<stop offset="1" stop-color="#F98C23"/>
</linearGradient>
</defs>
</svg>
