<svg width="414" height="309" viewBox="0 0 414 309" fill="none" xmlns="http://www.w3.org/2000/svg">
<g clip-path="url(#clip0_14905_468034)">
<path d="M148.536 131.961C148.536 131.961 149.844 162.618 144.14 162.524C138.436 162.43 145.137 128.249 145.137 128.249C145.137 128.249 119.376 110.945 108.365 110.447C108.365 110.447 121.339 142.057 115.834 140.555C110.329 139.052 95.31 106.785 95.31 106.785C95.31 106.785 67.6816 97.4627 60.7005 113.675C53.7193 129.887 59.8627 139.37 63.9184 141.023C67.974 142.677 94.9997 146.181 93.8004 149.592C92.6012 153.002 73.573 156.019 63.8595 151.408C63.8595 151.408 71.0801 180.763 85.9978 181.46C100.916 182.157 106.784 173.675 115.994 174.274C125.204 174.873 131.509 178.283 126.6 180.092C121.691 181.901 106.521 178.04 98.2534 183.263C89.9861 188.487 83.4813 191.497 96.742 196.261C110.003 201.025 134.779 202.771 141.205 192.932L142.008 191.701C141.795 192.144 141.525 192.558 141.205 192.932C143.514 194.766 146.282 202.338 148.13 208.106C148.372 209.078 148.78 210.432 149.411 212.283C149.656 213.113 149.849 213.791 149.982 214.265C153.06 227.038 147.511 247.537 147.511 247.537L150.319 248.745C159.809 228.64 150.951 209.742 150.951 209.742C145.564 194.989 147.632 183.094 147.632 183.094C147.632 183.094 176.033 172.098 166.643 150.322C166.634 150.322 158.592 136.626 148.536 131.961Z" fill="#EDFCF6"/>
<path d="M397.791 216.301C389.008 194.735 351.969 206.395 351.969 206.395C351.969 206.395 330.98 248.632 323.609 250.487C316.238 252.343 334.478 210.911 334.478 210.911C319.81 211.312 285.004 233.545 285.004 233.545C285.004 233.545 292.865 278.82 285.257 278.817C277.649 278.815 280.354 238.369 280.354 238.369C266.831 244.288 255.705 262.18 255.705 262.18C242.55 290.705 279.992 305.896 279.992 305.896C279.992 305.896 282.376 321.645 274.754 340.993C274.754 340.993 272.944 344.61 271.381 350.584L275.206 350.11C275.394 349.051 275.621 348.025 275.886 347.031C275.885 347.028 275.884 347.026 275.883 347.022C275.883 347.019 275.883 347.016 275.884 347.013C275.887 346.999 275.892 346.985 275.897 346.971C276.086 346.35 276.361 345.468 276.707 344.382C277.6 341.964 278.186 340.186 278.548 338.911C281.185 331.345 285.101 321.412 288.23 319.045C287.816 318.545 287.47 317.992 287.2 317.401C287.528 317.926 287.872 318.472 288.23 319.045C296.468 332.183 329.487 330.456 347.278 324.483C365.069 318.509 356.496 314.377 345.668 307.29C334.839 300.202 314.527 304.938 308.055 302.441C301.583 299.943 310.071 295.583 322.345 295.017C334.62 294.452 342.162 305.78 362.039 305.21C381.916 304.641 392.421 266.06 392.421 266.06C379.366 271.921 354.136 267.49 352.644 262.956C351.152 258.421 387.214 254.434 392.657 252.351C398.101 250.268 406.576 237.866 397.791 216.301Z" fill="#EDFCF6"/>
<path d="M2.13775 243.708C6.5593 221.391 38.4873 227.415 38.4873 227.415C38.4873 227.415 61.1929 265.602 67.4869 266.346C73.7808 267.091 53.4373 229.293 53.4373 229.293C65.5356 227.563 96.9987 244.229 96.9987 244.229C96.9987 244.229 96.4037 289.552 102.651 288.449C108.899 287.347 101.441 248.264 101.441 248.264C113.314 252.085 124.768 267.939 124.768 267.939C139.264 293.876 110.481 314.116 110.481 314.116C110.481 314.116 110.562 329.831 119.326 347.612C119.326 347.612 121.281 350.88 123.338 356.484L120.135 356.575C119.843 355.569 119.524 354.6 119.178 353.668C119.179 353.665 119.179 353.662 119.179 353.659C119.179 353.656 119.179 353.653 119.178 353.651C119.173 353.637 119.167 353.624 119.161 353.611C118.926 353.033 118.586 352.211 118.161 351.202C117.115 348.971 116.404 347.32 115.941 346.128C112.796 339.126 108.293 329.997 105.417 328.14C105.693 327.592 105.906 327.002 106.05 326.387C105.849 326.947 105.637 327.529 105.417 328.14C100.353 342.154 73.0114 345.243 57.6271 341.985C42.2428 338.727 48.7483 333.456 56.724 324.973C64.6998 316.49 81.9944 318.175 86.9864 314.801C91.9783 311.428 84.4432 308.4 74.2893 309.623C64.1353 310.846 59.4075 322.992 43.0094 325.311C26.6112 327.629 12.9895 291.495 12.9895 291.495C24.47 295.327 44.6171 287.355 45.2552 282.713C45.8933 278.072 15.761 279.395 11.0208 278.149C6.28054 276.904 -2.28567 266.025 2.13775 243.708Z" fill="#EDFCF6"/>
<circle cx="203.862" cy="134.223" r="105.438" stroke="#9BDBB3" stroke-linecap="round" stroke-linejoin="round" stroke-dasharray="3.36 6.72"/>
<circle cx="301.62" cy="48.0575" r="4.20072" stroke="#F44336" stroke-width="1.68029"/>
<circle cx="115.741" cy="226.844" r="4.20072" stroke="#FFB900" stroke-width="1.68029"/>
<rect x="152.526" y="3.76172" width="9.24159" height="9.24159" rx="1.68029" transform="rotate(28.0978 152.526 3.76172)" fill="#FFB900"/>
<path d="M287.69 210.845C288.14 210.38 288.924 210.576 289.102 211.198L290.501 216.095C290.679 216.717 290.116 217.298 289.489 217.141L284.548 215.904C283.921 215.747 283.699 214.97 284.149 214.505L287.69 210.845Z" stroke="#1FB767" stroke-width="1.68029"/>
<path d="M88.1247 76.7924C87.7832 76.2431 88.1644 75.5302 88.8108 75.5091L93.9012 75.3429C94.5476 75.3218 94.9744 76.0083 94.6695 76.5787L92.2682 81.0702C91.9633 81.6405 91.1553 81.6669 90.8138 81.1177L88.1247 76.7924Z" stroke="#1E88E5" stroke-width="1.68029"/>
<path d="M153.294 212.823L220.287 228.87C220.287 228.87 201.538 308.473 201.216 309.817C169.449 309.817 139.026 309.817 128.827 309.817C128.668 309.817 153.294 212.823 153.294 212.823Z" fill="#F9A07B"/>
<path d="M119.271 138.857C119.334 131.229 153.512 123.541 153.512 123.541C153.512 123.541 203.53 109.035 227.016 125.558C248.895 140.951 254.746 188.196 254.746 188.196L215.856 241.29C215.856 241.29 161.521 225.399 153.597 216.455C145.674 207.511 119.208 146.485 119.271 138.857Z" fill="#F9A07B"/>
<path d="M264.205 140.008C269.035 134.859 277.125 134.601 282.274 139.431C288.387 145.166 288.694 154.771 282.959 160.884L244.104 202.302C238.822 207.933 229.975 208.216 224.343 202.933C218.712 197.65 218.43 188.803 223.712 183.172L264.205 140.008Z" fill="#ED8569"/>
<rect x="274.562" y="64.8662" width="26.3237" height="59.3037" rx="13.1619" transform="rotate(41.0538 274.562 64.8662)" fill="#F9A07B"/>
<path d="M271.484 70.7366L275.082 70.2971L263.831 117.267L259.589 121.097L271.484 70.7366Z" fill="#ED8569"/>
<path d="M187.272 207.526C184.651 221.524 213.764 230.508 217.981 238.343C224.932 228.218 252.496 192.486 255.878 185.691C260.107 177.197 239.926 159.688 230.188 157.599C220.451 155.511 189.894 193.529 187.272 207.526Z" fill="#ED8569"/>
<rect x="186.815" y="-0.765991" width="99.4859" height="192.111" rx="13.7222" transform="rotate(13.4706 186.815 -0.765991)" fill="#001B3D"/>
<rect x="191.889" y="7.50476" width="85.7637" height="178.388" rx="9.14812" transform="rotate(13.4706 191.889 7.50476)" fill="white"/>
<g opacity="0.3" filter="url(#filter0_f_14905_468034)">
<path d="M195.075 108.737C192.456 109.795 190.624 112.766 190.245 114.077C189.557 111.811 188.302 105.926 189.108 101.429C189.411 99.7397 189.863 97.7318 190.813 95.5263C193.086 90.2498 199.338 81.7537 211.272 80.6293C227.469 79.1035 234.858 90.7481 235.426 92.1534C235.874 93.2606 236.563 95.8074 235.994 97.7749C235.322 100.104 233.153 101.71 231.448 102.272C230.595 102.553 228.89 102.553 228.89 102.553C229.459 101.71 229.116 100.215 229.174 98.6182C229.224 97.2837 229.686 96.797 229.174 95.5263C228.559 93.9966 228.165 92.9442 226.901 91.8724C225.657 90.8173 224.154 90.2796 223.491 90.1859C221.786 87.0941 217.524 86.2509 217.524 86.2509C217.524 86.2509 212.895 86.5561 208.147 91.0291C202.179 96.6506 201.516 104.614 201.611 109.018C200.759 108.549 197.336 107.824 195.075 108.737Z" fill="#16A75C"/>
<path d="M203.884 114.078C204.737 115.764 208.297 121.138 213.546 123.072C221.786 127.007 228.554 124.076 233.721 120.823C228.038 128.693 215.819 132.347 206.726 129.256C202.269 127.972 198.53 125.492 195.928 122.791C192.234 119.418 191.949 117.329 191.949 115.848C191.949 112.841 194.634 109.918 197.945 109.918C201.257 109.918 203.032 112.391 203.884 114.078Z" fill="#FFD026"/>
<path fill-rule="evenodd" clip-rule="evenodd" d="M234.795 91.047C235.139 91.57 235.347 91.9594 235.426 92.1536C235.874 93.2607 236.562 95.8075 235.994 97.7751C235.322 100.104 233.153 101.71 231.448 102.272C230.595 102.553 228.89 102.553 228.89 102.553C229.28 101.976 229.241 101.093 229.197 100.08C229.177 99.6145 229.156 99.1215 229.174 98.6183C229.191 98.1692 229.254 97.8161 229.312 97.4968C229.424 96.8674 229.514 96.3695 229.174 95.5265C229.154 95.4751 229.133 95.4243 229.113 95.3741C228.531 93.9261 228.122 92.9084 226.901 91.8725C225.657 90.8174 224.154 90.2797 223.491 90.186C221.786 87.0942 217.524 86.251 217.524 86.251C217.524 86.251 217.317 86.2646 216.947 86.3282C216.771 86.2769 216.671 86.251 216.671 86.251C223.491 85.4077 230.914 86.8101 234.289 90.4671C234.469 90.6617 234.637 90.855 234.795 91.047Z" fill="#008444"/>
<ellipse cx="221.502" cy="98.3368" rx="8.52476" ry="8.43226" fill="#1E88E5"/>
<path d="M219.187 101.148L219.187 96.9768L218.224 97.3781L217.842 96.5046L219.441 95.7648L220.229 95.7648L220.229 101.148L219.187 101.148Z" fill="white"/>
<path d="M222.853 99.2197C222.646 99.2197 222.445 99.1778 222.249 99.0938C222.052 99.0099 221.877 98.8918 221.723 98.7397C221.57 98.5823 221.445 98.3986 221.349 98.1888C221.259 97.9736 221.214 97.7375 221.214 97.4805C221.214 97.2129 221.267 96.9663 221.373 96.7407C221.479 96.5098 221.62 96.3131 221.795 96.1504C221.975 95.9878 222.18 95.8618 222.408 95.7726C222.641 95.6782 222.885 95.631 223.14 95.631C223.431 95.631 223.697 95.6834 223.935 95.7884C224.179 95.8881 224.386 96.0245 224.556 96.1976C224.731 96.3655 224.864 96.5649 224.954 96.7958C225.049 97.0214 225.097 97.2601 225.097 97.5119C225.097 97.874 225.023 98.2071 224.874 98.5114C224.731 98.8105 224.548 99.1174 224.325 99.4322L223.004 101.297L222.201 100.754L223.315 99.1883L223.275 99.141C223.153 99.1935 223.012 99.2197 222.853 99.2197ZM223.156 96.5833C223.034 96.5833 222.917 96.6043 222.806 96.6462C222.699 96.6882 222.604 96.7485 222.519 96.8272C222.434 96.9059 222.365 97.0004 222.312 97.1106C222.264 97.2155 222.241 97.3335 222.241 97.4647C222.241 97.6011 222.264 97.7244 222.312 97.8346C222.365 97.9395 222.434 98.0314 222.519 98.1101C222.604 98.1888 222.699 98.2491 222.806 98.2911C222.917 98.3331 223.034 98.354 223.156 98.354C223.272 98.354 223.386 98.3331 223.498 98.2911C223.609 98.2491 223.707 98.1888 223.792 98.1101C223.882 98.0314 223.951 97.9395 223.999 97.8346C224.052 97.7244 224.079 97.6011 224.079 97.4647C224.079 97.3335 224.052 97.2155 223.999 97.1106C223.951 97.0004 223.882 96.9059 223.792 96.8272C223.707 96.7485 223.609 96.6882 223.498 96.6462C223.386 96.6043 223.272 96.5833 223.156 96.5833Z" fill="white"/>
<path d="M238.495 111.576C238.268 116.607 233.721 119.699 228.89 121.666C222.071 123.915 218.376 123.072 218.376 123.072C218.376 123.072 220.646 122.066 222.355 119.136C223.619 116.968 223.917 114.221 224.457 111.547C224.912 109.299 226.901 104.521 231.533 104.689C235.378 104.689 238.667 107.776 238.495 111.576Z" fill="#FFB900"/>
</g>
<path d="M193.184 106.538C190.298 107.704 188.279 110.977 187.862 112.422C187.104 109.925 185.721 103.442 186.609 98.4871C186.943 96.626 187.441 94.4139 188.488 91.9841C190.992 86.1708 197.879 76.8105 211.028 75.5718C228.873 73.8907 237.012 86.7198 237.638 88.2681C238.132 89.4879 238.891 92.2937 238.265 94.4614C237.524 97.0269 235.134 98.7967 233.256 99.4161C232.316 99.7257 230.438 99.7257 230.438 99.7257C231.064 98.7967 230.686 97.15 230.751 95.3904C230.805 93.9202 231.315 93.384 230.751 91.9841C230.073 90.2988 229.639 89.1393 228.247 87.9584C226.876 86.7961 225.22 86.2037 224.49 86.1004C222.611 82.6941 217.915 81.7651 217.915 81.7651C217.915 81.7651 212.816 82.1014 207.584 87.0294C201.01 93.2227 200.28 101.997 200.384 106.848C199.445 106.332 195.674 105.533 193.184 106.538Z" fill="#16A75C"/>
<path d="M202.888 112.422C203.828 114.28 207.751 120.201 213.533 122.331C222.611 126.667 230.067 123.437 235.76 119.854C229.499 128.525 216.037 132.55 206.019 129.144C201.109 127.729 196.989 124.998 194.123 122.022C190.053 118.306 189.74 116.005 189.74 114.373C189.74 111.06 192.697 107.839 196.345 107.839C199.994 107.839 201.949 110.564 202.888 112.422Z" fill="#FFD026"/>
<path fill-rule="evenodd" clip-rule="evenodd" d="M236.943 87.0492C237.322 87.6254 237.552 88.0543 237.638 88.2681C238.132 89.4879 238.891 92.2938 238.265 94.4614C237.524 97.0269 235.134 98.7968 233.256 99.4161C232.316 99.7258 230.438 99.7257 230.438 99.7257C230.867 99.0894 230.825 98.1164 230.776 97.001C230.754 96.488 230.731 95.9448 230.751 95.3904C230.769 94.8956 230.839 94.5066 230.902 94.1549C231.027 93.4615 231.125 92.9129 230.751 91.9841C230.728 91.9276 230.706 91.8716 230.684 91.8162C230.043 90.221 229.592 89.0997 228.247 87.9585C226.876 86.7961 225.22 86.2037 224.49 86.1005C222.611 82.6941 217.915 81.7652 217.915 81.7652C217.915 81.7652 217.688 81.7801 217.28 81.8502C217.086 81.7938 216.976 81.7652 216.976 81.7652C224.49 80.8362 232.667 82.3812 236.386 86.4102C236.584 86.6247 236.77 86.8377 236.943 87.0492Z" fill="#008444"/>
<ellipse cx="222.299" cy="95.0804" rx="9.39188" ry="9.28997" fill="#1E88E5"/>
<path d="M219.748 98.1776L219.748 93.5822L218.687 94.0244L218.266 93.0619L220.028 92.2469L220.896 92.2469L220.896 98.1776L219.748 98.1776Z" fill="white"/>
<path d="M223.787 96.0533C223.559 96.0533 223.337 96.0071 223.121 95.9146C222.905 95.8221 222.712 95.692 222.542 95.5244C222.373 95.351 222.235 95.1487 222.13 94.9174C222.031 94.6804 221.981 94.4203 221.981 94.1371C221.981 93.8423 222.04 93.5706 222.157 93.322C222.273 93.0677 222.428 92.8509 222.621 92.6717C222.82 92.4926 223.045 92.3538 223.296 92.2556C223.553 92.1515 223.822 92.0995 224.103 92.0995C224.424 92.0995 224.716 92.1573 224.979 92.2729C225.248 92.3827 225.476 92.533 225.663 92.7238C225.856 92.9087 226.002 93.1284 226.101 93.3827C226.206 93.6313 226.259 93.8943 226.259 94.1718C226.259 94.5706 226.177 94.9377 226.014 95.2729C225.856 95.6024 225.654 95.9406 225.409 96.2874L223.954 98.3423L223.068 97.7441L224.295 96.0186L224.252 95.9666C224.117 96.0244 223.962 96.0533 223.787 96.0533ZM224.12 93.1486C223.986 93.1486 223.857 93.1718 223.734 93.218C223.618 93.2642 223.512 93.3307 223.419 93.4174C223.325 93.5041 223.249 93.6082 223.191 93.7296C223.138 93.8452 223.112 93.9752 223.112 94.1197C223.112 94.27 223.138 94.4059 223.191 94.5273C223.249 94.6429 223.325 94.744 223.419 94.8307C223.512 94.9174 223.618 94.9839 223.734 95.0302C223.857 95.0764 223.986 95.0995 224.12 95.0995C224.249 95.0995 224.374 95.0764 224.497 95.0302C224.62 94.9839 224.728 94.9174 224.821 94.8307C224.921 94.744 224.997 94.6429 225.049 94.5273C225.108 94.4059 225.137 94.27 225.137 94.1197C225.137 93.9752 225.108 93.8452 225.049 93.7296C224.997 93.6082 224.921 93.5041 224.821 93.4174C224.728 93.3307 224.62 93.2642 224.497 93.218C224.374 93.1718 224.249 93.1486 224.12 93.1486Z" fill="white"/>
<path d="M241.02 109.666C240.769 115.209 235.76 118.615 230.438 120.783C222.925 123.26 218.855 122.331 218.855 122.331C218.855 122.331 221.356 121.224 223.238 117.996C224.631 115.607 224.959 112.58 225.554 109.635C226.055 107.158 228.247 101.893 233.35 102.079C237.586 102.079 241.209 105.48 241.02 109.666Z" fill="#FFB900"/>
<path d="M217.907 13.1536L249.981 20.8365L249.846 21.3999C249.258 23.8566 246.789 25.3711 244.332 24.7826L221.155 19.2307C218.698 18.6422 217.183 16.1736 217.772 13.717L217.907 13.1536Z" fill="#001B3D"/>
<rect x="260.515" y="109.286" width="24.5302" height="60.5294" rx="12.2651" transform="rotate(43.6457 260.515 109.286)" fill="#F9A07B"/>
<rect x="275.238" y="132.329" width="25.8679" height="69.7338" rx="12.9339" transform="rotate(44.5384 275.238 132.329)" fill="#F9A07B"/>
<rect x="145.115" y="59.7974" width="27.8845" height="88.6886" rx="13.9423" transform="rotate(20.0407 145.115 59.7974)" fill="#F9A07B"/>
<rect x="145.364" y="236.359" width="73.1782" height="29.8897" rx="3.09204" transform="rotate(13.4706 145.364 236.359)" fill="#16A75C"/>
<rect x="145.364" y="236.359" width="7.21475" height="29.8897" rx="3.09204" transform="rotate(13.4706 145.364 236.359)" fill="#069550"/>
<rect x="204.501" y="250.525" width="12.3681" height="29.8897" rx="3.09204" transform="rotate(13.4706 204.501 250.525)" fill="#069550"/>
</g>
<defs>
<filter id="filter0_f_14905_468034" x="184.513" y="76.1584" width="58.3212" height="58.526" filterUnits="userSpaceOnUse" color-interpolation-filters="sRGB">
<feFlood flood-opacity="0" result="BackgroundImageFix"/>
<feBlend mode="normal" in="SourceGraphic" in2="BackgroundImageFix" result="shape"/>
<feGaussianBlur stdDeviation="2.16671" result="effect1_foregroundBlur_14905_468034"/>
</filter>
<clipPath id="clip0_14905_468034">
<rect width="414" height="309" fill="white"/>
</clipPath>
</defs>
</svg>
