<svg width="27" height="29" viewBox="0 0 27 29" fill="none" xmlns="http://www.w3.org/2000/svg">
<g clip-path="url(#clip0_14797_72704)">
<path d="M19.7145 18.7792C23.0316 16.9579 25.5462 15.5701 25.7629 15.4621C26.4563 15.0934 27.1723 14.1175 25.7629 13.3595C25.3079 13.1211 22.8579 11.7765 19.7145 10.0424L15.3569 14.4432L19.7145 18.7791V18.7792Z" fill="#FFD900"/>
<path d="M15.357 14.4433L1.48193 28.4273C1.80761 28.4704 2.17529 28.384 2.60878 28.1457C3.51888 27.6476 13.1668 22.3788 19.7145 18.7804L15.357 14.4433Z" fill="#F43249"/>
<path d="M15.3569 14.4432L19.7145 10.064C19.7145 10.064 3.58465 1.2613 2.60874 0.741665C2.24106 0.523899 1.82903 0.459213 1.46033 0.523899L15.3569 14.4432Z" fill="#00EE76"/>
<path d="M15.3569 14.4432L1.46028 0.523926C0.896291 0.65432 0.419678 1.1526 0.419678 2.17163V26.7794C0.419678 27.7121 0.788481 28.3839 1.48184 28.4487L15.3569 14.4432Z" fill="#00D3FF"/>
</g>
<defs>
<clipPath id="clip0_14797_72704">
<rect width="26.1606" height="28" fill="white" transform="translate(0.419678 0.5)"/>
</clipPath>
</defs>
</svg>
