<svg width="50" height="51" viewBox="0 0 50 51" fill="none" xmlns="http://www.w3.org/2000/svg">
<rect y="0.376953" width="50" height="50" rx="12" fill="#E6F6EC"/>
<g clip-path="url(#clip0_15076_82275)">
<path d="M30.0525 13.377C30.6899 13.3768 31.3038 13.6175 31.7711 14.0508C32.2385 14.4842 32.5247 15.0782 32.5725 15.7138L32.5788 15.9033V22.2191H34.4736C34.9446 22.2191 35.3987 22.3945 35.7474 22.7112C36.096 23.0279 36.3143 23.4631 36.3595 23.9319L36.3683 24.1138V33.5875C36.3684 34.5541 35.9991 35.4841 35.336 36.1874C34.6728 36.8906 33.7661 37.3139 32.8012 37.3706L32.5788 37.377H16.1578C15.5204 37.3772 14.9065 37.1364 14.4392 36.7031C13.9719 36.2697 13.6856 35.6757 13.6378 35.0401L13.6315 34.8506V15.9033C13.6313 15.2659 13.872 14.652 14.3054 14.1847C14.7387 13.7173 15.3327 13.4311 15.9683 13.3833L16.1578 13.377H30.0525ZM33.842 24.7454H32.5788V34.8506C32.9138 34.8506 33.2351 34.7176 33.472 34.4807C33.7089 34.2438 33.842 33.9225 33.842 33.5875V24.7454ZM30.0525 15.9033H16.1578V34.8506H30.0525V15.9033ZM23.7367 26.0085C24.0587 26.0089 24.3684 26.1322 24.6025 26.3532C24.8366 26.5742 24.9775 26.8763 24.9963 27.1977C25.0152 27.5191 24.9106 27.8355 24.704 28.0824C24.4973 28.3293 24.2042 28.488 23.8845 28.526L23.7367 28.5348H19.9473C19.6253 28.5345 19.3156 28.4112 19.0815 28.1902C18.8474 27.9692 18.7065 27.6671 18.6877 27.3457C18.6688 27.0243 18.7734 26.7078 18.98 26.461C19.1867 26.2141 19.4798 26.0554 19.7995 26.0174L19.9473 26.0085H23.7367ZM26.263 19.6927C26.5981 19.6927 26.9193 19.8258 27.1562 20.0627C27.3931 20.2996 27.5262 20.6209 27.5262 20.9559C27.5262 21.2909 27.3931 21.6122 27.1562 21.8491C26.9193 22.086 26.5981 22.2191 26.263 22.2191H19.9473C19.6122 22.2191 19.291 22.086 19.0541 21.8491C18.8172 21.6122 18.6841 21.2909 18.6841 20.9559C18.6841 20.6209 18.8172 20.2996 19.0541 20.0627C19.291 19.8258 19.6122 19.6927 19.9473 19.6927H26.263Z" fill="#069550"/>
</g>
<defs>
<clipPath id="clip0_15076_82275">
<rect width="32" height="32" fill="white" transform="translate(9 9.37695)"/>
</clipPath>
</defs>
</svg>
