<svg width="24" height="24" viewBox="0 0 24 24" fill="none" xmlns="http://www.w3.org/2000/svg">
<g clip-path="url(#clip0_228_29913)">
<g clip-path="url(#clip1_228_29913)">
<path fill-rule="evenodd" clip-rule="evenodd" d="M12 10.8686C13.8354 10.8686 15.3232 9.38079 15.3232 7.54543C15.3232 6.74441 15.3196 6.16749 15.2553 5.67468C15.1935 5.20186 15.0947 4.98981 15.0238 4.8872C14.9723 4.81265 14.5625 4.22222 12 4.22222C9.43751 4.22222 9.02767 4.81265 8.97618 4.8872C8.9053 4.98981 8.80647 5.20186 8.74472 5.67468C8.68036 6.16749 8.67679 6.74441 8.67679 7.54543C8.67679 9.38079 10.1646 10.8686 12 10.8686ZM12 13.0909C15.0627 13.0909 17.5454 10.6081 17.5454 7.54543C17.5454 4.48278 17.5454 2 12 2C6.45457 2 6.45457 4.48278 6.45457 7.54543C6.45457 10.6081 8.93734 13.0909 12 13.0909Z" fill="#16A75C"/>
<path fill-rule="evenodd" clip-rule="evenodd" d="M9.37413 14.5495C10.2066 14.2047 11.0989 14.0272 12 14.0272C12.9011 14.0272 13.7934 14.2047 14.6259 14.5495C15.4584 14.8944 16.2148 15.3998 16.852 16.037C17.4892 16.6741 17.9946 17.4306 18.3394 18.2631C18.6843 19.0956 18.8617 19.9879 18.8617 20.889C18.8617 21.5026 18.3643 22.0001 17.7506 22.0001C17.137 22.0001 16.6395 21.5026 16.6395 20.889C16.6395 20.2797 16.5195 19.6764 16.2864 19.1135C16.0532 18.5506 15.7115 18.0391 15.2806 17.6083C14.8498 17.1775 14.3384 16.8358 13.7755 16.6026C13.2126 16.3694 12.6093 16.2494 12 16.2494C11.3907 16.2494 10.7874 16.3694 10.2245 16.6026C9.66164 16.8358 9.15019 17.1775 8.71937 17.6083C8.28855 18.0391 7.9468 18.5506 7.71365 19.1135C7.48049 19.6764 7.36048 20.2797 7.36048 20.889C7.36048 21.5026 6.86302 22.0001 6.24937 22.0001C5.63572 22.0001 5.13826 21.5026 5.13826 20.889C5.13826 19.9879 5.31575 19.0956 5.66058 18.2631C6.00541 17.4306 6.51085 16.6741 7.14802 16.037C7.78519 15.3998 8.54162 14.8944 9.37413 14.5495Z" fill="#16A75C"/>
<path fill-rule="evenodd" clip-rule="evenodd" d="M16.4391 7.54546H7.5609V5.32324H16.4391V7.54546Z" fill="#16A75C"/>
<path d="M11.0694 15.1406H12.8989L12.8043 17.5639H11.1634L11.0694 15.1406Z" fill="#16A75C"/>
<path d="M11.0707 18.5122H12.8985L13.5465 21.6583H10.4369L11.0707 18.5122Z" fill="#16A75C"/>
</g>
</g>
<defs>
<clipPath id="clip0_228_29913">
<rect width="20" height="20" fill="white" transform="translate(2 2)"/>
</clipPath>
<clipPath id="clip1_228_29913">
<rect width="20" height="20" fill="white" transform="translate(2 2)"/>
</clipPath>
</defs>
</svg>
