<svg width="239" height="239" viewBox="0 0 239 239" fill="none" xmlns="http://www.w3.org/2000/svg">
<path d="M19.0563 191.691L24.0594 191.621C60.3082 191.11 82.686 151.821 64.7372 120.201L62.1597 115.66C45.2892 85.9398 66.4845 49.0413 100.559 48.8121L112.448 48.7322C137.107 48.5663 154.295 24.1917 146.248 0.801049V0.801049" stroke="white" stroke-width="0.653416"/>
<path d="M21.9359 193.36L26.9391 193.289C63.1879 192.779 85.5656 153.489 67.6169 121.869L65.0394 117.328C48.1688 87.6081 69.3642 50.7096 103.438 50.4805L115.328 50.4005C139.986 50.2347 157.175 25.8601 149.128 2.46941V2.46941" stroke="white" stroke-width="0.653416"/>
<path d="M24.8075 195.023L29.8107 194.952C66.0594 194.442 88.4372 155.152 70.4884 123.532L67.911 118.992C51.0404 89.2712 72.2357 52.3727 106.31 52.1436L118.199 52.0636C142.858 51.8978 160.046 27.5232 151.999 4.1325V4.1325" stroke="white" stroke-width="0.653416"/>
<path d="M27.6872 196.694L32.6903 196.623C68.9391 196.113 91.3168 156.823 73.3681 125.203L70.7906 120.663C53.9201 90.9422 75.1154 54.0438 109.19 53.8146L121.079 53.7346C145.738 53.5688 162.926 29.1942 154.879 5.80352V5.80352" stroke="white" stroke-width="0.653416"/>
<path d="M30.5622 198.358L35.5653 198.287C71.8141 197.777 94.1918 158.487 76.2431 126.867L73.6656 122.326C56.7951 92.6061 77.9904 55.7077 112.065 55.4785L123.954 55.3985C148.613 55.2327 165.801 30.8581 157.754 7.46743V7.46743" stroke="white" stroke-width="0.653416"/>
<path d="M33.4364 200.024L38.4396 199.954C74.6883 199.443 97.0661 160.154 79.1173 128.534L76.5399 123.993C59.6693 94.2727 80.8646 57.3743 114.939 57.1451L126.828 57.0651C151.487 56.8993 168.675 32.5247 160.628 9.13403V9.13403" stroke="white" stroke-width="0.653416"/>
<path d="M36.3112 201.692L41.3143 201.621C77.5631 201.111 99.9409 161.821 81.9921 130.201L79.4146 125.661C62.5441 95.9403 83.7394 59.0418 117.814 58.8126L129.703 58.7327C154.362 58.5668 171.55 34.1923 163.503 10.8016V10.8016" stroke="white" stroke-width="0.653416"/>
<path d="M39.1881 203.357L44.1913 203.287C80.44 202.777 102.818 163.487 84.8691 131.867L82.2916 127.326C65.421 97.606 86.6164 60.7075 120.691 60.4783L132.58 60.3984C157.239 60.2325 174.427 35.8579 166.38 12.4672V12.4672" stroke="white" stroke-width="0.653416"/>
<path d="M42.0641 205.028L47.0672 204.957C83.316 204.447 105.694 165.157 87.745 133.537L85.1675 128.996C68.297 99.2761 89.4923 62.3776 123.567 62.1485L135.456 62.0685C160.115 61.9027 177.303 37.5281 169.256 14.1374V14.1374" stroke="white" stroke-width="0.653416"/>
<path d="M44.938 206.691L49.9412 206.62C86.1899 206.11 108.568 166.82 90.6189 135.2L88.0414 130.659C71.1709 100.939 92.3662 64.0406 126.44 63.8115L138.33 63.7315C162.988 63.5657 180.177 39.1911 172.13 15.8004V15.8004" stroke="white" stroke-width="0.653416"/>
<path d="M47.8119 208.359L52.8151 208.288C89.0638 207.778 111.442 168.488 93.4928 136.869L90.9153 132.328C74.0448 102.607 95.2401 65.709 129.314 65.4798L141.204 65.3999C165.862 65.234 183.051 40.8595 175.004 17.4688V17.4688" stroke="white" stroke-width="0.653416"/>
<path d="M50.6887 210.024L55.6919 209.953C91.9407 209.443 114.318 170.153 96.3697 138.533L93.7922 133.993C76.9216 104.272 98.117 67.3739 132.191 67.1447L144.081 67.0647C168.739 66.8989 185.928 42.5243 177.88 19.1336V19.1336" stroke="white" stroke-width="0.653416"/>
<path d="M53.5639 211.691L58.567 211.621C94.8158 211.11 117.194 171.821 99.2448 140.201L96.6673 135.66C79.7968 105.94 100.992 69.0413 135.066 68.8122L146.956 68.7322C171.614 68.5664 188.803 44.1918 180.756 20.8011V20.8011" stroke="white" stroke-width="0.653416"/>
<path d="M56.4422 213.361L61.4453 213.29C97.6941 212.78 120.072 173.49 102.123 141.87L99.5456 137.329C82.6751 107.609 103.87 70.7106 137.945 70.4814L149.834 70.4015C174.493 70.2356 191.681 45.8611 183.634 22.4704V22.4704" stroke="white" stroke-width="0.653416"/>
<path d="M59.3164 215.022L64.3196 214.951C100.568 214.441 122.946 175.151 104.997 143.531L102.42 138.991C85.5493 109.27 106.745 72.3719 140.819 72.1427L152.708 72.0628C177.367 71.8969 194.555 47.5224 186.508 24.1317V24.1317" stroke="white" stroke-width="0.653416"/>
<path d="M62.1222 216.652L67.1254 216.582C103.374 216.071 125.752 176.782 107.803 145.162L105.226 140.621C88.3551 110.901 109.55 74.0023 143.625 73.7731L155.514 73.6931C180.173 73.5273 197.361 49.1527 189.314 25.762V25.762" stroke="white" stroke-width="0.653416"/>
<path d="M64.9286 218.278L69.9318 218.208C106.181 217.697 128.558 178.408 110.61 146.788L108.032 142.247C91.1615 112.527 112.357 75.6282 146.431 75.3991L158.32 75.3191C182.979 75.1533 200.167 50.7787 192.12 27.388V27.388" stroke="white" stroke-width="0.653416"/>
<path d="M67.7365 219.904L72.7396 219.834C108.988 219.323 131.366 180.034 113.417 148.414L110.84 143.873C93.9694 114.153 115.165 77.2542 149.239 77.0251L161.128 76.9451C185.787 76.7793 202.975 52.4047 194.928 29.014V29.014" stroke="white" stroke-width="0.653416"/>
<path d="M70.5462 221.533L75.5493 221.462C111.798 220.952 134.176 181.662 116.227 150.042L113.65 145.502C96.7791 115.781 117.974 78.8828 152.049 78.6536L163.938 78.5737C188.597 78.4078 205.785 54.0332 197.738 30.6425V30.6425" stroke="white" stroke-width="0.653416"/>
<path d="M73.3522 223.16L78.3553 223.09C114.604 222.58 136.982 183.29 119.033 151.67L116.456 147.129C99.5851 117.409 120.78 80.5106 154.855 80.2814L166.744 80.2014C191.403 80.0356 208.591 55.661 200.544 32.2703V32.2703" stroke="white" stroke-width="0.653416"/>
<path d="M76.1592 224.784L81.1623 224.713C117.411 224.203 139.789 184.913 121.84 153.293L119.263 148.753C102.392 119.032 123.587 82.1339 157.662 81.9047L169.551 81.8248C194.21 81.6589 211.398 57.2843 203.351 33.8936V33.8936" stroke="white" stroke-width="0.653416"/>
<path d="M78.9684 226.415L83.9715 226.345C120.22 225.834 142.598 186.544 124.649 154.925L122.072 150.384C105.201 120.664 126.397 83.7651 160.471 83.5359L172.36 83.456C197.019 83.2901 214.207 58.9156 206.16 35.5249V35.5249" stroke="white" stroke-width="0.653416"/>
<path d="M81.7761 228.042L86.7793 227.971C123.028 227.461 145.406 188.171 127.457 156.551L124.88 152.011C108.009 122.29 129.204 85.392 163.279 85.1628L175.168 85.0828C199.827 84.917 217.015 60.5424 208.968 37.1517V37.1517" stroke="white" stroke-width="0.653416"/>
<path d="M84.5855 229.67L89.5886 229.599C125.837 229.089 148.215 189.799 130.266 158.179L127.689 153.639C110.818 123.918 132.014 87.0197 166.088 86.7906L177.977 86.7106C202.636 86.5448 219.824 62.1702 211.777 38.7795V38.7795" stroke="white" stroke-width="0.653416"/>
<path d="M87.3914 231.297L92.3945 231.227C128.643 230.717 151.021 191.427 133.072 159.807L130.495 155.266C113.624 125.546 134.82 88.6475 168.894 88.4183L180.783 88.3384C205.442 88.1725 222.63 63.7979 214.583 40.4073V40.4073" stroke="white" stroke-width="0.653416"/>
<path d="M90.1979 232.922L95.201 232.852C131.45 232.342 153.828 193.052 135.879 161.432L133.301 156.891C116.431 127.171 137.626 90.2725 171.7 90.0434L183.59 89.9634C208.248 89.7976 225.437 65.423 217.39 42.0323V42.0323" stroke="white" stroke-width="0.653416"/>
<path d="M93.0059 234.551L98.009 234.481C134.258 233.97 156.636 194.68 138.687 163.061L136.109 158.52C119.239 128.8 140.434 91.9011 174.508 91.672L186.398 91.592C211.056 91.4262 228.245 67.0516 220.198 43.6609V43.6609" stroke="white" stroke-width="0.653416"/>
<path d="M95.8146 236.178L100.818 236.108C137.067 235.597 159.444 196.307 141.496 164.688L138.918 160.147C122.047 130.427 143.243 93.528 177.317 93.2989L189.206 93.2189C213.865 93.0531 231.053 68.6785 223.006 45.2878V45.2878" stroke="white" stroke-width="0.653416"/>
<path d="M98.6216 237.801L103.625 237.731C139.874 237.22 162.251 197.931 144.303 166.311L141.725 161.77C124.855 132.05 146.05 95.1514 180.124 94.9222L192.013 94.8422C216.672 94.6764 233.86 70.3018 225.813 46.9111V46.9111" stroke="white" stroke-width="0.653416"/>
</svg>
