<svg width="24" height="24" viewBox="0 0 24 24" fill="none" xmlns="http://www.w3.org/2000/svg">
<g clip-path="url(#clip0_228_30001)">
<path fill-rule="evenodd" clip-rule="evenodd" d="M8.90662 10.9046C10.6837 10.9046 12.1244 9.46392 12.1244 7.68681C12.1244 5.90971 10.6837 4.46908 8.90662 4.46908C7.12951 4.46908 5.68888 5.90971 5.68888 7.68681C5.68888 9.46392 7.12951 10.9046 8.90662 10.9046ZM8.90662 13.0562C11.8721 13.0562 14.276 10.6523 14.276 7.68681C14.276 4.72136 11.8721 2.31738 8.90662 2.31738C5.94116 2.31738 3.53719 4.72136 3.53719 7.68681C3.53719 10.6523 5.94116 13.0562 8.90662 13.0562Z" fill="#16A75C"/>
<path fill-rule="evenodd" clip-rule="evenodd" d="M15.2346 3.43008C15.2885 2.83836 15.8119 2.40238 16.4036 2.45629C19.1142 2.70324 21.2368 4.98066 21.2368 7.75505C21.2368 10.5294 19.1142 12.8069 16.4036 13.0538C15.8119 13.1077 15.2885 12.6717 15.2346 12.08C15.1807 11.4883 15.6167 10.9649 16.2084 10.911C17.8211 10.7641 19.0851 9.40656 19.0851 7.75505C19.0851 6.10353 17.8211 4.74603 16.2084 4.59911C15.6167 4.5452 15.1807 4.02181 15.2346 3.43008Z" fill="#16A75C"/>
<path fill-rule="evenodd" clip-rule="evenodd" d="M6.16541 14.4686C6.97149 14.1347 7.83545 13.9629 8.70795 13.9629C9.58044 13.9629 10.4444 14.1347 11.2505 14.4686C12.0566 14.8025 12.789 15.2919 13.4059 15.9089C14.0229 16.5258 14.5123 17.2582 14.8462 18.0643C15.1801 18.8704 15.3519 19.7344 15.3519 20.6068C15.3519 21.201 14.8702 21.6827 14.2761 21.6827C13.6819 21.6827 13.2002 21.201 13.2002 20.6068C13.2002 20.0169 13.084 19.4328 12.8583 18.8877C12.6325 18.3427 12.3016 17.8475 11.8845 17.4303C11.4673 17.0132 10.9721 16.6823 10.4271 16.4565C9.88203 16.2308 9.29788 16.1146 8.70795 16.1146C8.11801 16.1146 7.53386 16.2308 6.98883 16.4565C6.4438 16.6823 5.94858 17.0132 5.53143 17.4303C5.11429 17.8475 4.78339 18.3427 4.55763 18.8877C4.33188 19.4328 4.21568 20.0169 4.21568 20.6068C4.21568 21.201 3.73401 21.6827 3.13983 21.6827C2.54566 21.6827 2.06399 21.201 2.06399 20.6068C2.06399 19.7344 2.23584 18.8704 2.56973 18.0643C2.90362 17.2582 3.39301 16.5258 4.00996 15.9089C4.62691 15.2919 5.35933 14.8025 6.16541 14.4686Z" fill="#16A75C"/>
<path fill-rule="evenodd" clip-rule="evenodd" d="M15.2642 14.9357C15.3779 14.3525 15.9429 13.9719 16.5261 14.0856C16.9603 14.1703 17.3861 14.2984 17.7969 14.4685C18.603 14.8024 19.3354 15.2918 19.9524 15.9088C20.5693 16.5257 21.0587 17.2581 21.3926 18.0642C21.7265 18.8703 21.8983 19.7343 21.8983 20.6068C21.8983 21.2009 21.4167 21.6826 20.8225 21.6826C20.2283 21.6826 19.7466 21.2009 19.7466 20.6068C19.7466 20.0168 19.6304 19.4327 19.4047 18.8876C19.1789 18.3426 18.848 17.8474 18.4309 17.4303C18.0137 17.0131 17.5185 16.6822 16.9735 16.4565C16.6958 16.3414 16.4079 16.2548 16.1142 16.1976C15.531 16.0838 15.1505 15.5189 15.2642 14.9357Z" fill="#16A75C"/>
</g>
<defs>
<clipPath id="clip0_228_30001">
<rect width="20" height="20" fill="white" transform="translate(2 2)"/>
</clipPath>
</defs>
</svg>
