<svg width="239" height="240" viewBox="0 0 239 240" fill="none" xmlns="http://www.w3.org/2000/svg">
<path d="M108.093 239V239C73.4982 206.876 73.4982 152.124 108.093 120V120V120C142.688 87.8762 142.688 33.1238 108.093 1.00001V1.00001" stroke="white" stroke-width="2.46923" stroke-linecap="round" stroke-linejoin="round"/>
<path d="M86.1237 239V239C51.5289 206.876 51.5289 152.124 86.1237 120V120V120C120.719 87.8762 120.719 33.1238 86.1237 1.00001V1.00001" stroke="white" stroke-width="2.46923" stroke-linecap="round" stroke-linejoin="round"/>
<path d="M64.1545 239V239C29.5597 206.876 29.5597 152.124 64.1545 120V120V120C98.7493 87.8762 98.7493 33.1238 64.1545 1.00001V1.00001" stroke="white" stroke-width="2.46923" stroke-linecap="round" stroke-linejoin="round"/>
<path d="M130.062 239V239C95.4675 206.876 95.4675 152.124 130.062 120V120V120C164.657 87.8762 164.657 33.1238 130.062 1.00001V1.00001" stroke="white" stroke-width="2.46923" stroke-linecap="round" stroke-linejoin="round"/>
<path d="M152.032 239V239C117.437 206.876 117.437 152.124 152.032 120V120V120C186.626 87.8762 186.626 33.1238 152.032 1.00001V1.00001" stroke="white" stroke-width="2.46923" stroke-linecap="round" stroke-linejoin="round"/>
<path d="M174.001 239V239C139.406 206.876 139.406 152.124 174.001 120V120V120C208.596 87.8762 208.596 33.1238 174.001 1.00001V1.00001" stroke="white" stroke-width="2.46923" stroke-linecap="round" stroke-linejoin="round"/>
</svg>
