<svg width="28" height="29" viewBox="0 0 28 29" fill="none" xmlns="http://www.w3.org/2000/svg">
<g clip-path="url(#clip0_15027_88043)">
<rect y="0.376953" width="28" height="28" rx="14" fill="#F5F5F5"/>
<path d="M19.1073 13.7317L19.0828 13.6763C18.9215 13.3125 18.5609 13.0779 18.163 13.0779H17.2215C16.9261 13.0779 16.6422 13.192 16.4289 13.3963C16.2034 13.6124 16.0758 13.9112 16.0758 14.2236V14.9751H18.2984C18.6189 14.9751 18.9144 14.8017 19.0708 14.5219C19.2066 14.2789 19.2201 13.9862 19.1073 13.7317Z" fill="#FF9500"/>
<path d="M-11.6678 21.6244H23.5639C24.4044 21.6244 25.0857 20.943 25.0857 20.1025C25.0857 16.9507 22.5307 14.3957 19.3789 14.3957H17.1747C13.3541 10.4715 8.10974 8.25806 2.63289 8.25806H-10.2369C-11.2747 8.25806 -12.2717 8.66172 -13.0173 9.38367C-13.5054 9.85641 -13.8987 10.4182 -14.1758 11.0387L-14.7406 12.3032C-15.4571 13.9075 -15.8274 15.6694 -15.8274 17.4264C-15.8274 19.7236 -13.9651 21.6244 -11.6678 21.6244Z" fill="#FFB900"/>
<path d="M6.67578 7.6814H-7.92946C-8.37213 7.6814 -8.7872 7.89647 -9.04248 8.25812H7.95377C7.63023 7.89144 7.16478 7.6814 6.67578 7.6814Z" fill="#FF9500"/>
<path fill-rule="evenodd" clip-rule="evenodd" d="M14.4241 21.6245C14.4377 21.6604 14.4519 21.6961 14.4666 21.7316C14.6678 22.2173 14.9627 22.6586 15.3344 23.0303C15.7061 23.402 16.1474 23.6969 16.6331 23.8981C17.1188 24.0992 17.6393 24.2028 18.165 24.2028C18.6907 24.2028 19.2113 24.0992 19.6969 23.8981C20.1826 23.6969 20.6239 23.402 20.9956 23.0303C21.3674 22.6586 21.6622 22.2173 21.8634 21.7316C21.8781 21.6961 21.8923 21.6604 21.906 21.6245H14.4241Z" fill="#424242"/>
<path d="M20.8112 20.8442C20.8112 21.735 20.4574 22.5892 19.8275 23.2191C19.1977 23.8489 18.3434 24.2028 17.4527 24.2028C16.5619 24.2028 15.7077 23.8489 15.0778 23.2191C14.448 22.5892 14.0941 21.735 14.0941 20.8442L17.4527 20.8442H20.8112Z" fill="#212121"/>
<path fill-rule="evenodd" clip-rule="evenodd" d="M-3.96301 21.6245C-3.94935 21.6604 -3.93516 21.6961 -3.92045 21.7316C-3.71928 22.2173 -3.42441 22.6586 -3.05269 23.0303C-2.68096 23.402 -2.23966 23.6969 -1.75398 23.8981C-1.2683 24.0992 -0.747757 24.2028 -0.222061 24.2028C0.303635 24.2028 0.824183 24.0992 1.30986 23.8981C1.79554 23.6969 2.23684 23.402 2.60856 23.0303C2.98029 22.6586 3.27515 22.2173 3.47633 21.7316C3.49104 21.6961 3.50523 21.6604 3.51889 21.6245H-3.96301Z" fill="#424242"/>
<path d="M2.42411 20.8442C2.42411 21.735 2.07027 22.5892 1.44042 23.2191C0.810571 23.8489 -0.0436869 24.2028 -0.934427 24.2028C-1.82517 24.2028 -2.67943 23.8489 -3.30927 23.2191C-3.93912 22.5892 -4.29297 21.735 -4.29297 20.8442L-0.934428 20.8442H2.42411Z" fill="#212121"/>
<path d="M24.0002 21.6244H-13.9276C-14.9768 21.6244 -15.8274 20.7738 -15.8274 19.7246L4.86665 20.5388H25.0858C25.0858 21.1384 24.5997 21.6244 24.0002 21.6244Z" fill="#FF9500"/>
<path d="M25.0858 20.5389H14.7727V20.1633C14.7727 19.7465 15.0359 19.3752 15.4292 19.2372C15.5336 19.2006 15.6434 19.1819 15.7541 19.1819H24.5516C24.6775 19.1819 24.7994 19.2264 24.8957 19.3075C25.0162 19.409 25.0858 19.5585 25.0858 19.7161V20.5389Z" fill="white"/>
<path d="M16.5367 20.5389V19.1819H23.8645V20.5389H16.5367Z" fill="#FF7500"/>
<path d="M14.1772 17.1359L14.1891 17.1194C14.2999 16.9659 14.4777 16.875 14.667 16.875H24.7465C24.7465 16.875 24.8712 17.0631 24.9501 17.4178C25.0289 17.7725 25.0518 18.0284 25.0518 18.0284H14.6335C14.464 18.0284 14.3035 17.952 14.1966 17.8205C14.0361 17.6229 14.0281 17.3422 14.1772 17.1359Z" fill="white"/>
<path d="M16.5028 18.0284L17.1135 16.875H18.4026L17.7919 18.0284H16.5028Z" fill="#FFE483"/>
<path d="M23.8645 18.0284H22.6093L21.9987 16.875H23.2878L23.8645 18.0284Z" fill="#FFE483"/>
<path d="M17.792 18.0284L18.4026 16.875H21.9986L22.6093 18.0284H17.792Z" fill="#FF7500"/>
<path d="M12.9408 20.912C12.9408 20.3819 12.8363 19.8569 12.6335 19.3671C12.4306 18.8773 12.1332 18.4323 11.7583 18.0574C11.3835 17.6825 10.9384 17.3852 10.4486 17.1823C9.95884 16.9794 9.43388 16.875 8.90373 16.875C8.37358 16.875 7.84862 16.9794 7.35883 17.1823C6.86903 17.3852 6.42399 17.6825 6.04912 18.0574C5.67425 18.4323 5.37688 18.8773 5.174 19.3671C4.97112 19.8569 4.8667 20.3819 4.8667 20.912H8.90373H12.9408Z" fill="#FF9500"/>
<path fill-rule="evenodd" clip-rule="evenodd" d="M5.80737 21.6243C5.82104 21.6601 5.83522 21.6958 5.84993 21.7314C6.05111 22.217 6.34598 22.6583 6.7177 23.0301C7.08942 23.4018 7.53072 23.6966 8.0164 23.8978C8.50208 24.099 9.02263 24.2025 9.54832 24.2025C10.074 24.2025 10.5946 24.099 11.0802 23.8978C11.5659 23.6966 12.0072 23.4018 12.379 23.0301C12.7507 22.6583 13.0455 22.217 13.2467 21.7314C13.2614 21.6958 13.2756 21.6601 13.2893 21.6243H5.80737Z" fill="#424242"/>
<circle cx="8.93763" cy="20.8102" r="3.39247" fill="#212121"/>
<ellipse cx="8.93764" cy="20.8101" rx="2.23903" ry="2.23903" fill="#CEC3C0"/>
<circle cx="8.93761" cy="20.8103" r="1.56053" fill="white"/>
<path d="M4.05253 14.2968L0.113882 14.0537C-2.21157 13.9101 -3.92597 11.8224 -3.61444 9.51343H0.630581C1.10947 9.51343 1.5727 9.68398 1.93725 9.99453C2.16839 10.1914 2.35205 10.438 2.47449 10.7159L4.05253 14.2968Z" fill="#FFF9E1"/>
<path d="M4.28526 9.47949H11.7194L16.5367 14.3986H7.95704C6.81681 14.3986 5.75846 13.8062 5.16224 12.8343L3.72181 10.4862C3.67145 10.4041 3.63963 10.312 3.62859 10.2163C3.58331 9.8238 3.89017 9.47949 4.28526 9.47949Z" fill="#FFF9E1"/>
<path d="M1.55545 13.6913L1.58033 13.6358C1.74243 13.2742 2.10175 13.0415 2.49802 13.0415H3.46718C3.76204 13.0415 4.04569 13.1545 4.25975 13.3573C4.48948 13.575 4.6196 13.8775 4.6196 14.1939V14.9387H2.36327C2.0441 14.9387 1.74963 14.7669 1.59258 14.4891C1.45415 14.2441 1.44037 13.948 1.55545 13.6913Z" fill="#FF9500"/>
<circle cx="19.4783" cy="13.1596" r="5.18324" fill="#1E88E5"/>
<path d="M18.8066 9.87566C18.6285 10.0538 18.5284 10.2954 18.5284 10.5473C18.5284 10.7993 18.6285 11.0409 18.8066 11.219C18.9848 11.3972 19.2264 11.4972 19.4783 11.4972C19.7303 11.4972 19.9719 11.3972 20.15 11.219C20.3281 11.0409 20.4282 10.7993 20.4282 10.5473C20.4282 10.2954 20.3281 10.0538 20.15 9.87566C19.9719 9.69752 19.7303 9.59744 19.4783 9.59744C19.2264 9.59744 18.9848 9.69752 18.8066 9.87566Z" fill="white"/>
<path d="M18.9746 16.513C18.841 16.3794 18.7659 16.1982 18.7659 16.0093L18.7659 13.1596C18.7659 12.9706 18.841 12.7894 18.9746 12.6558C19.1082 12.5222 19.2894 12.4471 19.4783 12.4471C19.6673 12.4471 19.8485 12.5222 19.9821 12.6558C20.1157 12.7894 20.1907 12.9706 20.1907 13.1596L20.1907 16.0093C20.1907 16.1982 20.1157 16.3794 19.9821 16.513C19.8485 16.6466 19.6673 16.7217 19.4783 16.7217C19.2894 16.7217 19.1082 16.6466 18.9746 16.513Z" fill="white"/>
</g>
<defs>
<clipPath id="clip0_15027_88043">
<rect y="0.376953" width="28" height="28" rx="14" fill="white"/>
</clipPath>
</defs>
</svg>
