<svg width="28" height="29" viewBox="0 0 28 29" fill="none" xmlns="http://www.w3.org/2000/svg">
<g clip-path="url(#clip0_15027_87872)">
<rect y="0.376953" width="28" height="28" rx="14" fill="#F5F5F5"/>
<path d="M6.95335 16.6562H9.56466V24.3459H7.86525C7.40743 24.3459 4.8755 23.9911 4.87549 20.6658C4.87548 17.3406 6.57673 16.6562 6.95335 16.6562Z" fill="#2E2B68"/>
<ellipse cx="9.61247" cy="20.5011" rx="2.95756" ry="3.84483" fill="#343170"/>
<ellipse cx="10.3444" cy="11.7377" rx="0.676738" ry="0.943695" transform="rotate(22.5417 10.3444 11.7377)" fill="#2C2963"/>
<path d="M4.8708 21.3203H37.5789C37.9465 21.3203 38.2444 21.0223 38.2444 20.6548V15.158C38.2444 14.7979 38.1568 14.4433 37.989 14.1247L35.4496 9.30069C35.0659 8.57196 34.3102 8.11572 33.4866 8.11572H14.9982C14.3899 8.11572 13.8082 8.36557 13.3894 8.8068L9.84339 12.5423C9.73366 12.6579 9.59484 12.7418 9.44149 12.7852L4.78311 14.1037C3.74853 14.3965 3.0729 15.3891 3.17994 16.459L3.54643 20.1218C3.6145 20.8022 4.18703 21.3203 4.8708 21.3203Z" fill="#FF3F64"/>
<path d="M18.4794 16.6562H21.0907V24.3459H19.3913C18.9334 24.3459 16.4015 23.9911 16.4015 20.6658C16.4015 17.3406 18.1027 16.6562 18.4794 16.6562Z" fill="#2E2B68"/>
<ellipse cx="21.1385" cy="20.5011" rx="2.95756" ry="3.84483" fill="#343170"/>
<ellipse cx="21.1419" cy="20.4025" rx="1.77105" ry="2.16886" fill="#FEFEFE"/>
<path fill-rule="evenodd" clip-rule="evenodd" d="M16.6116 21.3203H17.3152C17.2417 21.0042 17.2026 20.6732 17.2026 20.3323C17.2026 18.1156 18.8542 16.3187 20.8915 16.3187C22.9288 16.3187 24.5804 18.1156 24.5804 20.3323C24.5804 20.6732 24.5414 21.0042 24.4678 21.3203H29.6246C29.551 21.0042 29.512 20.6732 29.512 20.3323C29.512 18.1156 31.1635 16.3187 33.2009 16.3187C35.2382 16.3187 36.8898 18.1156 36.8898 20.3323C36.8898 20.6732 36.8507 21.0042 36.7772 21.3203H37.1511C37.7549 21.3203 38.2444 20.8308 38.2444 20.227V15.5104C38.2444 14.9189 38.1004 14.3362 37.8248 13.8128L35.8505 10.0625C35.2203 8.86525 33.9787 8.11572 32.6257 8.11572H26.5772C25.5778 8.11572 24.6222 8.52619 23.9341 9.25106L20.9176 12.4288C20.7373 12.6187 20.5093 12.7565 20.2573 12.8278L16.8991 13.7783C15.1994 14.2594 14.0895 15.8901 14.2653 17.6477L14.4358 19.3514C14.5476 20.4691 15.4882 21.3203 16.6116 21.3203Z" fill="#E72353"/>
<path d="M3.65149 14.8635H4.61707C4.68218 14.8635 4.74234 14.8983 4.77489 14.9547L5.21042 15.7092C5.28054 15.8307 5.19287 15.9826 5.05261 15.9826H3.1792C3.1792 15.9826 3.23368 15.6462 3.34183 15.3677C3.44998 15.0892 3.65149 14.8635 3.65149 14.8635Z" fill="white"/>
<path d="M12.304 14.9345C12.3385 14.8897 12.3918 14.8635 12.4483 14.8635H14.6623C14.7629 14.8635 14.8445 14.9451 14.8445 15.0457V15.8003C14.8445 15.901 14.7629 15.9826 14.6623 15.9826H11.8664C11.7152 15.9826 11.6298 15.8089 11.7221 15.6891L12.304 14.9345Z" fill="white"/>
<path d="M14.624 14.8635H16.5883C16.0463 15.569 15.2071 15.9826 14.3174 15.9826H14.1628L14.624 14.8635Z" fill="#D9D9D9"/>
<path d="M5.25505 15.1364C5.18541 15.0149 5.27311 14.8635 5.41314 14.8635H11.4669C11.6187 14.8635 11.704 15.0383 11.6105 15.1579L11.0758 15.8425C11.0068 15.9309 10.9008 15.9826 10.7886 15.9826H5.95131C5.82071 15.9826 5.7001 15.9127 5.63514 15.7994L5.25505 15.1364Z" fill="white"/>
<rect x="5.69849" y="16.656" width="5.37135" height="0.447613" rx="0.223807" fill="#34316D"/>
<path d="M11.9435 18.2133C11.9435 18.012 12.1066 17.8489 12.3079 17.8489H13.2877C13.4768 17.8489 13.6345 17.9936 13.6508 18.182L13.7617 19.4674C13.7801 19.6802 13.6122 19.8631 13.3986 19.8631H13.1731C12.8164 19.8631 12.4821 19.6891 12.2775 19.3968L12.0094 19.0139C11.9665 18.9526 11.9435 18.8796 11.9435 18.8049V18.2133Z" fill="#34316D"/>
<path d="M12.2638 18.384C12.2638 18.2363 12.3836 18.1165 12.5314 18.1165H13.2507C13.3896 18.1165 13.5054 18.2227 13.5173 18.361L13.5988 19.3048C13.6122 19.4611 13.489 19.5954 13.3322 19.5954H13.1666C12.9047 19.5954 12.6592 19.4676 12.509 19.253L12.3122 18.9718C12.2807 18.9268 12.2638 18.8733 12.2638 18.8184V18.384Z" fill="#4E4B8E"/>
<path d="M5.3092 18.2133C5.3092 18.012 5.14604 17.8489 4.94477 17.8489H4.04489C3.83104 17.8489 3.66315 18.0321 3.68185 18.2452L3.79593 19.5453C3.81171 19.7251 3.96234 19.8631 4.14291 19.8631C4.50465 19.8631 4.84067 19.676 5.03118 19.3685L5.25457 19.0079C5.29028 18.9503 5.3092 18.8838 5.3092 18.816V18.2133Z" fill="#34316D"/>
<path d="M5.13623 18.3424C5.13623 18.1968 5.01825 18.0789 4.87271 18.0789H4.22203C4.0674 18.0789 3.946 18.2114 3.95952 18.3654L4.04201 19.3055C4.05342 19.4356 4.16234 19.5353 4.2929 19.5353C4.55448 19.5353 4.79744 19.4 4.9352 19.1777L5.09673 18.9169C5.12255 18.8753 5.13623 18.8272 5.13623 18.7782V18.3424Z" fill="#4E4B8E"/>
<path d="M5.80022 19.659C5.86907 19.5675 5.97691 19.5137 6.09141 19.5137H10.6224C10.7254 19.5137 10.8235 19.5572 10.8926 19.6335L11.3921 20.1853C11.6042 20.4196 11.438 20.7943 11.122 20.7943H5.67617C5.37558 20.7943 5.20423 20.4509 5.38498 20.2107L5.80022 19.659Z" fill="#34316D"/>
<path d="M6.12056 19.7131C6.1809 19.6387 6.27161 19.5955 6.36743 19.5955H10.6614C10.747 19.5955 10.8291 19.63 10.8889 19.6914L11.3582 20.1725C11.5545 20.3739 11.4119 20.7123 11.1306 20.7123H5.97733C5.70989 20.7123 5.56203 20.4021 5.73046 20.1943L6.12056 19.7131Z" fill="#4E4B8E"/>
<rect x="5.94849" y="17.8489" width="4.8279" height="1.24607" rx="0.623034" fill="#34316D"/>
<line x1="6.07463" y1="18.237" x2="10.6477" y2="18.237" stroke="#5550AC" stroke-width="0.182219" stroke-linecap="round"/>
<line x1="6.07463" y1="18.6411" x2="10.6477" y2="18.6411" stroke="#5550AC" stroke-width="0.182219" stroke-linecap="round"/>
<path d="M25.023 8.93094C25.2976 8.64753 25.6754 8.48755 26.07 8.48755H30.0992C30.3472 8.48755 30.5227 8.72985 30.4455 8.9655L29.4268 12.0733C29.3778 12.223 29.238 12.3243 29.0805 12.3243H22.5959C22.274 12.3243 22.1101 11.9374 22.3341 11.7062L25.023 8.93094Z" fill="#DCDBFE"/>
<path d="M22.826 12.1994H22.0985C21.9621 12.1994 21.7668 12.5633 22.2349 12.5633H24.7115C24.9191 12.5633 25.0398 12.2081 24.9725 11.8389C24.9052 11.4698 23.9646 10.8746 23.3035 11.29C22.6424 11.7054 22.826 12.1994 22.826 12.1994Z" fill="#36306D"/>
<path d="M13.4718 9.23936C13.9553 8.70707 14.641 8.40356 15.3601 8.40357L23.849 8.40357C24.0112 8.40357 24.0925 8.59954 23.978 8.71442L20.7013 12.0025C20.4961 12.2083 20.2175 12.324 19.9268 12.324H11.0815C10.9233 12.324 10.8403 12.1364 10.9466 12.0193L13.4718 9.23936Z" fill="#DCDBFE"/>
<path d="M16.6666 8.40356H17.7799L13.9732 12.324H12.8599L16.6666 8.40356Z" fill="#ECEBFF"/>
<path d="M19.7242 8.40356H20.8376L17.0308 12.324H15.9175L19.7242 8.40356Z" fill="#ECEBFF"/>
<path d="M17.2762 14.8635H38.2444V15.9826H16.2272C16.2272 15.9826 16.649 15.7608 16.8977 15.4688C17.1465 15.1768 17.2762 14.8635 17.2762 14.8635Z" fill="#CA1C47"/>
<path d="M14.7819 20.8035H17.2244L17.3127 21.3201H15.7497C15.7497 21.3201 15.4141 21.2775 15.2239 21.1634C15.0338 21.0493 14.7819 20.8035 14.7819 20.8035Z" fill="#CA1C47"/>
<rect x="27.0803" y="13.0354" width="1.80723" height="0.559516" rx="0.279758" fill="#D9D9D9"/>
<path d="M24.6518 20.7615H29.579L29.6885 21.289H24.5353L24.6518 20.7615Z" fill="#CA1C47"/>
</g>
<defs>
<clipPath id="clip0_15027_87872">
<rect y="0.376953" width="28" height="28" rx="14" fill="white"/>
</clipPath>
</defs>
</svg>
