<svg width="28" height="29" viewBox="0 0 28 29" fill="none" xmlns="http://www.w3.org/2000/svg">
<g clip-path="url(#clip0_15027_87627)">
<rect y="0.376953" width="28" height="28" rx="14" fill="#F5F5F5"/>
<path d="M14.9486 16.2224C14.7431 16.531 14.3035 16.5673 14.0502 16.2965L11.4793 13.5476C11.2285 13.2795 11.2899 12.8481 11.6056 12.6607L15.1391 10.5621C15.3713 10.4242 15.6681 10.4665 15.8525 10.6637L17.1754 12.0781C17.3575 12.2728 17.3818 12.5673 17.234 12.7893L14.9486 16.2224Z" fill="#42A5F5"/>
<path fill-rule="evenodd" clip-rule="evenodd" d="M15.0661 16.001C15.04 15.9795 15.0149 15.956 14.991 15.9304L13.4045 14.2342C13.0673 13.8736 13.1499 13.2936 13.5744 13.0415L15.9341 11.6401C16.2435 11.4563 16.6385 11.5105 16.8869 11.7698L16.0555 10.8809C15.7525 10.5569 15.2649 10.4875 14.8835 10.714L12.0006 12.4262C11.482 12.7342 11.3811 13.4428 11.7931 13.8833L13.7313 15.9557C14.0961 16.3457 14.6962 16.348 15.0661 16.001Z" fill="#1E88E5"/>
<path d="M16.8962 11.7797L16.1842 11.0184L21.9089 5.66431L21.913 7.08756L16.8962 11.7797Z" fill="#8380A8"/>
<rect x="16.8961" y="11.7795" width="1.04228" height="1.07924" transform="rotate(-133.084 16.8961 11.7795)" fill="#4A4B69"/>
<rect x="2.58459" y="33.7307" width="13.6392" height="1.80471" rx="0.902354" transform="rotate(-133.084 2.58459 33.7307)" fill="#E1DDF5"/>
<path d="M2.07214 30.5408L-3.53772 24.5427L7.14342 14.5529C7.83905 13.9023 8.9304 13.9388 9.581 14.6345L12.8348 18.1135C13.4854 18.8091 13.4489 19.9004 12.7533 20.5511L2.07214 30.5408Z" fill="#D5D1E8"/>
<rect x="12.4585" y="17.7112" width="3.56506" height="2.12854" transform="rotate(-133.084 12.4585 17.7112)" fill="#D5D1E8"/>
<path d="M12.4585 17.7112L13.0876 17.1228L12.3229 16.3051C11.9666 15.9242 11.9866 15.3266 12.3675 14.9703L12.6032 14.7498L11.5779 13.6535L10.0233 15.1074L12.4585 17.7112Z" fill="#B0ABD7"/>
<rect x="1.14331" y="28.5752" width="2.72653" height="14.1574" rx="1.36327" transform="rotate(-133.084 1.14331 28.5752)" fill="white"/>
<path d="M6.90962 23.9689L3.78687 20.6301L8.53784 16.1866C8.88566 15.8613 9.43133 15.8796 9.75663 16.2274L11.7014 18.3067C12.0267 18.6545 12.0084 19.2002 11.6606 19.5255L6.90962 23.9689Z" fill="#42A5F5"/>
<path d="M6.57328 21.5354C6.00187 22.0698 5.10541 22.0399 4.57098 21.4684L3.78687 20.6301L8.53784 16.1866C8.88566 15.8613 9.43133 15.8796 9.75663 16.2274L9.95173 16.436C10.4862 17.0074 10.4562 17.9039 9.88476 18.4383L6.57328 21.5354Z" fill="#1E88E5"/>
<path d="M6.51701 23.5492L4.65459 21.5579L8.99098 17.5022C9.3388 17.1769 9.88447 17.1952 10.2098 17.543L10.8942 18.2747C11.2195 18.6226 11.2012 19.1682 10.8534 19.4935L6.51701 23.5492Z" fill="white" fill-opacity="0.2"/>
<path d="M2.08433 30.5538L3.14811 29.5589L-0.617957 25.5322C-0.834825 25.3003 -0.822658 24.9365 -0.59078 24.7197L9.86628 14.9395L9.58101 14.6345C8.9304 13.9388 7.83906 13.9023 7.14343 14.5529L-3.53772 24.5427L2.08433 30.5538Z" fill="#B0ABD7"/>
<path d="M4.05567 28.6856L3.49506 28.0862C3.35134 27.9326 3.35941 27.6915 3.51307 27.5478C3.66673 27.4041 3.9078 27.4121 4.05152 27.5658L4.61212 28.1652L4.05567 28.6856Z" fill="#707195"/>
<path d="M5.22971 27.5875L3.81354 26.0733C3.66983 25.9196 3.67789 25.6786 3.83155 25.5349C3.98521 25.3911 4.22628 25.3992 4.37 25.5529L5.78616 27.067L5.22971 27.5875Z" fill="#707195"/>
<path d="M8.79248 24.2554L8.23187 23.656C8.08816 23.5023 8.09622 23.2612 8.24988 23.1175C8.40354 22.9738 8.64461 22.9819 8.78833 23.1355L9.34894 23.7349L8.79248 24.2554Z" fill="#707195"/>
<path d="M6.39136 26.501L5.83075 25.9016C5.68704 25.7479 5.6951 25.5068 5.84876 25.3631C6.00242 25.2194 6.24349 25.2275 6.38721 25.3811L6.94782 25.9805L6.39136 26.501Z" fill="#707195"/>
<path d="M7.5843 25.3853L6.16814 23.8711C6.02442 23.7175 6.03249 23.4764 6.18615 23.3327C6.33981 23.189 6.58088 23.197 6.72459 23.3507L8.14076 24.8649L7.5843 25.3853Z" fill="#707195"/>
<path d="M9.98532 23.1398L8.56916 21.6256C8.42544 21.4719 8.4335 21.2309 8.58717 21.0871C8.74083 20.9434 8.9819 20.9515 9.12561 21.1051L10.5418 22.6193L9.98532 23.1398Z" fill="#707195"/>
<path d="M11.1782 22.024L10.6176 21.4246C10.4739 21.271 10.4819 21.0299 10.6356 20.8862C10.7892 20.7425 11.0303 20.7505 11.174 20.9042L11.7346 21.5036L11.1782 22.024Z" fill="#707195"/>
<path d="M20.2916 14.9902C18.4002 16.6048 17.4528 17.9994 17.4528 19.1775C17.4528 20.9446 18.8012 22.0872 20.2916 22.0872C21.7819 22.0872 23.1304 20.9446 23.1304 19.1775C23.1304 17.9994 22.1829 16.6048 20.2916 14.9902ZM18.8118 19.2484C18.9431 19.2484 19.0496 19.3407 19.0744 19.4684C19.2199 20.2562 19.8835 20.5259 20.3661 20.4869C20.5187 20.4798 20.6464 20.6004 20.6464 20.753C20.6464 20.8949 20.5329 21.012 20.3909 21.0191C19.6351 21.0653 18.7515 20.6324 18.5492 19.5572C18.5431 19.5191 18.5452 19.4802 18.5556 19.4431C18.566 19.4059 18.5843 19.3715 18.6092 19.3421C18.6342 19.3128 18.6653 19.2892 18.7002 19.273C18.7352 19.2568 18.7733 19.2485 18.8118 19.2484Z" fill="#2196F3"/>
</g>
<defs>
<clipPath id="clip0_15027_87627">
<rect y="0.376953" width="28" height="28" rx="14" fill="white"/>
</clipPath>
</defs>
</svg>
