<svg width="28" height="29" viewBox="0 0 28 29" fill="none" xmlns="http://www.w3.org/2000/svg">
<rect y="0.376953" width="28" height="28" rx="14" fill="#F5F5F5"/>
<g clip-path="url(#clip0_15027_87507)">
<ellipse cx="16.355" cy="20.2589" rx="8.46103" ry="3.44612" fill="black" fill-opacity="0.08"/>
<path fill-rule="evenodd" clip-rule="evenodd" d="M16.3879 22.4315C20.1219 22.4315 23.149 20.8868 23.149 18.9814C23.149 18.9153 23.1454 18.8497 23.1382 18.7845V16.8534H21.7101C20.4724 16.0484 18.5485 15.5312 16.3879 15.5312C14.2273 15.5312 12.3034 16.0484 11.0656 16.8534H9.63657V18.7934C9.63002 18.8557 9.62671 18.9183 9.62671 18.9814C9.62671 20.8868 12.6538 22.4315 16.3879 22.4315Z" fill="#BAC0EA"/>
<path fill-rule="evenodd" clip-rule="evenodd" d="M12.538 16.1448C11.9804 16.3422 11.4838 16.5814 11.0656 16.8534H9.63657V18.7934C9.63002 18.8556 9.62671 18.9183 9.62671 18.9813C9.62671 20.1568 10.7787 21.195 12.538 21.8179V16.1448Z" fill="#97A2F1" fill-opacity="0.6"/>
<ellipse cx="16.388" cy="16.8503" rx="6.76114" ry="3.45012" fill="#E3E6FD"/>
<path fill-rule="evenodd" clip-rule="evenodd" d="M13.0736 14.343C13.1707 14.1896 13.3737 14.1438 13.5271 14.2409L20.3615 18.5626C20.515 18.6597 20.5607 18.8627 20.4637 19.0161C20.3666 19.1696 20.1636 19.2153 20.0102 19.1183L13.1758 14.7965C13.0223 14.6995 12.9766 14.4964 13.0736 14.343Z" fill="#C0C4EC"/>
<path fill-rule="evenodd" clip-rule="evenodd" d="M16.997 13.4193C17.5614 14.9635 17.0133 16.7481 15.5787 17.688L12.4937 19.7092C10.6985 19.0889 9.51855 18.0399 9.51855 16.8503C9.51855 14.9448 12.5456 13.4001 16.2797 13.4001C16.522 13.4001 16.7613 13.4066 16.997 13.4193Z" fill="#C3C8EF" fill-opacity="0.6"/>
<line x1="13.643" y1="14.4531" x2="16.4252" y2="16.2124" stroke="#A3A8DC" stroke-width="1.08002" stroke-linecap="round"/>
<path d="M11.6337 20.2461C10.5342 22.0749 8.16032 22.666 6.33159 21.5665C4.50286 20.4669 3.91173 18.0931 5.01127 16.2644L10.0108 7.94927C11.1103 6.12053 13.4842 5.5294 15.3129 6.62894C17.1416 7.72848 17.7327 10.1023 16.6332 11.9311L11.6337 20.2461Z" fill="#EF5350"/>
<path d="M14.3109 15.7932L7.68848 11.8114L10.0107 7.94915C11.1102 6.12042 13.4841 5.52928 15.3128 6.62882C17.1415 7.72836 17.7327 10.1022 16.6331 11.9309L14.3109 15.7932Z" fill="#FFC34F"/>
<path fill-rule="evenodd" clip-rule="evenodd" d="M6.33161 21.5665C8.16034 22.666 10.5342 22.0749 11.6337 20.2462L16.6332 11.9311C17.7328 10.1023 17.1416 7.7285 15.3129 6.62896C15.131 6.51961 14.9438 6.42699 14.7529 6.35064C16.1741 7.55288 16.555 9.64179 15.5648 11.2886L10.5653 19.6037C9.57508 21.2506 7.55143 21.8938 5.82313 21.2024C5.98008 21.3352 6.14972 21.4571 6.33161 21.5665Z" fill="black" fill-opacity="0.16"/>
<rect x="7.96082" y="16.8889" width="1.58145" height="3.16686" rx="0.790724" transform="rotate(-148.983 7.96082 16.8889)" fill="white" fill-opacity="0.3"/>
<rect x="10.6594" y="12.2837" width="1.6258" height="5.17018" rx="0.812899" transform="rotate(-148.983 10.6594 12.2837)" fill="white" fill-opacity="0.6"/>
</g>
<defs>
<clipPath id="clip0_15027_87507">
<rect width="21.9592" height="19.4783" fill="white" transform="translate(3.02039 4.63794)"/>
</clipPath>
</defs>
</svg>
