<svg width="50" height="51" viewBox="0 0 50 51" fill="none" xmlns="http://www.w3.org/2000/svg">
<rect y="0.376953" width="50" height="50" rx="12" fill="#E6F6EC"/>
<path d="M23.2854 13.377H20.714C20.032 13.377 19.378 13.6479 18.8957 14.1301C18.4135 14.6123 18.1426 15.2664 18.1426 15.9484V34.8055C18.1426 35.4875 18.4135 36.1416 18.8957 36.6238C19.378 37.106 20.032 37.377 20.714 37.377H29.2854C29.9674 37.377 30.6215 37.106 31.1037 36.6238C31.5859 36.1416 31.8569 35.4875 31.8569 34.8055V15.9484C31.8569 15.2664 31.5859 14.6123 31.1037 14.1301C30.6215 13.6479 29.9674 13.377 29.2854 13.377H26.714M23.2854 13.377V15.0912H26.714V13.377M23.2854 13.377H26.714M23.2854 32.1389H26.714" stroke="#16A75C" stroke-width="2" stroke-linecap="round" stroke-linejoin="round"/>
</svg>
