<svg width="24" height="24" viewBox="0 0 24 24" fill="none" xmlns="http://www.w3.org/2000/svg">
<g clip-path="url(#clip0_15319_35413)">
<g clip-path="url(#clip1_15319_35413)">
<path fill-rule="evenodd" clip-rule="evenodd" d="M12 10.8686C13.8354 10.8686 15.3232 9.38079 15.3232 7.54543C15.3232 6.74441 15.3197 6.16749 15.2553 5.67468C15.1936 5.20186 15.0947 4.98981 15.0238 4.8872C14.9724 4.81265 14.5625 4.22222 12 4.22222C9.43753 4.22222 9.02769 4.81265 8.9762 4.8872C8.90532 4.98981 8.8065 5.20186 8.74475 5.67468C8.68038 6.16749 8.67681 6.74441 8.67681 7.54543C8.67681 9.38079 10.1647 10.8686 12 10.8686ZM12 13.0909C15.0627 13.0909 17.5455 10.6081 17.5455 7.54543C17.5455 4.48278 17.5455 2 12 2C6.45459 2 6.45459 4.48278 6.45459 7.54543C6.45459 10.6081 8.93737 13.0909 12 13.0909Z" fill="#C3E9D0"/>
<path fill-rule="evenodd" clip-rule="evenodd" d="M9.37417 14.5497C10.2067 14.2048 11.0989 14.0273 12 14.0273C12.9011 14.0273 13.7934 14.2048 14.6259 14.5497C15.4584 14.8945 16.2149 15.3999 16.852 16.0371C17.4892 16.6743 17.9946 17.4307 18.3395 18.2632C18.6843 19.0957 18.8618 19.988 18.8618 20.8891C18.8618 21.5027 18.3643 22.0002 17.7507 22.0002C17.137 22.0002 16.6396 21.5027 16.6396 20.8891C16.6396 20.2798 16.5196 19.6765 16.2864 19.1136C16.0532 18.5507 15.7115 18.0393 15.2807 17.6084C14.8499 17.1776 14.3384 16.8359 13.7755 16.6027C13.2126 16.3696 12.6093 16.2496 12 16.2496C11.3908 16.2496 10.7875 16.3696 10.2246 16.6027C9.66169 16.8359 9.15023 17.1776 8.71941 17.6084C8.28859 18.0393 7.94685 18.5507 7.71369 19.1136C7.48053 19.6765 7.36053 20.2798 7.36053 20.8891C7.36053 21.5027 6.86307 22.0002 6.24942 22.0002C5.63577 22.0002 5.13831 21.5027 5.13831 20.8891C5.13831 19.988 5.31579 19.0957 5.66062 18.2632C6.00546 17.4307 6.51089 16.6743 7.14806 16.0371C7.78523 15.3999 8.54167 14.8945 9.37417 14.5497Z" fill="#C3E9D0"/>
<path fill-rule="evenodd" clip-rule="evenodd" d="M16.4391 7.54449H7.56091V5.32227H16.4391V7.54449Z" fill="#C3E9D0"/>
<path d="M11.0695 15.1406H12.8989L12.8043 17.5639H11.1634L11.0695 15.1406Z" fill="#C3E9D0"/>
<path d="M11.0707 18.5117H12.8984L13.5465 21.6578H10.4369L11.0707 18.5117Z" fill="#C3E9D0"/>
</g>
</g>
<defs>
<clipPath id="clip0_15319_35413">
<rect width="20" height="20" fill="white" transform="translate(2 2)"/>
</clipPath>
<clipPath id="clip1_15319_35413">
<rect width="20" height="20" fill="white" transform="translate(2 2)"/>
</clipPath>
</defs>
</svg>
