<svg width="24" height="24" viewBox="0 0 24 24" fill="none" xmlns="http://www.w3.org/2000/svg">
<g clip-path="url(#clip0_15319_35405)">
<path fill-rule="evenodd" clip-rule="evenodd" d="M18.6667 9.22222H5.33333C4.71968 9.22222 4.22222 9.71968 4.22222 10.3333V18.6667C4.22222 19.2803 4.71968 19.7778 5.33333 19.7778H18.6667C19.2803 19.7778 19.7778 19.2803 19.7778 18.6667V10.3333C19.7778 9.71968 19.2803 9.22222 18.6667 9.22222ZM5.33333 7C3.49238 7 2 8.49239 2 10.3333V18.6667C2 20.5076 3.49239 22 5.33333 22H18.6667C20.5076 22 22 20.5076 22 18.6667V10.3333C22 8.49238 20.5076 7 18.6667 7H5.33333Z" fill="#C3E9D0"/>
<path fill-rule="evenodd" clip-rule="evenodd" d="M14.7401 4.25738H9.11394V6.4317H14.7401L14.7401 4.25738ZM9.11394 2.03516C7.88665 2.03516 6.89172 3.03008 6.89172 4.25738V8.65392H16.9623V4.25738C16.9623 3.03008 15.9674 2.03516 14.7401 2.03516H9.11394Z" fill="#C3E9D0"/>
<path fill-rule="evenodd" clip-rule="evenodd" d="M21.927 16.0171L1.927 16.0171L1.927 13.7949L21.927 13.7949L21.927 16.0171Z" fill="#C3E9D0"/>
<path fill-rule="evenodd" clip-rule="evenodd" d="M12 17.9844C11.3864 17.9844 10.8889 17.4869 10.8889 16.8733L10.8889 13.1103C10.8889 12.4967 11.3864 11.9992 12 11.9992C12.6137 11.9992 13.1111 12.4967 13.1111 13.1103L13.1111 16.8733C13.1111 17.4869 12.6137 17.9844 12 17.9844Z" fill="#C3E9D0"/>
</g>
<defs>
<clipPath id="clip0_15319_35405">
<rect width="20" height="20" fill="white" transform="translate(2 2)"/>
</clipPath>
</defs>
</svg>
