<svg width="49" height="49" viewBox="0 0 49 49" fill="none" xmlns="http://www.w3.org/2000/svg">
<g clip-path="url(#clip0_15652_157031)">
<rect x="0.5" y="0.5" width="48" height="48" rx="24" fill="#FAFAFA"/>
<rect x="33.2786" y="34.2344" width="14.9404" height="13.7527" transform="rotate(90 33.2786 34.2344)" fill="#FDB69C"/>
<rect x="25.8342" y="34.2344" width="14.9404" height="6.30843" transform="rotate(90 25.8342 34.2344)" fill="#EF887D" fill-opacity="0.4"/>
<rect x="13.2656" y="8.51562" width="18.1375" height="33.9676" rx="3.04658" fill="#8A89C7"/>
<rect x="13.8617" y="9.03711" width="16.9587" height="32.9115" rx="2.66576" fill="#43406A"/>
<circle cx="22.3342" cy="38.6562" r="1.75" fill="#8384BA"/>
<path d="M13.8617 11.7029C13.8617 10.2306 15.0552 9.03711 16.5275 9.03711H28.1546C29.6269 9.03711 30.8204 10.2306 30.8204 11.7029V34.4806C30.8204 35.3219 30.1384 36.0039 29.2971 36.0039H15.385C14.5437 36.0039 13.8617 35.3219 13.8617 34.4806V11.7029Z" fill="#343255"/>
<path d="M13.8617 11.7029C13.8617 10.2306 15.0552 9.03711 16.5275 9.03711H24.1265L18.3953 36.0039H15.385C14.5437 36.0039 13.8617 35.3219 13.8617 34.4806V11.7029Z" fill="#4A4875"/>
<path d="M17.827 9.03711H27.2446V10.5734C27.2446 11.1257 26.7968 11.5734 26.2446 11.5734H18.827C18.2747 11.5734 17.827 11.1257 17.827 10.5734V9.03711Z" fill="#8A89C7"/>
<circle cx="22.5358" cy="10.3047" r="1" fill="#343255"/>
<path d="M22.8159 17.3827C22.8159 16.5414 23.4979 15.8594 24.3392 15.8594H33.4241C35.6332 15.8594 37.4241 17.6502 37.4241 19.8594V21.5308H26.6241C24.5209 21.5308 22.8159 19.8258 22.8159 17.7225V17.3827Z" fill="#FDB69C"/>
<path d="M31.4147 21.5312H37.4241V31.2956C37.4241 34.6145 34.7336 37.305 31.4147 37.305V21.5312Z" fill="#FDB69C"/>
<path d="M31.4147 21.5312C32.6813 21.5312 33.708 22.558 33.708 23.8245V30.6755C33.708 31.9421 32.6813 32.9688 31.4147 32.9688V21.5312Z" fill="#EF887D"/>
<rect x="11.1592" y="15.8594" width="7.61646" height="4.96771" rx="2.48385" fill="#FDB69C"/>
<path fill-rule="evenodd" clip-rule="evenodd" d="M11.6196 19.7832C12.07 20.4145 12.8085 20.8261 13.6431 20.8261H16.2918C17.1264 20.8261 17.8649 20.4145 18.3152 19.7832H11.6196Z" fill="#EF887D"/>
<rect x="11.1592" y="20.8262" width="8.8926" height="5.27074" rx="2.63537" fill="#FDB69C"/>
<path fill-rule="evenodd" clip-rule="evenodd" d="M11.6777 25.0312C12.158 25.6777 12.9273 26.0965 13.7945 26.0965H17.4164C18.2835 26.0965 19.0529 25.6777 19.5331 25.0312H11.6777Z" fill="#EF887D"/>
<rect x="11.1592" y="26.0977" width="8.8926" height="5.02941" rx="2.51471" fill="#FDB69C"/>
<path fill-rule="evenodd" clip-rule="evenodd" d="M11.6852 30.1523C12.1452 30.7458 12.8649 31.1278 13.6739 31.1278H17.5371C18.3461 31.1278 19.0658 30.7458 19.5258 30.1523H11.6852Z" fill="#EF887D"/>
<rect x="11.1592" y="31.127" width="7.45095" height="5.11846" rx="2.55923" fill="#FDB69C"/>
<path fill-rule="evenodd" clip-rule="evenodd" d="M11.681 35.2344C12.1485 35.8483 12.8872 36.2446 13.7185 36.2446H16.0509C16.8822 36.2446 17.6209 35.8483 18.0884 35.2344H11.681Z" fill="#EF887D"/>
</g>
<defs>
<clipPath id="clip0_15652_157031">
<rect x="0.5" y="0.5" width="48" height="48" rx="24" fill="white"/>
</clipPath>
</defs>
</svg>
