<svg width="24" height="24" viewBox="0 0 24 24" fill="none" xmlns="http://www.w3.org/2000/svg">
<g clip-path="url(#clip0_228_29885)">
<path fill-rule="evenodd" clip-rule="evenodd" d="M13.5211 4.18392C13.3465 4.2874 13.1293 4.2874 12.9547 4.18392L9.80736 2.31883C9.63273 2.21534 9.41555 2.21534 9.24091 2.31883L6.09358 4.18392C5.91894 4.2874 5.70176 4.2874 5.52713 4.18392L2.93534 2.64804C2.56501 2.42859 2.09657 2.69551 2.09657 3.12599V18.6245C2.09657 20.4655 3.58895 21.9579 5.4299 21.9579H16.9517V3.12598C16.9517 2.69551 16.4833 2.42859 16.1129 2.64805L13.5211 4.18392ZM14.7295 6.05097L14.654 6.09568C13.7809 6.61312 12.695 6.61311 11.8218 6.09568L9.52414 4.73409L7.22647 6.09568C6.35329 6.61312 5.26741 6.61311 4.39423 6.09568L4.31879 6.05097V18.6245C4.31879 19.2382 4.81625 19.7356 5.4299 19.7356H14.7295V6.05097Z" fill="#16A75C"/>
<path fill-rule="evenodd" clip-rule="evenodd" d="M19.4984 11.8007L17.1849 11.8007V19.7356H18.2959C18.96 19.7356 19.4984 19.2381 19.4984 18.6244V11.8007ZM14.7798 9.57849V21.9578H18.2959C20.2883 21.9578 21.9034 20.4654 21.9034 18.6244V11.8007C21.9034 10.5734 20.8267 9.57849 19.4984 9.57849H14.7798Z" fill="#16A75C"/>
<circle cx="7.14507" cy="11.2664" r="1.0181" transform="rotate(-49.7093 7.14507 11.2664)" fill="#16A75C"/>
<circle cx="11.8045" cy="15.2166" r="1.0181" transform="rotate(-49.7093 11.8045 15.2166)" fill="#16A75C"/>
<path fill-rule="evenodd" clip-rule="evenodd" d="M6.90132 16.3986C6.50558 16.0631 6.45674 15.4703 6.79225 15.0746L10.8442 10.2951C11.1797 9.89935 11.7725 9.85052 12.1683 10.186C12.564 10.5215 12.6128 11.1143 12.2773 11.5101L8.22536 16.2896C7.88986 16.6853 7.29706 16.7341 6.90132 16.3986Z" fill="#16A75C"/>
</g>
<defs>
<clipPath id="clip0_228_29885">
<rect width="20" height="20" fill="white" transform="translate(2 2)"/>
</clipPath>
</defs>
</svg>
