<svg width="24" height="24" viewBox="0 0 24 24" fill="none" xmlns="http://www.w3.org/2000/svg">
<g clip-path="url(#clip0_159_74311)">
<circle cx="12" cy="12" r="12" fill="#F5F5F5"/>
<path d="M5.2486 13.1969C4.30296 13.5788 3.64142 14.6514 3.50463 15.1249C3.25646 14.3066 2.80318 12.1822 3.09428 10.5586C3.20362 9.94881 3.36679 9.22392 3.70981 8.42772C4.53048 6.5228 6.78737 3.45554 11.096 3.04965C16.9434 2.49879 19.6106 6.70268 19.8158 7.21004C19.9775 7.60974 20.2262 8.52919 20.021 9.2395C19.7782 10.0802 18.9951 10.6601 18.3796 10.8631C18.0718 10.9645 17.4563 10.9645 17.4563 10.9645C17.6615 10.6601 17.5377 10.1205 17.5589 9.54392C17.5766 9.06215 17.7436 8.88646 17.5589 8.42772C17.3366 7.87546 17.1944 7.49552 16.7382 7.10857C16.2892 6.72768 15.7466 6.53356 15.5072 6.49973C14.8917 5.38353 13.3529 5.07911 13.3529 5.07911C13.3529 5.07911 11.6817 5.18929 9.96754 6.80415C7.81323 8.83361 7.57386 11.7087 7.60806 13.2984C7.3003 13.1293 6.0646 12.8675 5.2486 13.1969Z" fill="#16A75C"/>
<path d="M8.42867 15.125C8.73643 15.7339 10.0219 17.6741 11.9166 18.3722C14.8916 19.7928 17.3348 18.7346 19.2002 17.5604C17.1485 20.4016 12.7373 21.7208 9.45454 20.6046C7.84558 20.141 6.49562 19.246 5.55626 18.2707C4.22264 17.053 4.12006 16.299 4.12006 15.7643C4.12006 14.6785 5.08917 13.6232 6.28462 13.6232C7.48008 13.6232 8.12092 14.5162 8.42867 15.125Z" fill="#FFD026"/>
<path fill-rule="evenodd" clip-rule="evenodd" d="M19.5879 6.81059C19.7121 6.9995 19.7875 7.14015 19.8158 7.21024C19.9775 7.60994 20.2262 8.52939 20.021 9.2397C19.7782 10.0804 18.9951 10.6603 18.3796 10.8633C18.0718 10.9647 17.4563 10.9647 17.4563 10.9647C17.5969 10.7562 17.5831 10.4374 17.5672 10.0719C17.5599 9.90376 17.5522 9.72578 17.5589 9.54412C17.5649 9.38198 17.5878 9.25451 17.6084 9.13925C17.6492 8.91203 17.6814 8.73227 17.5589 8.42792C17.5515 8.40939 17.5441 8.39105 17.5368 8.3729C17.3267 7.85015 17.1791 7.48274 16.7382 7.10877C16.2892 6.72788 15.7466 6.53376 15.5072 6.49993C14.8917 5.38373 13.3529 5.07931 13.3529 5.07931C13.3529 5.07931 13.2785 5.08422 13.1449 5.10714C13.0812 5.08859 13.045 5.07918 13.045 5.07918C15.5071 4.77476 18.1867 5.28104 19.4054 6.60128C19.4702 6.67153 19.531 6.74131 19.5879 6.81059Z" fill="#008444"/>
<ellipse cx="14.7892" cy="9.44238" rx="3.07758" ry="3.04419" fill="#1E88E5"/>
<path d="M13.9532 10.4573V8.95143L13.6056 9.09633L13.4678 8.78095L14.0451 8.51388H14.3295V10.4573H13.9532Z" fill="white"/>
<path d="M15.2769 9.76118C15.2022 9.76118 15.1295 9.74603 15.0586 9.71572C14.9877 9.68542 14.9246 9.6428 14.869 9.58787C14.8135 9.53104 14.7685 9.46475 14.734 9.38898C14.7015 9.31132 14.6852 9.22608 14.6852 9.13327C14.6852 9.03667 14.7043 8.94764 14.7426 8.86619C14.7809 8.78285 14.8317 8.71182 14.8949 8.6531C14.96 8.59438 15.0337 8.54892 15.116 8.51672C15.2003 8.48262 15.2884 8.46558 15.3803 8.46558C15.4856 8.46558 15.5814 8.48452 15.6675 8.5224C15.7556 8.55839 15.8303 8.60764 15.8916 8.67015C15.9548 8.73076 16.0027 8.80274 16.0352 8.88608C16.0697 8.96753 16.0869 9.05371 16.0869 9.14463C16.0869 9.27533 16.0601 9.39561 16.0065 9.50547C15.9548 9.61344 15.8887 9.72425 15.8083 9.8379L15.3315 10.5113L15.0414 10.3152L15.4435 9.74982L15.4291 9.73277C15.3851 9.75171 15.3343 9.76118 15.2769 9.76118ZM15.3861 8.80937C15.342 8.80937 15.2999 8.81694 15.2597 8.8321C15.2214 8.84725 15.1869 8.86903 15.1563 8.89744C15.1256 8.92586 15.1007 8.95995 15.0816 8.99973C15.0643 9.03761 15.0557 9.08023 15.0557 9.12759C15.0557 9.17683 15.0643 9.22135 15.0816 9.26112C15.1007 9.29901 15.1256 9.33215 15.1563 9.36057C15.1869 9.38898 15.2214 9.41076 15.2597 9.42592C15.2999 9.44107 15.342 9.44865 15.3861 9.44865C15.4282 9.44865 15.4694 9.44107 15.5096 9.42592C15.5498 9.41076 15.5852 9.38898 15.6158 9.36057C15.6484 9.33215 15.6733 9.29901 15.6905 9.26112C15.7097 9.22135 15.7193 9.17683 15.7193 9.12759C15.7193 9.08023 15.7097 9.03761 15.6905 8.99973C15.6733 8.95995 15.6484 8.92586 15.6158 8.89744C15.5852 8.86903 15.5498 8.84725 15.5096 8.8321C15.4694 8.81694 15.4282 8.80937 15.3861 8.80937Z" fill="white"/>
<path d="M20.9237 14.2218C20.8416 16.0382 19.2002 17.1544 17.4563 17.8647C14.9942 18.6765 13.6606 18.372 13.6606 18.372C13.6606 18.372 14.4801 18.0091 15.0968 16.9514C15.5533 16.1685 15.6608 15.1768 15.8559 14.2116C16.0201 13.3999 16.7382 11.6748 18.4103 11.7357C19.7984 11.7357 20.9856 12.8501 20.9237 14.2218Z" fill="#FFB900"/>
</g>
<defs>
<clipPath id="clip0_159_74311">
<rect width="24" height="24" rx="12" fill="white"/>
</clipPath>
</defs>
</svg>
