<svg width="29" height="41" viewBox="0 0 29 41" fill="none" xmlns="http://www.w3.org/2000/svg">
<g clip-path="url(#clip0_15123_86515)">
<path d="M22.6874 12.8081C22.7057 12.8447 22.7788 12.8995 22.8885 12.9726C22.7605 12.8812 22.6874 12.8081 22.6874 12.8081Z" fill="#FEC132"/>
<path d="M21.5173 21.1993C18.7933 19.7368 15.4295 21.7112 15.0456 21.9306L14.9725 22.0037L8.73848 29.426C8.70192 29.4809 8.66536 29.5357 8.62879 29.5906C6.0511 33.5028 8.59223 36.4278 9.28693 36.9397L13.5465 40.3767L24.424 27.3968C24.3144 27.5247 24.2595 27.5979 24.2595 27.5979C24.2595 27.5979 25.5026 23.3383 21.5173 21.1993Z" fill="#FEC132"/>
<path d="M28.6471 21.3639C28.8482 20.4498 28.7751 19.5906 28.5009 18.8228C28.7202 19.5723 28.8116 20.4498 28.6471 21.3639Z" fill="#FEC132"/>
<path d="M7.11147 17.5249C9.99996 19.0789 13.6197 16.7754 13.6197 16.7754L5.9963 25.8613L13.7294 16.6474L13.8574 16.5926L23.6563 4.91067L19.4698 1.5103C18.1352 0.376847 15.1371 -0.409259 12.5411 1.67484L4.49721 11.1995C4.49721 11.1995 3.1261 15.386 7.11147 17.5249Z" fill="#1BA7E0"/>
<path d="M6.05109 25.8981L6.10593 25.8433L6.01453 25.8798L6.05109 25.8981Z" fill="#1BA7E0"/>
<path d="M13.6197 16.7756C13.6197 16.7756 9.99995 19.0973 7.11147 17.5251C3.12609 15.3862 4.49721 11.1997 4.49721 11.1997L1.26138 14.984C-0.950689 17.5982 0.182766 20.9986 1.35278 22.0407C2.50452 23.0461 5.97801 25.9163 5.97801 25.9163L6.01458 25.8798L13.6197 16.7756Z" fill="#1593B7"/>
<path d="M28.6471 21.3639C28.8117 20.4498 28.7203 19.5723 28.5009 18.8228C28.2815 18.055 27.9159 17.3968 27.5685 16.9764C26.8007 16.044 23.7111 13.6308 22.8885 12.991C22.7788 12.9179 22.7056 12.863 22.6874 12.8447L15.064 21.9489C15.4479 21.7113 18.8117 19.7551 21.5356 21.2177C25.521 23.3566 24.2961 27.6345 24.2961 27.6345C24.2961 27.6345 24.351 27.5614 24.4607 27.4334C25.0457 26.757 26.947 24.5449 27.6417 23.6491C28.1901 22.8813 28.5009 22.1135 28.6471 21.3639Z" fill="#FBA919"/>
<path d="M22.669 12.8267C22.6873 12.8267 22.6873 12.8267 22.669 12.8267H22.6508L13.8573 16.5927L13.7294 16.6475L5.99628 25.8614L5.95972 25.898L6.01456 25.8797L6.08769 25.8431L14.9725 22.004L15.0456 21.9309L22.669 12.8267Z" fill="#039058"/>
</g>
<defs>
<clipPath id="clip0_15123_86515">
<rect width="28.7569" height="40" fill="white" transform="translate(0 0.376953)"/>
</clipPath>
</defs>
</svg>
