<svg width="24" height="24" viewBox="0 0 24 24" fill="none" xmlns="http://www.w3.org/2000/svg">
<g clip-path="url(#clip0_15319_35396)">
<path fill-rule="evenodd" clip-rule="evenodd" d="M13.5211 4.18489C13.3465 4.28838 13.1293 4.28838 12.9547 4.18489L9.80735 2.3198C9.63272 2.21632 9.41554 2.21632 9.24091 2.3198L6.09357 4.18489C5.91893 4.28838 5.70176 4.28838 5.52712 4.18489L2.93534 2.64902C2.565 2.42956 2.09656 2.69649 2.09656 3.12696V18.6255C2.09656 20.4664 3.58894 21.9588 5.42989 21.9588H16.9517V3.12696C16.9517 2.69649 16.4833 2.42956 16.1129 2.64902L13.5211 4.18489ZM14.7295 6.05194L14.654 6.09665C13.7809 6.61409 12.695 6.61409 11.8218 6.09665L9.52413 4.73507L7.22646 6.09665C6.35328 6.61409 5.2674 6.61409 4.39423 6.09665L4.31878 6.05194V18.6255C4.31878 19.2391 4.81624 19.7366 5.42989 19.7366H14.7295V6.05194Z" fill="#C3E9D0"/>
<path fill-rule="evenodd" clip-rule="evenodd" d="M19.4984 11.8003L17.1848 11.8003V19.7352H18.2958C18.96 19.7352 19.4984 19.2377 19.4984 18.6241V11.8003ZM14.7798 9.57812V21.9574H18.2958C20.2882 21.9574 21.9034 20.465 21.9034 18.6241V11.8003C21.9034 10.573 20.8266 9.57812 19.4984 9.57812H14.7798Z" fill="#C3E9D0"/>
<circle cx="7.14503" cy="11.2666" r="1.0181" transform="rotate(-49.7093 7.14503 11.2666)" fill="#C3E9D0"/>
<circle cx="11.8046" cy="15.2158" r="1.0181" transform="rotate(-49.7093 11.8046 15.2158)" fill="#C3E9D0"/>
<path fill-rule="evenodd" clip-rule="evenodd" d="M6.90137 16.3985C6.50563 16.063 6.4568 15.4702 6.7923 15.0745L10.8443 10.295C11.1798 9.89923 11.7726 9.85039 12.1683 10.1859C12.5641 10.5214 12.6129 11.1142 12.2774 11.5099L8.22542 16.2894C7.88991 16.6852 7.29712 16.734 6.90137 16.3985Z" fill="#C3E9D0"/>
</g>
<defs>
<clipPath id="clip0_15319_35396">
<rect width="20" height="20" fill="white" transform="translate(2 2)"/>
</clipPath>
</defs>
</svg>
