<svg width="20" height="21" viewBox="0 0 20 21" fill="none" xmlns="http://www.w3.org/2000/svg">
<path d="M10 0.376953C15.523 0.376953 20 4.85395 20 10.377C20 15.9 15.523 20.377 10 20.377C8.38224 20.3791 6.78829 19.9871 5.35601 19.235L1.06601 20.352C0.922665 20.3893 0.772053 20.3885 0.6291 20.3497C0.486147 20.3109 0.355816 20.2354 0.251024 20.1307C0.146232 20.026 0.0706184 19.8958 0.0316757 19.7529C-0.00726696 19.6099 -0.00818607 19.4593 0.0290095 19.316L1.14501 15.027C0.390809 13.5932 -0.00221966 11.997 9.42907e-06 10.377C9.42907e-06 4.85395 4.47701 0.376953 10 0.376953ZM11.252 11.377H6.75001L6.64801 11.384C6.4685 11.4087 6.304 11.4975 6.18492 11.6341C6.06584 11.7707 6.00024 11.9458 6.00024 12.127C6.00024 12.3082 6.06584 12.4832 6.18492 12.6198C6.304 12.7564 6.4685 12.8453 6.64801 12.87L6.75001 12.877H11.252L11.353 12.87C11.5325 12.8453 11.697 12.7564 11.8161 12.6198C11.9352 12.4832 12.0008 12.3082 12.0008 12.127C12.0008 11.9458 11.9352 11.7707 11.8161 11.6341C11.697 11.4975 11.5325 11.4087 11.353 11.384L11.252 11.377ZM13.25 7.87695H6.75001L6.64801 7.88395C6.4685 7.90865 6.304 7.99751 6.18492 8.13409C6.06584 8.27067 6.00024 8.44575 6.00024 8.62695C6.00024 8.80816 6.06584 8.98323 6.18492 9.11982C6.304 9.2564 6.4685 9.34525 6.64801 9.36995L6.75001 9.37695H13.25L13.352 9.36995C13.5315 9.34525 13.696 9.2564 13.8151 9.11982C13.9342 8.98323 13.9998 8.80816 13.9998 8.62695C13.9998 8.44575 13.9342 8.27067 13.8151 8.13409C13.696 7.99751 13.5315 7.90865 13.352 7.88395L13.25 7.87695Z" fill="#16A75C"/>
</svg>
