<svg width="239" height="238" viewBox="0 0 239 238" fill="none" xmlns="http://www.w3.org/2000/svg">
<rect x="0.0776367" width="6.43244" height="6.50743" rx="1.34409" fill="white"/>
<rect x="25.8079" width="6.43244" height="6.50743" rx="1.34409" fill="white"/>
<rect x="51.537" width="6.43244" height="6.50743" rx="1.34409" fill="white"/>
<rect x="77.2672" width="6.43244" height="6.50743" rx="1.34409" fill="white"/>
<rect x="102.996" width="6.43244" height="6.50743" rx="1.34409" fill="white"/>
<rect x="128.727" width="6.43244" height="6.50743" rx="1.34409" fill="white"/>
<rect x="154.457" width="6.43244" height="6.50743" rx="1.34409" fill="white"/>
<rect x="180.186" width="6.43244" height="6.50743" rx="1.34409" fill="white"/>
<rect x="205.916" width="6.43244" height="6.50743" rx="1.34409" fill="white"/>
<rect x="231.645" width="6.43244" height="6.50743" rx="1.34409" fill="white"/>
<rect x="0.0776367" y="26.0302" width="6.43244" height="6.50743" rx="1.34409" fill="white"/>
<rect x="25.8079" y="26.0302" width="6.43244" height="6.50743" rx="1.34409" fill="white"/>
<rect x="51.537" y="26.0302" width="6.43244" height="6.50743" rx="1.34409" fill="white"/>
<rect x="77.2672" y="26.0302" width="6.43244" height="6.50743" rx="1.34409" fill="white"/>
<rect x="102.996" y="26.0302" width="6.43244" height="6.50743" rx="1.34409" fill="white"/>
<rect x="128.727" y="26.0302" width="6.43244" height="6.50743" rx="1.34409" fill="white"/>
<rect x="154.457" y="26.0302" width="6.43244" height="6.50743" rx="1.34409" fill="white"/>
<rect x="180.186" y="26.0302" width="6.43244" height="6.50743" rx="1.34409" fill="white"/>
<rect x="205.916" y="26.0302" width="6.43244" height="6.50743" rx="1.34409" fill="white"/>
<rect x="231.645" y="26.0302" width="6.43244" height="6.50743" rx="1.34409" fill="white"/>
<rect x="0.0776367" y="52.0604" width="6.43244" height="6.50743" rx="1.34409" fill="white"/>
<rect x="25.8079" y="52.0604" width="6.43244" height="6.50743" rx="1.34409" fill="white"/>
<rect x="51.537" y="52.0604" width="6.43244" height="6.50743" rx="1.34409" fill="white"/>
<rect x="77.2672" y="52.0604" width="6.43244" height="6.50743" rx="1.34409" fill="white"/>
<rect x="102.996" y="52.0604" width="6.43244" height="6.50743" rx="1.34409" fill="white"/>
<rect x="128.727" y="52.0604" width="6.43244" height="6.50743" rx="1.34409" fill="white"/>
<rect x="154.457" y="52.0604" width="6.43244" height="6.50743" rx="1.34409" fill="white"/>
<rect x="180.186" y="52.0604" width="6.43244" height="6.50743" rx="1.34409" fill="white"/>
<rect x="205.916" y="52.0604" width="6.43244" height="6.50743" rx="1.34409" fill="white"/>
<rect x="231.645" y="52.0604" width="6.43244" height="6.50743" rx="1.34409" fill="white"/>
<rect x="0.0776367" y="78.0883" width="6.43244" height="6.50743" rx="1.34409" fill="white"/>
<rect x="25.8079" y="78.0883" width="6.43244" height="6.50743" rx="1.34409" fill="white"/>
<rect x="51.537" y="78.0883" width="6.43244" height="6.50743" rx="1.34409" fill="white"/>
<rect x="77.2672" y="78.0883" width="6.43244" height="6.50743" rx="1.34409" fill="white"/>
<rect x="102.996" y="78.0883" width="6.43244" height="6.50743" rx="1.34409" fill="white"/>
<rect x="128.727" y="78.0883" width="6.43244" height="6.50743" rx="1.34409" fill="white"/>
<rect x="154.457" y="78.0883" width="6.43244" height="6.50743" rx="1.34409" fill="white"/>
<rect x="180.186" y="78.0883" width="6.43244" height="6.50743" rx="1.34409" fill="white"/>
<rect x="205.916" y="78.0883" width="6.43244" height="6.50743" rx="1.34409" fill="white"/>
<rect x="231.645" y="78.0883" width="6.43244" height="6.50743" rx="1.34409" fill="white"/>
<rect x="0.0776367" y="104.118" width="6.43244" height="6.50743" rx="1.34409" fill="white"/>
<rect x="25.8079" y="104.118" width="6.43244" height="6.50743" rx="1.34409" fill="white"/>
<rect x="51.537" y="104.118" width="6.43244" height="6.50743" rx="1.34409" fill="white"/>
<rect x="77.2672" y="104.118" width="6.43244" height="6.50743" rx="1.34409" fill="white"/>
<rect x="102.996" y="104.118" width="6.43244" height="6.50743" rx="1.34409" fill="white"/>
<rect x="128.727" y="104.118" width="6.43244" height="6.50743" rx="1.34409" fill="white"/>
<rect x="154.457" y="104.118" width="6.43244" height="6.50743" rx="1.34409" fill="white"/>
<rect x="180.186" y="104.118" width="6.43244" height="6.50743" rx="1.34409" fill="white"/>
<rect x="205.916" y="104.118" width="6.43244" height="6.50743" rx="1.34409" fill="white"/>
<rect x="231.645" y="104.118" width="6.43244" height="6.50743" rx="1.34409" fill="white"/>
<rect x="0.0776367" y="130.149" width="6.43244" height="6.50743" rx="1.34409" fill="white"/>
<rect x="25.8079" y="130.149" width="6.43244" height="6.50743" rx="1.34409" fill="white"/>
<rect x="51.537" y="130.149" width="6.43244" height="6.50743" rx="1.34409" fill="white"/>
<rect x="77.2672" y="130.149" width="6.43244" height="6.50743" rx="1.34409" fill="white"/>
<rect x="102.996" y="130.149" width="6.43244" height="6.50743" rx="1.34409" fill="white"/>
<rect x="128.727" y="130.149" width="6.43244" height="6.50743" rx="1.34409" fill="white"/>
<rect x="154.457" y="130.149" width="6.43244" height="6.50743" rx="1.34409" fill="white"/>
<rect x="180.186" y="130.149" width="6.43244" height="6.50743" rx="1.34409" fill="white"/>
<rect x="205.916" y="130.149" width="6.43244" height="6.50743" rx="1.34409" fill="white"/>
<rect x="231.645" y="130.149" width="6.43244" height="6.50743" rx="1.34409" fill="white"/>
<rect x="0.0776367" y="156.179" width="6.43244" height="6.50743" rx="1.34409" fill="white"/>
<rect x="0.0776367" y="181.282" width="6.43244" height="6.50743" rx="1.34409" fill="white"/>
<rect x="0.0776367" y="206.387" width="6.43244" height="6.50743" rx="1.34409" fill="white"/>
<rect x="0.0776367" y="231.493" width="6.43244" height="6.50743" rx="1.34409" fill="white"/>
<rect x="25.8079" y="156.179" width="6.43244" height="6.50743" rx="1.34409" fill="white"/>
<rect x="25.8079" y="181.282" width="6.43244" height="6.50743" rx="1.34409" fill="white"/>
<rect x="25.8079" y="206.387" width="6.43244" height="6.50743" rx="1.34409" fill="white"/>
<rect x="25.8079" y="231.493" width="6.43244" height="6.50743" rx="1.34409" fill="white"/>
<rect x="51.537" y="156.179" width="6.43244" height="6.50743" rx="1.34409" fill="white"/>
<rect x="51.537" y="181.282" width="6.43244" height="6.50743" rx="1.34409" fill="white"/>
<rect x="51.537" y="206.387" width="6.43244" height="6.50743" rx="1.34409" fill="white"/>
<rect x="51.537" y="231.493" width="6.43244" height="6.50743" rx="1.34409" fill="white"/>
<rect x="77.2672" y="156.179" width="6.43244" height="6.50743" rx="1.34409" fill="white"/>
<rect x="77.2672" y="181.282" width="6.43244" height="6.50743" rx="1.34409" fill="white"/>
<rect x="77.2672" y="206.387" width="6.43244" height="6.50743" rx="1.34409" fill="white"/>
<rect x="77.2672" y="231.493" width="6.43244" height="6.50743" rx="1.34409" fill="white"/>
<rect x="102.996" y="156.179" width="6.43244" height="6.50743" rx="1.34409" fill="white"/>
<rect x="102.996" y="181.282" width="6.43244" height="6.50743" rx="1.34409" fill="white"/>
<rect x="102.996" y="206.387" width="6.43244" height="6.50743" rx="1.34409" fill="white"/>
<rect x="102.996" y="231.493" width="6.43244" height="6.50743" rx="1.34409" fill="white"/>
<rect x="128.727" y="156.179" width="6.43244" height="6.50743" rx="1.34409" fill="white"/>
<rect x="128.727" y="181.282" width="6.43244" height="6.50743" rx="1.34409" fill="white"/>
<rect x="128.727" y="206.387" width="6.43244" height="6.50743" rx="1.34409" fill="white"/>
<rect x="128.727" y="231.493" width="6.43244" height="6.50743" rx="1.34409" fill="white"/>
<rect x="154.457" y="156.179" width="6.43244" height="6.50743" rx="1.34409" fill="white"/>
<rect x="154.457" y="181.282" width="6.43244" height="6.50743" rx="1.34409" fill="white"/>
<rect x="154.457" y="206.387" width="6.43244" height="6.50743" rx="1.34409" fill="white"/>
<rect x="154.457" y="231.493" width="6.43244" height="6.50743" rx="1.34409" fill="white"/>
<rect x="180.186" y="156.179" width="6.43244" height="6.50743" rx="1.34409" fill="white"/>
<rect x="180.186" y="181.282" width="6.43244" height="6.50743" rx="1.34409" fill="white"/>
<rect x="180.186" y="206.387" width="6.43244" height="6.50743" rx="1.34409" fill="white"/>
<rect x="180.186" y="231.493" width="6.43244" height="6.50743" rx="1.34409" fill="white"/>
<rect x="205.916" y="156.179" width="6.43244" height="6.50743" rx="1.34409" fill="white"/>
<rect x="205.916" y="181.282" width="6.43244" height="6.50743" rx="1.34409" fill="white"/>
<rect x="205.916" y="206.387" width="6.43244" height="6.50743" rx="1.34409" fill="white"/>
<rect x="205.916" y="231.493" width="6.43244" height="6.50743" rx="1.34409" fill="white"/>
<rect x="231.645" y="156.179" width="6.43244" height="6.50743" rx="1.34409" fill="white"/>
<rect x="231.645" y="181.282" width="6.43244" height="6.50743" rx="1.34409" fill="white"/>
<rect x="231.645" y="206.387" width="6.43244" height="6.50743" rx="1.34409" fill="white"/>
<rect x="231.645" y="231.493" width="6.43244" height="6.50743" rx="1.34409" fill="white"/>
</svg>
