<svg width="24" height="24" viewBox="0 0 24 24" fill="none" xmlns="http://www.w3.org/2000/svg">
<g clip-path="url(#clip0_228_29995)">
<path fill-rule="evenodd" clip-rule="evenodd" d="M18.6667 9.22222H5.33333C4.71968 9.22222 4.22222 9.71968 4.22222 10.3333V18.6667C4.22222 19.2803 4.71968 19.7778 5.33333 19.7778H18.6667C19.2803 19.7778 19.7778 19.2803 19.7778 18.6667V10.3333C19.7778 9.71968 19.2803 9.22222 18.6667 9.22222ZM5.33333 7C3.49238 7 2 8.49239 2 10.3333V18.6667C2 20.5076 3.49239 22 5.33333 22H18.6667C20.5076 22 22 20.5076 22 18.6667V10.3333C22 8.49238 20.5076 7 18.6667 7H5.33333Z" fill="#16A75C"/>
<path fill-rule="evenodd" clip-rule="evenodd" d="M14.74 4.25689H9.11389V6.43121H14.74L14.74 4.25689ZM9.11389 2.03467C7.88659 2.03467 6.89167 3.02959 6.89167 4.25689V8.65343H16.9622V4.25689C16.9622 3.02959 15.9673 2.03467 14.74 2.03467H9.11389Z" fill="#16A75C"/>
<path fill-rule="evenodd" clip-rule="evenodd" d="M21.9269 16.0163L1.92698 16.0163L1.92698 13.7941L21.9269 13.7941L21.9269 16.0163Z" fill="#16A75C"/>
<path fill-rule="evenodd" clip-rule="evenodd" d="M12 17.9851C11.3864 17.9851 10.8889 17.4876 10.8889 16.874L10.8889 13.1111C10.8889 12.4974 11.3864 12 12 12C12.6136 12 13.1111 12.4974 13.1111 13.1111L13.1111 16.874C13.1111 17.4876 12.6136 17.9851 12 17.9851Z" fill="#16A75C"/>
</g>
<defs>
<clipPath id="clip0_228_29995">
<rect width="20" height="20" fill="white" transform="translate(2 2)"/>
</clipPath>
</defs>
</svg>
