<svg width="48" height="49" viewBox="0 0 48 49" fill="none" xmlns="http://www.w3.org/2000/svg">
<g clip-path="url(#clip0_15027_87707)">
<rect y="0.376953" width="48" height="48" rx="24" fill="#F5F5F5"/>
<path d="M44.5715 20.148C44.3304 20.6815 44.3625 21.2638 44.2585 21.8222C44.1546 22.3806 44.0772 22.9595 44.0131 23.532C43.9876 23.7604 43.8782 23.7744 43.6924 23.7485C42.9128 23.6338 42.131 23.532 41.3514 23.413C40.7046 23.3178 40.1351 23.5418 39.8299 24.0536C39.5103 24.5947 39.5568 25.1358 39.9305 25.6347C40.4049 26.27 40.8837 26.8998 41.378 27.5188C41.5295 27.7082 41.5262 27.8013 41.3227 27.9517C40.3408 28.6559 39.3666 29.3712 38.4001 30.0977C38.2044 30.246 38.1148 30.1929 37.9921 30.0284C37.5653 29.4581 37.1285 28.8943 36.695 28.3283C36.5708 28.1419 36.4126 27.9794 36.2284 27.8489C36.1343 27.8474 36.042 27.8232 35.9597 27.7786C35.0529 27.4452 34.28 27.8576 34.0942 28.7926C33.9571 29.4873 33.8819 30.1919 33.7625 30.8899C33.6652 31.4634 33.6187 31.5078 33.0415 31.431C31.98 31.2946 30.9206 31.1399 29.8624 30.9883C29.2863 30.9061 29.2819 30.8942 29.3537 30.3455C29.4411 29.6832 29.5417 29.022 29.6423 28.3619C29.6749 28.1811 29.6816 27.9968 29.6622 27.8143C29.5428 26.8879 28.583 26.4074 27.7304 26.863C27.2472 27.1206 26.8403 27.4896 26.3958 27.8045C26.1901 27.9506 25.9911 28.1054 25.7832 28.2493C25.374 28.5361 25.2491 28.5264 24.9538 28.1411C24.2815 27.2753 23.6147 26.4056 22.9535 25.5319C22.6792 25.1683 22.6958 25.0698 23.0641 24.7928C23.6468 24.3534 24.2384 23.927 24.8333 23.4942C25.3287 23.1349 25.5222 22.6511 25.3862 22.0808C25.2502 21.5105 24.8134 21.241 24.2638 21.1393C23.5008 20.9986 22.7279 20.9229 21.9616 20.8027C21.5624 20.7411 21.506 20.6804 21.5558 20.2854C21.7017 19.1286 21.8875 17.9782 22.0512 16.8224C22.091 16.5411 22.2436 16.4469 22.5222 16.4826C23.2786 16.5778 24.0316 16.6991 24.788 16.7943C25.6472 16.9079 26.2598 16.5118 26.4135 15.7586C26.4953 15.3561 26.3526 15.0098 26.1149 14.6937C25.6726 14.1137 25.2303 13.5434 24.788 12.9622C24.5104 12.5921 24.5226 12.5012 24.8908 12.2253C25.112 12.0597 25.3143 11.8616 25.6029 11.8032C26.2664 11.3216 26.9487 10.8552 27.5933 10.352C27.8897 10.1236 28.0456 10.0825 28.2889 10.4321C28.7408 11.0974 29.2385 11.732 29.7784 12.3313C30.538 13.1559 31.8473 12.8151 32.1392 11.7394C32.2323 11.3312 32.3021 10.9182 32.3482 10.5024C32.4123 10.0749 32.4731 9.64748 32.5273 9.21893C32.5561 9.00249 32.6213 8.91808 32.8845 8.95812C34.0865 9.14209 35.2918 9.29793 36.4982 9.45701C36.6906 9.48298 36.7835 9.53601 36.7481 9.75353C36.6231 10.5165 36.5203 11.2816 36.4009 12.0445C36.3036 12.6711 36.4783 13.1949 37.0334 13.5434C37.5885 13.8918 38.1336 13.8323 38.6478 13.4709C39.2991 13.0109 39.9394 12.5369 40.5741 12.0554C40.7698 11.9071 40.8804 11.8887 41.0429 12.1073C41.7528 13.0596 42.4745 14.0033 43.208 14.9383C43.3573 15.1277 43.3518 15.224 43.1472 15.3712C42.5269 15.8041 41.9309 16.2651 41.3116 16.7077C40.7787 17.0919 40.4934 17.5951 40.6537 18.2369C40.814 18.8786 41.2763 19.2108 41.943 19.3017C42.8177 19.4186 43.6891 19.5517 44.5626 19.6773L44.5715 20.148Z" fill="#16A75C"/>
<path d="M25.6086 48.3003V48.3771H22.5555V48.3003C22.6661 48.1823 22.8165 48.178 22.9625 48.1758C23.7092 48.1686 24.4556 48.1686 25.2017 48.1758C25.3476 48.178 25.4969 48.1823 25.6086 48.3003Z" fill="#F9F9F9"/>
<path d="M25.6074 11.8064C25.3542 11.9991 25.1131 12.2079 24.8466 12.38C24.631 12.5185 24.6487 12.6202 24.7957 12.8053C25.2668 13.3929 25.7113 13.9957 26.1735 14.5942C26.5827 15.1212 26.7054 15.685 26.3438 16.2716C25.9822 16.8581 25.4017 16.9988 24.7404 16.9057C23.9863 16.7975 23.2288 16.7066 22.478 16.5811C22.2303 16.5399 22.1828 16.6233 22.1551 16.8311C21.9937 18.0117 21.8234 19.1924 21.6443 20.3687C21.61 20.5917 21.6443 20.6696 21.882 20.6934C22.6384 20.7854 23.3914 20.9012 24.1466 21.0029C24.872 21.1003 25.3774 21.465 25.5079 22.044C25.6549 22.702 25.4083 23.2171 24.8532 23.6121C24.2252 24.058 23.6137 24.5276 22.9867 24.9746C22.8219 25.0925 22.7998 25.1715 22.9292 25.3382C23.676 26.2956 24.4131 27.2594 25.1407 28.2298C25.2757 28.4084 25.3685 28.4224 25.5488 28.285C26.1503 27.8262 26.7651 27.3835 27.3766 26.9377C27.9881 26.4918 28.6118 26.4312 29.1282 26.7656C29.7308 27.1552 29.8569 27.7233 29.7474 28.3835C29.6258 29.1205 29.5263 29.8607 29.4157 30.5977C29.3858 30.7762 29.4444 30.8195 29.6136 30.8422C30.8587 31.0132 32.1027 31.1874 33.3456 31.3736C33.6287 31.4158 33.611 31.2361 33.6353 31.0727C33.7459 30.3217 33.8499 29.5696 33.9671 28.8185C34.1451 27.6617 35.2874 27.1682 36.2295 27.8381C35.294 30.6366 33.5966 32.8768 31.0832 34.5065C29.67 35.4232 28.9911 36.6947 29.043 38.3537C29.0652 39.0474 29.043 39.7422 29.0486 40.437C29.0596 41.4467 28.6604 42.2107 27.6962 42.6457C27.4529 42.8622 27.1577 42.913 26.8425 42.913C25.028 42.913 23.2134 42.913 21.3988 42.913C21.0936 42.913 20.7784 42.913 20.5451 42.662C19.5986 42.2583 19.1585 41.5516 19.1585 40.5419C19.1585 39.5322 19.2204 38.5107 19.112 37.4966C19.1192 37.3923 19.0954 37.2882 19.0435 37.1969C18.8312 36.896 18.7814 36.5281 18.6111 36.2045C18.333 35.6664 17.9254 35.2026 17.4235 34.8528C16.739 34.3767 16.0623 33.8929 15.4265 33.3562C14.1814 32.1928 13.1541 30.8747 12.4497 29.3282C12.3845 29.1854 12.3248 29.0415 12.2496 28.9019C11.6712 27.5772 11.3882 26.1866 11.282 24.757C11.2665 24.5525 11.2378 24.3372 11.3771 24.151C11.4191 21.8968 11.9587 19.7703 13.1464 17.8278C15.0494 14.7251 17.8205 12.7815 21.4231 11.972C22.6992 11.6852 23.9929 11.6538 25.2933 11.7404C25.3996 11.7544 25.5046 11.7764 25.6074 11.8064Z" fill="#FFD026"/>
<path opacity="0.5" d="M15.4895 33.3063C16.1641 33.8572 16.8906 34.3398 17.5905 34.8604C18.3745 35.4469 18.8987 36.2207 19.0457 37.2022C18.3424 37.7899 17.7188 38.4597 17.073 39.1015C16.8773 39.2952 16.7413 39.2865 16.5444 39.1426C16.0601 38.7963 15.568 38.4587 15.076 38.1232C14.4567 37.7022 13.9403 37.8948 13.7689 38.621C13.6285 39.2162 13.5124 39.8179 13.3908 40.4185C13.3432 40.6566 13.2315 40.7648 12.9584 40.7562C12.2629 40.7356 11.5662 40.7399 10.8707 40.7562C10.5942 40.7627 10.4671 40.6804 10.4173 40.3969C10.3067 39.7952 10.1707 39.1978 10.0292 38.6015C9.86333 37.8992 9.35246 37.7141 8.74649 38.1275C8.24336 38.4716 7.73802 38.8136 7.24374 39.1686C7.04138 39.3136 6.90315 39.3309 6.71075 39.1307C6.17776 38.5777 5.62266 38.0485 5.06645 37.5161C4.89285 37.3516 4.85525 37.226 5.01338 37.0193C5.37939 36.5378 5.70781 36.0291 6.0694 35.5443C6.54156 34.9123 6.33036 34.382 5.53973 34.2305C4.93929 34.1158 4.34106 33.9849 3.74062 33.8723C3.52942 33.8323 3.42327 33.7641 3.42879 33.5174C3.44759 32.7847 3.44096 32.051 3.42879 31.3173C3.42879 31.1127 3.48077 31.0272 3.70856 30.9926C4.33775 30.8844 4.95809 30.7361 5.58838 30.6149C6.27286 30.4818 6.49844 29.9786 6.11142 29.4018C5.75204 28.8672 5.38713 28.3358 5.00564 27.8153C4.88511 27.6497 4.90169 27.5555 5.04213 27.4203C5.62598 26.8619 6.20356 26.2973 6.77488 25.7266C6.92416 25.5773 7.04027 25.5643 7.2172 25.6909C7.72585 26.0513 8.24668 26.3933 8.76529 26.7352C9.36794 27.1302 9.85559 26.9517 10.0192 26.2677C10.1541 25.7104 10.3067 25.1542 10.3853 24.5882C10.4361 24.2235 10.5931 24.1207 10.9315 24.1607C11.0788 24.17 11.2265 24.17 11.3738 24.1607C11.3915 25.8219 11.7597 27.4149 12.3524 28.9635C12.1313 29.1193 11.8681 29.0933 11.6226 29.128C10.2957 29.3163 9.38563 30.0349 8.90683 31.235C8.44461 32.394 8.63149 33.4968 9.41659 34.4816C10.9282 36.3884 14.0454 36.1146 15.149 33.8702C15.2474 33.6732 15.2772 33.434 15.4895 33.3063Z" fill="#E6F6EC"/>
<path d="M25.6085 48.3002H22.5555C21.3845 48.2212 20.6093 47.389 20.5485 46.1207C20.5396 45.9248 20.5485 45.7279 20.5562 45.532C20.6755 45.446 20.8237 45.4073 20.9709 45.4238C23.049 45.418 25.1264 45.418 27.2031 45.4238C27.3508 45.4096 27.4983 45.4523 27.6144 45.5428C27.5967 45.9551 27.6575 46.3685 27.5459 46.7808C27.4275 47.2014 27.1764 47.5747 26.8286 47.8475C26.4807 48.1204 26.0538 48.2788 25.6085 48.3002Z" fill="#EAEAEA"/>
<path d="M27.6099 45.5418L20.5562 45.5354C20.5562 45.0967 20.5562 44.6588 20.5562 44.2216C20.6557 44.017 20.8514 44.0127 21.0372 44.0116C23.0821 44.003 25.1263 44.003 27.1698 44.0116C27.3302 44.0116 27.4949 44.0116 27.6121 44.1577L27.6099 45.5418Z" fill="#9E9E9E"/>
<path d="M27.6098 44.1532L20.9044 44.1446C20.7837 44.1343 20.6627 44.16 20.5572 44.2181C20.5572 43.6994 20.5546 43.1814 20.5494 42.6641C20.8838 42.7568 21.2303 42.801 21.5778 42.7951C23.2232 42.7886 24.8686 42.7886 26.514 42.7951C26.9148 42.808 27.3151 42.7595 27.7005 42.6511C27.528 43.1435 27.6707 43.6543 27.6098 44.1532Z" fill="#EAEAEA"/>
<path d="M36.7878 23.3296C35.8147 24.4713 34.5331 25.02 33.0492 24.9907C31.0333 24.9496 29.5029 24.0168 28.6393 22.2236C27.7857 20.4488 27.9936 18.7162 29.2265 17.1665C30.2029 15.9414 31.5166 15.3116 33.131 15.3527C33.5103 15.5464 33.7558 15.883 34.0156 16.1936C35.6131 18.1122 36.6004 20.4473 36.8553 22.9097C36.8651 23.0528 36.842 23.1963 36.7878 23.3296Z" fill="#FFD026"/>
<path d="M24.0869 37.2887C23.9531 37.2887 23.8193 37.2833 23.6855 37.2887C23.4411 37.3006 23.3726 37.1805 23.3538 36.9543C23.2211 35.3105 22.3829 34.106 20.9045 33.3441C20.0674 32.9112 19.1806 32.5768 18.3999 32.0357C16.7727 30.9155 15.5321 29.3374 14.8426 27.5111C14.3833 26.3667 14.1666 25.1428 14.2057 23.9139C14.2831 21.9421 14.8691 20.1327 16.0534 18.5029C16.7379 17.5691 17.5858 16.7612 18.558 16.1167C18.7626 15.9781 18.8654 15.9825 18.9871 16.2022C19.1452 16.4889 19.4648 16.7508 19.4791 17.0354C19.4968 17.3536 19.0368 17.4499 18.7924 17.6469C16.9944 19.0949 15.934 20.9692 15.6675 23.1996C15.4264 25.0733 15.8791 26.9695 16.9436 28.5446C17.92 30.0077 19.1916 31.1061 20.8481 31.7749C22.0589 32.2641 23.0829 32.9881 23.8193 34.0713C24.4275 34.9631 24.6918 35.9598 24.8035 37.0084C24.8245 37.2086 24.7404 37.3006 24.5292 37.2865C24.3822 37.2801 24.2351 37.2887 24.0869 37.2887Z" fill="#FFB900"/>
<path d="M24.8046 39.6915V39.7694C24.8046 40.805 24.6542 40.9273 23.6059 40.7498C23.4478 40.7228 23.3638 40.6514 23.3627 40.4966C23.3627 39.9479 23.3627 39.3982 23.3627 38.8495C23.3627 38.7077 23.4202 38.6266 23.5739 38.6331C23.6004 38.6331 23.627 38.6331 23.6535 38.6331C24.8046 38.5595 24.8046 38.5595 24.8046 39.6915Z" fill="#FFB900"/>
</g>
<defs>
<clipPath id="clip0_15027_87707">
<rect y="0.376953" width="48" height="48" rx="24" fill="white"/>
</clipPath>
</defs>
</svg>
