<svg width="50" height="51" viewBox="0 0 50 51" fill="none" xmlns="http://www.w3.org/2000/svg">
<rect y="0.376953" width="50" height="50" rx="12" fill="#E6F6EC"/>
<path d="M13 37.377L16.3333 34.0436M33.6667 16.7103L37 13.377M22.3333 24.0436L19.6667 26.7103M26.3333 28.0436L23.6667 30.7103M18.3333 25.377L25 32.0436L23 34.0436C22.5649 34.4931 22.0447 34.8515 21.4697 35.0979C20.8947 35.3443 20.2764 35.4738 19.6508 35.4789C19.0253 35.484 18.4049 35.3645 17.826 35.1275C17.2471 34.8904 16.7211 34.5405 16.2788 34.0982C15.8364 33.6558 15.4865 33.1299 15.2495 32.5509C15.0124 31.972 14.8929 31.3517 14.898 30.7261C14.9031 30.1006 15.0326 29.4823 15.279 28.9073C15.5255 28.3323 15.8839 27.8121 16.3333 27.377L18.3333 25.377ZM31.6667 25.377L25 18.7103L27 16.7103C27.4351 16.2608 27.9553 15.9024 28.5303 15.656C29.1053 15.4096 29.7236 15.2801 30.3492 15.275C30.9747 15.2699 31.5951 15.3894 32.174 15.6264C32.7529 15.8635 33.2789 16.2134 33.7212 16.6557C34.1636 17.0981 34.5135 17.624 34.7505 18.203C34.9876 18.7819 35.1071 19.4022 35.102 20.0278C35.0969 20.6533 34.9674 21.2716 34.721 21.8466C34.4745 22.4216 34.1161 22.9418 33.6667 23.377L31.6667 25.377Z" stroke="#16A75C" stroke-width="2" stroke-linecap="round" stroke-linejoin="round"/>
</svg>
