<svg width="28" height="29" viewBox="0 0 28 29" fill="none" xmlns="http://www.w3.org/2000/svg">
<rect y="0.376953" width="28" height="28" rx="14" fill="#F5F5F5"/>
<path d="M4.86951 11.3527C4.86951 10.0081 5.9596 8.91797 7.30429 8.91797H20.6956C22.0403 8.91797 23.1304 10.0081 23.1304 11.3528V19.8227C23.1304 21.1674 22.0403 22.2575 20.6956 22.2575H7.30429C5.9596 22.2575 4.86951 21.1674 4.86951 19.8227V11.3527Z" fill="#A4564A"/>
<path d="M4.86951 11.3528C4.86951 10.0081 5.9596 8.91797 7.30429 8.91797H20.6956C22.0403 8.91797 23.1304 10.0081 23.1304 11.3528V14.8876C23.1304 16.2398 22.0341 17.3361 20.6818 17.3361H7.31805C5.96576 17.3361 4.86951 16.2398 4.86951 14.8876V11.3528Z" fill="#C4714F"/>
<path d="M4.86951 10.7959C4.86951 9.75873 5.71027 8.91797 6.7474 8.91797H21.2525C22.2896 8.91797 23.1304 9.75873 23.1304 10.7959C23.1304 11.833 22.2896 12.6737 21.2525 12.6737H6.7474C5.71027 12.6737 4.86951 11.833 4.86951 10.7959Z" fill="#E48B53"/>
<rect x="12.4658" y="8.91797" width="3.06835" height="3.75578" fill="#CD7D4B"/>
<rect x="12.4658" y="12.6738" width="3.06835" height="4.66235" fill="#A76043"/>
<rect x="12.4658" y="17.3362" width="3.06835" height="4.92137" fill="#83453B"/>
<path d="M12.4658 16.0276C12.4658 15.5768 12.8312 15.2114 13.282 15.2114H14.718C15.1688 15.2114 15.5342 15.5768 15.5342 16.0276V17.5986C15.5342 18.4459 14.8473 19.1328 14 19.1328C13.1527 19.1328 12.4658 18.4459 12.4658 17.5986V16.0276Z" fill="#FFC800"/>
<circle cx="14" cy="17.655" r="0.862296" fill="#FF9500"/>
<circle cx="9.427" cy="10.796" r="1.10388" fill="#A4564A"/>
<circle cx="18.6924" cy="10.796" r="1.10388" fill="#A4564A"/>
<path d="M10.3028 6.49634C9.49927 6.49634 8.8479 7.21985 8.8479 8.11234V10.7672C8.8479 11.0979 9.11593 11.3659 9.44656 11.3659C9.77719 11.3659 10.0452 11.0979 10.0452 10.7672V8.70905C10.0452 8.11405 10.4795 7.63171 11.0151 7.63171H17.0776C17.6133 7.63171 18.0475 8.11405 18.0475 8.70905V10.7618C18.0475 11.0954 18.318 11.3659 18.6517 11.3659C18.9853 11.3659 19.2558 11.0954 19.2558 10.7618V8.11234C19.2558 7.21985 18.6044 6.49634 17.8009 6.49634H10.3028Z" fill="#7D6C76"/>
</svg>
