<svg width="28" height="29" viewBox="0 0 28 29" fill="none" xmlns="http://www.w3.org/2000/svg">
<rect y="0.376953" width="28" height="28" rx="14" fill="#F5F5F5"/>
<path d="M18.2335 8.09125C18.2335 7.83482 18.4414 7.62695 18.6978 7.62695H19.9733C20.2298 7.62695 20.4376 7.83482 20.4376 8.09125H18.2335Z" fill="#3E3B71"/>
<path d="M8.25623 8.09125C8.25623 7.65172 8.61254 7.29541 9.05207 7.29541H11.0591V8.09125H8.25623Z" fill="#3E3B71"/>
<path d="M9.08704 8.09125C9.08704 7.65172 9.44335 7.29541 9.88288 7.29541H11.0941C11.5336 7.29541 11.8899 7.65172 11.8899 8.09125H9.08704Z" fill="#6966B7"/>
<path d="M4.56519 10.5119C4.56519 9.16724 5.65527 8.07715 6.99997 8.07715H18.8881C20.2328 8.07715 21.3228 9.16724 21.3228 10.5119V19.024C21.3228 20.3687 20.2328 21.4588 18.8881 21.4588H6.99997C5.65527 21.4588 4.56519 20.3687 4.56519 19.024V10.5119Z" fill="#1976D2"/>
<path d="M6.72571 10.5119C6.72571 9.16724 7.8158 8.07715 9.16049 8.07715H21C22.3447 8.07715 23.4348 9.16724 23.4348 10.5119V19.024C23.4348 20.3687 22.3447 21.4588 21 21.4588H9.16049C7.8158 21.4588 6.72571 20.3687 6.72571 19.024V10.5119Z" fill="#2196F3"/>
<path d="M8.51294 9.79706C8.51294 9.58661 8.68354 9.41602 8.89398 9.41602H10.2765C10.4869 9.41602 10.6575 9.58661 10.6575 9.79706C10.6575 10.0075 10.4869 10.1781 10.2765 10.1781H8.89398C8.68354 10.1781 8.51294 10.0075 8.51294 9.79706Z" fill="#3E3B71"/>
<path d="M19.8085 20.0843C19.8085 19.8534 19.9956 19.6663 20.2265 19.6663H21.3842C21.6151 19.6663 21.8022 19.8534 21.8022 20.0843C21.8022 20.3151 21.6151 20.5023 21.3842 20.5023H20.2265C19.9956 20.5023 19.8085 20.3151 19.8085 20.0843Z" fill="#E3E7ED"/>
<path d="M18.5432 9.79716C18.5432 9.47664 18.8031 9.2168 19.1236 9.2168H21.1539C21.4744 9.2168 21.7343 9.47664 21.7343 9.79716C21.7343 10.1177 21.4744 10.3775 21.1539 10.3775H19.1236C18.8031 10.3775 18.5432 10.1177 18.5432 9.79716Z" fill="#3E3B71"/>
<path d="M18.5432 9.79716C18.5432 9.47664 18.8031 9.2168 19.1236 9.2168H20.7425C21.063 9.2168 21.3229 9.47664 21.3229 9.79716C21.3229 10.1177 21.063 10.3775 20.7425 10.3775H19.1236C18.8031 10.3775 18.5432 10.1177 18.5432 9.79716Z" fill="#E3F2FD"/>
<circle cx="13.8807" cy="14.9195" r="3.59673" fill="#2A2546"/>
<circle cx="16.7806" cy="14.9195" r="2.89998" fill="#D9D9D9"/>
<circle cx="16.0469" cy="14.9196" r="4.54215" fill="#555580"/>
<circle cx="16.7806" cy="14.9196" r="4.54215" fill="#E3F2FD"/>
<circle cx="16.7806" cy="14.9197" r="3.44092" fill="#393455"/>
<circle cx="16.7805" cy="14.9197" r="2.56302" fill="#555580"/>
<circle cx="16.7806" cy="14.9196" r="1.72083" fill="#363153"/>
<circle cx="16.4708" cy="14.3706" r="0.548853" fill="white"/>
</svg>
