<svg width="48" height="48" viewBox="0 0 48 48" fill="none" xmlns="http://www.w3.org/2000/svg">
<circle cx="24" cy="24" r="24" fill="#F5F5F5"/>
<mask id="mask0_15048_24429" style="mask-type:alpha" maskUnits="userSpaceOnUse" x="11" y="8" width="26" height="21">
<path d="M11.5254 19.9203C12.0106 26.9129 18.1732 28.5184 21.1938 28.447V19.6349C22.8492 17.2374 25.9507 17.1375 27.2945 17.3872C33.2026 17.9866 35.8451 14.4974 36.4278 12.6779C31.6043 7.71168 24.262 8.01612 21.1938 8.78912C17.7688 9.5859 11.0402 12.9276 11.5254 19.9203Z" fill="#D9D9D9"/>
</mask>
<g mask="url(#mask0_15048_24429)">
<rect x="11.3579" y="19.6221" width="9.8468" height="9.56138" fill="#FFD026"/>
<rect x="11.3579" y="8.34821" width="9.8468" height="11.2739" fill="#FFA600"/>
<rect x="21.2046" y="8.34821" width="5.77964" height="11.2739" fill="#F44336"/>
<rect x="26.9844" y="8.34821" width="9.91815" height="11.1312" fill="#D32F2F"/>
</g>
<mask id="mask1_15048_24429" style="mask-type:alpha" maskUnits="userSpaceOnUse" x="11" y="19" width="26" height="21">
<path d="M36.4741 28.0797C35.9889 21.0871 29.8264 19.4816 26.8057 19.553L26.8057 28.3651C25.1503 30.7626 22.0488 30.8625 20.705 30.6128C14.7969 30.0134 12.1544 33.5026 11.5717 35.3221C16.3952 40.2883 23.7375 39.9839 26.8057 39.2109C30.2307 38.4141 36.9593 35.0724 36.4741 28.0797Z" fill="#D9D9D9"/>
</mask>
<g mask="url(#mask1_15048_24429)">
<rect x="36.6416" y="28.3779" width="9.8468" height="9.56138" transform="rotate(180 36.6416 28.3779)" fill="#8BC13F"/>
<rect x="36.6416" y="39.6517" width="9.8468" height="11.2739" transform="rotate(180 36.6416 39.6517)" fill="#0E7165"/>
<rect x="26.7949" y="39.6517" width="5.77964" height="11.2739" transform="rotate(180 26.7949 39.6517)" fill="#1976D2"/>
<rect x="21.0151" y="39.6517" width="9.91815" height="11.1312" transform="rotate(180 21.0151 39.6517)" fill="#2196F3"/>
</g>
</svg>
