<svg width="28" height="29" viewBox="0 0 28 29" fill="none" xmlns="http://www.w3.org/2000/svg">
<g clip-path="url(#clip0_15027_87480)">
<rect y="0.376953" width="28" height="28" rx="14" fill="#F5F5F5"/>
<path d="M5.05469 24.5475C5.05469 21.0972 7.85164 18.3003 11.3019 18.3003H16.7261C20.1764 18.3003 22.9733 21.0972 22.9733 24.5475V30.7336H5.05469V24.5475Z" fill="#1FB767"/>
<path d="M8.11926 6.83973C8.11926 5.56425 9.15324 4.53027 10.4287 4.53027H17.5087C18.7842 4.53027 19.8182 5.56425 19.8182 6.83973V11.3707H8.11926V6.83973Z" fill="#44403F"/>
<path d="M11.5574 15.8508H16.4426V19.9342H11.5574V15.8508Z" fill="#FFAB80"/>
<path d="M11.5574 15.8508H16.4426V19.9342H11.5574V15.8508Z" fill="#FFAB80"/>
<path d="M16.4426 17.2193V15.8508H11.5574V17.3536C12.2534 17.7001 13.0379 17.8953 13.868 17.8962H13.8798C14.8118 17.8952 15.6863 17.6492 16.4426 17.2193Z" fill="#E49972"/>
<path d="M9.96082 7.09283L9.96097 7.0943C9.98866 7.35113 10.037 7.5407 10.1138 7.61895C10.3665 7.87631 13.8171 7.81913 16.4628 7.73572C17.7929 7.69379 18.9001 6.82872 19.3216 5.64014C19.2204 5.18258 18.8124 4.84033 18.3244 4.84033H13.5049C11.9445 4.84033 10.4583 5.75242 9.96082 7.09283Z" fill="#34302F"/>
<path d="M18.4838 14.0999C18.562 13.9511 18.597 13.7841 18.597 13.616V12.7192C19.0362 12.7243 19.5587 12.4296 19.9335 11.9192C20.4534 11.2112 20.4923 10.3563 20.0203 10.0097C19.6508 9.73839 19.0778 9.85898 18.597 10.2638V8.16059C18.597 7.52285 18.08 7.00586 17.4422 7.00586H10.3055C9.66775 7.00586 9.15075 7.52285 9.15075 8.16059V10.1441C8.7457 9.82556 8.28214 9.72544 7.94331 9.92997C7.44198 10.2326 7.40354 11.0875 7.85746 11.8395C8.19327 12.3958 8.70447 12.74 9.15075 12.7589V13.616C9.15075 13.7841 9.1857 13.9511 9.26392 14.0999C10.134 15.7546 11.869 16.8836 13.8679 16.8858H13.8798C15.8787 16.8836 17.6137 15.7546 18.4838 14.0999Z" fill="#FFAB80"/>
<path d="M18.6093 13.6037C18.6093 13.7718 18.5743 13.9388 18.496 14.0875C17.6246 15.7423 15.8871 16.8713 13.8852 16.8735H13.8734C11.8716 16.8713 10.134 15.7423 9.26262 14.0875C9.18429 13.9388 9.14929 13.7718 9.14929 13.6037V12.6733C9.14929 12.3701 9.37244 12.1131 9.67264 12.0706L12.8598 11.6193C13.54 11.5229 14.2304 11.5231 14.9106 11.6196L18.0862 12.0704C18.3863 12.1131 18.6093 12.37 18.6093 12.6731V13.6037Z" fill="#1FB767"/>
<path d="M9.7022 6.57976C9.4951 4.66711 11.2966 3.20459 13.2204 3.20459H17.2296C17.8516 3.20459 18.3558 3.70881 18.3558 4.33079C18.3558 5.93685 17.2679 7.35234 15.6759 7.56431C15.0451 7.64829 14.3614 7.71272 13.6933 7.72589C11.7828 7.76354 10.0115 7.24313 9.83895 7.05952C9.77094 6.98714 9.72759 6.81428 9.7022 6.57976Z" fill="#44403F"/>
<path fill-rule="evenodd" clip-rule="evenodd" d="M10.0077 18.5847C10.0077 18.4845 9.90818 18.4148 9.81404 18.449L9.24426 18.6563C9.18723 18.6771 9.14926 18.7313 9.14926 18.792V21.5777C9.14926 21.6421 9.1063 21.6981 9.04579 21.7201C8.44911 21.9376 8.02307 22.51 8.02307 23.1819C8.02307 24.041 8.71946 24.7374 9.57849 24.7374C10.4375 24.7374 11.1339 24.041 11.1339 23.1819C11.1339 22.51 10.7079 21.9376 10.1112 21.7201C10.0507 21.6981 10.0077 21.6421 10.0077 21.5777V18.5847ZM9.57849 23.9774C9.13917 23.9774 8.78303 23.6213 8.78303 23.1819C8.78303 22.7426 9.13917 22.3865 9.57849 22.3865C10.0178 22.3865 10.374 22.7426 10.374 23.1819C10.374 23.6213 10.0178 23.9774 9.57849 23.9774Z" fill="#424242"/>
<path d="M17.4606 24.473C17.4606 24.3666 17.3782 24.2803 17.2766 24.2803H17.1753C17.0737 24.2803 16.9913 24.3666 16.9913 24.473V25.1464C16.9913 25.3058 17.1206 25.4351 17.28 25.4351H17.529C17.6307 25.4351 17.713 25.3488 17.713 25.2424V25.171C17.713 25.098 17.6565 25.0388 17.5868 25.0388C17.5171 25.0388 17.4606 24.9796 17.4606 24.9067V24.473Z" fill="#EEEEEE"/>
<path d="M19.5147 24.473C19.5147 24.3666 19.597 24.2803 19.6986 24.2803H19.8C19.9016 24.2803 19.9839 24.3666 19.9839 24.473V25.1464C19.9839 25.3058 19.8547 25.4351 19.6953 25.4351H19.4462C19.3446 25.4351 19.2622 25.3488 19.2622 25.2424V25.171C19.2622 25.098 19.3187 25.0388 19.3884 25.0388C19.4582 25.0388 19.5147 24.9796 19.5147 24.9067V24.473Z" fill="#EEEEEE"/>
<path d="M18.9016 18.7792C18.9016 18.7182 18.8632 18.6637 18.8057 18.6432L18.233 18.4394C18.1391 18.4059 18.0403 18.4756 18.0403 18.5754V20.8895C18.0403 20.9546 17.9964 21.011 17.935 21.0324C17.2966 21.2542 16.8385 21.861 16.8385 22.5749V24.3726C16.8385 24.4523 16.9031 24.5169 16.9828 24.5169H17.4911C17.5708 24.5169 17.6354 24.4523 17.6354 24.3726V22.6956C17.6354 22.2341 18.0095 21.86 18.4709 21.86C18.9324 21.86 19.3065 22.2341 19.3065 22.6956V24.3726C19.3065 24.4523 19.3711 24.5169 19.4508 24.5169H19.9591C20.0388 24.5169 20.1034 24.4523 20.1034 24.3726V22.5749C20.1034 21.861 19.6453 21.2542 19.0069 21.0324C18.9455 21.011 18.9016 20.9546 18.9016 20.8895V18.7792Z" fill="#424242"/>
<path d="M13.6874 19.5351L11.5532 17.8928C11.223 17.6387 10.7225 17.9285 10.856 18.2966L13.6971 26.133C13.7825 26.3684 14.16 26.3692 14.2467 26.1342L17.14 18.286C17.2752 17.9192 16.7781 17.6272 16.4461 17.8785L14.2543 19.5372C14.091 19.6607 13.8495 19.6598 13.6874 19.5351Z" fill="#424242"/>
<path d="M13.4419 20.7964L13.8915 20.2796C13.9504 20.2119 14.074 20.2138 14.1297 20.2833L14.5422 20.7976C14.5577 20.8169 14.5659 20.8395 14.5659 20.8625V21.2074C14.5659 21.2272 14.5598 21.2466 14.5483 21.264L14.4253 21.4485C14.4083 21.4741 14.4034 21.504 14.4116 21.5324L15.087 23.8668C15.0925 23.8858 15.0923 23.9052 15.0861 23.924C14.9976 24.1946 14.7695 26.31 13.9893 26.31C13.2091 26.31 12.986 24.1989 12.8968 23.9249C12.8905 23.9054 12.8905 23.8855 12.8966 23.866L13.621 21.5422C13.6316 21.5081 13.6232 21.4718 13.5979 21.4434L13.4427 21.2686C13.4248 21.2484 13.4151 21.2241 13.4151 21.1991V20.865C13.4151 20.8404 13.4245 20.8164 13.4419 20.7964Z" fill="#FFC800"/>
<path d="M12.7924 21.0123H13.373L11.6409 18.7739L12.4664 21.9494L12.7924 21.0123Z" fill="#616161"/>
<path d="M15.2912 21.0123H14.7105L16.4426 18.7739L15.6172 21.9494L15.2912 21.0123Z" fill="#616161"/>
</g>
<defs>
<clipPath id="clip0_15027_87480">
<rect y="0.376953" width="28" height="28" rx="14" fill="white"/>
</clipPath>
</defs>
</svg>
