<svg width="18" height="20" viewBox="0 0 18 20" fill="none" xmlns="http://www.w3.org/2000/svg">
<path d="M9.33238 0.877834C9.2339 0.812305 9.11826 0.777344 8.99998 0.777344C8.88169 0.777344 8.76605 0.812305 8.66757 0.877834C6.40214 2.40507 3.81972 3.3984 1.11478 3.78303C0.971856 3.80354 0.841123 3.87489 0.746562 3.984C0.652002 4.0931 0.599956 4.23265 0.599976 4.37703V9.77703C0.599976 14.4462 3.36838 17.853 8.78397 19.9374C8.92298 19.9911 9.07697 19.9911 9.21598 19.9374C14.6316 17.853 17.4 14.445 17.4 9.77703V4.37703C17.4 4.23247 17.3477 4.09278 17.2529 3.98364C17.1581 3.87451 17.0271 3.80327 16.884 3.78303C14.1794 3.39823 11.5975 2.4049 9.33238 0.877834ZM8.99998 9.77703C8.36346 9.77703 7.75301 9.52418 7.30292 9.07409C6.85283 8.624 6.59998 8.01355 6.59998 7.37703C6.59998 6.74051 6.85283 6.13006 7.30292 5.67998C7.75301 5.22989 8.36346 4.97703 8.99998 4.97703C9.63649 4.97703 10.2469 5.22989 10.697 5.67998C11.1471 6.13006 11.4 6.74051 11.4 7.37703C11.4 8.01355 11.1471 8.624 10.697 9.07409C10.2469 9.52418 9.63649 9.77703 8.99998 9.77703ZM8.99998 15.777C5.99998 15.777 4.79998 14.277 4.79998 12.777C4.79998 12.2996 4.98962 11.8418 5.32718 11.5042C5.66475 11.1667 6.12259 10.977 6.59998 10.977H11.4C11.8774 10.977 12.3352 11.1667 12.6728 11.5042C13.0103 11.8418 13.2 12.2996 13.2 12.777C13.2 14.271 12 15.777 8.99998 15.777Z" fill="#16A75C"/>
</svg>
