<svg width="49" height="49" viewBox="0 0 49 49" fill="none" xmlns="http://www.w3.org/2000/svg">
<g clip-path="url(#clip0_15652_213544)">
<rect x="0.5" y="0.861328" width="48" height="48" rx="24" fill="#FAFAFA"/>
<g clip-path="url(#clip1_15652_213544)">
<path d="M7.20523 18.3486C7.20523 16.1395 8.99609 14.3486 11.2052 14.3486H38.0306C40.2398 14.3486 42.0306 16.1395 42.0306 18.3486V47.7255H7.20523V18.3486Z" fill="#2196F3"/>
<path d="M11.0265 20.6904C11.0582 20.2885 11.3937 19.9785 11.7968 19.9785H39.1659C39.7373 19.9785 40.1926 20.4565 40.1647 21.0272L38.899 46.9907C38.8789 47.4023 38.5393 47.7258 38.1271 47.7258H9.72697C9.27619 47.7258 8.9211 47.3415 8.9566 46.8922L11.0265 20.6904Z" fill="#1976D2"/>
<path d="M11.2187 18.1826C11.2187 17.6303 11.6664 17.1826 12.2187 17.1826H37.0171C37.5694 17.1826 38.0171 17.6303 38.0171 18.1826V46.9529C38.0171 47.3797 37.6712 47.7256 37.2444 47.7256H11.9915C11.5647 47.7256 11.2187 47.3797 11.2187 46.9529V18.1826Z" fill="white"/>
<path fill-rule="evenodd" clip-rule="evenodd" d="M15.5281 22.5029C15.0242 22.5029 14.541 22.7031 14.1847 23.0594C13.8284 23.4157 13.6283 23.8989 13.6283 24.4028V28.2024C13.6283 28.7063 13.8284 29.1895 14.1847 29.5458C14.541 29.9021 15.0242 30.1023 15.5281 30.1023H19.3278C19.8316 30.1023 20.3149 29.9021 20.6712 29.5458C21.0274 29.1895 21.2276 28.7063 21.2276 28.2024V24.4028C21.2276 23.8989 21.0274 23.4157 20.6712 23.0594C20.3149 22.7031 19.8316 22.5029 19.3278 22.5029H15.5281ZM18.8452 25.8026C18.8793 25.7661 18.906 25.7233 18.9236 25.6766C18.9412 25.6299 18.9494 25.5802 18.9477 25.5303C18.9461 25.4804 18.9347 25.4313 18.9141 25.3859C18.8935 25.3404 18.8642 25.2994 18.8277 25.2653C18.7913 25.2312 18.7485 25.2045 18.7018 25.1869C18.6551 25.1694 18.6054 25.1611 18.5555 25.1628C18.5056 25.1644 18.4565 25.1758 18.411 25.1964C18.3656 25.217 18.3246 25.2463 18.2905 25.2828L17.119 26.5329L16.5403 26.0188C16.4645 25.9557 16.3672 25.9246 16.2688 25.9321C16.1705 25.9395 16.0789 25.9848 16.0134 26.0585C15.9479 26.1322 15.9136 26.2285 15.9178 26.327C15.922 26.4255 15.9643 26.5185 16.0357 26.5864L16.8907 27.3464C16.9646 27.4121 17.0613 27.4463 17.1602 27.4419C17.259 27.4374 17.3522 27.3946 17.42 27.3224L18.8452 25.8026Z" fill="#16A75C"/>
<path fill-rule="evenodd" clip-rule="evenodd" d="M15.5281 33.3049C14.8986 33.3049 14.3882 33.8152 14.3882 34.4448V38.2444C14.3882 38.874 14.8986 39.3843 15.5281 39.3843H19.3278C19.9574 39.3843 20.4677 38.874 20.4677 38.2444V34.4448C20.4677 33.8152 19.9574 33.3049 19.3278 33.3049H15.5281ZM13.6283 34.4448C13.6283 33.3955 14.4789 32.5449 15.5281 32.5449H19.3278C20.3771 32.5449 21.2276 33.3955 21.2276 34.4448V38.2444C21.2276 39.2937 20.3771 40.1443 19.3278 40.1443H15.5281C14.4789 40.1443 13.6283 39.2937 13.6283 38.2444V34.4448Z" fill="#EEEEEE"/>
<path d="M24.0743 24.7894C24.0743 24.3626 24.4203 24.0166 24.847 24.0166H32.5748C33.0015 24.0166 33.3475 24.3626 33.3475 24.7894C33.3475 25.2162 33.0015 25.5621 32.5748 25.5621H24.847C24.4203 25.5621 24.0743 25.2162 24.0743 24.7894Z" fill="#9BDBB3"/>
<path d="M24.0743 27.8163C24.0743 27.3895 24.4203 27.0435 24.847 27.0435H30.0873C30.5141 27.0435 30.8601 27.3895 30.8601 27.8163C30.8601 28.2431 30.5141 28.5891 30.0873 28.5891H24.8471C24.4203 28.5891 24.0743 28.2431 24.0743 27.8163Z" fill="#9BDBB3"/>
<path d="M24.0743 34.8638C24.0743 34.437 24.4203 34.0911 24.847 34.0911H32.5748C33.0015 34.0911 33.3475 34.437 33.3475 34.8638C33.3475 35.2906 33.0015 35.6366 32.5748 35.6366H24.847C24.4203 35.6366 24.0743 35.2906 24.0743 34.8638Z" fill="#E0E0E0"/>
<path d="M24.0743 37.8251C24.0743 37.3983 24.4203 37.0523 24.847 37.0523H28.4392C28.866 37.0523 29.212 37.3983 29.212 37.8251C29.212 38.2519 28.866 38.5978 28.4392 38.5978H24.8471C24.4203 38.5978 24.0743 38.2519 24.0743 37.8251Z" fill="#E0E0E0"/>
<path d="M27.674 14.3372C27.7967 13.995 27.8635 13.6261 27.8635 13.2417C27.8635 11.4492 26.4104 9.99609 24.6179 9.99609C22.8254 9.99609 21.3723 11.4492 21.3723 13.2417C21.3723 13.6261 21.4392 13.995 21.5619 14.3372H20.4554C18.6742 14.3372 17.2303 16.5199 17.2303 18.3011C17.2303 18.8948 17.7116 19.3761 18.3053 19.3761H30.9306C31.5243 19.3761 32.0056 18.8948 32.0056 18.3011C32.0056 16.5199 30.5617 14.3372 28.7805 14.3372H27.674Z" fill="#FFB900"/>
<path d="M17.3106 17.5439C17.258 17.7995 17.2303 18.0541 17.2303 18.3011C17.2303 18.8948 17.7116 19.3761 18.3053 19.3761H30.9306C31.5243 19.3761 32.0056 18.8948 32.0056 18.3011C32.0056 18.0541 31.9779 17.7995 31.9253 17.5439C31.7645 17.9351 31.3797 18.2105 30.9306 18.2105H18.3053C17.8562 18.2105 17.4714 17.9351 17.3106 17.5439Z" fill="#FF9500"/>
<circle cx="24.618" cy="13.0916" r="1.66879" fill="white"/>
</g>
</g>
<defs>
<clipPath id="clip0_15652_213544">
<rect x="0.5" y="0.861328" width="48" height="48" rx="24" fill="white"/>
</clipPath>
<clipPath id="clip1_15652_213544">
<rect width="36" height="39" fill="white" transform="translate(6.5 9.36133)"/>
</clipPath>
</defs>
</svg>
