<svg width="20" height="22" viewBox="0 0 20 22" fill="none" xmlns="http://www.w3.org/2000/svg">
<path d="M10.9999 0.0913086V6.94845C10.9999 7.40311 11.1806 7.83914 11.5021 8.16063C11.8235 8.48213 12.2596 8.66274 12.7142 8.66274H19.5705L19.5714 8.72959V18.6056C19.5714 19.1512 19.3546 19.6744 18.9689 20.0602C18.5831 20.446 18.0598 20.6627 17.5142 20.6627H10.8542C10.9485 20.3945 10.9999 20.1056 10.9999 19.8056V15.5199C11.0001 14.9121 10.785 14.3238 10.3927 13.8595C10.0005 13.3952 9.45641 13.0849 8.85709 12.9836V12.9485C8.85738 12.1882 8.605 11.4495 8.13964 10.8484C7.67427 10.2472 7.02232 9.81781 6.28629 9.62762C5.55025 9.43743 4.77188 9.49725 4.07355 9.79769C3.37523 10.0981 2.79655 10.6221 2.42852 11.2873V2.14845C2.42852 1.60286 2.64525 1.07962 3.03104 0.693832C3.41683 0.308043 3.94007 0.0913086 4.48566 0.0913086H10.9999ZM12.2857 0.498451V6.94845C12.2857 7.06212 12.3308 7.17112 12.4112 7.2515C12.4916 7.33187 12.6006 7.37702 12.7142 7.37702H19.1445C19.0661 7.26499 18.9781 7.16002 18.8814 7.06331L12.5119 0.69388C12.4414 0.623337 12.3657 0.558022 12.2857 0.498451ZM2.85709 13.8056H2.42852C1.97386 13.8056 1.53783 13.9862 1.21634 14.3077C0.894845 14.6292 0.714233 15.0652 0.714233 15.5199V19.8056C0.714233 20.2603 0.894845 20.6963 1.21634 21.0178C1.53783 21.3393 1.97386 21.5199 2.42852 21.5199H8.42852C8.88318 21.5199 9.31921 21.3393 9.6407 21.0178C9.96219 20.6963 10.1428 20.2603 10.1428 19.8056V15.5199C10.1428 15.0652 9.96219 14.6292 9.6407 14.3077C9.31921 13.9862 8.88318 13.8056 8.42852 13.8056H7.99995V12.9485C7.99995 12.2665 7.72903 11.6124 7.24679 11.1302C6.76456 10.6479 6.1105 10.377 5.42852 10.377C4.74653 10.377 4.09248 10.6479 3.61024 11.1302C3.12801 11.6124 2.85709 12.2665 2.85709 12.9485V13.8056ZM4.1428 12.9485C4.1428 12.6075 4.27826 12.2804 4.51938 12.0393C4.7605 11.7982 5.08753 11.6627 5.42852 11.6627C5.76951 11.6627 6.09654 11.7982 6.33766 12.0393C6.57877 12.2804 6.71423 12.6075 6.71423 12.9485V13.8056H4.1428V12.9485ZM6.71423 17.6627C6.71423 18.0037 6.57877 18.3308 6.33766 18.5719C6.09654 18.813 5.76951 18.9485 5.42852 18.9485C5.08753 18.9485 4.7605 18.813 4.51938 18.5719C4.27826 18.3308 4.1428 18.0037 4.1428 17.6627C4.1428 17.3217 4.27826 16.9947 4.51938 16.7536C4.7605 16.5125 5.08753 16.377 5.42852 16.377C5.76951 16.377 6.09654 16.5125 6.33766 16.7536C6.57877 16.9947 6.71423 17.3217 6.71423 17.6627Z" fill="#16A75C"/>
</svg>
