<svg width="24" height="24" viewBox="0 0 24 24" fill="none" xmlns="http://www.w3.org/2000/svg">
<g clip-path="url(#clip0_276_303)">
<path fill-rule="evenodd" clip-rule="evenodd" d="M8.90662 10.9046C10.6837 10.9046 12.1244 9.46392 12.1244 7.68681C12.1244 5.90971 10.6837 4.46908 8.90662 4.46908C7.12951 4.46908 5.68888 5.90971 5.68888 7.68681C5.68888 9.46392 7.12951 10.9046 8.90662 10.9046ZM8.90662 13.0562C11.8721 13.0562 14.276 10.6523 14.276 7.68681C14.276 4.72136 11.8721 2.31738 8.90662 2.31738C5.94116 2.31738 3.53719 4.72136 3.53719 7.68681C3.53719 10.6523 5.94116 13.0562 8.90662 13.0562Z" fill="#C3E9D0"/>
<path fill-rule="evenodd" clip-rule="evenodd" d="M15.2346 3.43002C15.2885 2.8383 15.8119 2.40232 16.4036 2.45623C19.1142 2.70318 21.2368 4.98059 21.2368 7.75499C21.2368 10.5294 19.1142 12.8068 16.4036 13.0537C15.8119 13.1077 15.2885 12.6717 15.2346 12.0799C15.1807 11.4882 15.6167 10.9648 16.2084 10.9109C17.8211 10.764 19.0851 9.4065 19.0851 7.75499C19.0851 6.10347 17.8211 4.74597 16.2084 4.59905C15.6167 4.54514 15.1807 4.02175 15.2346 3.43002Z" fill="#C3E9D0"/>
<path fill-rule="evenodd" clip-rule="evenodd" d="M6.16541 14.4686C6.97149 14.1347 7.83544 13.9628 8.70794 13.9628C9.58044 13.9628 10.4444 14.1347 11.2505 14.4686C12.0566 14.8025 12.789 15.2919 13.4059 15.9088C14.0229 16.5257 14.5123 17.2582 14.8462 18.0643C15.18 18.8703 15.3519 19.7343 15.3519 20.6068C15.3519 21.201 14.8702 21.6826 14.276 21.6826C13.6819 21.6826 13.2002 21.201 13.2002 20.6068C13.2002 20.0169 13.084 19.4327 12.8583 18.8877C12.6325 18.3426 12.3016 17.8474 11.8844 17.4303C11.4673 17.0131 10.9721 16.6822 10.4271 16.4565C9.88203 16.2307 9.29787 16.1145 8.70794 16.1145C8.11801 16.1145 7.53385 16.2307 6.98882 16.4565C6.4438 16.6822 5.94857 17.0131 5.53143 17.4303C5.11428 17.8474 4.78338 18.3426 4.55763 18.8877C4.33187 19.4327 4.21567 20.0169 4.21567 20.6068C4.21567 21.201 3.734 21.6826 3.13983 21.6826C2.54565 21.6826 2.06398 21.201 2.06398 20.6068C2.06398 19.7343 2.23583 18.8703 2.56972 18.0643C2.90361 17.2582 3.393 16.5257 4.00995 15.9088C4.6269 15.2919 5.35932 14.8025 6.16541 14.4686Z" fill="#C3E9D0"/>
<path fill-rule="evenodd" clip-rule="evenodd" d="M15.2642 14.9357C15.3779 14.3525 15.9429 13.9719 16.526 14.0857C16.9603 14.1704 17.3861 14.2984 17.7969 14.4686C18.603 14.8025 19.3354 15.2919 19.9524 15.9088C20.5693 16.5258 21.0587 17.2582 21.3926 18.0643C21.7265 18.8703 21.8983 19.7343 21.8983 20.6068C21.8983 21.201 21.4167 21.6826 20.8225 21.6826C20.2283 21.6826 19.7466 21.201 19.7466 20.6068C19.7466 20.0169 19.6304 19.4327 19.4047 18.8877C19.1789 18.3427 18.848 17.8474 18.4309 17.4303C18.0137 17.0131 17.5185 16.6822 16.9735 16.4565C16.6957 16.3414 16.4079 16.2548 16.1142 16.1976C15.531 16.0839 15.1504 15.5189 15.2642 14.9357Z" fill="#C3E9D0"/>
</g>
<defs>
<clipPath id="clip0_276_303">
<rect width="20" height="20" fill="white" transform="translate(2 2)"/>
</clipPath>
</defs>
</svg>
