<svg width="50" height="51" viewBox="0 0 50 51" fill="none" xmlns="http://www.w3.org/2000/svg">
<rect y="0.376953" width="50" height="50" rx="12" fill="#E6F6EC"/>
<path d="M28.672 22.7103C29.96 22.7103 31.0053 23.7556 31.0053 25.0436V31.3756C31.0053 32.9673 30.373 34.4937 29.2475 35.6192C28.1221 36.7447 26.5956 37.377 25.004 37.377C23.4123 37.377 21.8858 36.7447 20.7604 35.6192C19.6349 34.4937 19.0026 32.9673 19.0026 31.3756V25.0436C19.0026 23.7556 20.0466 22.7103 21.336 22.7103H28.672ZM28.672 24.7103H21.336C21.2476 24.7103 21.1628 24.7454 21.1003 24.8079C21.0377 24.8704 21.0026 24.9552 21.0026 25.0436V31.3756C21.0026 32.4368 21.4242 33.4546 22.1746 34.205C22.925 34.9554 23.9427 35.377 25.004 35.377C26.0652 35.377 27.0829 34.9554 27.8333 34.205C28.5837 33.4546 29.0053 32.4368 29.0053 31.3756V25.0436C29.0053 24.9552 28.9702 24.8704 28.9077 24.8079C28.8451 24.7454 28.7604 24.7103 28.672 24.7103ZM14 22.7103H18.508C18.0376 23.2784 17.7503 23.9757 17.684 24.7103H14C13.9116 24.7103 13.8268 24.7454 13.7643 24.8079C13.7017 24.8704 13.6666 24.9552 13.6666 25.0436V29.3756C13.6665 29.8795 13.7806 30.3768 14.0003 30.8302C14.22 31.2836 14.5396 31.6814 14.9351 31.9936C15.3305 32.3058 15.7916 32.5243 16.2836 32.6327C16.7757 32.7411 17.2859 32.7367 17.776 32.6196C17.8893 33.2916 18.096 33.933 18.38 34.529C17.5897 34.7404 16.7613 34.7672 15.959 34.6074C15.1567 34.4475 14.4019 34.1053 13.753 33.6072C13.104 33.109 12.5783 32.4683 12.2166 31.7346C11.8548 31.0008 11.6666 30.1937 11.6666 29.3756V25.0436C11.6666 23.7556 12.712 22.7103 14 22.7103ZM31.5 22.7103H36C37.288 22.7103 38.3333 23.7556 38.3333 25.0436V29.377C38.3335 30.1945 38.1457 31.0012 37.7845 31.7346C37.4233 32.468 36.8983 33.1086 36.25 33.6068C35.6018 34.105 34.8478 34.4475 34.0461 34.6079C33.2444 34.7682 32.4166 34.7421 31.6266 34.5316C31.912 33.9343 32.1186 33.293 32.2333 32.621C32.7227 32.7366 33.232 32.74 33.723 32.631C34.2139 32.5219 34.6738 32.3031 35.0683 31.991C35.4627 31.679 35.7813 31.2817 36.0004 30.829C36.2195 30.3763 36.3333 29.8799 36.3333 29.377V25.0436C36.3333 24.9552 36.2982 24.8704 36.2357 24.8079C36.1732 24.7454 36.0884 24.7103 36 24.7103H32.324C32.2576 23.9757 31.9704 23.2784 31.5 22.7103ZM25 13.377C26.0608 13.377 27.0782 13.7984 27.8284 14.5485C28.5785 15.2987 29 16.3161 29 17.377C29 18.4378 28.5785 19.4552 27.8284 20.2054C27.0782 20.9555 26.0608 21.377 25 21.377C23.9391 21.377 22.9217 20.9555 22.1715 20.2054C21.4214 19.4552 21 18.4378 21 17.377C21 16.3161 21.4214 15.2987 22.1715 14.5485C22.9217 13.7984 23.9391 13.377 25 13.377ZM33.6666 14.7103C34.5507 14.7103 35.3985 15.0615 36.0236 15.6866C36.6488 16.3117 37 17.1596 37 18.0436C37 18.9277 36.6488 19.7755 36.0236 20.4006C35.3985 21.0258 34.5507 21.377 33.6666 21.377C32.7826 21.377 31.9347 21.0258 31.3096 20.4006C30.6845 19.7755 30.3333 18.9277 30.3333 18.0436C30.3333 17.1596 30.6845 16.3117 31.3096 15.6866C31.9347 15.0615 32.7826 14.7103 33.6666 14.7103ZM16.3333 14.7103C17.2173 14.7103 18.0652 15.0615 18.6903 15.6866C19.3154 16.3117 19.6666 17.1596 19.6666 18.0436C19.6666 18.9277 19.3154 19.7755 18.6903 20.4006C18.0652 21.0258 17.2173 21.377 16.3333 21.377C15.4492 21.377 14.6014 21.0258 13.9763 20.4006C13.3511 19.7755 13 18.9277 13 18.0436C13 17.1596 13.3511 16.3117 13.9763 15.6866C14.6014 15.0615 15.4492 14.7103 16.3333 14.7103ZM25 15.377C24.4695 15.377 23.9608 15.5877 23.5857 15.9627C23.2107 16.3378 23 16.8465 23 17.377C23 17.9074 23.2107 18.4161 23.5857 18.7912C23.9608 19.1662 24.4695 19.377 25 19.377C25.5304 19.377 26.0391 19.1662 26.4142 18.7912C26.7892 18.4161 27 17.9074 27 17.377C27 16.8465 26.7892 16.3378 26.4142 15.9627C26.0391 15.5877 25.5304 15.377 25 15.377ZM33.6666 16.7103C33.313 16.7103 32.9739 16.8508 32.7238 17.1008C32.4738 17.3509 32.3333 17.69 32.3333 18.0436C32.3333 18.3972 32.4738 18.7364 32.7238 18.9864C32.9739 19.2365 33.313 19.377 33.6666 19.377C34.0202 19.377 34.3594 19.2365 34.6094 18.9864C34.8595 18.7364 35 18.3972 35 18.0436C35 17.69 34.8595 17.3509 34.6094 17.1008C34.3594 16.8508 34.0202 16.7103 33.6666 16.7103ZM16.3333 16.7103C15.9797 16.7103 15.6405 16.8508 15.3905 17.1008C15.1404 17.3509 15 17.69 15 18.0436C15 18.3972 15.1404 18.7364 15.3905 18.9864C15.6405 19.2365 15.9797 19.377 16.3333 19.377C16.6869 19.377 17.0261 19.2365 17.2761 18.9864C17.5262 18.7364 17.6666 18.3972 17.6666 18.0436C17.6666 17.69 17.5262 17.3509 17.2761 17.1008C17.0261 16.8508 16.6869 16.7103 16.3333 16.7103Z" fill="#069550"/>
</svg>
