<svg width="233" height="309" viewBox="0 0 233 309" fill="none" xmlns="http://www.w3.org/2000/svg">
<g clip-path="url(#clip0_15123_66830)">
<path d="M131.295 108.987C131.295 108.987 85.6054 95.6831 90.4247 127.66C95.2439 159.637 61.1346 143.05 64.0125 171.026C66.8904 199.001 175.025 237.904 185.396 202.438C195.767 166.973 161.351 156.747 163.82 138.963C166.289 121.179 140.933 110.971 131.295 108.987Z" fill="#E8EBF3"/>
<path d="M122.831 153.293L109.685 146.693C109.685 146.693 98.9563 145.889 92.4341 147.325C92.2729 147.358 92.1199 147.422 91.984 147.515C91.8482 147.608 91.7324 147.728 91.6434 147.866C91.5544 148.005 91.4942 148.16 91.4662 148.323C91.4382 148.486 91.4431 148.652 91.4805 148.813C91.5459 149.108 91.7182 149.367 91.9638 149.541C92.2093 149.715 92.5106 149.791 92.8088 149.754L98.769 149.104L95.5164 151.31C95.3163 151.447 95.1558 151.635 95.0512 151.855C94.9466 152.075 94.9015 152.318 94.9205 152.561C94.9395 152.804 95.0219 153.037 95.1594 153.238C95.2969 153.438 95.4847 153.599 95.7037 153.704C95.8956 153.804 96.1089 153.856 96.3253 153.856C96.5417 153.856 96.7549 153.804 96.9468 153.704C98.7519 152.712 104.406 150.096 109.923 153.225L104.814 155.533C104.589 155.65 104.392 155.815 104.238 156.017C104.084 156.219 103.977 156.454 103.925 156.703C103.873 156.952 103.877 157.209 103.936 157.457C103.996 157.704 104.11 157.935 104.269 158.133C104.445 158.333 104.668 158.487 104.918 158.58C105.167 158.672 105.436 158.701 105.7 158.663L110.485 158.047C114.015 159.347 117.906 159.25 121.367 157.773L122.831 153.293Z" fill="#F58A69"/>
<path d="M165.745 136.228C161.589 146.488 155.629 166.871 155.629 166.871L122.712 151.31L118.369 162.647L146.28 181.714L176.83 180.448L179.078 156.508L165.745 136.228Z" fill="#B6376C"/>
<path d="M171.245 129.541C168.87 131.258 166.975 133.561 165.744 136.227L163.769 196.881L217.751 197.463C217.751 197.463 217.224 144.453 206.393 131.713C206.393 131.713 202.987 124.976 185.635 124.873C180.461 124.82 175.41 126.459 171.245 129.541Z" fill="#EE5D70"/>
<path d="M134.343 179.662L133.849 169.744C133.849 169.744 130.341 162.357 127.122 162.254C124.498 162.419 122.031 163.566 120.209 165.469C120.024 165.645 119.884 165.863 119.802 166.106C119.72 166.348 119.699 166.607 119.739 166.86C119.779 167.112 119.88 167.351 120.033 167.556C120.186 167.76 120.387 167.924 120.617 168.034C122.593 168.919 124.341 170.247 125.726 171.915C125.726 171.915 124.159 179.884 126.799 183.15C128.127 184.86 135.978 186.69 135.978 186.69L134.343 179.662Z" fill="#F9AE83"/>
<path d="M187.763 134.432L181.462 174.566L134.053 176.584V193.427L185.039 192.196C185.865 192.269 186.697 192.153 187.473 191.856C188.249 191.56 188.948 191.092 189.517 190.486L190.028 190.742C190.028 190.742 203.839 190.982 207.721 143.632L187.763 134.432Z" fill="#EE5D70"/>
<path d="M186.997 141.238C186.758 147.998 186.242 154.735 185.447 161.45C185.103 164.828 184.494 168.172 183.625 171.454C183.5 171.883 183.353 172.305 183.182 172.719C183.08 172.95 182.96 173.173 182.825 173.386C182.723 173.506 182.672 173.608 182.552 173.728C182.406 173.853 182.246 173.962 182.075 174.053C181.205 174.29 180.316 174.456 179.419 174.549C177.716 174.737 176.013 174.908 174.31 175.044C167.578 175.523 160.857 175.894 154.148 176.156C147.438 176.395 140.712 176.583 133.985 176.566C140.695 175.968 147.387 175.506 154.097 175.027C160.806 174.549 167.516 174.189 174.191 173.608C175.894 173.488 177.597 173.335 179.181 173.164C179.959 173.092 180.733 172.972 181.497 172.804C181.666 172.617 181.804 172.404 181.905 172.172C182.062 171.809 182.198 171.438 182.314 171.06C183.168 167.831 183.828 164.554 184.289 161.245C185.379 154.644 186.162 147.941 186.997 141.238Z" fill="#B6376C"/>
<path d="M207.636 144.829C207.191 152.184 206.223 159.499 204.741 166.717C204.004 170.337 203.037 173.907 201.846 177.404C200.726 180.986 199.06 184.372 196.908 187.442C195.761 189.023 194.215 190.268 192.429 191.05C191.969 191.221 191.442 191.289 190.965 191.426L189.585 191.58L186.844 191.854C183.182 192.179 179.538 192.452 175.877 192.589C168.554 192.931 161.232 193.085 153.926 192.982C161.215 192.486 168.52 192.042 175.809 191.477C179.453 191.17 183.097 190.93 186.707 190.537L189.432 190.229L190.777 190.058C191.169 189.938 191.578 189.904 191.952 189.75C193.503 189.044 194.842 187.942 195.835 186.553C197.927 183.629 199.558 180.399 200.671 176.977C201.897 173.557 202.834 170.017 203.72 166.46C204.605 162.903 205.32 159.312 205.95 155.704C206.58 152.096 207.125 148.471 207.636 144.829Z" fill="#B6376C"/>
<path d="M183.557 174.412C184.185 174.512 184.786 174.743 185.32 175.091C185.854 175.438 186.309 175.895 186.656 176.43C187.086 176.921 187.395 177.507 187.559 178.14C187.698 178.783 187.656 179.452 187.44 180.072H187.32C186.933 179.603 186.607 179.086 186.35 178.533C186.077 178.037 186.026 177.473 185.788 176.96C185.569 176.444 185.263 175.97 184.885 175.558C184.522 175.12 184.061 174.774 183.54 174.549L183.557 174.412Z" fill="#B6376C"/>
<path d="M161.351 98.9154C160.721 100.899 160.074 102.951 159.444 105.106C159.107 105.911 158.965 106.785 159.03 107.655C159.095 108.526 159.364 109.369 159.816 110.115C160.269 110.861 160.89 111.488 161.631 111.946C162.371 112.404 163.209 112.68 164.076 112.749C163.517 114.14 163.349 115.658 163.589 117.138C163.829 118.619 164.469 120.004 165.438 121.145C166.363 122.188 167.596 122.906 168.956 123.195C170.316 123.484 171.733 123.329 172.999 122.753C173.73 123.479 174.601 124.047 175.559 124.424C176.516 124.8 177.54 124.976 178.567 124.942C184.391 125.198 186.452 122.821 186.452 122.821L192.514 121.624C193.315 122.052 193.996 125.044 200.416 125.66C202.012 125.893 203.64 125.743 205.167 125.223C206.694 124.703 208.077 123.827 209.203 122.667C210.804 125.677 218.058 125.01 218.79 120.188C219.488 115.656 217.36 113.844 217.087 113.639C220.902 116.255 227.066 108.885 220.272 102.13C218.403 100.429 216.629 98.6252 214.959 96.7266C215.719 96.8321 216.494 96.7365 217.206 96.449C217.919 96.1616 218.544 95.6925 219.021 95.0879C219.497 94.4834 219.808 93.7644 219.923 93.0022C220.038 92.2399 219.953 91.4607 219.676 90.7416C217.854 86.8086 214.703 88.4502 211.485 82.8072C207.21 75.3003 204.009 72.7695 203.822 72.6327C198.406 67.6395 190.471 65.4336 181.854 66.1518C174.515 66.7332 170.291 69.8283 167.873 72.9918C165.801 75.7331 164.704 79.0926 164.757 82.5336C164.757 83.2518 164.757 83.9529 164.757 84.654C163.769 87.1848 161.743 91.665 159.29 93.0501C158.673 93.4308 158.204 94.0126 157.962 94.6984C157.72 95.3843 157.72 96.1327 157.961 96.8189C158.202 97.505 158.67 98.0875 159.287 98.469C159.904 98.8506 160.632 99.0081 161.351 98.9154Z" fill="#471E53"/>
<path d="M171.637 93.8194C171.637 93.8194 167.754 89.5273 164.723 93.3748C162.049 96.7948 163.905 105.55 170.547 105.191L171.637 93.8194Z" fill="#F58A69"/>
<path d="M165.881 104.764C165.885 104.981 165.933 105.195 166.022 105.393C166.11 105.591 166.238 105.769 166.397 105.916C166.557 106.063 166.744 106.176 166.948 106.248C167.152 106.321 167.368 106.351 167.584 106.337C168.008 106.337 168.415 106.167 168.716 105.866C169.016 105.565 169.184 105.156 169.184 104.729C169.184 104.303 169.016 103.894 168.716 103.593C168.415 103.291 168.008 103.122 167.584 103.122C167.362 103.108 167.14 103.14 166.932 103.216C166.723 103.293 166.533 103.412 166.373 103.566C166.212 103.721 166.086 103.907 166.001 104.113C165.917 104.319 165.876 104.541 165.881 104.764Z" fill="white"/>
<path d="M179.095 126.994C179.504 130.995 187.78 133.184 192.327 126.327L192.668 117.537L192.906 111.091L177.92 114.288L178.857 124.446L179.095 126.994Z" fill="#F9AE83"/>
<path d="M178.959 125.694C184.068 125.694 189.773 122.017 192.582 119.521L192.906 111.125L177.92 114.322L178.959 125.694Z" fill="#F58A69"/>
<path d="M184.664 118.922C200.467 114.989 202.97 94.0418 202.97 94.0418C202.97 92.8963 202.879 91.7527 202.698 90.6218C202.509 89.3383 202.23 88.0697 201.863 86.8256C201.296 84.4952 200.185 82.3338 198.622 80.52C197.058 78.7062 195.087 77.2921 192.872 76.3946L192.378 76.2236C183.659 73.2995 171.041 74.9753 167.396 86.4836C167.171 87.2131 166.989 87.9554 166.851 88.7066C166.851 89.1683 166.698 89.6471 166.63 90.1259C165.183 102.096 170.462 122.462 184.664 118.922Z" fill="#F9AE83"/>
<path d="M187.44 97.53C187.965 97.5987 188.496 97.4582 188.919 97.1386C189.343 96.819 189.624 96.3457 189.705 95.82C189.752 95.4352 189.694 95.0447 189.534 94.6914C191.237 94.4691 191.237 93.4602 191.237 93.4602C190.982 93.8877 189.023 93.6825 188.223 93.5628H187.985H187.882C187.375 93.5702 186.889 93.7668 186.518 94.1142C186.147 94.4617 185.918 94.9352 185.876 95.4428C185.833 95.9503 185.98 96.4555 186.288 96.8603C186.596 97.265 187.043 97.5403 187.542 97.6326L187.44 97.53Z" fill="#471E53"/>
<path d="M200.246 94.5036C200.246 94.5036 205.882 91.2717 207.806 96.4359C209.509 100.984 204.401 109.74 197.487 107.038L200.246 94.5036Z" fill="#F9AE83"/>
<path d="M200.058 103.224C200.435 101.883 201.103 100.643 202.012 99.5905C202.922 98.5382 204.051 97.7004 205.32 97.1367C205.32 97.1367 201.676 100.728 201.438 103.447C201.425 103.621 201.348 103.784 201.222 103.904C201.096 104.024 200.93 104.093 200.756 104.096C200.645 104.113 200.531 104.099 200.427 104.058C200.322 104.017 200.23 103.948 200.159 103.86C200.089 103.772 200.043 103.667 200.025 103.556C200.007 103.444 200.019 103.33 200.058 103.224Z" fill="#F58A69"/>
<path d="M181.224 115.69C182.163 115.5 183.055 115.122 183.846 114.579C183.946 114.507 184.013 114.399 184.036 114.278C184.058 114.157 184.033 114.032 183.966 113.929C183.93 113.879 183.885 113.837 183.833 113.805C183.781 113.773 183.724 113.751 183.663 113.742C183.603 113.732 183.542 113.735 183.483 113.749C183.423 113.764 183.368 113.79 183.319 113.826C182.446 114.419 181.436 114.776 180.386 114.863C179.336 114.95 178.282 114.764 177.324 114.322C177.27 114.293 177.21 114.275 177.148 114.27C177.087 114.264 177.025 114.271 176.966 114.29C176.907 114.31 176.853 114.34 176.806 114.381C176.759 114.422 176.721 114.472 176.694 114.528C176.645 114.637 176.639 114.761 176.677 114.875C176.715 114.989 176.794 115.085 176.899 115.143C178.234 115.822 179.763 116.016 181.224 115.69Z" fill="#F58A69"/>
<path d="M178.959 104.558H181.36C181.491 104.558 181.617 104.506 181.709 104.413C181.802 104.32 181.854 104.194 181.854 104.063C181.854 103.931 181.802 103.805 181.709 103.712C181.617 103.619 181.491 103.567 181.36 103.567H178.942C178.933 103.551 178.928 103.533 178.928 103.515C178.928 103.497 178.933 103.48 178.942 103.464L180.815 96.624C180.847 96.4972 180.83 96.3627 180.767 96.2483C180.703 96.1338 180.599 96.048 180.475 96.0084C180.411 95.9905 180.344 95.9856 180.279 95.994C180.213 96.0024 180.15 96.024 180.092 96.0575C180.035 96.091 179.985 96.1358 179.946 96.189C179.906 96.2423 179.877 96.303 179.862 96.3675L177.988 103.208C177.946 103.374 177.941 103.547 177.973 103.716C178.006 103.885 178.075 104.044 178.176 104.182C178.377 104.406 178.659 104.542 178.959 104.558Z" fill="#F58A69"/>
<path d="M184.374 90.3484C184.386 90.4811 184.426 90.6099 184.49 90.7264C184.555 90.843 184.642 90.9447 184.748 91.0252C184.854 91.1057 184.975 91.1631 185.105 91.1938C185.234 91.2245 185.368 91.2278 185.498 91.2034C187.32 90.8443 191.186 90.3484 193.451 91.8874C193.451 91.8874 192.106 88.6555 185.226 89.3053C184.976 89.3313 184.746 89.4554 184.586 89.6508C184.427 89.8462 184.351 90.0969 184.374 90.3484Z" fill="#471E53"/>
<path d="M177.001 90.7416C176.977 90.8706 176.927 90.9933 176.854 91.1021C176.781 91.2109 176.686 91.3034 176.576 91.374C176.466 91.4446 176.342 91.4916 176.213 91.5123C176.084 91.5329 175.952 91.5267 175.826 91.494C174.021 91.0152 170.206 90.2457 167.839 91.6137C167.839 91.6137 169.406 88.4844 176.217 89.6301C176.342 89.6508 176.461 89.6961 176.568 89.7633C176.675 89.8305 176.767 89.9183 176.84 90.0217C176.913 90.1251 176.965 90.2419 176.992 90.3655C177.02 90.4891 177.023 90.6169 177.001 90.7416Z" fill="#471E53"/>
<path d="M173.987 97.5131C173.451 97.5967 172.905 97.4635 172.468 97.1429C172.03 96.8223 171.737 96.3404 171.654 95.8031C171.594 95.4215 171.641 95.0308 171.79 94.6745C170.087 94.5035 170.087 93.4946 170.087 93.4946C170.359 93.9221 172.301 93.6314 173.101 93.4946H173.339H173.459C173.994 93.4311 174.532 93.5837 174.955 93.9188C175.379 94.2539 175.652 94.7441 175.715 95.2815C175.778 95.8189 175.626 96.3596 175.293 96.7845C174.959 97.2094 174.471 97.4838 173.936 97.5473L173.987 97.5131Z" fill="#471E53"/>
<path d="M191.493 77.4037C191.493 77.4037 192.548 91.3744 199.139 96.8977C199.139 96.8977 199.633 93.187 204.707 93.6487C205.287 91.9907 205.665 90.2681 205.831 88.5187C206.495 84.295 203.515 66.9727 184.357 68.4433C184.357 68.4433 178.244 67.3147 169.832 74.8045C161.419 82.2943 166.63 90.1945 166.63 90.1945C175.953 88.3699 184.572 83.9358 191.493 77.4037Z" fill="#471E53"/>
<path d="M200.024 107.671C200.044 107.985 200.156 108.286 200.345 108.537C200.534 108.788 200.792 108.978 201.088 109.083C201.384 109.188 201.703 109.203 202.008 109.128C202.312 109.052 202.587 108.888 202.8 108.656C203.012 108.424 203.152 108.135 203.202 107.824C203.252 107.513 203.21 107.195 203.081 106.908C202.952 106.62 202.743 106.378 202.478 106.209C202.213 106.041 201.904 105.954 201.591 105.961C201.375 105.965 201.162 106.013 200.964 106.102C200.767 106.191 200.59 106.319 200.444 106.479C200.297 106.639 200.185 106.827 200.112 107.032C200.04 107.237 200.01 107.454 200.024 107.671Z" fill="white"/>
<path d="M186.469 106.987C186.368 107.915 186.138 108.824 185.788 109.688C185.462 110.688 184.857 111.572 184.044 112.236C183.232 112.9 182.248 113.315 181.207 113.433C178.074 113.724 175.707 113.433 174.242 111.176C173.548 110.043 173.09 108.781 172.897 107.465C173.112 107.582 173.333 107.685 173.561 107.773C175.685 108.642 178.001 108.925 180.27 108.594C182.158 108.36 184.014 107.918 185.805 107.277L186.469 106.987Z" fill="#921A1D"/>
<path d="M185.703 108.799C185.709 108.896 185.709 108.993 185.703 109.09C185.703 109.09 185.311 109.688 183.523 110.236C182.841 110.437 182.147 110.597 181.445 110.714C180.183 110.911 178.901 110.94 177.631 110.8C176.613 110.704 175.608 110.498 174.634 110.184C174.552 110.088 174.478 109.985 174.412 109.877C174.068 109.212 173.81 108.505 173.646 107.773C175.77 108.642 178.086 108.925 180.356 108.594C182.243 108.36 184.099 107.918 185.89 107.277C185.897 107.791 185.834 108.303 185.703 108.799Z" fill="white"/>
<path d="M185.788 109.688C185.462 110.688 184.857 111.572 184.045 112.236C183.232 112.9 182.248 113.315 181.207 113.433C178.074 113.724 175.707 113.433 174.242 111.176C174.285 110.901 174.36 110.631 174.464 110.372V110.184C176.141 110.544 177.862 110.659 179.572 110.526C180.959 110.416 182.33 110.152 183.659 109.74C184.244 109.571 184.814 109.354 185.362 109.09V109.329L185.788 109.688Z" fill="white"/>
<path d="M180.815 110.543C179.735 110.72 178.641 110.806 177.546 110.8C176.502 110.825 175.461 110.68 174.464 110.372V110.184C174.382 110.088 174.308 109.985 174.242 109.876C176.015 110.311 177.833 110.529 179.657 110.526L180.815 110.543Z" fill="#E2E2E2"/>
<path d="M185.618 109.09V109.329C184.956 109.815 184.183 110.127 183.37 110.235C182.416 110.406 181.326 110.475 181.326 110.475C182.162 110.32 182.979 110.073 183.761 109.74C184.408 109.485 185.03 109.17 185.618 108.799C185.624 108.896 185.624 108.993 185.618 109.09Z" fill="#E2E2E2"/>
<path d="M185.805 113.604V112.869C185.805 112.869 193.485 113.518 196.397 112.578C197.18 112.355 197.885 111.917 198.433 111.312C198.981 110.708 199.349 109.962 199.496 109.158L200.246 109.261C200.087 110.202 199.669 111.08 199.04 111.796C198.412 112.512 197.596 113.037 196.686 113.313C193.638 114.271 186.111 113.638 185.805 113.604Z" fill="#E6E8EF"/>
<path d="M186.97 113.794C187.166 112.919 186.084 111.928 184.552 111.581C183.02 111.234 181.618 111.662 181.422 112.537C181.225 113.412 182.308 114.403 183.84 114.75C185.372 115.097 186.773 114.669 186.97 113.794Z" fill="#481F54"/>
<path d="M209.974 102.075C211.097 97.0727 208.877 92.3082 205.015 91.4335C201.152 90.5587 197.11 93.9048 195.987 98.9073C194.863 103.91 197.083 108.674 200.946 109.549C204.808 110.424 208.85 107.078 209.974 102.075Z" fill="#E6E8EF"/>
<path d="M206.402 101.266C207.015 98.5394 205.979 95.9817 204.089 95.5537C202.199 95.1257 200.171 96.9893 199.558 99.7162C198.946 102.443 199.981 105.001 201.871 105.429C203.761 105.857 205.79 103.993 206.402 101.266Z" fill="#9A9CCE"/>
<path d="M7.32254 129.935L8.07182 127.797H9.38307L7.32254 126.292V124.36H10.1834L8.75299 123.18V121.675H45.7914V123.83L44.0203 124.155L47.7156 124.89V125.813H45.5019L46.5236 126.617L46.8301 127.9H45.1953L47.7156 128.874V129.935H7.32254Z" fill="#E6E8EF"/>
<g opacity="0.61">
<path opacity="0.61" d="M8.75299 123.18L45.7914 123.83L44.0203 124.155L10.1834 124.36L8.75299 123.18Z" fill="#9A9CCE"/>
<path opacity="0.61" d="M46.5236 126.617L7.32257 126.292L8.13997 126.891L46.5236 127.404V126.617Z" fill="#9A9CCE"/>
<path opacity="0.61" d="M45.5019 125.814L15.0878 125.403L47.7156 124.89V125.814H45.5019Z" fill="#9A9CCE"/>
<path opacity="0.61" d="M8.07181 127.797L45.1953 127.899L7.73123 128.754L8.07181 127.797Z" fill="#9A9CCE"/>
</g>
<path d="M7.32254 145.855L8.07182 142.913H9.38307L7.32254 140.844V138.177H10.1834L8.75299 136.552V134.483H45.7914V137.441L44.0203 137.886L47.7156 138.929V140.177H45.5019L46.5236 141.289L46.8301 143.067H45.1953L47.7156 144.401V145.855H7.32254Z" fill="#E6E8EF"/>
<g opacity="0.61">
<path opacity="0.61" d="M8.75299 136.552L45.7914 137.442L44.0203 137.886L10.1834 138.177L8.75299 136.552Z" fill="#9A9CCE"/>
<path opacity="0.61" d="M46.5236 141.289L7.32257 140.845L8.13997 141.666L46.5236 142.367V141.289Z" fill="#9A9CCE"/>
<path opacity="0.61" d="M45.5019 140.178L15.0878 139.613L47.7156 138.929V140.178H45.5019Z" fill="#9A9CCE"/>
<path opacity="0.61" d="M8.07181 142.914L45.1953 143.067L7.73123 144.247L8.07181 142.914Z" fill="#9A9CCE"/>
</g>
<path d="M7.32254 138.741L8.07182 135.783H9.38307L7.32254 133.714V131.046H10.1834L8.75299 129.422V127.353H45.7914V130.311L44.0203 130.755L47.7156 131.799V133.047H45.5019L46.5236 134.158L46.8301 135.937H45.1953L47.7156 137.271V138.741H7.32254Z" fill="#E6E8EF"/>
<g opacity="0.61">
<path opacity="0.61" d="M8.75299 129.421L45.7914 130.31L44.0203 130.755L10.1834 131.046L8.75299 129.421Z" fill="#9A9CCE"/>
<path opacity="0.61" d="M46.5236 134.158L7.32257 133.713L8.13997 134.534L46.5236 135.252V134.158Z" fill="#9A9CCE"/>
<path opacity="0.61" d="M45.5019 133.047L15.0878 132.482L47.7156 131.798V133.047H45.5019Z" fill="#9A9CCE"/>
<path opacity="0.61" d="M8.07181 135.782L45.1953 135.936L7.73123 137.116L8.07181 135.782Z" fill="#9A9CCE"/>
</g>
<path d="M49.5037 155.79H5.05768C4.1454 155.79 3.40585 156.532 3.40585 157.448V162.579C3.40585 163.495 4.1454 164.237 5.05768 164.237H49.5037C50.416 164.237 51.1555 163.495 51.1555 162.579V157.448C51.1555 156.532 50.416 155.79 49.5037 155.79Z" fill="#F15D6F"/>
<path d="M46.0638 195.736H7.98667C7.53502 195.736 7.10188 195.555 6.78252 195.235C6.46317 194.914 6.28375 194.479 6.28375 194.026V164.237H47.6816V194.077C47.6692 194.507 47.4958 194.917 47.196 195.224C46.8961 195.532 46.4918 195.714 46.0638 195.736Z" fill="#B2386A"/>
<path d="M31.1804 166.511H23.3981C22.4388 166.511 21.6611 167.289 21.6611 168.247C21.6611 169.206 22.4388 169.983 23.3981 169.983H31.1804C32.1397 169.983 32.9174 169.206 32.9174 168.247C32.9174 167.289 32.1397 166.511 31.1804 166.511Z" fill="#15153D"/>
<path d="M42.7091 180.978H32.5767C32.0313 180.978 31.5891 181.422 31.5891 181.97V190.708C31.5891 191.256 32.0313 191.7 32.5767 191.7H42.7091C43.2546 191.7 43.6968 191.256 43.6968 190.708V181.97C43.6968 181.422 43.2546 180.978 42.7091 180.978Z" fill="#F15D6F"/>
<path d="M7.32254 155.79L8.07182 152.849H9.38307L7.32254 150.763V148.112H10.1834L8.75299 146.488V144.401H45.7914V147.36L44.0203 147.804L47.7156 148.847V150.096H45.5019L46.5236 151.207L46.8301 152.986H45.1953L47.7156 154.319V155.79H7.32254Z" fill="#E6E8EF"/>
<g opacity="0.61">
<path opacity="0.61" d="M8.75299 146.488L45.7914 147.36L44.0203 147.804L10.1834 148.112L8.75299 146.488Z" fill="#9A9CCE"/>
<path opacity="0.61" d="M46.5236 151.207L7.32257 150.762L8.13997 151.583L46.5236 152.301V151.207Z" fill="#9A9CCE"/>
<path opacity="0.61" d="M45.5019 150.096L15.0878 149.531L47.7156 148.847V150.096H45.5019Z" fill="#9A9CCE"/>
<path opacity="0.61" d="M8.07181 152.849L45.1953 152.986L7.73123 154.183L8.07181 152.849Z" fill="#9A9CCE"/>
</g>
<path d="M21.7292 113.433C21.7292 113.433 18.119 108.303 16.0074 111.073C13.8958 113.843 17.5911 118.289 19.243 118.939C19.6882 119.125 20.1855 119.143 20.6427 118.989C21.0999 118.835 21.486 118.52 21.7292 118.101L21.3716 117.64C20.7969 117.842 20.1746 117.863 19.5875 117.701C19.0004 117.539 18.4763 117.202 18.085 116.733C16.7737 115.143 15.8712 112.082 17.4208 111.347C18.9705 110.612 21.7292 114.596 21.7292 114.596V113.433Z" fill="#7987A8"/>
<path d="M20.435 110.714V115.297C20.435 116.136 20.5999 116.967 20.9201 117.742C21.2404 118.517 21.7098 119.221 22.3014 119.813C22.8931 120.406 23.5953 120.875 24.3679 121.195C25.1405 121.514 25.9683 121.678 26.8039 121.675H29.8691C31.5538 121.675 33.1694 121.003 34.3606 119.807C35.5518 118.611 36.221 116.989 36.221 115.297V110.714C36.2233 110.589 36.2007 110.465 36.1547 110.349C36.1086 110.233 36.04 110.127 35.9528 110.038C35.8656 109.949 35.7616 109.878 35.6468 109.83C35.5321 109.781 35.4088 109.757 35.2844 109.757H21.3035C21.0656 109.778 20.8444 109.888 20.6836 110.066C20.5228 110.243 20.4341 110.474 20.435 110.714Z" fill="#9A9CCE"/>
<path d="M235.394 159.979C235.394 159.979 232.567 155.875 235.394 152.164C238.221 148.454 247.604 147.718 247.178 153.464C246.752 159.21 243.142 159.979 240.468 159.483C237.795 158.987 237.744 160.971 235.394 159.979Z" fill="#72C271"/>
<path d="M231.596 157.773C232.08 156.35 232.264 154.841 232.135 153.342C232.006 151.844 231.567 150.388 230.847 149.07C228.497 145.188 221.464 143.649 219.506 146.111C217.547 148.574 220.715 152.951 225.312 154.439C229.91 155.927 229.893 158.338 231.596 157.773Z" fill="#72C271"/>
<path d="M231.239 171.795C231.239 171.795 233.657 169.778 228.804 166.221C223.95 162.664 220.085 164.254 220.289 169.008C220.493 173.762 229.468 174.754 231.239 171.795Z" fill="#72C271"/>
<path d="M229.348 158.116C229.348 158.116 230.575 163.588 226.096 163.246C221.617 162.904 220.527 161.194 221.719 158.594C222.911 155.995 227.833 154.832 229.348 158.116Z" fill="#379968"/>
<path d="M232.294 190.264C232.187 190.264 232.084 190.224 232.005 190.151C231.926 190.078 231.877 189.978 231.869 189.87C231.869 189.409 230.574 178.499 233.674 173.608C235.266 170.915 237.339 168.538 239.787 166.597C239.832 166.562 239.884 166.537 239.939 166.523C239.994 166.509 240.052 166.506 240.108 166.516C240.164 166.526 240.217 166.547 240.265 166.579C240.312 166.61 240.353 166.652 240.383 166.7C240.416 166.746 240.439 166.798 240.452 166.853C240.464 166.908 240.466 166.965 240.456 167.02C240.447 167.076 240.426 167.129 240.396 167.177C240.366 167.225 240.327 167.266 240.281 167.298C237.942 169.218 235.954 171.533 234.406 174.138C231.477 178.772 232.703 189.734 232.703 189.836C232.713 189.893 232.711 189.951 232.696 190.006C232.682 190.062 232.657 190.114 232.622 190.159C232.586 190.204 232.542 190.241 232.492 190.268C232.441 190.295 232.385 190.311 232.328 190.315L232.294 190.264Z" fill="#5D53A3"/>
<path d="M233.027 176.583C232.918 176.579 232.814 176.535 232.736 176.46C232.657 176.384 232.609 176.282 232.601 176.173C232.368 172.465 232.482 168.744 232.942 165.058C233.708 160.509 238.629 155.003 238.834 154.798C238.873 154.756 238.921 154.724 238.974 154.701C239.026 154.679 239.083 154.667 239.14 154.667C239.197 154.667 239.254 154.679 239.307 154.701C239.359 154.724 239.407 154.756 239.447 154.798C239.488 154.838 239.521 154.886 239.543 154.938C239.565 154.991 239.577 155.048 239.577 155.106C239.577 155.163 239.565 155.22 239.543 155.273C239.521 155.326 239.488 155.374 239.447 155.413C239.447 155.413 234.491 160.954 233.776 165.263C233.326 168.881 233.212 172.533 233.435 176.173C233.44 176.288 233.4 176.4 233.324 176.487C233.248 176.573 233.141 176.626 233.027 176.635V176.583Z" fill="#5D53A3"/>
<path d="M234.253 162.767C234.183 162.766 234.113 162.749 234.051 162.716C233.989 162.683 233.936 162.636 233.895 162.579C233.895 162.579 232.345 160.236 231.153 158.064L227.748 151.925L228.514 151.498L231.92 157.637C233.095 159.791 234.61 162.066 234.627 162.1C234.686 162.198 234.704 162.315 234.679 162.426C234.653 162.538 234.586 162.635 234.491 162.698C234.421 162.746 234.337 162.77 234.253 162.767Z" fill="#5D53A3"/>
<path d="M223.575 159.483C223.491 159.481 223.408 159.456 223.336 159.411C223.265 159.366 223.206 159.302 223.167 159.227C223.126 159.118 223.128 158.997 223.172 158.889C223.216 158.781 223.3 158.694 223.405 158.646C223.61 158.646 228.514 156.508 232.431 158.646C232.516 158.71 232.574 158.804 232.596 158.908C232.618 159.013 232.602 159.122 232.55 159.216C232.498 159.309 232.415 159.381 232.315 159.418C232.214 159.454 232.104 159.453 232.005 159.415C228.446 157.466 223.797 159.415 223.746 159.415C223.697 159.455 223.638 159.479 223.575 159.483Z" fill="#5D53A3"/>
<path d="M232.976 175.266C232.888 175.269 232.801 175.244 232.728 175.195C232.655 175.146 232.599 175.075 232.567 174.993C231.948 173.499 231.021 172.154 229.847 171.045C228.673 169.937 227.278 169.091 225.755 168.563C225.642 168.563 225.534 168.518 225.454 168.438C225.374 168.358 225.33 168.249 225.33 168.136C225.334 168.016 225.384 167.903 225.47 167.82C225.556 167.737 225.67 167.691 225.789 167.691C227.493 168.226 229.059 169.13 230.377 170.338C231.695 171.546 232.733 173.03 233.418 174.685C233.457 174.794 233.452 174.914 233.405 175.019C233.357 175.125 233.27 175.207 233.163 175.249L232.976 175.266Z" fill="#5D53A3"/>
<path d="M229.893 196.881C228.356 196.878 226.869 196.334 225.689 195.344C224.51 194.353 223.714 192.979 223.439 191.46L222.06 183.697C221.943 183.286 221.918 182.854 221.986 182.432C222.054 182.01 222.215 181.608 222.455 181.255C222.696 180.902 223.011 180.607 223.379 180.391C223.746 180.175 224.156 180.042 224.58 180.003H242.171C242.598 180.052 243.008 180.194 243.374 180.421C243.739 180.647 244.05 180.952 244.284 181.313C244.519 181.674 244.67 182.083 244.729 182.509C244.788 182.936 244.752 183.371 244.623 183.783L242.921 191.683C242.59 193.136 241.778 194.435 240.619 195.366C239.459 196.298 238.02 196.808 236.535 196.813L229.893 196.881Z" fill="#303486"/>
<path d="M247.45 196.043H1.53261C1.30206 196.064 1.07815 196.132 0.874565 196.242C0.670984 196.353 0.492005 196.504 0.348565 196.687C0.205124 196.869 0.100234 197.079 0.0403013 197.303C-0.0196312 197.528 -0.0333469 197.762 -7.93859e-06 197.992V203.396C-0.0442847 203.859 0.0900632 204.321 0.375284 204.687C0.660505 205.052 1.07481 205.294 1.53261 205.362H247.45C247.911 205.298 248.33 205.058 248.618 204.692C248.907 204.325 249.044 203.861 249 203.396V197.992C249.033 197.761 249.019 197.525 248.958 197.3C248.897 197.074 248.791 196.863 248.645 196.681C248.5 196.498 248.319 196.347 248.114 196.238C247.908 196.128 247.682 196.062 247.45 196.043Z" fill="#5D53A2"/>
<path d="M152.104 192.555H60.2491C59.2992 192.555 58.5292 193.328 58.5292 194.282C58.5292 195.236 59.2992 196.009 60.2491 196.009H152.104C153.054 196.009 153.824 195.236 153.824 194.282C153.824 193.328 153.054 192.555 152.104 192.555Z" fill="#13143E"/>
<path d="M59.0911 196.266L44.1736 148.471C44.1069 148.256 44.0914 148.029 44.1283 147.807C44.1652 147.585 44.2535 147.375 44.386 147.194C44.5186 147.012 44.6917 146.865 44.8914 146.763C45.0911 146.661 45.3119 146.608 45.5359 146.607H106.177C106.486 146.607 106.787 146.709 107.033 146.898C107.279 147.086 107.457 147.351 107.539 147.65L121.162 196.437L59.0911 196.266Z" fill="#9A9BCB"/>
<path d="M79.8512 175.888C82.0714 175.111 83.1057 172.276 82.1614 169.556C81.2171 166.836 78.6518 165.261 76.4316 166.039C74.2114 166.816 73.1771 169.651 74.1214 172.371C75.0657 175.091 77.631 176.666 79.8512 175.888Z" fill="#E6E8EF"/>
<path d="M117.177 211.211H18.2893C17.8943 211.211 17.574 211.532 17.574 211.929V213.417C17.574 213.813 17.8943 214.135 18.2893 214.135H117.177C117.572 214.135 117.893 213.813 117.893 213.417V211.929C117.893 211.532 117.572 211.211 117.177 211.211Z" fill="#9A9BCB"/>
<path d="M166.238 211.211H126.595C126.2 211.211 125.879 211.532 125.879 211.929V213.417C125.879 213.813 126.2 214.135 126.595 214.135H166.238C166.633 214.135 166.954 213.813 166.954 213.417V211.929C166.954 211.532 166.633 211.211 166.238 211.211Z" fill="#9A9BCB"/>
<path d="M219.965 243.273H180.083C179.661 243.273 179.243 243.19 178.854 243.027C178.464 242.864 178.111 242.626 177.813 242.326C177.516 242.025 177.28 241.669 177.12 241.277C176.96 240.885 176.879 240.465 176.882 240.042V219.812C176.882 218.958 177.218 218.139 177.818 217.533C178.418 216.927 179.232 216.585 180.083 216.58H206.836L214.09 211.194C214.206 211.109 214.345 211.06 214.489 211.056C214.633 211.051 214.775 211.09 214.896 211.168C215.018 211.245 215.113 211.358 215.17 211.491C215.226 211.623 215.242 211.77 215.214 211.912L214.295 216.58H219.965C220.819 216.58 221.638 216.921 222.241 217.527C222.845 218.133 223.184 218.955 223.184 219.812V240.059C223.179 240.913 222.838 241.73 222.235 242.333C221.632 242.935 220.816 243.273 219.965 243.273Z" fill="#E6E8EF"/>
<path d="M191.68 232.894H186.367V231.748L188.819 229.149C189.303 228.698 189.621 228.095 189.722 227.439C189.743 227.17 189.664 226.901 189.5 226.687C189.425 226.599 189.331 226.529 189.224 226.485C189.118 226.44 189.002 226.421 188.887 226.43C188.757 226.429 188.629 226.459 188.513 226.519C188.397 226.578 188.298 226.665 188.223 226.772C188.047 227.022 187.958 227.322 187.968 227.627H186.265C186.255 227.171 186.372 226.721 186.604 226.328C186.836 225.935 187.172 225.615 187.576 225.404C188.006 225.177 188.486 225.059 188.972 225.062C189.658 225.012 190.337 225.219 190.88 225.644C191.116 225.857 191.299 226.122 191.414 226.419C191.53 226.716 191.574 227.036 191.544 227.354C191.546 227.653 191.488 227.95 191.373 228.226C191.252 228.553 191.08 228.859 190.862 229.132C190.508 229.576 190.127 229.999 189.722 230.397L188.734 231.526H191.731L191.68 232.894Z" fill="#95A2C4"/>
<path d="M197.231 229.901H198.015V231.304H197.231V233.014H195.528V231.304H192.582L192.48 230.226L195.528 225.284H197.231V229.901ZM194.098 229.901H195.46V227.559L195.358 227.73L194.098 229.901Z" fill="#95A2C4"/>
<path d="M202.085 233.561H200.842L203.43 225.25H204.69L202.085 233.561Z" fill="#95A2C4"/>
<path d="M213.188 226.174L210.344 232.877H208.471L211.331 226.584H207.755V225.233H213.256L213.188 226.174Z" fill="#95A2C4"/>
<g opacity="0.57">
<path opacity="0.57" d="M93.1664 120.615C92.4511 122.325 81.3822 129.165 78.1297 131.097C74.8771 133.03 72.8506 133.714 70.739 131.679C68.6274 129.644 62.6331 123.933 63.3654 121.521C63.4172 121.298 63.5434 121.099 63.723 120.957C63.723 120.957 82.5743 104.421 86.1674 105.567C86.2667 105.601 86.3591 105.654 86.4399 105.721C89.1645 108.183 93.8986 118.991 93.1664 120.615Z" fill="#9A9CCE"/>
</g>
<path d="M86.1674 105.636C84.4644 110.389 81.5695 118.991 80.5988 119.811C79.6282 120.632 69.2234 121.248 63.3654 121.521C63.4172 121.298 63.5433 121.099 63.723 120.957C63.723 120.957 82.5742 104.421 86.1674 105.636Z" fill="#E6E8EF"/>
<path d="M77.1039 120.504L73.3263 132.881L73.5054 132.936L77.283 120.56L77.1039 120.504Z" fill="#9A9CCE"/>
<path d="M81.6297 117.912L81.6026 118.098L93.2125 119.8L93.2396 119.614L81.6297 117.912Z" fill="#9A9CCE"/>
<path d="M146.11 68.8534V90.4336C146.11 91.3406 145.751 92.2105 145.112 92.8519C144.474 93.4933 143.607 93.8536 142.704 93.8536H127.497L119.766 99.6334C119.644 99.7281 119.497 99.7829 119.343 99.7906C119.19 99.7982 119.038 99.7582 118.908 99.6761C118.778 99.5939 118.676 99.4736 118.616 99.3314C118.556 99.1891 118.542 99.0319 118.574 98.881L119.545 93.9049H113.516C112.613 93.9049 111.747 93.5446 111.108 92.9032C110.469 92.2618 110.11 91.3919 110.11 90.4849V68.8534C110.11 67.9464 110.469 67.0765 111.108 66.4351C111.747 65.7937 112.613 65.4334 113.516 65.4334H142.687C143.136 65.4311 143.581 65.5179 143.996 65.6888C144.411 65.8597 144.788 66.1112 145.106 66.429C145.424 66.7468 145.677 67.1246 145.849 67.5407C146.021 67.9567 146.11 68.4028 146.11 68.8534Z" fill="#E6E8EF"/>
<path d="M133.474 84.7394L131.771 82.7387C131.736 82.7014 131.694 82.6717 131.647 82.6515C131.6 82.6312 131.55 82.6207 131.499 82.6207C131.448 82.6207 131.397 82.6312 131.351 82.6515C131.304 82.6717 131.261 82.7014 131.226 82.7387L130.256 83.5595C130.184 83.6357 130.144 83.7367 130.144 83.8416C130.144 83.9466 130.184 84.0476 130.256 84.1238C130.256 84.1238 129.2 84.3119 126.714 81.8324C125.146 80.167 124.238 77.984 124.159 75.6935C124.235 75.7657 124.336 75.8059 124.44 75.8059C124.545 75.8059 124.645 75.7657 124.721 75.6935L125.675 74.8556C125.712 74.8204 125.742 74.778 125.762 74.731C125.782 74.6839 125.792 74.6332 125.792 74.582C125.792 74.5308 125.782 74.4801 125.762 74.433C125.742 74.386 125.712 74.3436 125.675 74.3084L123.972 72.2906C123.896 72.2184 123.796 72.1782 123.691 72.1782C123.587 72.1782 123.486 72.2184 123.41 72.2906L122.456 73.1114C122.419 73.1466 122.39 73.189 122.37 73.236C122.349 73.2831 122.339 73.3338 122.339 73.385C122.339 73.4362 122.349 73.4869 122.37 73.534C122.39 73.581 122.419 73.6234 122.456 73.6586L122.61 73.9835C122.03 74.6352 121.637 75.4324 121.472 76.2905C121.307 77.1486 121.376 78.0354 121.673 78.857C122.576 82.0034 126.612 86.039 128.672 86.3981C128.916 86.4227 129.161 86.4227 129.404 86.3981C130.206 86.436 131.005 86.2836 131.737 85.9535L131.908 86.1587C131.981 86.2297 132.078 86.2695 132.18 86.2695C132.282 86.2695 132.38 86.2297 132.453 86.1587L133.423 85.3379C133.467 85.3032 133.504 85.2596 133.531 85.2101C133.557 85.1605 133.574 85.106 133.578 85.0498C133.583 84.9937 133.577 84.9371 133.559 84.8837C133.541 84.8303 133.512 84.7812 133.474 84.7394Z" fill="#95A2C4"/>
</g>
<defs>
<clipPath id="clip0_15123_66830">
<rect width="249" height="177.857" fill="white" transform="translate(0 65.4333)"/>
</clipPath>
</defs>
</svg>
