<svg width="28" height="29" viewBox="0 0 28 29" fill="none" xmlns="http://www.w3.org/2000/svg">
<rect y="0.376953" width="28" height="28" rx="14" fill="#F5F5F5"/>
<path d="M5.63477 10.7882C5.63477 9.36874 6.78549 8.21802 8.20499 8.21802H17.8891C19.3086 8.21802 20.4593 9.36874 20.4593 10.7882V20.9373C20.4593 22.3568 19.3086 23.5076 17.8891 23.5076H8.20499C6.78549 23.5076 5.63477 22.3568 5.63477 20.9373V10.7882Z" fill="#BA5E44"/>
<path d="M5.63477 10.7882C5.63477 9.36874 6.78549 8.21802 8.20499 8.21802V8.21802C8.78737 8.21802 9.25948 8.69013 9.25948 9.27251V22.4531C9.25948 23.0354 8.78737 23.5076 8.20499 23.5076V23.5076C6.78549 23.5076 5.63477 22.3568 5.63477 20.9373V10.7882Z" fill="#824042" fill-opacity="0.22"/>
<path d="M16.4465 17.7305C16.4465 16.6619 17.3128 15.7957 18.3814 15.7957H22.3652V17.0951C22.3652 18.5146 21.2145 19.6653 19.795 19.6653H18.3814C17.3128 19.6653 16.4465 18.7991 16.4465 17.7305Z" fill="#F8B46E"/>
<circle cx="18.4275" cy="17.7303" r="1.00985" fill="#994D47"/>
<path d="M5.63477 10.8072C5.63477 9.38774 6.78549 8.21802 8.20499 8.21802H17.8891C19.3086 8.21802 20.4593 9.38774 20.4593 10.8072C20.4593 12.2267 19.3086 13.3964 17.8891 13.3964H8.20499C6.78549 13.3964 5.63477 12.2267 5.63477 10.8072Z" fill="#824042"/>
<path d="M6.29956 10.7482C6.29956 9.67712 7.16785 8.80884 8.23893 8.80884H17.8551C18.9262 8.80884 19.7944 9.67712 19.7944 10.7482C19.7944 11.8193 18.9261 12.6876 17.8551 12.6876H8.23893C7.16784 12.6876 6.29956 11.8193 6.29956 10.7482Z" fill="#492930"/>
<path fill-rule="evenodd" clip-rule="evenodd" d="M5.80346 12.9868C5.89218 12.9868 5.9641 13.0587 5.9641 13.1475C5.9641 13.3591 6.01236 13.559 6.09833 13.7372C6.13688 13.8171 6.10336 13.9132 6.02345 13.9517C5.94355 13.9903 5.84752 13.9567 5.80897 13.8768C5.70245 13.656 5.64282 13.4085 5.64282 13.1475C5.64282 13.0587 5.71474 12.9868 5.80346 12.9868ZM20.3131 12.9868C20.4018 12.9868 20.4737 13.0587 20.4737 13.1475C20.4737 13.4085 20.4141 13.656 20.3076 13.8768C20.269 13.9567 20.173 13.9903 20.0931 13.9517C20.0132 13.9132 19.9797 13.8171 20.0182 13.7372C20.1042 13.559 20.1524 13.3591 20.1524 13.1475C20.1524 13.0587 20.2244 12.9868 20.3131 12.9868ZM6.51907 14.4473C6.55762 14.3674 6.65365 14.3339 6.73355 14.3725C6.91175 14.4584 7.11168 14.5067 7.32333 14.5067H7.97875C8.06747 14.5067 8.13939 14.5786 8.13939 14.6673C8.13939 14.756 8.06747 14.828 7.97875 14.828H7.32333C7.06231 14.828 6.81475 14.7683 6.59395 14.6618C6.51405 14.6233 6.48052 14.5272 6.51907 14.4473ZM19.5975 14.4473C19.636 14.5272 19.6025 14.6233 19.5226 14.6618C19.3018 14.7683 19.0542 14.828 18.7932 14.828H18.1378C18.0491 14.828 17.9771 14.756 17.9771 14.6673C17.9771 14.5786 18.0491 14.5067 18.1378 14.5067H18.7932C19.0049 14.5067 19.2048 14.4584 19.383 14.3725C19.4629 14.3339 19.5589 14.3674 19.5975 14.4473ZM8.80125 14.6673C8.80125 14.5786 8.87317 14.5067 8.96189 14.5067H10.2727C10.3614 14.5067 10.4334 14.5786 10.4334 14.6673C10.4334 14.756 10.3614 14.828 10.2727 14.828H8.96189C8.87317 14.828 8.80125 14.756 8.80125 14.6673ZM11.0952 14.6673C11.0952 14.5786 11.1671 14.5067 11.2559 14.5067H12.5667C12.6554 14.5067 12.7273 14.5786 12.7273 14.6673C12.7273 14.756 12.6554 14.828 12.5667 14.828H11.2559C11.1671 14.828 11.0952 14.756 11.0952 14.6673ZM13.3892 14.6673C13.3892 14.5786 13.4611 14.5067 13.5498 14.5067H14.8607C14.9494 14.5067 15.0213 14.5786 15.0213 14.6673C15.0213 14.756 14.9494 14.828 14.8607 14.828H13.5498C13.4611 14.828 13.3892 14.756 13.3892 14.6673ZM15.6832 14.6673C15.6832 14.5786 15.7551 14.5067 15.8438 14.5067H17.1546C17.2434 14.5067 17.3153 14.5786 17.3153 14.6673C17.3153 14.756 17.2434 14.828 17.1546 14.828H15.8438C15.7551 14.828 15.6832 14.756 15.6832 14.6673Z" fill="#D37F52"/>
<path fill-rule="evenodd" clip-rule="evenodd" d="M5.80346 19.9543C5.89218 19.9543 5.9641 20.0263 5.9641 20.115C5.9641 20.3266 6.01236 20.5266 6.09833 20.7048C6.13688 20.7847 6.10336 20.8807 6.02345 20.9192C5.94355 20.9578 5.84752 20.9243 5.80897 20.8444C5.70245 20.6236 5.64282 20.376 5.64282 20.115C5.64282 20.0263 5.71474 19.9543 5.80346 19.9543ZM20.3131 19.9543C20.4018 19.9543 20.4737 20.0263 20.4737 20.115C20.4737 20.376 20.4141 20.6236 20.3076 20.8444C20.269 20.9243 20.173 20.9578 20.0931 20.9192C20.0132 20.8807 19.9797 20.7847 20.0182 20.7048C20.1042 20.5266 20.1524 20.3266 20.1524 20.115C20.1524 20.0263 20.2244 19.9543 20.3131 19.9543ZM6.51907 21.4149C6.55762 21.335 6.65365 21.3014 6.73355 21.34C6.91175 21.426 7.11168 21.4742 7.32333 21.4742H7.97875C8.06747 21.4742 8.13939 21.5461 8.13939 21.6349C8.13939 21.7236 8.06747 21.7955 7.97875 21.7955H7.32333C7.06231 21.7955 6.81475 21.7359 6.59395 21.6293C6.51405 21.5908 6.48052 21.4948 6.51907 21.4149ZM19.5975 21.4149C19.636 21.4948 19.6025 21.5908 19.5226 21.6293C19.3018 21.7359 19.0542 21.7955 18.7932 21.7955H18.1378C18.0491 21.7955 17.9771 21.7236 17.9771 21.6349C17.9771 21.5461 18.0491 21.4742 18.1378 21.4742H18.7932C19.0049 21.4742 19.2048 21.426 19.383 21.34C19.4629 21.3014 19.5589 21.335 19.5975 21.4149ZM8.80125 21.6349C8.80125 21.5461 8.87317 21.4742 8.96189 21.4742H10.2727C10.3614 21.4742 10.4334 21.5461 10.4334 21.6349C10.4334 21.7236 10.3614 21.7955 10.2727 21.7955H8.96189C8.87317 21.7955 8.80125 21.7236 8.80125 21.6349ZM11.0952 21.6349C11.0952 21.5461 11.1671 21.4742 11.2559 21.4742H12.5667C12.6554 21.4742 12.7273 21.5461 12.7273 21.6349C12.7273 21.7236 12.6554 21.7955 12.5667 21.7955H11.2559C11.1671 21.7955 11.0952 21.7236 11.0952 21.6349ZM13.3892 21.6349C13.3892 21.5461 13.4611 21.4742 13.5498 21.4742H14.8607C14.9494 21.4742 15.0213 21.5461 15.0213 21.6349C15.0213 21.7236 14.9494 21.7955 14.8607 21.7955H13.5498C13.4611 21.7955 13.3892 21.7236 13.3892 21.6349ZM15.6832 21.6349C15.6832 21.5461 15.7551 21.4742 15.8438 21.4742H17.1546C17.2434 21.4742 17.3153 21.5461 17.3153 21.6349C17.3153 21.7236 17.2434 21.7955 17.1546 21.7955H15.8438C15.7551 21.7955 15.6832 21.7236 15.6832 21.6349Z" fill="#D37F52"/>
<path d="M20.4592 14.1577H21.4014C21.9337 14.1577 22.3652 14.5892 22.3652 15.1215V15.7956H20.4592V14.1577Z" fill="#F8B46E"/>
<path d="M20.4592 14.6675H21.0404C21.3519 14.6675 21.6044 14.92 21.6044 15.2315C21.6044 15.5431 21.3519 15.7956 21.0404 15.7956H20.4592V14.6675Z" fill="#994D47"/>
<path d="M11.4807 6.21041C11.4807 5.6781 11.9122 5.24658 12.4445 5.24658H18.045C18.5773 5.24658 19.0088 5.6781 19.0088 6.21041V11.7236C19.0088 12.2559 18.5773 12.6875 18.045 12.6875H11.4807V6.21041Z" fill="#F88029"/>
<path d="M16.2202 12.6874C16.2202 12.5593 16.195 12.4324 16.1459 12.3141C16.0969 12.1957 16.0251 12.0882 15.9345 11.9976C15.8439 11.907 15.7364 11.8352 15.618 11.7862C15.4997 11.7371 15.3728 11.7119 15.2447 11.7119C15.1166 11.7119 14.9898 11.7371 14.8715 11.7862C14.7531 11.8352 14.6456 11.907 14.555 11.9976C14.4644 12.0882 14.3926 12.1957 14.3435 12.3141C14.2945 12.4324 14.2693 12.5593 14.2693 12.6874L15.2447 12.6874H16.2202Z" fill="#F88029"/>
<path d="M12.5141 7.76113C13.0529 7.76113 13.4896 7.3244 13.4896 6.78568C13.4896 6.56643 13.4173 6.36407 13.2952 6.20117H17.1998C17.0095 6.37918 16.8906 6.63253 16.8906 6.91365C16.8906 7.45237 17.3273 7.8891 17.866 7.8891C17.9788 7.8891 18.087 7.86998 18.1877 7.83481V12.6875H12.3019V7.73797C12.3702 7.75313 12.4412 7.76113 12.5141 7.76113Z" fill="#FFB63B"/>
<path d="M8.06372 9.80146C8.06372 8.92695 8.77265 8.21802 9.64716 8.21802H14.1811C15.0556 8.21802 15.7645 8.92695 15.7645 9.80146V12.6876H8.06372V9.80146Z" fill="black" fill-opacity="0.2"/>
<path d="M7.48572 7.81857C7.48572 7.28626 7.91724 6.85474 8.44955 6.85474H14.05C14.5823 6.85474 15.0138 7.28626 15.0138 7.81857V12.6874H7.807C7.62956 12.6874 7.48572 12.5436 7.48572 12.3662V7.81857Z" fill="#5C9937"/>
<path d="M8.51915 9.36928C9.05787 9.36928 9.4946 8.93256 9.4946 8.39383C9.4946 8.17458 9.42226 7.97222 9.30016 7.80933H13.2048C13.0145 7.98733 12.8956 8.24068 12.8956 8.5218C12.8956 9.06053 13.3323 9.49725 13.8711 9.49725C13.9838 9.49725 14.092 9.47814 14.1927 9.44297V12.6875H8.30688V9.34612C8.37522 9.36129 8.44625 9.36928 8.51915 9.36928Z" fill="#92BE30"/>
</svg>
