<svg width="49" height="49" viewBox="0 0 49 49" fill="none" xmlns="http://www.w3.org/2000/svg">
<rect x="0.5" y="0.5" width="48" height="48" rx="24" fill="#FAFAFA"/>
<g clip-path="url(#clip0_15652_157237)">
<path d="M15.1543 10.4805H33.0669C34.3573 10.4805 35.4033 11.5265 35.4033 12.8169V36.1812C35.4033 37.4715 34.3573 38.5176 33.0669 38.5176H17.4907C16.2004 38.5176 15.1543 37.4715 15.1543 36.1812V10.4805Z" fill="#16A75C"/>
<rect x="18.0223" y="14.9902" width="13.9683" height="2" rx="1" fill="white"/>
<rect x="18.0223" y="19.0059" width="9.98096" height="2" rx="1" fill="#9BDBB3"/>
<rect x="18.0223" y="23.0234" width="9.98096" height="2" rx="1" fill="#9BDBB3"/>
<path d="M15.1543 32.8712C15.1543 32.5486 15.4158 32.2871 15.7384 32.2871H37.9344C38.257 32.2871 38.5186 32.5486 38.5186 32.8712V35.0129C38.5186 36.9485 36.9495 38.5176 35.0139 38.5176H18.2695C16.549 38.5176 15.1543 37.1228 15.1543 35.4023V32.8712Z" fill="#4DC27E"/>
<path d="M15.1543 32.2871H19.8271V36.1812C19.8271 37.4715 18.7811 38.5176 17.4907 38.5176C16.2004 38.5176 15.1543 37.4715 15.1543 36.1812V32.2871Z" fill="#16A75C"/>
<path d="M12.0391 12.0381C12.0391 11.1778 12.7364 10.4805 13.5967 10.4805H15.1543V13.5957H12.0391V12.0381Z" fill="#16A75C"/>
<path d="M10.4814 12.8169C10.4814 11.5265 11.5275 10.4805 12.8179 10.4805C14.1082 10.4805 15.1543 11.5265 15.1543 12.8169V18.2686H11.0656C10.743 18.2686 10.4814 18.007 10.4814 17.6844V12.8169Z" fill="#069550"/>
</g>
<defs>
<clipPath id="clip0_15652_157237">
<rect width="28.0371" height="28.0371" fill="white" transform="translate(10.4814 10.4805)"/>
</clipPath>
</defs>
</svg>
