<svg width="24" height="19" viewBox="0 0 24 19" fill="none" xmlns="http://www.w3.org/2000/svg">
<path d="M23.643 2.31403C22.808 2.68403 21.911 2.93403 20.968 3.04703C21.941 2.46482 22.669 1.5485 23.016 0.46903C22.1019 1.01202 21.1014 1.39423 20.058 1.59903C19.3564 0.849895 18.4271 0.353356 17.4143 0.186504C16.4016 0.0196519 15.3621 0.191822 14.4572 0.676283C13.5524 1.16074 12.8328 1.93039 12.4102 2.86573C11.9875 3.80108 11.8855 4.84978 12.12 5.84903C10.2677 5.75603 8.45564 5.27458 6.80144 4.43594C5.14723 3.59729 3.68785 2.42019 2.51801 0.98103C2.11801 1.67103 1.88801 2.47103 1.88801 3.32303C1.88757 4.09003 2.07644 4.84527 2.43789 5.52176C2.79934 6.19825 3.32217 6.77507 3.96001 7.20103C3.22029 7.17749 2.49688 6.97761 1.85001 6.61803V6.67803C1.84994 7.75377 2.22204 8.79641 2.90319 9.62903C3.58434 10.4616 4.53258 11.033 5.58701 11.246C4.9008 11.4317 4.18135 11.4591 3.48301 11.326C3.78051 12.2516 4.36001 13.0611 5.14038 13.641C5.92075 14.2209 6.86293 14.5422 7.83501 14.56C6.18484 15.8554 4.1469 16.5581 2.04901 16.555C1.67739 16.5551 1.30609 16.5334 0.937012 16.49C3.06649 17.8592 5.54535 18.5859 8.07701 18.583C16.647 18.583 21.332 11.485 21.332 5.32903C21.332 5.12903 21.327 4.92703 21.318 4.72703C22.2293 4.068 23.0159 3.25193 23.641 2.31703L23.643 2.31403Z" fill="#42A5F5"/>
</svg>
